<svg width="508" height="346" viewBox="0 0 508 346" fill="none" xmlns="http://www.w3.org/2000/svg">
  <g clip-path="url(#clip0_46_3)">
  <path d="M29.2694 209.999C1.07043 183.574 -3.98131 131.533 3.18189 93.5719C10.3451 55.6109 37.9027 22.1165 73.7976 7.7899C109.693 -6.53668 152.731 -1.30102 184.137 21.2587C209.149 39.194 226.948 67.1077 254.92 80.0341C278.797 91.0675 307.638 98.2061 333.538 93.5916C359.438 88.9771 383.354 69.7896 409.6 67.9556C446.748 65.3033 475.026 77.648 489.234 99.7837C501.153 118.37 513.831 145.81 505.02 179.029C498.114 204.803 484.379 234.649 446.807 263.105C399.023 299.34 338.047 302.772 273.894 302.545C231.467 302.407 156.944 294.716 116.343 279.985C79.471 266.615 49.6934 241.738 29.2792 210.028" fill="#EBEBEB"/>
  <path d="M149.81 122.324C150.866 122.389 151.923 122.242 152.92 121.89C153.918 121.539 154.834 120.992 155.615 120.28C156.397 119.568 157.027 118.707 157.469 117.747C157.911 116.787 158.155 115.748 158.187 114.692C158.296 110.413 158.394 106.094 158.394 106.094C158.394 106.094 164.867 105.404 165.301 98.9949C165.735 92.5859 165.301 77.7762 165.301 77.7762C161.725 76.028 157.747 75.2645 153.777 75.5644C149.807 75.8642 145.989 77.2165 142.716 79.4819L141.73 80.1721L142.489 114.682C142.545 116.636 143.325 118.499 144.678 119.911C146.031 121.323 147.86 122.183 149.81 122.324V122.324Z" fill="#B78876"/>
  <path d="M162.351 89.0954C162.219 88.9646 162.13 88.7977 162.093 88.6159C162.057 88.434 162.075 88.2454 162.146 88.074C162.216 87.9026 162.337 87.756 162.491 87.6528C162.645 87.5497 162.826 87.4946 163.012 87.4946C163.198 87.4946 163.379 87.5497 163.533 87.6528C163.688 87.756 163.808 87.9026 163.879 88.074C163.949 88.2454 163.968 88.434 163.931 88.6159C163.894 88.7977 163.805 88.9646 163.673 89.0954C163.497 89.27 163.26 89.368 163.012 89.368C162.764 89.368 162.527 89.27 162.351 89.0954V89.0954Z" fill="#263238"/>
  <path d="M164.847 87.9813C164.739 88.0898 164.127 87.5672 163.249 87.5277C162.371 87.4883 161.7 87.9024 161.601 87.7841C161.503 87.6658 161.67 87.5376 161.956 87.3305C162.349 87.0782 162.812 86.9573 163.278 86.9854C163.744 87.0143 164.188 87.1943 164.541 87.4982C164.808 87.7249 164.897 87.932 164.847 87.9813Z" fill="#263238"/>
  <path d="M153.954 87.9813C154.083 88.0362 154.197 88.1191 154.289 88.2238C154.381 88.3286 154.449 88.4526 154.487 88.5868C154.525 88.7209 154.533 88.8619 154.509 88.9994C154.486 89.1369 154.432 89.2674 154.352 89.3815C154.271 89.4955 154.167 89.5902 154.045 89.6586C153.923 89.727 153.788 89.7674 153.649 89.7768C153.509 89.7863 153.37 89.7645 153.24 89.7132C153.11 89.6618 152.994 89.5822 152.899 89.48C152.719 89.3307 152.602 89.1198 152.57 88.8888C152.538 88.6577 152.594 88.423 152.726 88.2306C152.858 88.0382 153.057 87.902 153.284 87.8486C153.511 87.7952 153.75 87.8285 153.954 87.9419V87.9813Z" fill="#263238"/>
  <path d="M155.198 88.2968C155.089 88.4053 154.487 87.8827 153.599 87.8433C152.711 87.8038 152.05 88.218 151.961 88.0996C151.873 87.9813 152.021 87.8531 152.317 87.6461C152.708 87.3926 153.171 87.2721 153.637 87.3023C154.103 87.3325 154.546 87.5118 154.902 87.8137C155.168 88.0405 155.267 88.2475 155.198 88.2968Z" fill="#263238"/>
  <path d="M158.424 95.12C158.888 94.9626 159.375 94.8859 159.865 94.8932C160.101 94.8932 160.279 94.834 160.309 94.7058C160.327 94.4738 160.279 94.2413 160.17 94.0353C159.973 93.4437 159.776 92.8423 159.559 92.2113C158.975 90.6564 158.545 89.0481 158.276 87.4094C159.023 88.8926 159.615 90.4489 160.042 92.0535L160.614 93.8973C160.752 94.2076 160.779 94.5552 160.693 94.8833C160.655 94.9697 160.598 95.0464 160.526 95.1078C160.455 95.1693 160.37 95.2138 160.279 95.2383C160.145 95.2565 160.009 95.2565 159.874 95.2383C159.388 95.2859 158.896 95.2458 158.424 95.12V95.12Z" fill="#263238"/>
  <path d="M155.494 95.958L159.776 97.437C159.45 97.8909 158.979 98.2203 158.441 98.3709C157.903 98.5214 157.33 98.4842 156.816 98.2652C154.951 97.4666 155.494 95.958 155.494 95.958Z" fill="white"/>
  <path d="M158.404 105.995C155.436 105.904 152.561 104.932 150.146 103.205C150.146 103.205 151.902 107.928 158.335 107.662L158.404 105.995Z" fill="#A36957"/>
  <path d="M163.89 76.0901C158.593 74.233 152.874 73.9352 147.413 75.2323C147.413 75.2323 141.957 77.2043 141.71 80.1623C141.591 82.5754 141.644 84.9939 141.868 87.3995V87.3995L142.331 92.3295H144.305L144.502 85.6445C144.502 85.6445 148.251 82.9921 148.281 78.9298C150.116 78.6636 159.134 77.4902 165.331 79.5115V78.0818C165.319 77.6436 165.175 77.219 164.918 76.8637C164.661 76.5084 164.303 76.2388 163.89 76.0901Z" fill="#263238"/>
  <path d="M142.598 87.9222C142.598 87.6607 142.494 87.4099 142.309 87.2249C142.124 87.04 141.873 86.9362 141.611 86.9362C140.417 86.9362 138.464 87.4094 138.316 90.7224C138.109 95.4453 142.637 94.2128 142.657 94.0748C142.677 93.9368 142.637 89.7561 142.598 87.9222Z" fill="#B78876"/>
  <path d="M141.641 92.2605C141.641 92.2605 141.552 92.3197 141.414 92.3788C141.217 92.4568 140.999 92.4568 140.802 92.3788C140.505 92.1727 140.269 91.8917 140.116 91.5643C139.964 91.2369 139.901 90.8749 139.934 90.5153C139.942 90.108 140.04 89.7074 140.22 89.342C140.269 89.1965 140.353 89.0654 140.465 88.9604C140.577 88.8555 140.713 88.7799 140.861 88.7405C140.957 88.7171 141.058 88.7292 141.145 88.7746C141.232 88.8199 141.299 88.8954 141.335 88.987C141.394 89.125 141.335 89.2138 141.384 89.2236C141.434 89.2335 141.493 89.1448 141.463 88.9476C141.439 88.832 141.376 88.7279 141.286 88.6518C141.163 88.5456 141.003 88.4924 140.842 88.5039C140.645 88.5357 140.46 88.6166 140.303 88.7389C140.146 88.8613 140.022 89.0212 139.944 89.2039C139.727 89.6037 139.612 90.0506 139.608 90.5054C139.567 90.9238 139.649 91.3452 139.846 91.717C140.042 92.0887 140.344 92.3944 140.713 92.5957C140.838 92.6414 140.972 92.6572 141.104 92.6418C141.236 92.6264 141.362 92.5802 141.473 92.507C141.631 92.3788 141.661 92.2704 141.641 92.2605Z" fill="#A36957"/>
  <path d="M236.173 93.1874C234.891 92.7437 232.227 99.6457 231.97 97.8314C231.714 96.0172 236.163 89.7561 234.802 89.342C233.026 88.7997 230.411 96.0862 230.145 96.6778C229.878 97.2694 229 96.9145 229.267 96.3919C229.652 95.6228 233.539 87.5179 231.802 86.9953C230.816 86.6896 230.451 88.4743 230.451 88.4743C230.451 88.4743 227.372 96.3031 226.563 96.0172C225.754 95.7313 227.392 91.0872 228.063 89.5392C228.734 87.9912 228.27 87.0939 227.353 87.3601C226.731 87.5376 224.58 92.1817 223.949 93.71C223.317 95.2383 221.689 99.4583 220.801 96.7173C219.913 93.9762 218.196 92.2112 217.397 92.0535C217.21 92.0354 217.023 92.0761 216.861 92.1699C216.698 92.2638 216.569 92.4061 216.492 92.5768C216.415 92.7476 216.393 92.9382 216.43 93.122C216.466 93.3057 216.56 93.4734 216.697 93.6015C217.282 94.3789 217.753 95.2354 218.098 96.1454C218.406 96.8651 218.589 97.632 218.64 98.4132C218.768 99.9797 218.742 101.555 218.561 103.116L202.725 131.602L177.309 122.018L173.816 136.532C173.816 136.532 207.205 151.233 209.287 150.099C214.003 147.536 228.823 106.084 228.823 106.084C231.02 103.272 233.062 100.343 234.94 97.3089C237.022 93.5522 236.696 93.355 236.173 93.1874Z" fill="#B78876"/>
  <path d="M193.046 127.007C185.982 123.487 180.979 121.407 177.111 118.991C165.104 111.488 161.986 113.223 159.174 112.907C156.826 113.657 153.362 115.077 152.04 115.333C150.718 115.589 145.874 114.022 142.746 113.095C135.494 113.499 131.093 116.634 124.453 121.643L110.965 132.332L126.93 148.64L131.863 144.893C132.159 152.278 132.425 152.347 132.8 159.92L133.116 189.086L178.236 191.058L175.395 161.921L174.013 138.997L186.949 145.248L193.076 127.007" fill="#6878F4"/>
  <path d="M142.124 113.962L142.065 109.279C142.065 109.279 150.126 110.028 151.833 115.599L142.124 113.962Z" fill="#6878F4"/>
  <path d="M159.213 113.617L158.493 109.082C156.829 109.315 155.283 110.073 154.08 111.245C152.877 112.417 152.079 113.943 151.803 115.599L159.213 113.617Z" fill="#6878F4"/>
  <path d="M160.042 130.192C160.553 130.097 161.072 130.055 161.591 130.064C162.578 130.064 164.127 129.945 165.962 129.896H166.179V130.113C166.179 131.898 166.248 133.939 166.298 136.137V136.266L166.189 136.345L165.755 136.65L163.456 138.267L163.318 138.366L163.18 138.277L160.003 136.305L159.894 136.236V136.118C159.894 134.294 159.894 132.795 159.953 131.77C159.942 131.252 159.971 130.734 160.042 130.221C160.123 130.771 160.176 131.323 160.2 131.878C160.2 132.913 160.318 134.363 160.358 136.088L160.259 135.901L163.466 137.873H163.16L165.459 136.246L165.883 135.94L165.775 136.147C165.775 133.958 165.775 131.908 165.775 130.133L165.992 130.34C164.255 130.34 162.805 130.34 161.769 130.281C161.192 130.282 160.616 130.252 160.042 130.192V130.192Z" fill="#263238"/>
  <path d="M165.834 131.592C164.868 131.838 163.867 131.921 162.874 131.839C161.88 131.923 160.879 131.836 159.914 131.582C160.878 131.323 161.88 131.237 162.874 131.326C163.868 131.238 164.871 131.328 165.834 131.592V131.592Z" fill="#263238"/>
  <path d="M152.001 124.345C151.721 122.907 151.615 121.44 151.685 119.977C151.579 118.515 151.648 117.045 151.892 115.599C152.16 117.039 152.263 118.504 152.198 119.967C152.298 121.429 152.232 122.898 152.001 124.345V124.345Z" fill="#263238"/>
  <path d="M153.609 116.763C153.609 116.704 153.816 116.585 154.073 116.763C154.149 116.831 154.208 116.917 154.244 117.014C154.28 117.11 154.292 117.213 154.28 117.315C154.252 117.445 154.186 117.564 154.09 117.657C153.994 117.749 153.873 117.811 153.741 117.834C153.61 117.858 153.475 117.841 153.353 117.787C153.231 117.733 153.128 117.644 153.057 117.532C153.005 117.444 152.977 117.343 152.977 117.241C152.977 117.139 153.005 117.038 153.057 116.95C153.224 116.654 153.481 116.684 153.481 116.743C153.481 116.802 153.402 116.911 153.392 117.068C153.382 117.226 153.461 117.354 153.649 117.325C153.836 117.295 153.856 117.177 153.797 116.999C153.737 116.822 153.609 116.832 153.609 116.763Z" fill="#263238"/>
  <path d="M154.221 120.253C154.221 120.184 154.477 120.184 154.635 120.48C154.68 120.568 154.704 120.666 154.704 120.766C154.704 120.865 154.68 120.963 154.635 121.052C154.571 121.165 154.477 121.259 154.363 121.323C154.249 121.387 154.119 121.418 153.989 121.412C153.858 121.407 153.732 121.366 153.623 121.294C153.514 121.222 153.427 121.121 153.372 121.002C153.336 120.91 153.322 120.81 153.33 120.711C153.339 120.612 153.37 120.516 153.422 120.431C153.609 120.145 153.856 120.174 153.856 120.233C153.856 120.293 153.777 120.401 153.757 120.569C153.737 120.736 153.757 120.884 154.004 120.904C154.25 120.924 154.28 120.776 154.28 120.588C154.28 120.401 154.201 120.322 154.221 120.253Z" fill="#263238"/>
  <path d="M149.919 113.144C149.919 113.144 149.741 113.144 149.495 113.193C149.318 113.26 149.16 113.37 149.036 113.513C148.912 113.656 148.826 113.827 148.784 114.012C148.645 114.613 148.543 115.222 148.478 115.836C148.36 116.565 148.232 117.325 148.104 118.113L148.034 118.528L147.709 118.301L147.117 117.887C145.837 116.968 144.63 115.953 143.506 114.85C143.012 114.42 142.586 113.918 142.243 113.361C142.351 113.253 144.443 115.333 147.413 117.463L147.995 117.877L147.6 118.054L148.025 115.747C148.12 115.118 148.269 114.498 148.469 113.893C148.539 113.672 148.668 113.474 148.841 113.319C149.015 113.165 149.227 113.06 149.455 113.016C149.791 112.947 149.939 113.144 149.919 113.144Z" fill="#263238"/>
  <path d="M159.509 113.075C158.773 115.077 157.557 116.867 155.967 118.291L155.839 118.399L155.474 118.754L155.415 118.251C155.059 116.271 154.358 114.369 153.343 112.631C153.816 113.016 154.203 113.496 154.477 114.041C155.235 115.309 155.725 116.718 155.918 118.182L155.494 118.035L155.602 117.916C157.037 116.413 158.343 114.794 159.509 113.075V113.075Z" fill="#263238"/>
  <path opacity="0.3" d="M173.984 138.997L178.217 139.214L187.748 142.478L186.919 145.248L173.984 138.997Z" fill="black"/>
  <g opacity="0.3">
  <path opacity="0.3" d="M175.434 154.467C166.427 155.346 157.363 155.501 148.33 154.931C145.228 154.894 142.159 154.279 139.283 153.116C135.811 151.452 133.133 148.492 131.823 144.874L132.633 157.435L175.434 154.467Z" fill="black"/>
  </g>
  <g opacity="0.7">
  <path opacity="0.7" d="M133.432 125.863C133.313 125.942 132.583 125.104 131.794 123.98C131.242 123.35 130.829 122.611 130.58 121.811C130.699 121.732 131.429 122.57 132.218 123.684C132.769 124.319 133.182 125.061 133.432 125.863V125.863Z" fill="white"/>
  </g>
  <g opacity="0.7">
  <path opacity="0.7" d="M124.157 136.67C124.321 135.637 124.655 134.637 125.144 133.712C125.495 132.722 126.001 131.793 126.644 130.961C126.472 131.993 126.139 132.991 125.657 133.919C125.308 134.91 124.801 135.839 124.157 136.67V136.67Z" fill="white"/>
  </g>
  <g opacity="0.7">
  <path opacity="0.7" d="M136.007 140.575C135.204 140.042 134.5 139.375 133.925 138.603C133.231 137.926 132.657 137.135 132.228 136.266C133.738 137.47 135.018 138.936 136.007 140.594V140.575Z" fill="white"/>
  </g>
  <g opacity="0.7">
  <path opacity="0.7" d="M142.351 129.334C142.44 129.443 141.7 130.222 140.694 131.079C139.687 131.937 138.789 132.539 138.72 132.43C138.651 132.322 139.381 131.543 140.388 130.685C141.394 129.827 142.262 129.226 142.351 129.334Z" fill="white"/>
  </g>
  <g opacity="0.7">
  <path opacity="0.7" d="M144.413 124.345C144.315 124.444 143.555 123.812 142.854 122.836C142.154 121.86 141.789 120.943 141.868 120.864C141.947 120.785 142.549 121.574 143.229 122.511C143.91 123.448 144.522 124.246 144.413 124.345Z" fill="white"/>
  </g>
  <g opacity="0.7">
  <path opacity="0.7" d="M146.16 146.51C145.431 147.23 144.616 147.856 143.733 148.374C142.945 149.03 142.081 149.586 141.157 150.03C141.763 149.188 142.54 148.482 143.437 147.96C144.235 147.295 145.162 146.801 146.16 146.51V146.51Z" fill="white"/>
  </g>
  <g opacity="0.7">
  <path opacity="0.7" d="M148.301 140.19C148.202 140.289 147.314 139.648 146.328 138.75C145.341 137.853 144.65 137.045 144.749 136.946C144.848 136.847 145.736 137.478 146.722 138.376C147.709 139.273 148.36 140.082 148.301 140.19Z" fill="white"/>
  </g>
  <g opacity="0.7">
  <path opacity="0.7" d="M153.609 133.012C153.724 131.359 154.359 129.785 155.425 128.516C155.282 129.318 155.015 130.093 154.635 130.813C154.405 131.593 154.059 132.334 153.609 133.012Z" fill="white"/>
  </g>
  <g opacity="0.7">
  <path opacity="0.7" d="M155.977 151.43C155.898 151.539 154.941 150.928 154.004 149.873C153.39 149.29 152.955 148.544 152.751 147.723C152.879 147.654 153.52 148.532 154.389 149.537C155.257 150.543 156.076 151.322 155.977 151.43Z" fill="white"/>
  </g>
  <g opacity="0.7">
  <path opacity="0.7" d="M159.638 142.635C159.539 142.744 158.651 142.004 157.575 140.989C156.5 139.973 155.77 139.076 155.869 138.967C156.655 139.383 157.355 139.946 157.931 140.624C158.967 141.629 159.736 142.537 159.638 142.635Z" fill="white"/>
  </g>
  <g opacity="0.7">
  <path opacity="0.7" d="M169.139 149.36C168.479 150.059 167.741 150.681 166.939 151.213C166.241 151.877 165.477 152.469 164.66 152.978C165.13 152.108 165.808 151.366 166.633 150.819C167.34 150.14 168.199 149.639 169.139 149.36V149.36Z" fill="white"/>
  </g>
  <g opacity="0.7">
  <path opacity="0.7" d="M168.863 141.649C168.952 141.768 167.995 142.635 166.732 143.621C166.013 144.281 165.185 144.811 164.285 145.189C164.876 144.413 165.597 143.746 166.416 143.217C167.139 142.562 167.966 142.032 168.863 141.649V141.649Z" fill="white"/>
  </g>
  <g opacity="0.7">
  <path opacity="0.7" d="M170.629 135.299C170.221 134.493 170.011 133.6 170.017 132.696C169.863 131.806 169.931 130.892 170.215 130.034C170.438 130.89 170.544 131.772 170.53 132.657C170.685 133.529 170.718 134.418 170.629 135.299V135.299Z" fill="white"/>
  </g>
  <g opacity="0.7">
  <path opacity="0.7" d="M164.147 133.14C164.275 133.209 163.979 133.988 163.496 134.885C163.012 135.783 162.509 136.453 162.39 136.384C162.272 136.315 162.558 135.536 163.042 134.639C163.525 133.742 164.009 133.071 164.147 133.14Z" fill="white"/>
  </g>
  <g opacity="0.7">
  <path opacity="0.7" d="M164.561 123.25C162.763 122.457 161.12 121.352 159.707 119.987C160.637 120.309 161.505 120.79 162.272 121.407C163.134 121.888 163.908 122.511 164.561 123.25V123.25Z" fill="white"/>
  </g>
  <g opacity="0.7">
  <path opacity="0.7" d="M171.053 119.642C170.075 119.588 169.128 119.275 168.31 118.735C167.415 118.336 166.64 117.711 166.061 116.92C166.931 117.3 167.767 117.755 168.557 118.281C169.427 118.661 170.262 119.116 171.053 119.642Z" fill="white"/>
  </g>
  <g opacity="0.7">
  <path opacity="0.7" d="M176.164 123.556C175.483 123.934 174.761 124.235 174.013 124.453C173.322 124.818 172.59 125.099 171.833 125.292C171.754 125.183 172.583 124.463 173.806 123.97C174.529 123.586 175.354 123.441 176.164 123.556Z" fill="white"/>
  </g>
  <g opacity="0.7">
  <path opacity="0.7" d="M179.529 133.949C179.57 132.834 179.85 131.742 180.348 130.744C180.695 129.685 181.256 128.709 181.995 127.875C181.711 128.933 181.321 129.961 180.831 130.941C180.495 131.983 180.059 132.99 179.529 133.949Z" fill="white"/>
  </g>
  <g opacity="0.7">
  <path opacity="0.7" d="M186.485 138.139C186.129 137.289 185.939 136.379 185.922 135.457C185.739 134.557 185.722 133.632 185.873 132.726C186.229 133.573 186.42 134.48 186.436 135.398C186.619 136.301 186.635 137.23 186.485 138.139V138.139Z" fill="white"/>
  </g>
  <g opacity="0.7">
  <path opacity="0.7" d="M117.704 129.324C117.784 130.109 117.697 130.902 117.448 131.651C117.359 132.434 117.1 133.188 116.688 133.86C116.608 133.078 116.695 132.288 116.945 131.543C117.034 130.757 117.294 130 117.704 129.324V129.324Z" fill="white"/>
  </g>
  <g opacity="0.7">
  <path opacity="0.7" d="M128.045 144.055C126.331 144.114 124.647 143.608 123.249 142.615C124.083 142.709 124.9 142.918 125.677 143.237C126.5 143.4 127.297 143.675 128.045 144.055V144.055Z" fill="white"/>
  </g>
  <g opacity="0.7">
  <path opacity="0.7" d="M139.895 116.299C139.944 116.437 139.164 116.822 138.247 117.364C137.329 117.906 136.599 118.35 136.5 118.281C136.402 118.212 137.013 117.482 137.98 116.92C138.947 116.358 139.855 116.171 139.895 116.299Z" fill="white"/>
  </g>
  <g opacity="0.7">
  <path opacity="0.7" d="M127.551 126.14C126.826 126.227 126.09 126.146 125.4 125.903C124.246 125.637 123.328 125.311 123.368 125.173C124.093 125.086 124.829 125.167 125.519 125.41C126.653 125.676 127.64 125.962 127.551 126.14Z" fill="white"/>
  </g>
  <g opacity="0.7">
  <path opacity="0.7" d="M146.12 114.268C146.071 114.396 145.311 114.189 144.581 113.598C143.851 113.006 143.496 112.296 143.594 112.227C143.693 112.158 144.216 112.651 144.897 113.213C145.578 113.775 146.179 114.13 146.12 114.268Z" fill="white"/>
  </g>
  <g opacity="0.7">
  <path opacity="0.7" d="M158 111.527C158.098 111.626 157.724 112.168 157.161 112.73C156.599 113.292 156.056 113.657 155.957 113.558C155.859 113.46 156.234 112.927 156.796 112.365C157.358 111.803 157.901 111.428 158 111.527Z" fill="white"/>
  </g>
  <path d="M94.9419 319.366L88.7061 322.975C88.7061 322.975 93.2941 337.952 90.4821 335.29C87.9661 332.914 78.5632 314.909 76.3432 310.462L75.8499 309.476L86.4664 303.708L94.9419 319.366Z" fill="#6878F4"/>
  <g opacity="0.5">
  <path opacity="0.5" d="M79.2144 315.057C80.3989 314.072 81.1788 312.686 81.4048 311.162C81.6275 309.656 81.2753 308.122 80.4181 306.863L76.0867 309.358L79.2144 315.057Z" fill="white"/>
  </g>
  <path opacity="0.5" d="M90.7189 330.429C90.7189 330.429 92.0312 335.842 90.936 335.694C89.8408 335.546 79.6584 317.719 75.8499 309.466L76.2149 309.289L87.9168 330.192C87.9168 330.192 90.1467 329.541 90.7189 330.429Z" fill="white"/>
  <path d="M76.0867 309.042C76.1205 309.138 76.1634 309.231 76.2149 309.319L76.5997 310.117L78.0995 313.075C79.3821 315.53 81.1976 318.883 83.2893 322.541C85.3811 326.199 87.3347 329.443 88.7949 331.839L90.5315 334.609L91.0149 335.349L91.1925 335.605C91.1595 335.507 91.113 335.414 91.0544 335.329L90.6005 334.56L88.9232 331.75C87.5024 329.384 85.5685 326.1 83.4768 322.442C81.3851 318.784 79.5301 315.432 78.2376 313.006L76.6787 310.127C76.5208 309.841 76.3827 309.585 76.2445 309.348C76.1064 309.111 76.0965 309.033 76.0867 309.042Z" fill="#263238"/>
  <path d="M87.6702 330.32C88.2127 330.183 88.7684 330.104 89.3277 330.084C89.8852 330.135 90.4347 330.251 90.9656 330.429C90.5128 330.044 89.9316 329.843 89.3376 329.867C88.745 329.809 88.1519 329.971 87.6702 330.32V330.32Z" fill="#263238"/>
  <path d="M87.3741 324.385C87.9509 324.555 88.5605 324.582 89.1501 324.464C88.8732 324.346 88.5723 324.295 88.272 324.316C87.9714 324.269 87.6641 324.293 87.3741 324.385V324.385Z" fill="#263238"/>
  <path d="M87.3248 322.738C87.3248 322.797 87.611 322.945 88.0056 323.073C88.4003 323.201 88.7358 323.27 88.7555 323.211C88.7752 323.152 88.4694 323.004 88.0747 322.866C87.68 322.728 87.3446 322.679 87.3248 322.738Z" fill="#263238"/>
  <path d="M88.3411 321.091C88.3954 321.408 88.5201 321.707 88.7061 321.969C88.9528 322.422 89.2093 322.768 89.2587 322.738C89.2044 322.422 89.0796 322.122 88.8936 321.86C88.6469 321.407 88.4003 321.072 88.3411 321.091Z" fill="#263238"/>
  <path d="M89.2291 320.204C89.2021 320.577 89.2917 320.949 89.4856 321.269C89.7421 321.821 90.0973 322.176 90.1467 322.137C90.0238 321.794 89.8685 321.464 89.6829 321.151C89.5573 320.823 89.4055 320.507 89.2291 320.204V320.204Z" fill="#263238"/>
  <path d="M89.0416 324.148C89.1807 324.506 89.3773 324.839 89.6237 325.134C89.8777 325.471 90.1617 325.785 90.4723 326.071C90.6526 326.25 90.8548 326.406 91.0741 326.534C91.1411 326.576 91.2159 326.603 91.294 326.615C91.372 326.627 91.4516 326.623 91.528 326.603C91.6104 326.578 91.6835 326.529 91.738 326.462C91.7925 326.396 91.8258 326.314 91.8339 326.228C91.8039 325.738 91.6046 325.274 91.2698 324.914C90.9351 324.554 90.4858 324.322 89.9987 324.256C89.7116 324.215 89.4189 324.235 89.1403 324.316C89.0376 324.34 88.9405 324.383 88.8541 324.444C89.2261 324.377 89.607 324.377 89.9789 324.444C90.3714 324.517 90.7345 324.702 91.0248 324.976C91.3805 325.296 91.5966 325.742 91.6267 326.219C91.6267 326.445 91.3701 326.495 91.1629 326.376C90.965 326.249 90.777 326.108 90.6005 325.952C90.2916 325.679 90.0046 325.383 89.7421 325.065C89.2981 324.503 89.0712 324.148 89.0416 324.148Z" fill="#263238"/>
  <path d="M89.16 324.424C89.4426 324.424 89.7159 324.323 89.9296 324.138C90.1763 323.961 90.3733 323.723 90.5019 323.448C90.5951 323.275 90.644 323.082 90.644 322.886C90.644 322.69 90.5951 322.497 90.5019 322.324C90.4155 322.241 90.3007 322.195 90.1812 322.195C90.0617 322.195 89.9469 322.241 89.8605 322.324C89.7125 322.437 89.5912 322.582 89.5053 322.748C89.36 323.009 89.2473 323.287 89.1699 323.576C89.0747 323.831 89.0475 324.106 89.0909 324.375C89.0909 324.375 89.16 324.079 89.3179 323.616C89.4107 323.35 89.5332 323.095 89.6829 322.856C89.8112 322.6 90.1368 322.284 90.3341 322.511C90.394 322.657 90.4207 322.813 90.4122 322.97C90.4036 323.127 90.3601 323.28 90.2848 323.418C90.1691 323.668 90.0009 323.89 89.7915 324.069C89.5927 324.207 89.3813 324.326 89.16 324.424V324.424Z" fill="#263238"/>
  <path d="M80.5464 306.923C80.5464 306.923 80.8424 307.347 81.1582 308.096C81.5766 309.074 81.7166 310.149 81.5627 311.202C81.3841 312.254 80.9238 313.239 80.2307 314.051C79.6979 314.663 79.244 314.949 79.244 314.978C79.3588 314.938 79.4656 314.878 79.5598 314.801C79.8342 314.614 80.0859 314.395 80.3096 314.15C81.061 313.341 81.5585 312.33 81.7403 311.241C81.9035 310.15 81.7387 309.034 81.2667 308.037C81.1246 307.738 80.9527 307.453 80.7536 307.189C80.6451 307.001 80.5563 306.913 80.5464 306.923Z" fill="#263238"/>
  <path d="M81.8586 316.152C82.1152 316.995 82.4765 317.803 82.9341 318.557C83.3286 319.348 83.8299 320.082 84.424 320.736C84.4733 320.736 83.832 319.75 83.1216 318.459C82.4112 317.167 81.9178 316.122 81.8586 316.152Z" fill="#263238"/>
  <path d="M80.1122 313.085C80.053 313.085 79.9445 313.292 79.7669 313.529C79.5893 313.765 79.4216 313.943 79.4512 313.992C79.4808 314.042 79.7472 313.933 79.9445 313.657C80.1418 313.381 80.1714 313.095 80.1122 313.085Z" fill="#263238"/>
  <path d="M80.8918 311.113C80.8326 311.113 80.734 311.291 80.655 311.547C80.5761 311.803 80.5761 312.02 80.655 312.04C80.734 312.06 80.8129 311.862 80.8918 311.606C80.9707 311.35 80.951 311.133 80.8918 311.113Z" fill="#263238"/>
  <path d="M80.6056 309.092C80.5562 309.092 80.6845 309.338 80.7338 309.614C80.7832 309.89 80.7338 310.127 80.8128 310.147C80.8917 310.167 81.0101 309.91 80.941 309.575C80.872 309.24 80.645 309.042 80.6056 309.092Z" fill="#263238"/>
  <path d="M80.28 307.741C80.2208 307.741 80.1912 307.879 80.2109 308.037C80.2307 308.195 80.2997 308.323 80.3589 308.313C80.4181 308.303 80.4477 308.165 80.428 308.007C80.4083 307.849 80.28 307.731 80.28 307.741Z" fill="#263238"/>
  <path d="M197.21 333.239L196.983 340.447C196.983 340.447 212.138 344.46 208.389 345.436C205.034 346.323 184.778 344.775 179.835 344.312L178.72 344.203L179.43 332.154L197.21 333.239Z" fill="#6878F4"/>
  <g opacity="0.5">
  <path opacity="0.5" d="M185.242 344.302C185.042 342.765 184.275 341.358 183.091 340.358C181.936 339.383 180.457 338.876 178.947 338.938L178.759 343.957L185.242 344.302Z" fill="white"/>
  </g>
  <path opacity="0.5" d="M204.383 342.675C204.383 342.675 209.671 344.42 208.971 345.268C208.27 346.116 187.748 345.337 178.72 344.203V343.799L202.656 344.923C202.656 344.923 203.327 342.675 204.383 342.675Z" fill="white"/>
  <path d="M178.483 343.779H178.789L179.677 343.858L182.933 344.124C185.695 344.331 189.504 344.568 193.717 344.736C197.93 344.903 201.758 344.962 204.521 344.972H207.787H208.685C208.786 344.987 208.889 344.987 208.991 344.972C208.889 344.958 208.786 344.958 208.685 344.972H207.787L204.521 344.913C201.758 344.864 197.94 344.775 193.727 344.617C189.514 344.46 185.705 344.243 182.943 344.075L179.677 343.878H178.789C178.692 343.832 178.589 343.798 178.483 343.779V343.779Z" fill="#263238"/>
  <path d="M202.686 345.199C202.853 344.667 203.078 344.154 203.357 343.671C203.698 343.224 204.088 342.817 204.521 342.458C203.955 342.645 203.474 343.03 203.169 343.543C202.809 344.016 202.637 344.606 202.686 345.199Z" fill="#263238"/>
  <path d="M197.486 342.31C197.486 342.31 197.802 342.044 198.078 341.64C198.354 341.235 198.542 340.88 198.493 340.851C198.443 340.821 198.177 341.117 197.901 341.521C197.624 341.926 197.437 342.271 197.486 342.31Z" fill="#263238"/>
  <path d="M196.055 341.482C196.055 341.531 196.391 341.354 196.707 341.087C197.022 340.821 197.259 340.565 197.22 340.516C197.18 340.466 196.884 340.654 196.569 340.92C196.253 341.186 196.016 341.442 196.055 341.482Z" fill="#263238"/>
  <path d="M195.197 339.756C195.811 339.924 196.454 339.954 197.082 339.845C196.784 339.725 196.464 339.671 196.144 339.687C195.827 339.642 195.504 339.666 195.197 339.756Z" fill="#263238"/>
  <path d="M194.931 338.544C195.234 338.759 195.595 338.88 195.967 338.889C196.331 338.958 196.707 338.924 197.052 338.79C196.702 338.713 196.345 338.674 195.986 338.672C195.639 338.599 195.286 338.556 194.931 338.544V338.544Z" fill="#263238"/>
  <path d="M198.157 340.762C198.538 340.835 198.93 340.835 199.312 340.762C199.729 340.726 200.142 340.65 200.545 340.535C200.794 340.479 201.036 340.393 201.265 340.279C201.405 340.202 201.511 340.075 201.561 339.924C201.585 339.84 201.582 339.751 201.554 339.668C201.526 339.585 201.473 339.513 201.403 339.461C201.124 339.313 200.816 339.229 200.5 339.215C200.185 339.201 199.87 339.257 199.579 339.378C199.287 339.5 199.027 339.684 198.815 339.918C198.603 340.153 198.446 340.431 198.354 340.733C198.333 340.837 198.333 340.944 198.354 341.048C198.482 340.689 198.673 340.355 198.917 340.062C199.181 339.77 199.523 339.561 199.903 339.461C200.13 339.392 200.369 339.37 200.604 339.395C200.84 339.421 201.068 339.493 201.275 339.608C201.453 339.747 201.374 339.963 201.166 340.072C200.956 340.182 200.735 340.268 200.505 340.328C200.111 340.444 199.708 340.533 199.302 340.594C198.591 340.742 198.157 340.733 198.157 340.762Z" fill="#263238"/>
  <path d="M198.453 340.831C198.601 340.593 198.657 340.309 198.611 340.032C198.585 339.732 198.49 339.442 198.335 339.185C198.24 339.002 198.099 338.848 197.926 338.737C197.753 338.627 197.553 338.563 197.348 338.553C197.231 338.577 197.128 338.645 197.058 338.741C196.989 338.838 196.958 338.958 196.973 339.076C196.995 339.261 197.055 339.439 197.151 339.599C197.292 339.861 197.468 340.103 197.674 340.318C197.846 340.531 198.065 340.7 198.315 340.811C198.315 340.811 198.088 340.595 197.792 340.22C197.614 339.999 197.459 339.761 197.328 339.51C197.18 339.254 197.092 338.81 197.378 338.77C197.664 338.731 197.96 339.056 198.128 339.293C198.276 339.524 198.377 339.782 198.424 340.052C198.456 340.311 198.465 340.571 198.453 340.831V340.831Z" fill="#263238"/>
  <path d="M179.036 338.879C179.036 338.879 179.549 338.879 180.358 338.977C181.413 339.141 182.403 339.591 183.219 340.279C184.013 340.984 184.603 341.89 184.926 342.902C185.173 343.691 185.182 344.203 185.222 344.203C185.239 344.082 185.239 343.959 185.222 343.838C185.205 343.505 185.152 343.174 185.064 342.852C184.779 341.785 184.181 340.827 183.347 340.101C182.509 339.39 181.479 338.941 180.387 338.81C180.059 338.776 179.729 338.776 179.401 338.81C179.164 338.83 179.036 338.859 179.036 338.879Z" fill="#263238"/>
  <path d="M187.57 342.645C188.424 342.87 189.302 342.989 190.185 343C191.067 343.083 191.957 343.047 192.829 342.892C192.829 342.833 191.645 342.892 190.195 342.783C188.744 342.675 187.58 342.576 187.57 342.645Z" fill="#263238"/>
  <path d="M184.048 342.497C184.048 342.547 184.137 342.754 184.245 343.03C184.354 343.306 184.413 343.543 184.472 343.543C184.531 343.543 184.581 343.257 184.472 342.941C184.363 342.626 184.087 342.458 184.048 342.497Z" fill="#263238"/>
  <path d="M182.785 340.802C182.736 340.802 182.844 341.028 183.031 341.225C183.219 341.423 183.387 341.551 183.436 341.502C183.485 341.452 183.367 341.275 183.189 341.078C183.012 340.88 182.824 340.762 182.785 340.802Z" fill="#263238"/>
  <path d="M180.92 339.973C180.92 340.032 181.177 340.042 181.433 340.141C181.69 340.239 181.877 340.397 181.926 340.358C181.976 340.318 181.838 340.062 181.512 339.934C181.186 339.806 180.92 339.924 180.92 339.973Z" fill="#263238"/>
  <path d="M179.578 339.559C179.578 339.618 179.647 339.717 179.795 339.776C179.943 339.835 180.081 339.845 180.101 339.776C180.121 339.707 180.032 339.618 179.884 339.559C179.736 339.5 179.598 339.51 179.578 339.559Z" fill="#263238"/>
  <path d="M144.186 206.291C144.186 206.291 142.884 240.654 137.615 258.471C132.346 276.288 118.198 280.616 109.002 286.355C100.26 291.827 80.7141 302.2 80.7141 302.2L91.745 321.298C91.745 321.298 145.686 298.482 155.306 278.062C162.686 262.375 170.767 233.495 170.767 233.495L144.186 206.291Z" fill="#263238"/>
  <path d="M174.477 190.92C174.477 190.92 197.23 238.543 203.307 251.47C203.944 252.821 204.239 254.307 204.166 255.798L200.15 336.069L177.072 334.905L179.568 257.494L140.467 208.48C137.097 204.323 134.7 199.465 133.451 194.262C133.036 192.561 132.817 190.817 132.8 189.066V189.066L174.507 190.92" fill="#263238"/>
  <path d="M270.213 299.695L63.0528 314.84L52.9691 163.006L258.571 148.62L270.213 299.695Z" fill="white"/>
  <path d="M270.213 299.695C270.213 299.695 270.125 298.758 269.977 296.944C269.829 295.13 269.621 292.438 269.335 288.938C268.783 281.918 267.974 271.614 266.938 258.451C264.876 232.144 261.935 194.361 258.364 148.64L258.581 148.827L52.9888 163.262L53.2256 162.986C53.2256 163.341 53.2256 163.716 53.3046 164.1C56.8862 218.153 60.2803 269.415 63.2896 314.83L63.043 314.613L212.523 303.767L255.029 300.721L266.316 299.922L269.217 299.725L270.204 299.666C270.204 299.666 269.888 299.666 269.217 299.754L266.336 299.981L255.108 300.829L212.681 303.994L63.0726 315.077H62.8456V314.84C59.8264 269.425 56.4126 218.212 52.8112 164.11C52.8112 163.736 52.8112 163.351 52.7323 163.006V162.75H52.9888L258.581 148.413H258.788V148.62C262.271 194.45 265.152 232.243 267.155 258.589C268.141 271.732 268.921 282.016 269.444 289.027C269.7 292.527 269.908 295.199 270.036 297.003C270.164 298.808 270.213 299.695 270.213 299.695Z" fill="#263238"/>
  <path d="M220.318 171.604C220.742 171.604 222.557 197.684 224.363 229.906C226.169 262.129 227.323 288.277 226.869 288.307C226.415 288.337 224.639 262.227 222.824 229.995C221.008 197.763 219.893 171.624 220.318 171.604Z" fill="#263238"/>
  <path d="M201.916 171.318C202.351 171.318 204.156 197.408 205.972 229.63C207.787 261.853 208.932 288.001 208.478 288.021C208.024 288.041 206.238 261.941 204.432 229.709C202.627 197.477 201.492 171.318 201.916 171.318Z" fill="#263238"/>
  <path d="M145.597 172.107C146.022 172.107 147.837 198.187 149.653 230.409C151.468 262.631 152.613 288.79 152.159 288.81C151.705 288.829 149.919 262.73 148.113 230.498C146.308 198.265 145.173 172.127 145.597 172.107Z" fill="#263238"/>
  <path d="M163.397 171.318C163.821 171.318 165.637 197.408 167.442 229.63C169.248 261.853 170.402 288.001 169.948 288.031C169.494 288.06 167.718 261.951 165.903 229.719C164.087 197.486 162.973 171.377 163.397 171.318Z" fill="#263238"/>
  <path d="M181.186 170.598C181.611 170.598 183.426 196.678 185.232 228.9C187.037 261.123 188.192 287.282 187.748 287.301C187.304 287.321 185.508 261.222 183.693 228.989C181.877 196.757 180.762 170.618 181.186 170.598Z" fill="#263238"/>
  <path d="M125.815 174.72C126.239 174.72 128.054 200.799 129.86 233.022C131.666 265.244 132.82 291.393 132.366 291.423C131.912 291.452 130.136 265.343 128.321 233.111C126.505 200.878 125.39 174.739 125.815 174.72Z" fill="#263238"/>
  <path d="M106.308 175.883C106.733 175.883 108.548 201.963 110.354 234.185C112.159 266.408 113.294 292.596 112.84 292.596C112.386 292.596 110.6 266.516 108.785 234.284C106.969 202.052 105.933 175.903 106.308 175.883Z" fill="#263238"/>
  <path d="M86.8019 177.047C87.236 177.047 89.0416 203.136 90.8571 235.359C92.6726 267.581 93.8171 293.73 93.3632 293.759C92.9094 293.789 91.1334 267.68 89.3179 235.408C87.5024 203.136 86.3776 177.076 86.8019 177.047Z" fill="#263238"/>
  <path d="M112.347 133.742C112.347 133.742 89.3573 150.612 93.7085 164.081C98.9379 180.251 135.701 193.197 135.701 193.197C138.582 195.593 141.739 198.127 143.594 199.33C147.541 201.864 147.679 201.48 147.788 200.918C148.064 199.429 140.95 196.175 142.687 195.869C144.423 195.564 151.142 200.997 151.379 199.409C151.685 197.339 144.206 194.095 143.585 193.769C142.963 193.444 143.21 192.418 143.762 192.783C144.551 193.257 152.978 197.999 153.293 195.978C153.471 194.864 151.675 194.361 151.675 194.361C151.675 194.361 143.604 190.565 143.782 189.618C143.959 188.672 148.715 190.713 150.323 191.531C151.932 192.349 152.751 191.837 152.376 190.762C152.119 190.032 147.285 187.39 145.706 186.621C144.127 185.852 139.786 183.821 142.351 182.844C144.917 181.868 146.436 179.886 146.495 178.979C146.554 178.072 145.449 177.431 144.877 178.121C144.204 178.78 143.418 179.314 142.558 179.699C141.974 180.001 141.338 180.188 140.684 180.251C137.26 178.151 112.781 163.006 112.682 160.314C112.574 157.415 125.015 146.707 125.015 146.707L112.347 133.742Z" fill="#B78876"/>
  <path d="M154.872 84.8458C154.872 84.9937 154.221 84.9641 153.501 85.0725C152.78 85.181 152.178 85.3585 152.109 85.2303C152.04 85.1021 152.593 84.6781 153.422 84.5598C154.25 84.4415 154.911 84.7176 154.872 84.8458Z" fill="#263238"/>
  <path d="M163.861 84.3922C163.762 84.5106 163.298 84.2641 162.686 84.1655C162.075 84.0668 161.562 84.1063 161.512 83.9683C161.463 83.8302 162.025 83.5147 162.785 83.6527C163.545 83.7908 163.959 84.2936 163.861 84.3922Z" fill="#263238"/>
  <path d="M280.573 81.4244C272.917 119.395 245.053 262.158 237.643 300.257C237.158 302.756 237.68 305.345 239.095 307.462C240.511 309.578 242.705 311.05 245.201 311.557L401.598 343.227C402.847 343.479 404.134 343.482 405.385 343.235C406.635 342.988 407.825 342.496 408.884 341.788C409.943 341.079 410.852 340.168 411.557 339.107C412.263 338.046 412.751 336.856 412.994 335.605L434.405 225.223L447.754 227.283C449.328 227.526 450.935 227.147 452.235 226.227C453.535 225.307 454.426 223.918 454.72 222.353L471 133.209C471.145 132.417 471.133 131.605 470.963 130.817C470.794 130.03 470.471 129.284 470.013 128.622C469.555 127.96 468.97 127.395 468.293 126.959C467.616 126.522 466.859 126.224 466.067 126.08L454.079 123.832L455.647 115.215C456.099 112.729 455.551 110.167 454.123 108.083C452.695 105.999 450.502 104.561 448.021 104.083L291.772 73.9012C289.291 73.4335 286.725 73.9605 284.629 75.3683C282.534 76.7761 281.077 78.9516 280.573 81.4244Z" fill="#263238"/>
  <path d="M292.206 85.0923L240.564 303.481L401.016 340.23L451.582 123.379L292.206 85.0923Z" fill="#E0E0E0"/>
  <path d="M273.548 76.9775L236.775 298.344L399.358 324.187L435.154 104.428L273.548 76.9775Z" fill="#EBEBEB"/>
  <path d="M249.701 88.563L242.843 312.858L407.409 316.783L413.527 94.2029L249.701 88.563Z" fill="white"/>
  <path d="M249.71 88.563L413.497 93.9958H413.773V94.2029C412.066 156.735 409.965 233.673 407.695 316.773V317.029H407.439H406.235L242.863 313.085H242.626V312.848C246.829 180.192 249.661 90.6237 249.73 88.563C249.641 90.6237 247.027 180.192 243.08 312.868L242.853 312.631L406.225 316.497H407.429L407.163 316.743C409.471 233.643 411.603 156.705 413.329 94.1635L413.536 94.3804L249.71 88.563Z" fill="#263238"/>
  <path d="M390.449 136.542C390.449 136.976 362.131 136.926 327.223 136.453C292.315 135.98 264.007 135.25 264.007 134.826C264.007 134.402 292.325 134.442 327.243 134.915C362.161 135.388 390.458 136.118 390.449 136.542Z" fill="#263238"/>
  <path d="M391.632 156.39C391.632 156.814 363.325 156.774 328.407 156.301C293.489 155.828 265.191 155.088 265.201 154.664C265.211 154.24 293.508 154.28 328.427 154.753C363.345 155.226 391.642 155.966 391.632 156.39Z" fill="#263238"/>
  <path d="M393.33 217.216C393.33 217.64 365.012 217.601 330.104 217.128C295.196 216.654 266.878 215.925 266.888 215.491C266.898 215.057 295.196 215.106 330.124 215.589C365.052 216.073 393.33 216.792 393.33 217.216Z" fill="#263238"/>
  <path d="M393.33 197.94C393.33 198.364 365.012 198.324 330.104 197.841C295.196 197.358 266.878 196.638 266.888 196.214C266.898 195.79 295.196 195.83 330.124 196.303C365.052 196.776 393.33 197.555 393.33 197.94Z" fill="#263238"/>
  <path d="M393.33 178.733C393.33 179.157 365.012 179.117 330.104 178.644C295.196 178.171 266.878 177.441 266.888 177.017C266.898 176.593 295.196 176.633 330.124 177.106C365.052 177.579 393.33 178.309 393.33 178.733Z" fill="#263238"/>
  <path d="M391.416 238.691C391.416 239.115 363.098 239.076 328.19 238.603C293.282 238.129 264.974 237.4 264.974 236.976C264.974 236.552 293.291 236.591 328.21 237.064C363.128 237.538 391.425 238.267 391.416 238.691Z" fill="#263238"/>
  <path d="M391.08 259.802C391.08 260.226 362.763 260.186 327.854 259.713C292.946 259.24 264.629 258.5 264.639 258.076C264.649 257.652 292.946 257.692 327.874 258.165C362.802 258.638 391.08 259.378 391.08 259.802Z" fill="#263238"/>
  <path d="M390.685 280.902C390.685 281.326 362.368 281.287 327.45 280.813C292.532 280.34 264.234 279.61 264.244 279.186C264.254 278.762 292.551 278.802 327.479 279.275C362.407 279.748 390.685 280.478 390.685 280.902Z" fill="#263238"/>
  <path d="M411.474 141.087C433.576 141.087 451.494 123.164 451.494 101.056C451.494 78.9468 433.576 61.024 411.474 61.024C389.372 61.024 371.455 78.9468 371.455 101.056C371.455 123.164 389.372 141.087 411.474 141.087Z" fill="#6878F4"/>
  <path opacity="0.5" d="M411.514 141.087C433.638 141.087 451.573 123.164 451.573 101.056C451.573 78.9468 433.638 61.024 411.514 61.024C389.39 61.024 371.455 78.9468 371.455 101.056C371.455 123.164 389.39 141.087 411.514 141.087Z" fill="black"/>
  <path d="M407.074 141.087C429.176 141.087 447.093 123.164 447.093 101.056C447.093 78.9468 429.176 61.024 407.074 61.024C384.972 61.024 367.055 78.9468 367.055 101.056C367.055 123.164 384.972 141.087 407.074 141.087Z" fill="#6878F4"/>
  <path d="M407.37 77.4705H406.798C405.664 77.4705 404.745 78.3887 404.745 79.5213V122.6C404.745 123.732 405.664 124.651 406.798 124.651H407.37C408.503 124.651 409.422 123.732 409.422 122.6V79.5213C409.422 78.3887 408.503 77.4705 407.37 77.4705Z" fill="#FAFAFA"/>
  <path d="M383.492 100.789V101.342C383.492 102.48 384.416 103.402 385.555 103.402H428.613C429.752 103.402 430.675 102.48 430.675 101.342V100.789C430.675 99.6514 429.752 98.7287 428.613 98.7287H385.555C384.416 98.7287 383.492 99.6514 383.492 100.789Z" fill="#FAFAFA"/>
  </g>
  <defs>
  <clipPath id="clip0_46_3">
  <rect width="508" height="346" fill="white"/>
  </clipPath>
  </defs>
  </svg>
  