<svg width="519" height="354" viewBox="0 0 519 354" fill="none" xmlns="http://www.w3.org/2000/svg">
	<g clip-path="url(#clip0_35_271)">
		<path d="M34.3 215.23C5.72001 188.43 0.600002 135.65 7.86 97.1499C15.12 58.6499 43.05 24.6799 79.43 10.15C115.81 -4.38005 159.43 0.929947 191.26 23.8099C216.61 41.9999 234.65 70.3099 263 83.4199C287.2 94.6099 316.43 101.85 342.68 97.1699C368.93 92.4899 393.17 73.0299 419.77 71.1699C457.42 68.4799 486.08 80.9999 500.48 103.45C512.56 122.3 525.41 150.13 516.48 183.82C509.48 209.96 495.56 240.23 457.48 269.09C409.05 305.84 347.25 309.32 282.23 309.09C239.23 308.95 163.7 301.15 122.55 286.21C85.18 272.65 55 247.42 34.31 215.26" fill="#EBEBEB" />
		<path d="M156.47 126.31C157.54 126.376 158.611 126.227 159.622 125.871C160.633 125.515 161.562 124.959 162.353 124.237C163.145 123.515 163.784 122.642 164.232 121.668C164.68 120.695 164.927 119.641 164.96 118.57C165.07 114.23 165.17 109.85 165.17 109.85C165.17 109.85 171.73 109.15 172.17 102.65C172.61 96.15 172.17 81.13 172.17 81.13C168.545 79.3571 164.514 78.5827 160.49 78.8868C156.467 79.1909 152.597 80.5624 149.28 82.86L148.28 83.56L149.05 118.56C149.107 120.542 149.897 122.431 151.268 123.863C152.639 125.295 154.493 126.167 156.47 126.31V126.31Z" fill="#B78876" />
		<path d="M169.18 92.61C169.047 92.4773 168.956 92.308 168.919 92.1236C168.882 91.9392 168.9 91.7479 168.972 91.5741C169.044 91.4002 169.165 91.2515 169.322 91.1469C169.478 91.0423 169.662 90.9865 169.85 90.9865C170.038 90.9865 170.222 91.0423 170.378 91.1469C170.535 91.2515 170.656 91.4002 170.728 91.5741C170.8 91.7479 170.818 91.9392 170.781 92.1236C170.744 92.308 170.653 92.4773 170.52 92.61C170.342 92.787 170.101 92.8865 169.85 92.8865C169.599 92.8865 169.358 92.787 169.18 92.61V92.61Z" fill="#263238" />
		<path d="M171.71 91.48C171.6 91.59 170.98 91.06 170.09 91.02C169.2 90.98 168.52 91.4 168.42 91.28C168.32 91.16 168.49 91.03 168.78 90.82C169.178 90.5641 169.648 90.4415 170.12 90.47C170.592 90.4992 171.041 90.6818 171.4 90.99C171.67 91.22 171.76 91.43 171.71 91.48Z" fill="#263238" />
		<path d="M160.67 91.48C160.8 91.5357 160.916 91.6198 161.009 91.726C161.103 91.8322 161.171 91.958 161.21 92.094C161.248 92.2301 161.256 92.3731 161.232 92.5126C161.209 92.652 161.154 92.7844 161.073 92.9C160.991 93.0157 160.885 93.1117 160.762 93.1811C160.638 93.2505 160.501 93.2914 160.36 93.301C160.219 93.3106 160.078 93.2885 159.946 93.2365C159.815 93.1844 159.696 93.1036 159.6 93C159.418 92.8485 159.3 92.6347 159.267 92.4003C159.235 92.166 159.291 91.928 159.425 91.7328C159.559 91.5377 159.76 91.3996 159.991 91.3454C160.221 91.2913 160.463 91.325 160.67 91.44V91.48Z" fill="#263238" />
		<path d="M161.93 91.7999C161.82 91.9099 161.21 91.3799 160.31 91.3399C159.41 91.2999 158.74 91.7199 158.65 91.5999C158.56 91.4799 158.71 91.3499 159.01 91.1399C159.407 90.8829 159.876 90.7606 160.348 90.7912C160.82 90.8219 161.27 91.0037 161.63 91.3099C161.9 91.5399 162 91.7499 161.93 91.7999Z" fill="#263238" />
		<path d="M165.2 98.7199C165.67 98.5603 166.164 98.4825 166.66 98.4899C166.9 98.4899 167.08 98.4299 167.11 98.2999C167.128 98.0646 167.08 97.8288 166.97 97.6199C166.77 97.0199 166.57 96.4099 166.35 95.7699C165.758 94.193 165.323 92.5619 165.05 90.8999C165.807 92.4042 166.407 93.9825 166.84 95.6099L167.42 97.4799C167.559 97.7946 167.587 98.1471 167.5 98.4799C167.461 98.5675 167.404 98.6453 167.331 98.7076C167.258 98.7699 167.172 98.8151 167.08 98.8399C166.944 98.8584 166.806 98.8584 166.67 98.8399C166.177 98.8882 165.679 98.8476 165.2 98.7199V98.7199Z" fill="#263238" />
		<path d="M162.23 99.5699L166.57 101.07C166.24 101.53 165.763 101.864 165.218 102.017C164.672 102.17 164.091 102.132 163.57 101.91C161.68 101.1 162.23 99.5699 162.23 99.5699Z" fill="white" />
		<path d="M165.18 109.75C162.171 109.657 159.258 108.672 156.81 106.92C156.81 106.92 158.59 111.71 165.11 111.44L165.18 109.75Z" fill="#A36957" />
		<path d="M170.74 79.42C165.372 77.5364 159.575 77.2345 154.04 78.55C154.04 78.55 148.51 80.55 148.26 83.55C148.14 85.9973 148.193 88.4502 148.42 90.89V90.89L148.89 95.89H150.89L151.09 89.11C151.09 89.11 154.89 86.42 154.92 82.3C156.78 82.03 165.92 80.84 172.2 82.89V81.44C172.188 80.9955 172.042 80.5649 171.782 80.2045C171.521 79.8441 171.158 79.5707 170.74 79.42Z" fill="#263238" />
		<path d="M149.16 91.4199C149.16 91.1547 149.055 90.9004 148.867 90.7128C148.68 90.5253 148.425 90.4199 148.16 90.4199C146.95 90.4199 144.97 90.8999 144.82 94.2599C144.61 99.0499 149.2 97.7999 149.22 97.6599C149.24 97.5199 149.2 93.2799 149.16 91.4199Z" fill="#B78876" />
		<path d="M148.19 95.82C148.19 95.82 148.1 95.88 147.96 95.94C147.761 96.019 147.539 96.019 147.34 95.94C147.039 95.731 146.799 95.4459 146.645 95.1139C146.49 94.7818 146.426 94.4147 146.46 94.05C146.468 93.6369 146.567 93.2306 146.75 92.86C146.799 92.7125 146.885 92.5795 146.998 92.473C147.112 92.3666 147.25 92.2899 147.4 92.25C147.497 92.2262 147.599 92.2385 147.687 92.2845C147.775 92.3305 147.844 92.4071 147.88 92.5C147.94 92.64 147.88 92.73 147.93 92.74C147.98 92.75 148.04 92.66 148.01 92.46C147.985 92.3428 147.922 92.2372 147.83 92.16C147.706 92.0523 147.544 91.9984 147.38 92.01C147.181 92.0423 146.993 92.1243 146.834 92.2484C146.675 92.3725 146.55 92.5347 146.47 92.72C146.25 93.1254 146.133 93.5787 146.13 94.04C146.088 94.4643 146.171 94.8917 146.371 95.2687C146.57 95.6458 146.876 95.9558 147.25 96.16C147.376 96.2063 147.512 96.2223 147.646 96.2067C147.779 96.191 147.908 96.1442 148.02 96.07C148.18 95.94 148.21 95.83 148.19 95.82Z" fill="#A36957" />
		<path d="M244 96.7599C242.7 96.3099 240 103.31 239.74 101.47C239.48 99.6299 243.99 93.2799 242.61 92.8599C240.81 92.3099 238.16 99.6999 237.89 100.3C237.62 100.9 236.73 100.54 237 100.01C237.39 99.2299 241.33 91.0099 239.57 90.4799C238.57 90.1699 238.2 91.9799 238.2 91.9799C238.2 91.9799 235.08 99.9199 234.26 99.6299C233.44 99.3399 235.1 94.6299 235.78 93.0599C236.46 91.4899 235.99 90.5799 235.06 90.8499C234.43 91.0299 232.25 95.7399 231.61 97.2899C230.97 98.8399 229.32 103.12 228.42 100.34C227.52 97.5599 225.78 95.7699 224.97 95.6099C224.781 95.5915 224.591 95.6328 224.426 95.728C224.262 95.8232 224.131 95.9675 224.053 96.1407C223.975 96.3139 223.952 96.5072 223.99 96.6936C224.027 96.88 224.121 97.05 224.26 97.1799C224.853 97.9684 225.331 98.837 225.68 99.7599C225.992 100.49 226.178 101.268 226.23 102.06C226.36 103.649 226.333 105.246 226.15 106.83L210.1 135.72L184.34 126L180.8 140.72C180.8 140.72 214.64 155.63 216.75 154.48C221.53 151.88 236.55 109.84 236.55 109.84C238.777 106.988 240.847 104.017 242.75 100.94C244.86 97.1299 244.53 96.9299 244 96.7599Z" fill="#B78876" />
		<path d="M200.29 131.06C193.13 127.49 188.06 125.38 184.14 122.93C171.97 115.32 168.81 117.08 165.96 116.76C163.58 117.52 160.07 118.96 158.73 119.22C157.39 119.48 152.48 117.89 149.31 116.95C141.96 117.36 137.5 120.54 130.77 125.62L117.1 136.46L133.28 153L138.28 149.2C138.58 156.69 138.85 156.76 139.23 164.44L139.55 194.02L185.28 196.02L182.4 166.47L181 143.22L194.11 149.56L200.32 131.06" fill="#4F63FF" />
		<path d="M148.68 117.83L148.62 113.08C148.62 113.08 156.79 113.84 158.52 119.49L148.68 117.83Z" fill="#4F63FF" />
		<path d="M166 117.48L165.27 112.88C163.583 113.117 162.016 113.885 160.797 115.074C159.578 116.263 158.769 117.81 158.49 119.49L166 117.48Z" fill="#4F63FF" />
		<path d="M166.84 134.29C167.358 134.194 167.884 134.151 168.41 134.16C169.41 134.16 170.98 134.04 172.84 133.99H173.06V134.21C173.06 136.02 173.13 138.09 173.18 140.32V140.45L173.07 140.53L172.63 140.84L170.3 142.48L170.16 142.58L170.02 142.49L166.8 140.49L166.69 140.42V140.3C166.69 138.45 166.69 136.93 166.75 135.89C166.738 135.365 166.768 134.84 166.84 134.32C166.922 134.877 166.975 135.438 167 136C167 137.05 167.12 138.52 167.16 140.27L167.06 140.08L170.31 142.08H170L172.33 140.43L172.76 140.12L172.65 140.33C172.65 138.11 172.65 136.03 172.65 134.23L172.87 134.44C171.11 134.44 169.64 134.44 168.59 134.38C168.005 134.381 167.421 134.351 166.84 134.29V134.29Z" fill="#263238" />
		<path d="M172.71 135.71C171.731 135.959 170.717 136.044 169.71 135.96C168.703 136.045 167.688 135.957 166.71 135.7C167.687 135.438 168.703 135.35 169.71 135.44C170.718 135.35 171.734 135.442 172.71 135.71V135.71Z" fill="#263238" />
		<path d="M158.69 128.36C158.407 126.901 158.299 125.414 158.37 123.93C158.262 122.447 158.333 120.956 158.58 119.49C158.851 120.95 158.956 122.436 158.89 123.92C158.991 125.403 158.924 126.892 158.69 128.36V128.36Z" fill="#263238" />
		<path d="M160.32 120.67C160.32 120.61 160.53 120.49 160.79 120.67C160.867 120.74 160.927 120.827 160.963 120.924C161 121.022 161.012 121.127 161 121.23C160.972 121.362 160.905 121.483 160.807 121.577C160.71 121.67 160.587 121.733 160.454 121.757C160.321 121.78 160.184 121.764 160.06 121.709C159.937 121.655 159.832 121.564 159.76 121.45C159.707 121.361 159.679 121.259 159.679 121.155C159.679 121.051 159.707 120.949 159.76 120.86C159.93 120.56 160.19 120.59 160.19 120.65C160.19 120.71 160.11 120.82 160.1 120.98C160.09 121.14 160.17 121.27 160.36 121.24C160.55 121.21 160.57 121.09 160.51 120.91C160.45 120.73 160.32 120.74 160.32 120.67Z" fill="#263238" />
		<path d="M160.94 124.21C160.94 124.14 161.2 124.14 161.36 124.44C161.406 124.53 161.429 124.629 161.429 124.73C161.429 124.831 161.406 124.93 161.36 125.02C161.295 125.135 161.199 125.23 161.084 125.295C160.968 125.36 160.837 125.391 160.705 125.386C160.572 125.381 160.444 125.339 160.334 125.266C160.224 125.192 160.136 125.09 160.08 124.97C160.043 124.876 160.029 124.775 160.038 124.674C160.046 124.574 160.078 124.476 160.13 124.39C160.32 124.1 160.57 124.13 160.57 124.19C160.57 124.25 160.49 124.36 160.47 124.53C160.45 124.7 160.47 124.85 160.72 124.87C160.97 124.89 161 124.74 161 124.55C161 124.36 160.92 124.28 160.94 124.21Z" fill="#263238" />
		<path d="M156.58 117C156.58 117 156.4 117 156.15 117.05C155.971 117.118 155.811 117.229 155.685 117.374C155.56 117.519 155.472 117.693 155.43 117.88C155.289 118.49 155.186 119.108 155.12 119.73C155 120.47 154.87 121.24 154.74 122.04L154.67 122.46L154.34 122.23L153.74 121.81C152.443 120.879 151.219 119.849 150.08 118.73C149.579 118.294 149.148 117.785 148.8 117.22C148.91 117.11 151.03 119.22 154.04 121.38L154.63 121.8L154.23 121.98L154.66 119.64C154.757 119.002 154.908 118.373 155.11 117.76C155.181 117.535 155.312 117.334 155.488 117.178C155.664 117.021 155.879 116.915 156.11 116.87C156.45 116.8 156.6 117 156.58 117Z" fill="#263238" />
		<path d="M166.3 116.93C165.553 118.96 164.321 120.776 162.71 122.22L162.58 122.33L162.21 122.69L162.15 122.18C161.79 120.171 161.079 118.242 160.05 116.48C160.53 116.87 160.922 117.357 161.2 117.91C161.968 119.196 162.464 120.625 162.66 122.11L162.23 121.96L162.34 121.84C163.794 120.316 165.118 118.674 166.3 116.93V116.93Z" fill="#263238" />
		<path opacity="0.3" d="M180.97 143.22L185.26 143.44L194.92 146.75L194.08 149.56L180.97 143.22Z" fill="black" />
		<g opacity="0.3">
			<path opacity="0.3" d="M182.44 158.91C173.311 159.801 164.124 159.959 154.97 159.38C151.825 159.343 148.715 158.719 145.8 157.54C142.282 155.852 139.567 152.85 138.24 149.18L139.06 161.92L182.44 158.91Z" fill="black" />
		</g>
		<g opacity="0.7">
			<path opacity="0.7" d="M139.87 129.9C139.75 129.98 139.01 129.13 138.21 127.99C137.651 127.351 137.232 126.601 136.98 125.79C137.1 125.71 137.84 126.56 138.64 127.69C139.198 128.334 139.617 129.086 139.87 129.9V129.9Z" fill="white" />
		</g>
		<g opacity="0.7">
			<path opacity="0.7" d="M130.47 140.86C130.636 139.812 130.974 138.798 131.47 137.86C131.826 136.856 132.339 135.914 132.99 135.07C132.816 136.116 132.479 137.129 131.99 138.07C131.636 139.075 131.123 140.017 130.47 140.86V140.86Z" fill="white" />
		</g>
		<g opacity="0.7">
			<path opacity="0.7" d="M142.48 144.82C141.666 144.28 140.953 143.604 140.37 142.82C139.666 142.133 139.085 141.332 138.65 140.45C140.18 141.671 141.478 143.158 142.48 144.84V144.82Z" fill="white" />
		</g>
		<g opacity="0.7">
			<path opacity="0.7" d="M148.91 133.42C149 133.53 148.25 134.32 147.23 135.19C146.21 136.06 145.3 136.67 145.23 136.56C145.16 136.45 145.9 135.66 146.92 134.79C147.94 133.92 148.82 133.31 148.91 133.42Z" fill="white" />
		</g>
		<g opacity="0.7">
			<path opacity="0.7" d="M151 128.36C150.9 128.46 150.13 127.82 149.42 126.83C148.71 125.84 148.34 124.91 148.42 124.83C148.5 124.75 149.11 125.55 149.8 126.5C150.49 127.45 151.11 128.26 151 128.36Z" fill="white" />
		</g>
		<g opacity="0.7">
			<path opacity="0.7" d="M152.77 150.84C152.032 151.57 151.205 152.205 150.31 152.73C149.512 153.395 148.636 153.959 147.7 154.41C148.314 153.556 149.101 152.84 150.01 152.31C150.819 151.635 151.759 151.135 152.77 150.84V150.84Z" fill="white" />
		</g>
		<g opacity="0.7">
			<path opacity="0.7" d="M154.94 144.43C154.84 144.53 153.94 143.88 152.94 142.97C151.94 142.06 151.24 141.24 151.34 141.14C151.44 141.04 152.34 141.68 153.34 142.59C154.34 143.5 155 144.32 154.94 144.43Z" fill="white" />
		</g>
		<g opacity="0.7">
			<path opacity="0.7" d="M160.32 137.15C160.436 135.474 161.08 133.877 162.16 132.59C162.015 133.403 161.745 134.189 161.36 134.92C161.126 135.711 160.776 136.463 160.32 137.15Z" fill="white" />
		</g>
		<g opacity="0.7">
			<path opacity="0.7" d="M162.72 155.83C162.64 155.94 161.67 155.32 160.72 154.25C160.098 153.659 159.657 152.903 159.45 152.07C159.58 152 160.23 152.89 161.11 153.91C161.99 154.93 162.82 155.72 162.72 155.83Z" fill="white" />
		</g>
		<g opacity="0.7">
			<path opacity="0.7" d="M166.43 146.91C166.33 147.02 165.43 146.27 164.34 145.24C163.25 144.21 162.51 143.3 162.61 143.19C163.407 143.612 164.117 144.182 164.7 144.87C165.75 145.89 166.53 146.81 166.43 146.91Z" fill="white" />
		</g>
		<g opacity="0.7">
			<path opacity="0.7" d="M176.06 153.73C175.391 154.439 174.642 155.07 173.83 155.61C173.123 156.283 172.349 156.883 171.52 157.4C171.997 156.517 172.684 155.765 173.52 155.21C174.237 154.521 175.107 154.014 176.06 153.73V153.73Z" fill="white" />
		</g>
		<g opacity="0.7">
			<path opacity="0.7" d="M175.78 145.91C175.87 146.03 174.9 146.91 173.62 147.91C172.891 148.579 172.052 149.117 171.14 149.5C171.739 148.713 172.47 148.036 173.3 147.5C174.032 146.836 174.871 146.298 175.78 145.91V145.91Z" fill="white" />
		</g>
		<g opacity="0.7">
			<path opacity="0.7" d="M177.57 139.47C177.156 138.652 176.944 137.747 176.95 136.83C176.794 135.927 176.862 135 177.15 134.13C177.376 134.998 177.484 135.893 177.47 136.79C177.626 137.674 177.66 138.576 177.57 139.47V139.47Z" fill="white" />
		</g>
		<g opacity="0.7">
			<path opacity="0.7" d="M171 137.28C171.13 137.35 170.83 138.14 170.34 139.05C169.85 139.96 169.34 140.64 169.22 140.57C169.1 140.5 169.39 139.71 169.88 138.8C170.37 137.89 170.86 137.21 171 137.28Z" fill="white" />
		</g>
		<g opacity="0.7">
			<path opacity="0.7" d="M171.42 127.25C169.598 126.445 167.932 125.325 166.5 123.94C167.443 124.267 168.323 124.754 169.1 125.38C169.973 125.868 170.758 126.5 171.42 127.25V127.25Z" fill="white" />
		</g>
		<g opacity="0.7">
			<path opacity="0.7" d="M178 123.59C177.008 123.535 176.049 123.218 175.22 122.67C174.313 122.266 173.527 121.631 172.94 120.83C173.822 121.215 174.669 121.677 175.47 122.21C176.352 122.595 177.198 123.057 178 123.59Z" fill="white" />
		</g>
		<g opacity="0.7">
			<path opacity="0.7" d="M183.18 127.56C182.489 127.943 181.758 128.248 181 128.47C180.3 128.84 179.558 129.125 178.79 129.32C178.71 129.21 179.55 128.48 180.79 127.98C181.522 127.591 182.359 127.444 183.18 127.56Z" fill="white" />
		</g>
		<g opacity="0.7">
			<path opacity="0.7" d="M186.59 138.1C186.632 136.97 186.915 135.862 187.42 134.85C187.772 133.776 188.34 132.785 189.09 131.94C188.802 133.013 188.406 134.055 187.91 135.05C187.569 136.107 187.127 137.128 186.59 138.1Z" fill="white" />
		</g>
		<g opacity="0.7">
			<path opacity="0.7" d="M193.64 142.35C193.28 141.488 193.086 140.565 193.07 139.63C192.884 138.718 192.867 137.779 193.02 136.86C193.381 137.719 193.575 138.639 193.59 139.57C193.776 140.486 193.793 141.428 193.64 142.35V142.35Z" fill="white" />
		</g>
		<g opacity="0.7">
			<path opacity="0.7" d="M123.93 133.41C124.011 134.206 123.923 135.011 123.67 135.77C123.58 136.564 123.317 137.328 122.9 138.01C122.819 137.217 122.907 136.416 123.16 135.66C123.251 134.863 123.514 134.096 123.93 133.41V133.41Z" fill="white" />
		</g>
		<g opacity="0.7">
			<path opacity="0.7" d="M134.41 148.35C132.674 148.41 130.966 147.896 129.55 146.89C130.395 146.984 131.223 147.197 132.01 147.52C132.844 147.685 133.652 147.965 134.41 148.35V148.35Z" fill="white" />
		</g>
		<g opacity="0.7">
			<path opacity="0.7" d="M146.42 120.2C146.47 120.34 145.68 120.73 144.75 121.28C143.82 121.83 143.08 122.28 142.98 122.21C142.88 122.14 143.5 121.4 144.48 120.83C145.46 120.26 146.38 120.07 146.42 120.2Z" fill="white" />
		</g>
		<g opacity="0.7">
			<path opacity="0.7" d="M133.91 130.18C133.175 130.269 132.429 130.186 131.73 129.94C130.56 129.67 129.63 129.34 129.67 129.2C130.405 129.111 131.151 129.194 131.85 129.44C133 129.71 134 130 133.91 130.18Z" fill="white" />
		</g>
		<g opacity="0.7">
			<path opacity="0.7" d="M152.73 118.14C152.68 118.27 151.91 118.06 151.17 117.46C150.43 116.86 150.07 116.14 150.17 116.07C150.27 116 150.8 116.5 151.49 117.07C152.18 117.64 152.79 118 152.73 118.14Z" fill="white" />
		</g>
		<g opacity="0.7">
			<path opacity="0.7" d="M164.77 115.36C164.87 115.46 164.49 116.01 163.92 116.58C163.35 117.15 162.8 117.52 162.7 117.42C162.6 117.32 162.98 116.78 163.55 116.21C164.12 115.64 164.67 115.26 164.77 115.36Z" fill="white" />
		</g>
		<path d="M100.86 326.15L94.54 329.81C94.54 329.81 99.19 345 96.34 342.3C93.79 339.89 84.26 321.63 82.01 317.12L81.51 316.12L92.27 310.27L100.86 326.15Z" fill="#4F63FF" />
		<g opacity="0.5">
			<path opacity="0.5" d="M84.92 321.78C86.1206 320.781 86.9109 319.375 87.14 317.83C87.3658 316.303 87.0088 314.746 86.14 313.47L81.75 316L84.92 321.78Z" fill="white" />
		</g>
		<path opacity="0.5" d="M96.58 337.37C96.58 337.37 97.91 342.86 96.8 342.71C95.69 342.56 85.37 324.48 81.51 316.11L81.88 315.93L93.74 337.13C93.74 337.13 96 336.47 96.58 337.37Z" fill="white" />
		<path d="M81.75 315.68C81.7843 315.777 81.8278 315.871 81.88 315.96L82.27 316.77L83.79 319.77C85.09 322.26 86.93 325.66 89.05 329.37C91.17 333.08 93.15 336.37 94.63 338.8L96.39 341.61L96.88 342.36L97.06 342.62C97.0265 342.521 96.9794 342.426 96.92 342.34L96.46 341.56L94.76 338.71C93.32 336.31 91.36 332.98 89.24 329.27C87.12 325.56 85.24 322.16 83.93 319.7L82.35 316.78C82.19 316.49 82.05 316.23 81.91 315.99C81.77 315.75 81.76 315.67 81.75 315.68Z" fill="#263238" />
		<path d="M93.49 337.26C94.0399 337.121 94.6031 337.04 95.17 337.02C95.7349 337.072 96.2919 337.19 96.83 337.37C96.371 336.98 95.782 336.776 95.18 336.8C94.5794 336.742 93.9782 336.905 93.49 337.26V337.26Z" fill="#263238" />
		<path d="M93.19 331.24C93.7746 331.413 94.3924 331.44 94.99 331.32C94.7094 331.2 94.4044 331.149 94.1 331.17C93.7953 331.123 93.4839 331.147 93.19 331.24V331.24Z" fill="#263238" />
		<path d="M93.14 329.57C93.14 329.63 93.43 329.78 93.83 329.91C94.23 330.04 94.57 330.11 94.59 330.05C94.61 329.99 94.3 329.84 93.9 329.7C93.5 329.56 93.16 329.51 93.14 329.57Z" fill="#263238" />
		<path d="M94.17 327.9C94.2251 328.221 94.3515 328.525 94.54 328.79C94.79 329.25 95.0501 329.6 95.1001 329.57C95.045 329.249 94.9185 328.945 94.73 328.68C94.48 328.22 94.23 327.88 94.17 327.9Z" fill="#263238" />
		<path d="M95.07 327C95.0427 327.378 95.1335 327.756 95.33 328.08C95.59 328.64 95.95 329 96 328.96C95.8755 328.612 95.7181 328.278 95.53 327.96C95.4026 327.628 95.2488 327.307 95.07 327V327Z" fill="#263238" />
		<path d="M94.88 331C95.0209 331.363 95.2202 331.701 95.47 332C95.7274 332.342 96.0152 332.66 96.33 332.95C96.5127 333.132 96.7177 333.29 96.94 333.42C97.0079 333.462 97.0837 333.49 97.1628 333.502C97.2419 333.514 97.3226 333.51 97.4 333.49C97.4835 333.465 97.5576 333.415 97.6129 333.347C97.6681 333.28 97.7019 333.197 97.71 333.11C97.6797 332.613 97.4776 332.141 97.1384 331.777C96.7991 331.412 96.3437 331.176 95.85 331.11C95.559 331.068 95.2624 331.088 94.98 331.17C94.8759 331.194 94.7775 331.239 94.69 331.3C95.067 331.232 95.453 331.232 95.83 331.3C96.2278 331.375 96.5958 331.562 96.89 331.84C97.2505 332.164 97.4696 332.616 97.5 333.1C97.5 333.33 97.24 333.38 97.03 333.26C96.8294 333.131 96.6389 332.987 96.46 332.83C96.1469 332.553 95.856 332.252 95.59 331.93C95.14 331.36 94.91 331 94.88 331Z" fill="#263238" />
		<path d="M95 331.28C95.2864 331.28 95.5634 331.177 95.78 330.99C96.0301 330.81 96.2298 330.569 96.36 330.29C96.4545 330.115 96.504 329.919 96.504 329.72C96.504 329.521 96.4545 329.325 96.36 329.15C96.2725 329.066 96.1561 329.02 96.035 329.02C95.9139 329.02 95.7975 329.066 95.71 329.15C95.5599 329.265 95.437 329.412 95.35 329.58C95.2027 329.845 95.0885 330.127 95.01 330.42C94.9135 330.678 94.886 330.958 94.93 331.23C94.93 331.23 95 330.93 95.16 330.46C95.2541 330.19 95.3782 329.932 95.53 329.69C95.66 329.43 95.99 329.11 96.19 329.34C96.2507 329.487 96.2778 329.646 96.2691 329.806C96.2605 329.965 96.2164 330.12 96.14 330.26C96.0228 330.513 95.8522 330.739 95.64 330.92C95.4385 331.06 95.2243 331.181 95 331.28V331.28Z" fill="#263238" />
		<path d="M86.27 313.53C86.27 313.53 86.57 313.96 86.89 314.72C87.3141 315.712 87.456 316.802 87.3 317.87C87.119 318.937 86.6525 319.936 85.95 320.76C85.41 321.38 84.95 321.67 84.95 321.7C85.0663 321.659 85.1746 321.598 85.27 321.52C85.5482 321.33 85.8033 321.109 86.03 320.86C86.7916 320.04 87.2957 319.014 87.48 317.91C87.6455 316.803 87.4784 315.672 87 314.66C86.856 314.357 86.6818 314.068 86.48 313.8C86.37 313.61 86.28 313.52 86.27 313.53Z" fill="#263238" />
		<path d="M87.6 322.89C87.8601 323.746 88.2263 324.565 88.69 325.33C89.0898 326.132 89.5979 326.876 90.2 327.54C90.25 327.54 89.6 326.54 88.88 325.23C88.16 323.92 87.66 322.86 87.6 322.89Z" fill="#263238" />
		<path d="M85.83 319.78C85.77 319.78 85.66 319.99 85.48 320.23C85.3 320.47 85.13 320.65 85.16 320.7C85.19 320.75 85.46 320.64 85.66 320.36C85.86 320.08 85.89 319.79 85.83 319.78Z" fill="#263238" />
		<path d="M86.62 317.78C86.56 317.78 86.46 317.96 86.38 318.22C86.3 318.48 86.3 318.7 86.38 318.72C86.46 318.74 86.54 318.54 86.62 318.28C86.7 318.02 86.68 317.8 86.62 317.78Z" fill="#263238" />
		<path d="M86.33 315.73C86.28 315.73 86.41 315.98 86.46 316.26C86.51 316.54 86.46 316.78 86.54 316.8C86.62 316.82 86.74 316.56 86.67 316.22C86.6 315.88 86.37 315.68 86.33 315.73Z" fill="#263238" />
		<path d="M86 314.36C85.94 314.36 85.91 314.5 85.93 314.66C85.95 314.82 86.02 314.95 86.08 314.94C86.14 314.93 86.17 314.79 86.15 314.63C86.13 314.47 86 314.35 86 314.36Z" fill="#263238" />
		<path d="M204.51 340.22L204.28 347.53C204.28 347.53 219.64 351.6 215.84 352.59C212.44 353.49 191.91 351.92 186.9 351.45L185.77 351.34L186.49 339.12L204.51 340.22Z" fill="#4F63FF" />
		<g opacity="0.5">
			<path opacity="0.5" d="M192.38 351.44C192.178 349.881 191.4 348.455 190.2 347.44C189.03 346.451 187.531 345.937 186 346L185.81 351.09L192.38 351.44Z" fill="white" />
		</g>
		<path opacity="0.5" d="M211.78 349.79C211.78 349.79 217.14 351.56 216.43 352.42C215.72 353.28 194.92 352.49 185.77 351.34V350.93L210.03 352.07C210.03 352.07 210.71 349.79 211.78 349.79Z" fill="white" />
		<path d="M185.53 350.91H185.84L186.74 350.99L190.04 351.26C192.84 351.47 196.7 351.71 200.97 351.88C205.24 352.05 209.12 352.11 211.92 352.12H215.23H216.14C216.243 352.135 216.347 352.135 216.45 352.12C216.347 352.105 216.243 352.105 216.14 352.12H215.23L211.92 352.06C209.12 352.01 205.25 351.92 200.98 351.76C196.71 351.6 192.85 351.38 190.05 351.21L186.74 351.01H185.84C185.742 350.963 185.637 350.929 185.53 350.91V350.91Z" fill="#263238" />
		<path d="M210.06 352.35C210.229 351.81 210.457 351.29 210.74 350.8C211.086 350.347 211.481 349.934 211.92 349.57C211.346 349.76 210.859 350.15 210.55 350.67C210.185 351.15 210.01 351.749 210.06 352.35Z" fill="#263238" />
		<path d="M204.79 349.42C204.79 349.42 205.11 349.15 205.39 348.74C205.67 348.33 205.86 347.97 205.81 347.94C205.76 347.91 205.49 348.21 205.21 348.62C204.93 349.03 204.74 349.38 204.79 349.42Z" fill="#263238" />
		<path d="M203.34 348.58C203.34 348.63 203.68 348.45 204 348.18C204.32 347.91 204.56 347.65 204.52 347.6C204.48 347.55 204.18 347.74 203.86 348.01C203.54 348.28 203.3 348.54 203.34 348.58Z" fill="#263238" />
		<path d="M202.47 346.83C203.092 347 203.744 347.03 204.38 346.92C204.079 346.798 203.755 346.743 203.43 346.76C203.109 346.714 202.781 346.738 202.47 346.83Z" fill="#263238" />
		<path d="M202.2 345.6C202.507 345.819 202.873 345.941 203.25 345.95C203.619 346.021 204 345.986 204.35 345.85C203.995 345.772 203.633 345.732 203.27 345.73C202.918 345.656 202.56 345.613 202.2 345.6V345.6Z" fill="#263238" />
		<path d="M205.47 347.85C205.857 347.924 206.254 347.924 206.64 347.85C207.063 347.813 207.482 347.736 207.89 347.62C208.143 347.563 208.388 347.476 208.62 347.36C208.762 347.282 208.869 347.154 208.92 347C208.944 346.915 208.941 346.824 208.913 346.74C208.884 346.656 208.831 346.583 208.76 346.53C208.477 346.381 208.165 346.296 207.845 346.281C207.525 346.267 207.206 346.323 206.911 346.446C206.616 346.57 206.351 346.757 206.137 346.994C205.922 347.232 205.763 347.514 205.67 347.82C205.648 347.925 205.648 348.034 205.67 348.14C205.8 347.776 205.993 347.437 206.24 347.14C206.507 346.844 206.855 346.632 207.24 346.53C207.47 346.46 207.711 346.438 207.95 346.464C208.189 346.489 208.42 346.563 208.63 346.68C208.81 346.82 208.73 347.04 208.52 347.15C208.307 347.261 208.082 347.349 207.85 347.41C207.45 347.528 207.042 347.618 206.63 347.68C205.91 347.83 205.47 347.82 205.47 347.85Z" fill="#263238" />
		<path d="M205.77 347.92C205.92 347.678 205.977 347.39 205.93 347.11C205.904 346.806 205.808 346.512 205.65 346.25C205.554 346.065 205.411 345.909 205.236 345.796C205.06 345.684 204.858 345.62 204.65 345.61C204.532 345.634 204.427 345.702 204.356 345.801C204.286 345.899 204.255 346.02 204.27 346.14C204.292 346.327 204.353 346.508 204.45 346.67C204.593 346.936 204.771 347.182 204.98 347.4C205.154 347.616 205.377 347.787 205.63 347.9C205.63 347.9 205.4 347.68 205.1 347.3C204.92 347.076 204.762 346.835 204.63 346.58C204.48 346.32 204.39 345.87 204.68 345.83C204.97 345.79 205.27 346.12 205.44 346.36C205.591 346.594 205.693 346.856 205.74 347.13C205.772 347.392 205.782 347.656 205.77 347.92V347.92Z" fill="#263238" />
		<path d="M186.09 345.94C186.09 345.94 186.61 345.94 187.43 346.04C188.499 346.206 189.503 346.662 190.33 347.36C191.135 348.075 191.733 348.994 192.06 350.02C192.31 350.82 192.32 351.34 192.36 351.34C192.377 351.217 192.377 351.093 192.36 350.97C192.343 350.632 192.289 350.297 192.2 349.97C191.911 348.887 191.305 347.916 190.46 347.18C189.61 346.459 188.567 346.003 187.46 345.87C187.128 345.836 186.792 345.836 186.46 345.87C186.22 345.89 186.09 345.92 186.09 345.94Z" fill="#263238" />
		<path d="M194.74 349.76C195.605 349.987 196.495 350.108 197.39 350.12C198.284 350.204 199.186 350.167 200.07 350.01C200.07 349.95 198.87 350.01 197.4 349.9C195.93 349.79 194.75 349.69 194.74 349.76Z" fill="#263238" />
		<path d="M191.17 349.61C191.17 349.66 191.26 349.87 191.37 350.15C191.48 350.43 191.54 350.67 191.6 350.67C191.66 350.67 191.71 350.38 191.6 350.06C191.49 349.74 191.21 349.57 191.17 349.61Z" fill="#263238" />
		<path d="M189.89 347.89C189.84 347.89 189.95 348.12 190.14 348.32C190.33 348.52 190.5 348.65 190.55 348.6C190.6 348.55 190.48 348.37 190.3 348.17C190.12 347.97 189.93 347.85 189.89 347.89Z" fill="#263238" />
		<path d="M188 347.05C188 347.11 188.26 347.12 188.52 347.22C188.78 347.32 188.97 347.48 189.02 347.44C189.07 347.4 188.93 347.14 188.6 347.01C188.27 346.88 188 347 188 347.05Z" fill="#263238" />
		<path d="M186.64 346.63C186.64 346.69 186.71 346.79 186.86 346.85C187.01 346.91 187.15 346.92 187.17 346.85C187.19 346.78 187.1 346.69 186.95 346.63C186.8 346.57 186.66 346.58 186.64 346.63Z" fill="#263238" />
		<path d="M150.77 211.47C150.77 211.47 149.45 246.32 144.11 264.39C138.77 282.46 124.43 286.85 115.11 292.67C106.25 298.22 86.44 308.74 86.44 308.74L97.62 328.11C97.62 328.11 152.29 304.97 162.04 284.26C169.52 268.35 177.71 239.06 177.71 239.06L150.77 211.47Z" fill="#263238" />
		<path d="M181.47 195.88C181.47 195.88 204.53 244.18 210.69 257.29C211.335 258.66 211.634 260.167 211.56 261.68L207.49 343.09L184.1 341.91L186.63 263.4L147 213.69C143.585 209.474 141.155 204.547 139.89 199.27C139.469 197.544 139.247 195.776 139.23 194V194L181.5 195.88" fill="#263238" />
		<path d="M278.5 306.2L68.54 321.56L58.32 167.57L266.7 152.98L278.5 306.2Z" fill="white" />
		<path d="M278.5 306.2C278.5 306.2 278.41 305.25 278.26 303.41C278.11 301.57 277.9 298.84 277.61 295.29C277.05 288.17 276.23 277.72 275.18 264.37C273.09 237.69 270.11 199.37 266.49 153L266.71 153.19L58.34 167.83L58.58 167.55C58.58 167.91 58.58 168.29 58.66 168.68C62.29 223.5 65.73 275.49 68.78 321.55L68.53 321.33L220.03 310.33L263.11 307.24L274.55 306.43L277.49 306.23L278.49 306.17C278.49 306.17 278.17 306.17 277.49 306.26L274.57 306.49L263.19 307.35L220.19 310.56L68.56 321.8H68.33V321.56C65.27 275.5 61.81 223.56 58.16 168.69C58.16 168.31 58.16 167.92 58.08 167.57V167.31H58.34L266.71 152.77H266.92V152.98C270.45 199.46 273.37 237.79 275.4 264.51C276.4 277.84 277.19 288.27 277.72 295.38C277.98 298.93 278.19 301.64 278.32 303.47C278.45 305.3 278.5 306.2 278.5 306.2Z" fill="#263238" />
		<path d="M227.93 176.29C228.36 176.29 230.2 202.74 232.03 235.42C233.86 268.1 235.03 294.62 234.57 294.65C234.11 294.68 232.31 268.2 230.47 235.51C228.63 202.82 227.5 176.31 227.93 176.29Z" fill="#263238" />
		<path d="M209.28 176C209.72 176 211.55 202.46 213.39 235.14C215.23 267.82 216.39 294.34 215.93 294.36C215.47 294.38 213.66 267.91 211.83 235.22C210 202.53 208.85 176 209.28 176Z" fill="#263238" />
		<path d="M152.2 176.8C152.63 176.8 154.47 203.25 156.31 235.93C158.15 268.61 159.31 295.14 158.85 295.16C158.39 295.18 156.58 268.71 154.75 236.02C152.92 203.33 151.77 176.82 152.2 176.8Z" fill="#263238" />
		<path d="M170.24 176C170.67 176 172.51 202.46 174.34 235.14C176.17 267.82 177.34 294.34 176.88 294.37C176.42 294.4 174.62 267.92 172.78 235.23C170.94 202.54 169.81 176.06 170.24 176Z" fill="#263238" />
		<path d="M188.27 175.27C188.7 175.27 190.54 201.72 192.37 234.4C194.2 267.08 195.37 293.61 194.92 293.63C194.47 293.65 192.65 267.18 190.81 234.49C188.97 201.8 187.84 175.29 188.27 175.27Z" fill="#263238" />
		<path d="M132.15 179.45C132.58 179.45 134.42 205.9 136.25 238.58C138.08 271.26 139.25 297.78 138.79 297.81C138.33 297.84 136.53 271.36 134.69 238.67C132.85 205.98 131.72 179.47 132.15 179.45Z" fill="#263238" />
		<path d="M112.38 180.63C112.81 180.63 114.65 207.08 116.48 239.76C118.31 272.44 119.46 299 119 299C118.54 299 116.73 272.55 114.89 239.86C113.05 207.17 112 180.65 112.38 180.63Z" fill="#263238" />
		<path d="M92.61 181.81C93.05 181.81 94.88 208.27 96.72 240.95C98.56 273.63 99.72 300.15 99.26 300.18C98.8 300.21 97 273.73 95.16 241C93.32 208.27 92.18 181.84 92.61 181.81Z" fill="#263238" />
		<path d="M118.5 137.89C118.5 137.89 95.2 155 99.61 168.66C104.91 185.06 142.17 198.19 142.17 198.19C145.09 200.62 148.29 203.19 150.17 204.41C154.17 206.98 154.31 206.59 154.42 206.02C154.7 204.51 147.49 201.21 149.25 200.9C151.01 200.59 157.82 206.1 158.06 204.49C158.37 202.39 150.79 199.1 150.16 198.77C149.53 198.44 149.78 197.4 150.34 197.77C151.14 198.25 159.68 203.06 160 201.01C160.18 199.88 158.36 199.37 158.36 199.37C158.36 199.37 150.18 195.52 150.36 194.56C150.54 193.6 155.36 195.67 156.99 196.5C158.62 197.33 159.45 196.81 159.07 195.72C158.81 194.98 153.91 192.3 152.31 191.52C150.71 190.74 146.31 188.68 148.91 187.69C151.51 186.7 153.05 184.69 153.11 183.77C153.17 182.85 152.05 182.2 151.47 182.9C150.787 183.568 149.992 184.11 149.12 184.5C148.528 184.806 147.883 184.996 147.22 185.06C143.75 182.93 118.94 167.57 118.84 164.84C118.73 161.9 131.34 151.04 131.34 151.04L118.5 137.89Z" fill="#B78876" />
		<path d="M161.6 88.2999C161.6 88.4499 160.94 88.4199 160.21 88.5299C159.48 88.6399 158.87 88.8199 158.8 88.6899C158.73 88.5599 159.29 88.1299 160.13 88.0099C160.97 87.8899 161.64 88.1699 161.6 88.2999Z" fill="#263238" />
		<path d="M170.71 87.84C170.61 87.96 170.14 87.71 169.52 87.61C168.9 87.51 168.38 87.55 168.33 87.41C168.28 87.27 168.85 86.95 169.62 87.09C170.39 87.23 170.81 87.74 170.71 87.84Z" fill="#263238" />
		<path d="M289 84.8301C281.24 123.34 253 268.13 245.49 306.77C244.998 309.304 245.527 311.93 246.961 314.077C248.396 316.223 250.62 317.716 253.15 318.23L411.66 350.35C412.926 350.606 414.231 350.609 415.498 350.358C416.766 350.108 417.971 349.609 419.045 348.89C420.118 348.172 421.039 347.248 421.754 346.171C422.469 345.095 422.964 343.888 423.21 342.62L444.91 230.67L458.44 232.76C460.036 233.006 461.664 232.622 462.982 231.689C464.299 230.755 465.202 229.347 465.5 227.76L482 137.35C482.147 136.547 482.135 135.723 481.963 134.924C481.791 134.126 481.464 133.37 480.999 132.698C480.535 132.027 479.943 131.453 479.256 131.011C478.57 130.568 477.803 130.266 477 130.12L464.85 127.84L466.44 119.1C466.897 116.58 466.342 113.981 464.895 111.867C463.447 109.753 461.225 108.295 458.71 107.81L300.35 77.2001C297.835 76.7257 295.235 77.2602 293.111 78.688C290.987 80.1158 289.51 82.3222 289 84.8301Z" fill="#263238" />
		<path d="M300.79 88.55L248.45 310.04L411.07 347.31L462.32 127.38L300.79 88.55Z" fill="#E0E0E0" />
		<path d="M281.88 80.3201L244.61 304.83L409.39 331.04L445.67 108.16L281.88 80.3201Z" fill="#EBEBEB" />
		<path d="M257.71 92.0701L250.76 319.55L417.55 323.53L423.75 97.7901L257.71 92.0701Z" fill="white" />
		<path d="M257.72 92.0701L423.72 97.5801H424V97.7901C422.27 161.21 420.14 239.24 417.84 323.52V323.78H417.58H416.36L250.78 319.78H250.54V319.54C254.8 185 257.67 94.1601 257.74 92.0701C257.65 94.1601 255 185 251 319.56L250.77 319.32L416.35 323.24H417.57L417.3 323.49C419.64 239.21 421.8 161.18 423.55 97.7501L423.76 97.9701L257.72 92.0701Z" fill="#263238" />
		<path d="M400.36 140.73C400.36 141.17 371.66 141.12 336.28 140.64C300.9 140.16 272.21 139.42 272.21 138.99C272.21 138.56 300.91 138.6 336.3 139.08C371.69 139.56 400.37 140.3 400.36 140.73Z" fill="#263238" />
		<path d="M401.56 160.86C401.56 161.29 372.87 161.25 337.48 160.77C302.09 160.29 273.41 159.54 273.42 159.11C273.43 158.68 302.11 158.72 337.5 159.2C372.89 159.68 401.57 160.43 401.56 160.86Z" fill="#263238" />
		<path d="M403.28 222.55C403.28 222.98 374.58 222.94 339.2 222.46C303.82 221.98 275.12 221.24 275.13 220.8C275.14 220.36 303.82 220.41 339.22 220.9C374.62 221.39 403.28 222.12 403.28 222.55Z" fill="#263238" />
		<path d="M403.28 203C403.28 203.43 374.58 203.39 339.2 202.9C303.82 202.41 275.12 201.68 275.13 201.25C275.14 200.82 303.82 200.86 339.22 201.34C374.62 201.82 403.28 202.61 403.28 203Z" fill="#263238" />
		<path d="M403.28 183.52C403.28 183.95 374.58 183.91 339.2 183.43C303.82 182.95 275.12 182.21 275.13 181.78C275.14 181.35 303.82 181.39 339.22 181.87C374.62 182.35 403.28 183.09 403.28 183.52Z" fill="#263238" />
		<path d="M401.34 244.33C401.34 244.76 372.64 244.72 337.26 244.24C301.88 243.76 273.19 243.02 273.19 242.59C273.19 242.16 301.89 242.2 337.28 242.68C372.67 243.16 401.35 243.9 401.34 244.33Z" fill="#263238" />
		<path d="M401 265.74C401 266.17 372.3 266.13 336.92 265.65C301.54 265.17 272.84 264.42 272.85 263.99C272.86 263.56 301.54 263.6 336.94 264.08C372.34 264.56 401 265.31 401 265.74Z" fill="#263238" />
		<path d="M400.6 287.14C400.6 287.57 371.9 287.53 336.51 287.05C301.12 286.57 272.44 285.83 272.45 285.4C272.46 284.97 301.14 285.01 336.54 285.49C371.94 285.97 400.6 286.71 400.6 287.14Z" fill="#263238" />
		<path d="M421.67 145.34C444.071 145.34 462.23 127.163 462.23 104.74C462.23 82.3173 444.071 64.14 421.67 64.14C399.269 64.14 381.11 82.3173 381.11 104.74C381.11 127.163 399.269 145.34 421.67 145.34Z" fill="#4F63FF" />
		<path opacity="0.5" d="M421.71 145.34C444.133 145.34 462.31 127.163 462.31 104.74C462.31 82.3173 444.133 64.14 421.71 64.14C399.287 64.14 381.11 82.3173 381.11 104.74C381.11 127.163 399.287 145.34 421.71 145.34Z" fill="black" />
		<path d="M417.21 145.34C439.611 145.34 457.77 127.163 457.77 104.74C457.77 82.3173 439.611 64.14 417.21 64.14C394.809 64.14 376.65 82.3173 376.65 104.74C376.65 127.163 394.809 145.34 417.21 145.34Z" fill="#4F63FF" />
		<path d="M417.51 80.8201H416.93C415.781 80.8201 414.85 81.7513 414.85 82.9001V126.59C414.85 127.739 415.781 128.67 416.93 128.67H417.51C418.659 128.67 419.59 127.739 419.59 126.59V82.9001C419.59 81.7513 418.659 80.8201 417.51 80.8201Z" fill="#FAFAFA" />
		<path d="M393.31 104.47V105.03C393.31 106.184 394.246 107.12 395.4 107.12H439.04C440.194 107.12 441.13 106.184 441.13 105.03V104.47C441.13 103.316 440.194 102.38 439.04 102.38H395.4C394.246 102.38 393.31 103.316 393.31 104.47Z" fill="#FAFAFA" />
	</g>
	<defs>
		<clipPath id="clip0_35_271">
			<rect width="519" height="354" fill="white" />
		</clipPath>
	</defs>
</svg>
