<svg width="44" height="30" viewBox="0 0 44 30" fill="none" xmlns="http://www.w3.org/2000/svg">
	<path d="M0 0H44V30H0V0Z" fill="#D50000" />
	<path d="M19.6929 19.714L20.7829 16.359L17.9299 14.286H21.4569L22.5479 10.929L23.6389 14.286H27.1659L24.3129 16.359L25.4029 19.714L22.5489 17.641L19.6929 19.714ZM23.1549 17.199L24.0399 17.842L23.7019 16.801L23.1549 17.199ZM21.3909 16.801L21.0529 17.842L21.9379 17.199L21.3909 16.801ZM21.6229 16.086L22.5459 16.757L23.4689 16.086L23.1169 15.002H21.9749L21.6229 16.086ZM20.1309 15.002L21.0149 15.644L21.2239 15.002H20.1309ZM23.8699 15.002L24.0789 15.644L24.9629 15.002H23.8699ZM22.2079 14.286H22.8849L22.5459 13.244L22.2079 14.286Z" fill="#1B5E20" />
</svg>
