<svg width="34" height="34" viewBox="0 0 34 34" fill="none" xmlns="http://www.w3.org/2000/svg">
	<path d="M13.6956 24.837V13.5023H12.3505C11.3871 14.0158 10.456 14.5878 9.5625 15.215V16.6919C10.3594 16.1458 11.6216 15.3744 12.2357 15.0408H12.2612V24.837H13.6956V24.837ZM16.2201 22.0639C16.32 23.4239 17.4824 25.0516 19.839 25.0516C22.5123 25.0516 24.089 22.7864 24.089 18.9508C24.089 14.841 22.4294 13.2812 19.9389 13.2812C17.9711 13.2812 16.1202 14.7093 16.1202 17.1254C16.1202 19.5904 17.8713 20.8866 19.6818 20.8866C21.267 20.8866 22.2955 20.0876 22.6206 19.2079H22.678C22.6695 22.0044 21.6984 23.8064 19.9049 23.8064C18.4939 23.8064 17.7629 22.8501 17.6736 22.0639H16.2201V22.0639ZM22.4953 17.1403C22.4953 18.6193 21.3074 19.6478 19.9793 19.6478C18.7021 19.6478 17.5483 18.8339 17.5483 17.0977C17.5483 15.3489 18.785 14.5265 20.0302 14.5265C21.3754 14.5265 22.4953 15.3723 22.4953 17.1403Z" fill="#5668F5" />
	<path d="M7.4375 0C7.71929 0 7.98954 0.111942 8.1888 0.311199C8.38806 0.510456 8.5 0.780707 8.5 1.0625V2.125H25.5V1.0625C25.5 0.780707 25.6119 0.510456 25.8112 0.311199C26.0105 0.111942 26.2807 0 26.5625 0C26.8443 0 27.1145 0.111942 27.3138 0.311199C27.5131 0.510456 27.625 0.780707 27.625 1.0625V2.125H29.75C30.8772 2.125 31.9582 2.57277 32.7552 3.3698C33.5522 4.16683 34 5.24783 34 6.375V29.75C34 30.8772 33.5522 31.9582 32.7552 32.7552C31.9582 33.5522 30.8772 34 29.75 34H4.25C3.12283 34 2.04183 33.5522 1.2448 32.7552C0.447767 31.9582 0 30.8772 0 29.75V6.375C0 5.24783 0.447767 4.16683 1.2448 3.3698C2.04183 2.57277 3.12283 2.125 4.25 2.125H6.375V1.0625C6.375 0.780707 6.48694 0.510456 6.6862 0.311199C6.88546 0.111942 7.15571 0 7.4375 0V0ZM2.125 8.5V29.75C2.125 30.3136 2.34888 30.8541 2.7474 31.2526C3.14591 31.6511 3.68641 31.875 4.25 31.875H29.75C30.3136 31.875 30.8541 31.6511 31.2526 31.2526C31.6511 30.8541 31.875 30.3136 31.875 29.75V8.5H2.125Z" fill="#5668F5" />
</svg>
