<svg width="145" height="117" viewBox="0 0 145 117" fill="none" xmlns="http://www.w3.org/2000/svg">
	<g clip-path="url(#clip0_54_64)">
		<path d="M51.7886 73.7478C34.4209 69.7136 19.6774 71.6178 7.28959 54.5995C-4.42516 38.5141 -1.13651 24.3115 10.8679 12.1154C42.2336 -19.7317 73.4374 20.7715 112.552 27.2636C146.631 32.9208 156.565 89.1814 127.202 108.773C117.74 115.09 99.1502 120.905 88.0787 112.394C72.5812 100.462 75.6611 79.2856 51.7886 73.7478Z" fill="#FF5252" />
		<path opacity="0.9" d="M51.7886 73.7478C34.4209 69.7136 19.6774 71.6178 7.28959 54.5995C-4.42516 38.5141 -1.13651 24.3115 10.8679 12.1154C42.2336 -19.7317 73.4374 20.7715 112.552 27.2636C146.631 32.9208 156.565 89.1814 127.202 108.773C117.74 115.09 99.1502 120.905 88.0787 112.394C72.5812 100.462 75.6611 79.2856 51.7886 73.7478Z" fill="white" />
		<path d="M100.372 108.086C100.372 108.938 100.071 109.761 99.5206 110.411C98.9707 111.061 98.208 111.495 97.3683 111.635C87.033 113.379 76.4785 113.379 66.1432 111.635C65.3071 111.491 64.5489 111.056 64.0031 110.406C63.4573 109.757 63.159 108.935 63.1613 108.086V73.5811H100.389L100.372 108.086Z" fill="#FF5252" />
		<path opacity="0.3" d="M63.14 74.203V79.0465C65.3807 79.8772 72.7375 80.4864 81.7558 80.4864C90.774 80.4864 98.1436 79.8772 100.372 79.0465V74.203H63.14Z" fill="black" />
		<path d="M101.07 77.8964C101.07 78.9912 92.6185 79.8772 81.7558 79.8772C70.893 79.8772 62.4413 78.9912 62.4413 77.8964L62.0878 73.5938H101.445L101.07 77.8964Z" fill="#FF5252" />
		<path d="M81.7558 75.5704C92.6181 75.5704 101.424 74.6855 101.424 73.5938C101.424 72.5022 92.6181 71.6172 81.7558 71.6172C70.8934 71.6172 62.0878 72.5022 62.0878 73.5938C62.0878 74.6855 70.8934 75.5704 81.7558 75.5704Z" fill="#FF5252" />
		<path opacity="0.3" d="M81.7558 75.5704C92.6181 75.5704 101.424 74.6855 101.424 73.5938C101.424 72.5022 92.6181 71.6172 81.7558 71.6172C70.8934 71.6172 62.0878 72.5022 62.0878 73.5938C62.0878 74.6855 70.8934 75.5704 81.7558 75.5704Z" fill="black" />
		<path opacity="0.2" d="M68.1326 105.658C67.7499 105.657 67.3833 105.505 67.1127 105.234C66.8421 104.963 66.6896 104.597 66.6885 104.214V84.431C66.6896 84.0484 66.8421 83.6817 67.1127 83.4111C67.3833 83.1406 67.7499 82.9881 68.1326 82.9869V82.9869C68.5149 82.9892 68.8809 83.142 69.1512 83.4124C69.4216 83.6827 69.5745 84.0487 69.5767 84.431V104.214C69.5745 104.596 69.4216 104.962 69.1512 105.233C68.8809 105.503 68.5149 105.656 68.1326 105.658V105.658Z" fill="black" />
		<path opacity="0.2" d="M95.3832 105.658C95.0005 105.657 94.6339 105.505 94.3633 105.234C94.0927 104.963 93.9402 104.597 93.9391 104.214V84.431C93.9402 84.0484 94.0927 83.6817 94.3633 83.4111C94.6339 83.1406 95.0005 82.9881 95.3832 82.9869C95.7655 82.9892 96.1315 83.142 96.4019 83.4124C96.6722 83.6827 96.8251 84.0487 96.8273 84.431V104.214C96.8251 104.596 96.6722 104.962 96.4019 105.233C96.1315 105.503 95.7655 105.656 95.3832 105.658V105.658Z" fill="black" />
		<path opacity="0.2" d="M86.2968 105.658C85.9145 105.656 85.5485 105.503 85.2782 105.233C85.0078 104.962 84.855 104.596 84.8527 104.214V84.431C84.855 84.0487 85.0078 83.6827 85.2782 83.4124C85.5485 83.142 85.9145 82.9892 86.2968 82.9869C86.6795 82.9881 87.0461 83.1406 87.3167 83.4111C87.5873 83.6817 87.7398 84.0484 87.7409 84.431V104.214C87.7398 104.597 87.5873 104.963 87.3167 105.234C87.0461 105.505 86.6795 105.657 86.2968 105.658V105.658Z" fill="black" />
		<path opacity="0.2" d="M77.2147 105.658C76.8324 105.656 76.4664 105.503 76.1961 105.233C75.9257 104.962 75.7729 104.596 75.7706 104.214V84.431C75.7729 84.0487 75.9257 83.6827 76.1961 83.4124C76.4664 83.142 76.8324 82.9892 77.2147 82.9869C77.5974 82.9881 77.964 83.1406 78.2346 83.4111C78.5052 83.6817 78.6577 84.0484 78.6588 84.431V104.214C78.6577 104.597 78.5052 104.963 78.2346 105.234C77.964 105.505 77.5974 105.657 77.2147 105.658Z" fill="black" />
		<path d="M61.0744 29.7847L44.5801 33.1926C44.298 33.2456 44.0064 33.1861 43.7675 33.0269C43.5287 32.8677 43.3617 32.6214 43.3021 32.3406L42.531 28.7623L42.2542 27.4417L42.7398 25.9337C42.8074 25.7173 42.8885 25.5053 42.9826 25.299C42.9932 25.2662 43.0075 25.2348 43.0252 25.2053C43.2973 24.5847 43.6637 24.0099 44.1115 23.5013L44.9635 23.3224L59.1063 20.3873C59.3884 20.3343 59.68 20.3938 59.9189 20.553C60.1577 20.7122 60.3247 20.9585 60.3843 21.2393L61.8881 28.4811C61.9496 28.7616 61.899 29.0551 61.7469 29.2987C61.5948 29.5423 61.3535 29.7168 61.0744 29.7847Z" fill="#FF5252" />
		<path opacity="0.3" d="M60.2565 20.8558L52.299 28.9496L50.595 28.2595L43.9666 25.5715L43.0337 25.1924C43.3058 24.5718 43.6722 23.997 44.12 23.4884L44.972 23.3095L59.1148 20.3744C59.3315 20.3311 59.5561 20.3539 59.7596 20.4397C59.9632 20.5255 60.1363 20.6705 60.2565 20.8558Z" fill="black" />
		<path d="M60.2565 20.8558L50.595 28.2723L49.9646 28.7579L43.8942 25.7461L42.9911 25.3202C43.0017 25.2874 43.016 25.256 43.0337 25.2264C43.3058 24.6059 43.6722 24.0311 44.12 23.5225L44.9719 23.3436L59.1148 20.4085C59.328 20.3618 59.5503 20.3793 59.7535 20.4589C59.9567 20.5386 60.1318 20.6767 60.2565 20.8558V20.8558Z" fill="#FF5252" />
		<path opacity="0.2" d="M60.2565 20.8558L50.595 28.2723L49.9646 28.7579L43.8942 25.7461L42.9911 25.3202C43.0017 25.2874 43.016 25.256 43.0337 25.2264C43.3058 24.6059 43.6722 24.0311 44.12 23.5225L44.9719 23.3436L59.1148 20.4085C59.328 20.3618 59.5503 20.3793 59.7535 20.4589C59.9567 20.5386 60.1318 20.6767 60.2565 20.8558V20.8558Z" fill="white" />
		<path d="M81.211 44.724L76.1843 50.1426C75.9859 50.3539 75.7121 50.4782 75.4225 50.4886C75.1329 50.4989 74.851 50.3945 74.638 50.198L62.3098 38.7176C62.0975 38.5198 61.9725 38.2458 61.9621 37.9559C61.9517 37.6659 62.0569 37.3837 62.2544 37.1712L67.2982 31.7526C67.3959 31.6464 67.5137 31.5606 67.6448 31.5003C67.7759 31.4399 67.9176 31.4062 68.0619 31.401C68.2061 31.3959 68.3499 31.4194 68.485 31.4703C68.6201 31.5211 68.7437 31.5983 68.8488 31.6972L81.1727 43.1777C81.3324 43.3263 81.4441 43.5192 81.4935 43.7317C81.5428 43.9443 81.5275 44.1667 81.4496 44.3705C81.3962 44.504 81.3149 44.6246 81.211 44.724Z" fill="#FF5252" />
		<path opacity="0.3" d="M81.4326 44.3918L70.2205 42.5643L67.6177 31.4885C67.8164 31.397 68.0377 31.3664 68.2537 31.4005C68.4698 31.4346 68.6709 31.5319 68.8317 31.6802L81.1557 43.1606C81.3232 43.3122 81.4397 43.5119 81.4893 43.7323C81.5389 43.9527 81.5191 44.1831 81.4326 44.3918Z" fill="black" />
		<path d="M81.4326 44.3917L70.5144 41.1372L67.6177 31.5268C67.8164 31.4353 68.0377 31.4047 68.2537 31.4388C68.4698 31.4729 68.6709 31.5703 68.8317 31.7185L81.1557 43.199C81.3154 43.3476 81.4271 43.5405 81.4765 43.753C81.5258 43.9656 81.5105 44.188 81.4326 44.3917Z" fill="#FF5252" />
		<path opacity="0.2" d="M81.4326 44.3917L70.5144 41.1372L67.6177 31.5268C67.8164 31.4353 68.0377 31.4047 68.2537 31.4388C68.4698 31.4729 68.6709 31.5703 68.8317 31.7185L81.1557 43.199C81.3154 43.3476 81.4271 43.5405 81.4765 43.753C81.5258 43.9656 81.5105 44.188 81.4326 44.3917Z" fill="white" />
		<path d="M85.5944 53.6485L91.1323 60.1151C91.2381 60.2388 91.3176 60.3828 91.3659 60.5382C91.4142 60.6937 91.4302 60.8574 91.4131 61.0193C91.3959 61.1811 91.3459 61.3378 91.2662 61.4797C91.1864 61.6217 91.0785 61.7458 90.9491 61.8446L78.9192 71.2164C78.717 71.3381 78.4768 71.3803 78.2453 71.3346C78.0137 71.2889 77.8075 71.1587 77.6668 70.9693L73.3344 66.0278C73.253 65.9328 73.1856 65.8267 73.1342 65.7126C73.0538 65.5559 73.0202 65.3793 73.0376 65.204C73.055 65.0287 73.1225 64.8622 73.2322 64.7243L83.882 53.6017C84.0483 53.4216 84.2679 53.2996 84.5087 53.2536C84.7494 53.2076 84.9986 53.24 85.2196 53.3461C85.3626 53.4222 85.4898 53.5249 85.5944 53.6485V53.6485Z" fill="#FF5252" />
		<path opacity="0.3" d="M85.2195 53.3589L82.5741 65.1247L73.1512 65.7254C73.0708 65.5687 73.0373 65.3921 73.0546 65.2168C73.072 65.0415 73.1396 64.8749 73.2492 64.7371L83.899 53.6145C84.064 53.4381 84.2806 53.3184 84.5178 53.2725C84.755 53.2266 85.0006 53.2568 85.2195 53.3589V53.3589Z" fill="black" />
		<path d="M85.2196 53.3589L80.785 65.8447L73.1427 65.7254C73.0623 65.5687 73.0288 65.3921 73.0462 65.2168C73.0635 65.0415 73.1311 64.875 73.2407 64.7371L83.8905 53.6145C84.0562 53.4363 84.2743 53.3155 84.5133 53.2695C84.7522 53.2236 84.9996 53.2549 85.2196 53.3589V53.3589Z" fill="#FF5252" />
		<path opacity="0.2" d="M85.2196 53.3589L80.785 65.8447L73.1427 65.7254C73.0623 65.5687 73.0288 65.3921 73.0462 65.2168C73.0635 65.0415 73.1311 64.875 73.2407 64.7371L83.8905 53.6145C84.0562 53.4363 84.2743 53.3155 84.5133 53.2695C84.7522 53.2236 84.9996 53.2549 85.2196 53.3589V53.3589Z" fill="white" />
	</g>
	<defs>
		<clipPath id="clip0_54_64">
			<rect width="144.871" height="116.415" fill="white" transform="translate(0 0.0438843)" />
		</clipPath>
	</defs>
</svg>
