<svg xmlns="http://www.w3.org/2000/svg" viewBox="0 0 500 500"><g id="freepik--Character--inject-10"><path d="M117.31,435.73l-6.63,23.55S131.81,474.1,131,478.57L86,467l8.87-37.12Z" style="fill:#455a64"></path><path d="M97.24,453.71a1.92,1.92,0,0,0-1.79,1.83,1.85,1.85,0,0,0,1.75,1.84,2,2,0,0,0,1.89-1.94c-.09-.95-1.12-1.94-2-1.71" style="fill:#e0e0e0"></path><g style="opacity:0.6000000000000001"><path d="M86,467l1-3.7,42.78,12.45s1.79,1.4,1.21,2.79Z" style="fill:#fff"></path></g><path d="M111.47,459.23c-.07.23-1.19,0-2.45.49s-2.07,1.25-2.25,1.11.47-1.36,2-1.87S111.56,459,111.47,459.23Z" style="fill:#263238"></path><path d="M115.7,462.44c0,.24-1,.37-2,1.14s-1.44,1.71-1.66,1.64,0-1.37,1.19-2.29S115.75,462.23,115.7,462.44Z" style="fill:#263238"></path><path d="M117,468.92c-.21,0-.24-1.2.62-2.29s2-1.32,2.06-1.11-.75.71-1.45,1.62S117.19,469,117,468.92Z" style="fill:#263238"></path><path d="M112.4,453.7c-.15.18-1.08-.39-2.34-.62s-2.33-.08-2.4-.31,1.06-.78,2.54-.49S112.55,453.55,112.4,453.7Z" style="fill:#263238"></path><path d="M101.53,441.28l-1,24.48s24,9.31,24.18,13.86l-46.41-.37.1-38.22Z" style="fill:#455a64"></path><path d="M86.15,463.59a1.94,1.94,0,0,0-1.33,2.2,1.81,1.81,0,0,0,2.12,1.37,2.05,2.05,0,0,0,1.4-2.34A1.87,1.87,0,0,0,86,463.65" style="fill:#e0e0e0"></path><g style="opacity:0.6000000000000001"><path d="M78.25,479.25l.16-3.85,44.44,1.79s2.06.94,1.81,2.43Z" style="fill:#fff"></path></g><path d="M101.24,465.53c0,.23-1.14.33-2.27,1.06s-1.72,1.71-1.93,1.62.14-1.43,1.52-2.3S101.29,465.31,101.24,465.53Z" style="fill:#263238"></path><path d="M106.09,467.63c0,.22-.93.61-1.71,1.59s-1,2-1.23,2-.36-1.33.63-2.52S106.09,467.41,106.09,467.63Z" style="fill:#263238"></path><path d="M108.81,473.62c-.21.05-.51-1.11.08-2.38s1.65-1.77,1.75-1.57-.57.87-1,1.91S109,473.6,108.81,473.62Z" style="fill:#263238"></path><path d="M100.87,459.92c-.09.21-1.13-.12-2.41,0s-2.29.49-2.4.29.85-1,2.36-1.1S101,459.74,100.87,459.92Z" style="fill:#263238"></path><path d="M72.82,262.11v19.36l5.07,75.42s-3.16,36.59-5.1,57.25c-1.68,17.93,1.07,49.17,1.07,49.17H103.4L114,359.14l6.56-65L132,264.6Z" style="fill:#263238"></path><polygon points="150.61 265.48 144.95 370.71 115.07 449.5 113.69 454.24 96.05 449.87 109.17 263.43 150.61 265.48" style="fill:#263238"></polygon><path d="M120.46,294.94a3,3,0,0,1,0,.44c0,.32,0,.74,0,1.28,0,1.16-.08,2.82-.15,4.94-.12,4.28-.42,10.47-.84,18.12-.89,15.3-2.55,36.41-5.15,59.65s-5.37,44.22-7.43,59.4c-1,7.56-1.89,13.69-2.48,18-.3,2.1-.54,3.74-.7,4.88-.09.54-.15,1-.2,1.27a2.39,2.39,0,0,1-.09.43l0-.44c0-.31.09-.73.15-1.27.14-1.15.34-2.79.6-4.9.54-4.27,1.33-10.41,2.31-18,2-15.19,4.71-36.17,7.27-59.41s4.31-44.31,5.3-59.6c.47-7.64.83-13.83,1-18.11.11-2.12.19-3.77.25-4.93,0-.54.06-1,.08-1.28A2.19,2.19,0,0,1,120.46,294.94Z" style="fill:#455a64"></path><path d="M122.33,268.62a1.52,1.52,0,1,1-1.52-1.56A1.53,1.53,0,0,1,122.33,268.62Z" style="fill:#455a64"></path><path d="M148.3,283.32a10,10,0,0,1-2.08-2,24.11,24.11,0,0,1-3.72-6,24.55,24.55,0,0,1-1.86-6.81,9.91,9.91,0,0,1-.07-2.92c.09,0,.15,1.11.45,2.87a29.44,29.44,0,0,0,2,6.63,29,29,0,0,0,3.51,5.93C147.59,282.46,148.36,283.25,148.3,283.32Z" style="fill:#455a64"></path><path d="M144.77,167.18s5.65,2.22,8.27,10.5c1.82,5.76,10.34,48.64,10.34,48.64l-11.88,7.83L146.67,194Z" style="fill:#e0e0e0"></path><path d="M99.59,146.7l-3.72,6.6S71,165.94,71.09,167.18c0,0,1.39,47.18,1.65,81.79.1,13.07-.38,25.08-.64,30.85-.69,15.15-1.23,74-1.23,74l90-2.13L144.77,167.18l-12.7-5.55-1.62-3.31-5.83-4.74Z" style="fill:#e0e0e0"></path><path d="M139,352.18a2,2,0,0,0,0-.4c0-.29,0-.68-.05-1.17-.06-1.07-.14-2.59-.25-4.53-.23-3.95-.57-9.63-1-16.62-.85-14.06-2-33.44-3.31-54.85s-2.35-40.79-3.16-54.86c-.37-7-.68-12.67-.89-16.63-.11-1.94-.19-3.45-.25-4.52,0-.49-.06-.88-.08-1.17a3,3,0,0,0-.05-.4,2.38,2.38,0,0,0,0,.4c0,.29,0,.68,0,1.18,0,1.06.08,2.58.15,4.52.14,3.93.39,9.62.72,16.64.66,14,1.72,33.45,3,54.88s2.52,40.8,3.47,54.83c.48,7,.88,12.66,1.15,16.62.15,1.93.27,3.45.35,4.51l.1,1.18A1.8,1.8,0,0,0,139,352.18Z" style="fill:#263238"></path><polyline points="124.62 153.58 126.71 168.03 130.45 197.03 114.15 169.05 100 150.51 123.32 166.85 123.61 153.31" style="fill:#FF725E"></polyline><path d="M95.76,154.18a6.37,6.37,0,0,0,.45,1.13c.35.79.81,1.84,1.39,3.13l5.06,11,.06.14h.16l3.4,0-.16-.46-2.5,2.05-.23.19.21.21,4.74,4.64L123.59,191l4.66,4.43,1.29,1.19a2.61,2.61,0,0,0,.47.39,2.15,2.15,0,0,0-.4-.47l-1.21-1.26-4.55-4.56-15.13-14.9c-1.63-1.6-3.23-3.15-4.75-4.63v.39l2.49-2.06.55-.46h-.72l-3.4,0,.22.14c-2.13-4.44-3.93-8.2-5.24-10.92-.63-1.27-1.13-2.3-1.51-3.07A7.61,7.61,0,0,0,95.76,154.18Z" style="fill:#263238"></path><path d="M130.45,197a12.07,12.07,0,0,0,.33-1.8c.18-1.25.41-2.91.69-4.92.56-4.16,1.3-9.91,2.08-16.26l.72-5.92,0-.23-.23-.06-4.09-1v.48l4.1-.73.28-.05-.12-.25-2.7-5.87c-.31-.63-.56-1.16-.77-1.59a2,2,0,0,0-.31-.54,2.5,2.5,0,0,0,.2.59c.18.44.4,1,.66,1.64.64,1.5,1.5,3.51,2.53,5.94l.16-.29-4.11.67-1.18.19,1.16.29,4.08,1-.2-.28c-.24,1.88-.48,3.87-.74,5.91-.78,6.36-1.46,12.11-1.92,16.28-.21,2-.39,3.69-.52,5A11.61,11.61,0,0,0,130.45,197Z" style="fill:#263238"></path><path d="M116.54,274.21l-.58,0-1.73.11-6.64.48-23.78,1.83-.24,0,0,.24c.38,4.47.8,9.33,1.24,14.45q.33,3.86.68,7.89c.12,1.35.23,2.7.35,4.07a11,11,0,0,0,.33,2.1,7.37,7.37,0,0,0,.94,2,8.57,8.57,0,0,0,5.59,3.37,45.55,45.55,0,0,0,6.34.34,53.69,53.69,0,0,0,11.89-1.3,17.9,17.9,0,0,0,2.71-.89,8.3,8.3,0,0,0,1.26-.64,4.1,4.1,0,0,0,.57-.46,5.81,5.81,0,0,0,.45-.56,13.27,13.27,0,0,0,1.55-5.07,62.35,62.35,0,0,0,.47-9.41c-.09-5.76-.5-10.4-.81-13.6-.15-1.6-.3-2.83-.41-3.67,0-.4-.1-.71-.13-1a1,1,0,0,0-.07-.32s0,.11,0,.33,0,.56.08,1c.08.88.18,2.11.31,3.68.25,3.2.6,7.84.64,13.58a65.73,65.73,0,0,1-.53,9.34,13,13,0,0,1-1.51,4.87,4.07,4.07,0,0,1-2.08,1.48,17.2,17.2,0,0,1-2.63.85,53.69,53.69,0,0,1-11.77,1.26,45.09,45.09,0,0,1-6.24-.34,8.06,8.06,0,0,1-5.25-3.15,7.26,7.26,0,0,1-.86-1.8,10.86,10.86,0,0,1-.31-2c-.12-1.37-.24-2.73-.35-4.08-.24-2.68-.47-5.32-.7-7.88-.46-5.13-.89-10-1.29-14.45l-.21.26,23.61-2.06,6.68-.61,1.78-.17A4.68,4.68,0,0,0,116.54,274.21Z" style="fill:#263238"></path><g style="opacity:0.30000000000000004"><path d="M86.22,304.74c2.54,6.62,9.17,7,16.31,6,6.71-1,13.17-2.39,13.67-4.31-.18,3.51-2.76,6.2-6,7.61a23.32,23.32,0,0,1-10.33,1.45c-3.67-.17-6.84,0-9.87-2.09S86.21,307.76,86.22,304.74Z"></path></g><path d="M154.29,276.26a1.18,1.18,0,0,1,0-.25l-.09-.72q-.1-1-.3-2.79c-.24-2.48-.58-6-1-10.28-.82-8.68-1.92-20.68-3.08-33.93s-2.16-25.26-2.83-34c-.33-4.35-.57-7.87-.71-10.3-.08-1.22-.11-2.16-.13-2.81,0-.29,0-.53,0-.73a.72.72,0,0,1,0-.25c.24,2.82,1.91,21.93,4.19,48,1.14,13.24,2.18,25.22,2.93,33.95.35,4.31.64,7.81.84,10.29.09,1.18.16,2.12.21,2.8,0,.29,0,.53,0,.73A1,1,0,0,1,154.29,276.26Z" style="fill:#263238"></path><path d="M167.33,227.27a12.5,12.5,0,0,1,.42,4.26c-.21,2.19-.31,7.57-6.14,9.41s-8.66.08-10.45-2.39l-.89-10.7,6.24-4.12Z" style="fill:#e0e0e0"></path><g style="opacity:0.30000000000000004"><path d="M118.62,234.15S103.71,248.88,92.13,251s-15.72-2-18.8-12.37Z"></path></g><path d="M71.36,166.82s-9.47,8.78-6.77,29.57c2.5,19.32,7,46.22,12.88,49.35s18.73,1.56,28.1-3.75,36.52-19.67,36.52-19.67l-11.24-20-36.21,14s-4.68-32-7.49-37.56" style="fill:#e0e0e0"></path><path d="M87,178.39s.1.21.28.62c.08.2.2.45.32.76s.22.69.36,1.1c.53,1.66,1.16,4.15,1.85,7.39,1.4,6.47,3.09,15.91,4.87,27.67l-.26-.16,36.19-14.1.2-.08.11.19c3.55,6.32,7.33,13,11.25,20l.13.24-.24.13-23.22,12.51-11.39,6.13c-1.87,1-3.73,2.05-5.66,2.88a47.17,47.17,0,0,1-5.92,2.05,38.71,38.71,0,0,1-12.08,1.4A17.69,17.69,0,0,1,78,245.87l-.68-.3c-.22-.11-.43-.27-.65-.41a6.58,6.58,0,0,1-1-1.06,13.85,13.85,0,0,1-1.53-2.47,55.53,55.53,0,0,1-3.64-10.48c-.91-3.47-1.63-6.88-2.28-10.19-1.28-6.61-2.23-12.81-3-18.48s-1.5-10.83-1.29-15.4a38.37,38.37,0,0,1,2.06-11.47,25.44,25.44,0,0,1,3.43-6.52,15.19,15.19,0,0,1,1.24-1.47,5.85,5.85,0,0,1,.48-.44l-.44.48a17.29,17.29,0,0,0-1.19,1.49,26.13,26.13,0,0,0-3.32,6.53,38.34,38.34,0,0,0-2,11.41c-.18,4.54.54,9.67,1.36,15.33s1.79,11.86,3.09,18.46c.65,3.29,1.38,6.69,2.3,10.15a55.39,55.39,0,0,0,3.61,10.38A14.06,14.06,0,0,0,76,243.78a6.42,6.42,0,0,0,1,1,4.69,4.69,0,0,0,.58.35l.64.29a17.2,17.2,0,0,0,5.64,1.17,38.33,38.33,0,0,0,11.91-1.39,48.08,48.08,0,0,0,5.84-2c1.92-.83,3.74-1.86,5.62-2.86l11.39-6.14,23.23-12.5-.11.36-11.22-20,.31.11-36.23,14-.23.09,0-.24c-1.73-11.75-3.36-21.2-4.69-27.68-.65-3.24-1.25-5.74-1.75-7.4-.12-.41-.23-.78-.33-1.1l-.29-.77C87.11,178.61,87,178.39,87,178.39Z" style="fill:#263238"></path><rect x="100" y="196.38" width="17.97" height="5.98" transform="translate(217.97 398.73) rotate(180)" style="fill:#fff"></rect><path d="M103.72,199a29.21,29.21,0,0,1,5.6-.27,29.28,29.28,0,0,1,5.61.27,30.86,30.86,0,0,1-5.61.26A30.79,30.79,0,0,1,103.72,199Z" style="fill:#263238"></path><g style="opacity:0.30000000000000004"><polygon points="129.54 196.64 103.09 175.18 103.72 173.31 101.42 173.31 97.6 158.44 103.1 169.24 106.28 169.09 103.97 171.21 129.54 196.64"></polygon></g><path d="M96.87,172.18l1-.4c0-.05-2.17-5.22-4.3-10.7a10.58,10.58,0,0,1-.9-5.38,2.51,2.51,0,0,1,2.54-2l.7-.37.36-.64c-1.85-.4-4.33,1.15-4.63,2.86a11.61,11.61,0,0,0,1,5.94C94.69,167,96.84,172.13,96.87,172.18Z" style="fill:#455a64"></path><path d="M95.31,184.26l1.33-.52c-1.09-2.81-2.58-7.78-1.94-9.18a4.17,4.17,0,0,1,2.86-1.89,4.78,4.78,0,0,1,4.17.86c1.52,1.29,3.82,5.83,4.58,7.48l1.29-.6c-.11-.25-2.87-6.22-4.95-8a6.18,6.18,0,0,0-5.4-1.16A5.43,5.43,0,0,0,93.41,174C92.33,176.32,94.8,183,95.31,184.26Z" style="fill:#455a64"></path><path d="M109.67,205.94c1.64,0,3.26-.88,4.81-2.62l-.54-.48c-1.7,1.93-3.46,2.69-5.2,2.28-7.11-1.67-12.53-21.42-12.58-21.62l-.69.18c.23.83,5.58,20.37,13.1,22.13A4.59,4.59,0,0,0,109.67,205.94Z" style="fill:#263238"></path><path d="M113.11,204.13h0a.85.85,0,0,0,1.11.08l1.54-1.15a1,1,0,0,0,.29-1.42h0a1,1,0,0,0-1.57-.15l-1.39,1.44A.85.85,0,0,0,113.11,204.13Z" style="fill:#263238"></path><path d="M106.65,206.59a5.57,5.57,0,0,0,4.85-2.17c4.37-6.13-3.87-23.15-4.22-23.87l-.64.31c.08.18,8.41,17.36,4.28,23.15-1.08,1.51-3,2.11-5.62,1.78l-.09.7A10.47,10.47,0,0,0,106.65,206.59Z" style="fill:#263238"></path><path d="M106.78,206.2h0a.85.85,0,0,1-.78.79l-1.92.16a1,1,0,0,1-1.15-.87h0a1,1,0,0,1,1.07-1.16l2,.17A.86.86,0,0,1,106.78,206.2Z" style="fill:#263238"></path><circle cx="141" cy="180.24" r="5.08" style="fill:#263238"></circle><circle cx="141" cy="180.24" r="5.08" style="fill:#263238"></circle><path d="M137.25,180.24a3.76,3.76,0,1,0,3.75-3.75A3.75,3.75,0,0,0,137.25,180.24Z" style="fill:#e0e0e0"></path><path d="M130.22,158.11c.48.69,5.79,11.9,8.69,17.55l.85-.44c-.43-.83-8.15-16.76-8.75-17.65L125.39,153l-.2,1.07Z" style="fill:#455a64"></path><path d="M128.09,180.12c3.68,3.67,13,13.22,13,13.22l2.49-1.5-13.12-14a1.64,1.64,0,0,0-2.11-.24h0A1.64,1.64,0,0,0,128.09,180.12Z" style="fill:#263238"></path><path d="M130.74,201.91l3.13-8.82a5,5,0,0,1,4.51-3.38l.47,0c1.88.21,11.45.84,11.45.84l3.7,4.15a1.89,1.89,0,0,1,0,2.5h0l1.07,7.5L153,206.14l.21,5.24s-1.87,1.24-2.7.83l-.84-.42-1.24-1.25-3.54,5L140,218.37Z" style="fill:#ffbf9d"></path><path d="M154.06,197.62a17,17,0,0,0-1.34-1.45,6.31,6.31,0,0,0-1.79-1.08,13.41,13.41,0,0,0-2.59-.35,43.74,43.74,0,0,1-6.83-.92,43.69,43.69,0,0,1,6.88.38,11.37,11.37,0,0,1,2.71.42,6,6,0,0,1,1.88,1.26A3.18,3.18,0,0,1,154.06,197.62Z" style="fill:#ff9a6c"></path><path d="M153.85,204.51a15.5,15.5,0,0,0-.77-1.91,7.43,7.43,0,0,0-3.7-3.1,14.06,14.06,0,0,0-4.9-.83,10.89,10.89,0,0,1-2.1-.06,6.25,6.25,0,0,1,2.1-.32,12.14,12.14,0,0,1,5.1.7,7.2,7.2,0,0,1,3.84,3.43A3.24,3.24,0,0,1,153.85,204.51Z" style="fill:#ff9a6c"></path><path d="M152.91,210.94a4.06,4.06,0,0,1-.5-2.06,6.9,6.9,0,0,0-.47-2.15,2.64,2.64,0,0,0-2-1.49,37.2,37.2,0,0,0-5-.72,5.69,5.69,0,0,1-2.07-.48,14.88,14.88,0,0,1,2.11.1,24.8,24.8,0,0,1,5.09.57,4.07,4.07,0,0,1,1.4.65,2.82,2.82,0,0,1,.88,1.17,6.36,6.36,0,0,1,.39,2.32C152.79,210.15,153,210.91,152.91,210.94Z" style="fill:#ff9a6c"></path><polygon points="158.13 194.4 116.85 237.03 118.44 238.64 148.01 235.31 187.8 197.4 187.76 195.58 158.13 194.4" style="fill:#455a64"></polygon><g style="opacity:0.30000000000000004"><path d="M165.86,214.28a9.43,9.43,0,0,0-7.25-2.42,13.29,13.29,0,0,0-7.14,3,9.62,9.62,0,0,0-3.56,5.1c-.84,3.58,2.11,8.59,5.36,10.33h0c4.12-3.31,8.13-8.39,12.25-11.69a3.55,3.55,0,0,0,1.43-1.83A2.91,2.91,0,0,0,165.86,214.28Z"></path></g><path d="M187.64,197.32a3.85,3.85,0,0,1-.54,0h-1.58l-5.92-.07L159,196.89l.19-.08-10.34,10.73-21.45,22.07-6.54,6.64-1.8,1.79a6.67,6.67,0,0,1-.65.6A4.68,4.68,0,0,1,119,238l1.73-1.86,6.42-6.76c5.49-5.71,13-13.54,21.33-22.18,3.65-3.78,7.16-7.4,10.36-10.7l.08-.08H159l20.57.59,5.91.21,1.58.08A2.64,2.64,0,0,1,187.64,197.32Z" style="fill:#263238"></path><path d="M161.8,209.82s4,.08,5.31.73S172,215,172,215s0,2.6-1,2.7a9.09,9.09,0,0,1,.21,1.77c.1,1.46.31,2.29-1.67,3.54,0,0,.21,2.39-.52,3a14.22,14.22,0,0,1-1.56,1.14s-.11,2.63-3.64,2.6l-3.31,1.46s-7.36-.69-6.58-1.56,2.55-5.18,2.55-5.18-5-3.67-4.94-4.81.52-1.25.52-1.25-.2-2.18,1.56-2.39c0,0,1.36-2.71,2.71-2.81s10.51,3.22,10.51,3.22l-3.43-2.91s-3.44-.52-3.33-1.67S161.8,209.82,161.8,209.82Z" style="fill:#ffbf9d"></path><path d="M161.2,223.53a50,50,0,0,1-4.65-2.25A50.55,50.55,0,0,1,151.9,219a16.34,16.34,0,0,1,4.89,1.75A16.7,16.7,0,0,1,161.2,223.53Z" style="fill:#ff9a6c"></path><path d="M166,220.35a37,37,0,0,1-6-1.94,36.08,36.08,0,0,1-5.78-2.45,37,37,0,0,1,6,1.94A36.08,36.08,0,0,1,166,220.35Z" style="fill:#ff9a6c"></path><path d="M100.82,128.2A83.51,83.51,0,0,1,98,114.33a28.74,28.74,0,0,1,1.84-13.91c.29-.66,2.65-5,3.35-4.94.51.07-1,4.2-.78,4.66,2.24,4.34,2.64,9.45,2,14.3a63.86,63.86,0,0,1-3.55,13.76" style="fill:#263238"></path><path d="M101.29,110.17c.22-11.86,7.31-21.6,19.15-21l1.09.12a21.18,21.18,0,0,1,19,21.59c-.25,10.27-.66,21.61-1.3,27.07-1.33,11.29-12.83,11.86-12.83,11.86s-2.62,17.42-2.62,17.42L99.59,150.41Z" style="fill:#ffbf9d"></path><path d="M126.36,149.85a27.52,27.52,0,0,1-14.27-5.91s2.26,9.67,13.65,9.84Z" style="fill:#ff9a6c"></path><path d="M136.18,120.29a1.62,1.62,0,0,1-1.73,1.46,1.55,1.55,0,0,1-1.51-1.63,1.63,1.63,0,0,1,1.73-1.47A1.56,1.56,0,0,1,136.18,120.29Z" style="fill:#263238"></path><path d="M137.58,115.27c-.22.18-1.35-.85-3.09-1s-3.1.56-3.27.33.16-.47.76-.81a4.41,4.41,0,0,1,2.65-.52,4.3,4.3,0,0,1,2.43,1.07C137.55,114.78,137.69,115.18,137.58,115.27Z" style="fill:#263238"></path><path d="M121.31,119.59a1.63,1.63,0,0,1-1.73,1.47,1.56,1.56,0,0,1-1.51-1.64A1.63,1.63,0,0,1,119.8,118,1.55,1.55,0,0,1,121.31,119.59Z" style="fill:#263238"></path><path d="M120.48,114.17c-.22.19-1.35-.84-3.09-1s-3.1.56-3.27.32.16-.46.76-.8a4.41,4.41,0,0,1,2.65-.52,4.3,4.3,0,0,1,2.43,1.07C120.45,113.69,120.59,114.09,120.48,114.17Z" style="fill:#263238"></path><path d="M125.31,128.19a11.06,11.06,0,0,1,2.88-.21c.44,0,.87,0,1-.34a2.28,2.28,0,0,0-.16-1.35l-.95-3.52c-1.32-5-2.22-9.1-2-9.15s1.43,4,2.75,9c.31,1.23.61,2.41.9,3.53a2.6,2.6,0,0,1,0,1.77,1.11,1.11,0,0,1-.79.57,3,3,0,0,1-.77,0A11.73,11.73,0,0,1,125.31,128.19Z" style="fill:#263238"></path><path d="M120.07,128.85c.28,0,.09,1.9,1.56,3.41s3.5,1.51,3.49,1.78-.49.32-1.34.25a4.69,4.69,0,0,1-2.92-1.38,4.08,4.08,0,0,1-1.19-2.84C119.68,129.27,119.94,128.83,120.07,128.85Z" style="fill:#263238"></path><path d="M121.13,107.11c-.22.45-1.93,0-4,.08s-3.77.41-4,0c-.1-.22.24-.63,1-1a6.64,6.64,0,0,1,3-.72,6.71,6.71,0,0,1,3,.69C120.89,106.48,121.23,106.89,121.13,107.11Z" style="fill:#263238"></path><path d="M137.47,109.41c-.35.36-1.5-.17-2.94-.34s-2.68,0-2.92-.46c-.1-.21.13-.59.7-.91a4.12,4.12,0,0,1,2.46-.39,4,4,0,0,1,2.27,1C137.5,108.81,137.63,109.23,137.47,109.41Z" style="fill:#263238"></path><path d="M101.33,118.64c-.19-.11-7.53-3.12-8.1,4.64s7.34,6.73,7.37,6.51S101.33,118.64,101.33,118.64Z" style="fill:#ffbf9d"></path><path d="M98.44,126.67s-.14.09-.38.18a1.39,1.39,0,0,1-1-.06c-.79-.36-1.39-1.71-1.33-3.11a4.62,4.62,0,0,1,.52-1.91,1.56,1.56,0,0,1,1.1-1,.68.68,0,0,1,.77.43c.09.22,0,.37.07.39s.17-.12.13-.44a.86.86,0,0,0-.27-.51,1,1,0,0,0-.73-.25,1.87,1.87,0,0,0-1.5,1.1,4.66,4.66,0,0,0-.63,2.12c-.06,1.57.63,3.09,1.73,3.5a1.44,1.44,0,0,0,1.25-.12C98.42,126.86,98.47,126.69,98.44,126.67Z" style="fill:#ff9a6c"></path><path d="M136.3,97.64c1.3-.61-2.21-4.92-5.21-6.52-4.53-2.42-11.57-4.18-16-3.24-5.28,1.14-9.75,3.44-12.65,8a30.6,30.6,0,0,0-4.43,15.37,9.29,9.29,0,0,0,.79,4.82c1,1.78,3,3,2.74,5.36a3.26,3.26,0,0,0,.65,2.42c1.33,1.61,3.15.3,4.05-1.07,1.9-2.94,2.32-6.55,2.7-10a22.74,22.74,0,0,0,0-7.41c-.3-1.32-.83-2.58-1-3.92a4.67,4.67,0,0,1,.8-3.84,4.84,4.84,0,0,1,.67-.59,8.11,8.11,0,0,1,8.13-1c4.27,1.83,11.59,4.62,13.64,3.26,2.94-1.95,3.7-3.3,3.7-3.3Z" style="fill:#263238"></path></g></svg>