<svg width="180" height="168" viewBox="0 0 180 168" fill="none" xmlns="http://www.w3.org/2000/svg">
  <path d="M172.102 27.587L171.022 25.8104C165.26 12.7904 145.751 1.9544 128.182 2.9078C125.951 3.03581 123.734 3.33915 121.55 3.815C105.805 7.175 92.1043 19.0946 86.4217 34.3448C83.0827 43.316 82.1503 53.6438 75.8125 60.7628C67.5595 70.028 53.5525 70.3178 41.2423 69.9356C28.9321 69.5534 14.9167 69.8768 6.70565 79.1756C1.56485 85.001 -0.0689454 93.2876 0.346855 101.087C1.44305 121.743 15.8365 140.214 34.1401 149.387C52.4437 158.56 73.9981 159.387 94.0321 155.351C122.105 149.706 148.8 134.17 164.836 110.18C180.871 86.1896 184.92 53.48 172.102 27.587Z" fill="#D7DEFF"/>
  <path d="M155.121 7.85959L146.603 1.61839L145.516 11.9042L134.684 13.0382L143.004 21.3542L136.637 27.4232L145.654 28.0868L146.7 36.1802L153.836 30.1532L163.504 36.1802L166.205 26.2052L176.881 24.7058L167.524 18.0488L172.568 9.1868L164.445 11.0432L162.16 0.144196L155.121 7.85959Z" fill="white"/>
  <path d="M155.121 7.85959L155.583 7.33459C155.894 6.99439 156.347 6.49459 156.94 5.83099L162.122 0.110593L162.194 0.0307922L162.215 0.135792C162.845 3.12199 163.626 6.80959 164.516 11.0306L164.428 10.9718L172.551 9.10279L172.736 9.06079L172.643 9.22879L167.603 18.095L167.574 17.9732L176.94 24.6218L177.146 24.7688L176.894 24.8066L166.222 26.3102L166.31 26.2346L163.609 36.2096L163.571 36.3524L163.445 36.2726L155.99 31.64L153.777 30.2624H153.907L146.767 36.2894L146.616 36.4154L146.591 36.218C146.232 33.4712 145.884 30.7734 145.545 28.1246L145.642 28.217L136.62 27.524H136.389L136.557 27.3644L142.92 21.287V21.4256L134.625 13.1012L134.495 12.971H134.675L145.507 11.8496L145.44 11.9C145.86 7.87639 146.242 4.45759 146.549 1.60999V1.52179L146.62 1.57639L152.92 6.22999L154.55 7.43959L155.104 7.85959C155.104 7.85959 154.919 7.73359 154.55 7.46899L152.912 6.28459L146.553 1.66459L146.637 1.62679C146.343 4.47439 145.986 7.89319 145.57 11.9168V11.9756H145.511L134.688 13.1222L134.738 12.9752L143.063 21.2828L143.134 21.3542L143.059 21.4214L136.7 27.4946L136.637 27.3182L145.654 27.9776H145.738V28.0658C146.08 30.709 146.43 33.4068 146.788 36.1592L146.612 36.0878L153.752 30.0608L153.815 30.0104L153.882 30.0524L156.091 31.43L163.55 36.0794L163.387 36.1424C164.315 32.711 165.226 29.3468 166.091 26.1674V26.1002H166.163L176.835 24.605L176.793 24.7898L167.44 18.1244L167.372 18.074L167.414 18.0026L172.454 9.14479L172.547 9.27079L164.42 11.1188H164.348V11.0432L162.085 0.123193L162.177 0.148392L156.956 5.88559L155.587 7.36399C155.281 7.69999 155.121 7.85959 155.121 7.85959Z" fill="#263238"/>
  <path d="M153.764 11.6564L153.202 19.8128C153.177 20.1362 153.036 20.4396 152.804 20.6662C152.572 20.8928 152.265 21.0269 151.942 21.0434V21.0434C151.603 21.0614 151.27 20.9485 151.012 20.728C150.754 20.5076 150.591 20.1965 150.556 19.859L149.716 11.6522C149.7 11.5056 149.716 11.3575 149.762 11.2175C149.808 11.0776 149.884 10.9491 149.984 10.8406C150.083 10.7321 150.205 10.6461 150.341 10.5884C150.476 10.5306 150.622 10.5024 150.77 10.5056L152.756 10.5434C152.897 10.5476 153.034 10.58 153.162 10.6388C153.289 10.6975 153.403 10.7814 153.497 10.8853C153.591 10.9892 153.664 11.1111 153.71 11.2436C153.755 11.3761 153.774 11.5165 153.764 11.6564V11.6564Z" fill="#FF725E"/>
  <path d="M149.842 24.8528C149.966 25.2261 150.199 25.5541 150.51 25.7953C150.821 26.0364 151.197 26.18 151.589 26.2077C151.982 26.2355 152.374 26.1462 152.716 25.9512C153.058 25.7562 153.334 25.4643 153.51 25.1122C153.686 24.7601 153.754 24.3638 153.705 23.9732C153.656 23.5827 153.492 23.2155 153.234 22.918C152.976 22.6206 152.636 22.4062 152.257 22.3021C151.877 22.1979 151.475 22.2086 151.102 22.3328C150.853 22.4149 150.623 22.5453 150.425 22.7166C150.227 22.8879 150.065 23.0966 149.948 23.3308C149.831 23.565 149.761 23.82 149.743 24.0812C149.725 24.3424 149.758 24.6046 149.842 24.8528V24.8528Z" fill="#FF725E"/>
  <path d="M160.51 11.6564L159.943 19.8128C159.92 20.1368 159.78 20.4413 159.547 20.6682C159.315 20.8952 159.007 21.0287 158.683 21.0434V21.0434C158.344 21.0624 158.01 20.9499 157.752 20.7293C157.494 20.5086 157.331 20.1969 157.297 19.859L156.436 11.6522C156.42 11.5056 156.436 11.3575 156.482 11.2175C156.528 11.0776 156.604 10.9491 156.704 10.8406C156.803 10.7321 156.925 10.6461 157.061 10.5884C157.196 10.5306 157.343 10.5024 157.49 10.5056L159.481 10.5434C159.623 10.5448 159.763 10.5752 159.893 10.6327C160.022 10.6902 160.139 10.7736 160.235 10.8778C160.332 10.9821 160.406 11.1049 160.453 11.2388C160.5 11.3727 160.519 11.5148 160.51 11.6564V11.6564Z" fill="#FF725E"/>
  <path d="M156.583 24.8528C156.707 25.2261 156.94 25.5541 157.251 25.7953C157.562 26.0364 157.938 26.18 158.33 26.2077C158.723 26.2355 159.115 26.1462 159.457 25.9512C159.799 25.7562 160.075 25.4643 160.252 25.1122C160.428 24.7601 160.495 24.3638 160.446 23.9732C160.397 23.5827 160.233 23.2155 159.975 22.918C159.718 22.6206 159.377 22.4062 158.998 22.3021C158.618 22.1979 158.216 22.2086 157.843 22.3328C157.342 22.5005 156.928 22.86 156.692 23.3323C156.456 23.8047 156.416 24.3515 156.583 24.8528V24.8528Z" fill="#FF725E"/>
  <path d="M149.682 114.191C149.657 113.799 149.539 113.419 149.336 113.083C149.134 112.747 148.853 112.464 148.519 112.259C138.191 105.421 130.404 90.2678 129.619 77.4368C129.598 76.706 129.577 75.9668 129.551 75.2192C128.905 55.9286 126.191 33.7232 123.827 28.6958C118.766 17.9984 104.179 16.7132 104.179 16.7132C84.0402 15.2726 80.445 30.7496 78.4122 44.8532C77.1522 53.6186 72.276 84.9296 72.276 84.9296L75.9762 86.3618C80.34 99.26 90.1554 109.714 102.919 114.519C106.632 115.917 109.778 116.48 111.252 115.279C117.141 121.255 124.422 125.676 132.441 128.143C135.696 129.13 139.102 129.794 142.487 129.475C144.688 129.269 147.007 128.542 148.317 126.766C148.889 125.996 149.23 125.08 149.299 124.123C149.369 123.167 149.164 122.211 148.709 121.367C148.254 120.523 147.567 119.826 146.73 119.358C145.893 118.891 144.94 118.672 143.983 118.727C144.747 116.249 149.77 116.98 149.682 114.191Z" fill="#263238"/>
  <path d="M111.374 76.1012C111.374 76.1012 118.736 72.9386 122.537 72.2204C126.338 71.5022 152.899 64.6604 152.899 64.6604L125.486 41.1698L131.534 33.8114C131.534 33.8114 151.895 45.962 166.373 55.6514C166.469 55.7055 166.56 55.7673 166.646 55.8362C174.878 62.3168 171.997 73.6064 163.542 78.911C159.342 81.5528 140.862 89.5118 137.305 91.2548C130.165 94.7324 130.27 94.6148 130.27 94.6148L111.374 76.1012Z" fill="#FFBF9D"/>
  <path d="M106.859 22.4L105.599 21.1988L91.9824 26.684C91.031 26.7324 90.1328 27.1383 89.4678 27.8205C88.8027 28.5026 88.4198 29.4108 88.3956 30.3632L88.5132 74.7236C88.5132 77.735 89.097 80.339 90.9156 82.7372L92.8266 85.2572C97.1862 91.0154 106.157 90.5408 109.627 84.1988C109.835 83.8387 109.995 83.4533 110.105 83.0522C110.193 82.7248 110.26 82.3924 110.307 82.0568C110.727 78.491 110.727 75.3956 110.727 75.3956C110.971 71.477 111.05 69.8684 111.05 69.9062C111.05 69.944 119.392 68.9444 121.647 58.2428C122.768 52.9172 122.554 45.5924 122.239 38.3852C121.794 28.4186 114.877 22.4 106.859 22.4Z" fill="#FFBF9D"/>
  <path d="M106.015 45.5C106 45.8606 105.846 46.2013 105.584 46.4493C105.321 46.6973 104.973 46.833 104.612 46.8272C104.435 46.8322 104.259 46.8019 104.094 46.738C103.929 46.6741 103.779 46.5779 103.652 46.455C103.525 46.3322 103.423 46.1851 103.354 46.0226C103.284 45.86 103.248 45.6852 103.247 45.5084C103.262 45.1478 103.417 44.8073 103.679 44.5588C103.941 44.3103 104.289 44.1734 104.65 44.177C104.827 44.172 105.003 44.2024 105.168 44.2666C105.333 44.3308 105.484 44.4273 105.611 44.5506C105.738 44.6739 105.84 44.8215 105.909 44.9845C105.978 45.1476 106.014 45.3228 106.015 45.5V45.5Z" fill="#263238"/>
  <path d="M119.526 45.8948C119.512 46.2565 119.357 46.5983 119.094 46.8471C118.831 47.0959 118.481 47.232 118.119 47.2262C117.943 47.2307 117.767 47.1999 117.603 47.1358C117.438 47.0716 117.288 46.9753 117.162 46.8525C117.035 46.7297 116.934 46.5829 116.865 46.4206C116.795 46.2583 116.759 46.0839 116.758 45.9074C116.771 45.5461 116.926 45.2043 117.188 44.9554C117.45 44.7065 117.799 44.5703 118.161 44.576C118.338 44.571 118.514 44.6013 118.679 44.6652C118.843 44.7291 118.994 44.8253 119.121 44.9482C119.248 45.071 119.349 45.2181 119.419 45.3806C119.489 45.5432 119.525 45.718 119.526 45.8948V45.8948Z" fill="#263238"/>
  <path d="M120.807 41.2454C120.626 41.4176 119.618 40.5902 118.127 40.5188C116.636 40.4474 115.511 41.1362 115.36 40.9388C115.284 40.8548 115.473 40.5188 115.969 40.2122C116.635 39.7996 117.412 39.6031 118.195 39.6494C118.969 39.6848 119.712 39.9658 120.316 40.4516C120.757 40.8338 120.895 41.1698 120.807 41.2454Z" fill="#263238"/>
  <path d="M105.695 41.4008C105.498 41.552 104.578 40.6238 103.104 40.4012C101.63 40.1786 100.437 40.7498 100.307 40.544C100.24 40.4516 100.458 40.1534 100.987 39.8846C101.692 39.542 102.485 39.4247 103.259 39.5486C104.027 39.6639 104.738 40.0215 105.288 40.5692C105.687 40.985 105.792 41.3336 105.695 41.4008Z" fill="#263238"/>
  <path d="M110.899 52.241C110.899 52.1528 111.827 52.0394 113.339 51.926C113.722 51.905 114.083 51.8462 114.179 51.59C114.229 51.1994 114.16 50.803 113.982 50.4518L113.003 47.5118C111.647 43.3118 110.685 39.8636 110.857 39.8132C111.029 39.7628 112.26 43.1186 113.617 47.3228C113.939 48.356 114.249 49.3444 114.549 50.288C114.671 50.708 114.893 51.2288 114.671 51.7916C114.608 51.9228 114.517 52.0381 114.403 52.129C114.29 52.2199 114.157 52.284 114.016 52.3166C113.802 52.3616 113.583 52.38 113.365 52.3712C111.84 52.3628 110.899 52.325 110.899 52.241Z" fill="#263238"/>
  <path d="M111.042 69.9146C105.958 69.7352 101.023 68.149 96.7872 65.3324C96.7872 65.3324 100.046 72.9848 110.895 72.5186L111.042 69.9146Z" fill="#FF9A6C"/>
  <path d="M100.441 35.6006C100.496 35.1806 101.987 35.0294 103.646 34.433C105.305 33.8366 106.586 33.0554 106.884 33.3578C107.023 33.5048 106.884 33.929 106.401 34.4414C105.766 35.08 104.994 35.5658 104.143 35.8619C103.292 36.1581 102.386 36.2569 101.491 36.1508C100.811 36.0416 100.424 35.8022 100.441 35.6006Z" fill="#263238"/>
  <path d="M119.82 35.588C119.539 35.9114 118.531 35.5082 117.3 35.4284C116.069 35.3486 115.007 35.5418 114.78 35.1764C114.683 35 114.868 34.6682 115.339 34.3742C115.97 34.0201 116.693 33.8621 117.415 33.9204C118.137 33.9788 118.825 34.2508 119.392 34.7018C119.82 35.0714 119.929 35.42 119.82 35.588Z" fill="#263238"/>
  <path d="M88.6644 49.301C88.6644 49.301 96.2916 51.674 100.609 32.8496C102.083 26.4152 108.052 21.203 108.052 21.203L105.632 20.4722C105.632 20.4722 90.5922 24.71 90.336 24.92C90.0798 25.13 86.556 32.6984 86.556 32.6984L88.6644 49.301Z" fill="#263238"/>
  <path d="M90.546 48.5996C90.5838 47.7974 89.748 45.8528 88.9626 45.689C86.8626 45.269 83.0322 45.2312 82.7256 50.6114C82.3056 57.9656 89.7774 56.8694 89.8026 56.6594C89.8278 56.4494 90.42 51.38 90.546 48.5996Z" fill="#FFBF9D"/>
  <path d="M87.7151 53.7446C87.6857 53.7194 87.5807 53.8286 87.3581 53.9168C87.0464 54.0308 86.7023 54.0172 86.4005 53.879C85.6403 53.5514 85.0565 52.2788 85.0943 50.939C85.1139 50.3077 85.2716 49.6884 85.5563 49.1246C85.6385 48.8988 85.7743 48.6963 85.9521 48.5346C86.1299 48.3729 86.3443 48.2568 86.5769 48.1964C86.7263 48.1657 86.8817 48.1884 87.016 48.2606C87.1503 48.3327 87.255 48.4497 87.3119 48.5912C87.4001 48.8012 87.3455 48.9482 87.3833 48.9608C87.4211 48.9734 87.5471 48.8474 87.5051 48.5408C87.474 48.3567 87.3823 48.1882 87.2447 48.062C87.049 47.8987 86.7977 47.8174 86.5433 47.8352C86.2384 47.8784 85.9496 47.9986 85.7041 48.1846C85.4587 48.3705 85.2647 48.616 85.1405 48.8978C84.7868 49.5285 84.5949 50.237 84.5819 50.96C84.5441 52.4426 85.2245 53.8706 86.2619 54.2402C86.4565 54.3088 86.6639 54.3328 86.869 54.3102C87.074 54.2877 87.2714 54.2193 87.4463 54.11C87.6899 53.921 87.7403 53.7614 87.7151 53.7446Z" fill="#FF9A6C"/>
  <path d="M93.8387 45.7016C93.8387 45.6764 94.2587 45.6722 94.9391 45.479C95.9182 45.1809 96.8152 44.6606 97.5599 43.9586C98.0748 43.4793 98.5328 42.9424 98.9249 42.3584C99.3641 41.679 99.7368 40.9589 100.038 40.208C100.672 38.4591 101.201 36.6737 101.621 34.8614C102.091 33.0534 102.652 31.2704 103.301 29.519C103.834 28.0882 104.474 26.6996 105.217 25.3652C105.716 24.4652 106.278 23.6007 106.897 22.778C107.115 22.4882 107.317 22.2782 107.426 22.127C107.482 22.0484 107.547 21.9766 107.619 21.9128C107.571 21.9968 107.516 22.0769 107.455 22.1522C107.346 22.3076 107.165 22.526 106.96 22.8242C106.365 23.6595 105.822 24.5305 105.334 25.4324C104.613 26.7692 103.988 28.156 103.465 29.582C102.86 31.1906 102.31 32.9966 101.785 34.9118C101.362 36.7317 100.825 38.523 100.177 40.2752C99.8717 41.0365 99.4889 41.7642 99.0341 42.4466C98.6312 43.0384 98.1588 43.5799 97.6271 44.0594C96.8627 44.7656 95.9392 45.2771 94.9349 45.5504C94.578 45.6497 94.2093 45.7005 93.8387 45.7016V45.7016Z" fill="#263238"/>
  <path d="M83.7882 77.0798C83.7486 76.9655 83.7218 76.8472 83.7084 76.727C83.6622 76.4666 83.5992 76.1222 83.5194 75.6812L82.86 71.687L83.0363 71.6618C83.0741 71.9306 83.1162 72.2246 83.1582 72.5312V72.5018L83.3136 72.8336L83.1288 72.9008C82.003 69.029 81.2105 65.0679 80.76 61.061C80.4756 58.5185 80.3256 55.9627 80.3105 53.4044C80.3357 50.7164 80.3106 47.8604 81.0372 45.0044C81.329 43.8287 81.7797 42.6983 82.377 41.6444C82.9619 40.6363 83.6426 39.6869 84.4098 38.8094C85.905 37.0832 87.5177 35.5964 88.9877 34.1222L96.8838 26.3522C99.1266 24.164 100.949 22.3874 102.226 21.1358L103.692 19.733L104.078 19.3718C104.12 19.3273 104.168 19.2891 104.221 19.2584C104.187 19.3086 104.148 19.3551 104.104 19.397L103.742 19.7792L102.319 21.2282L97.0518 26.5244L89.2062 34.3406C87.7404 35.8232 86.1317 37.3184 84.6617 39.0236C83.09 40.7467 81.9588 42.8247 81.3648 45.08C80.6592 47.8688 80.6676 50.7122 80.6382 53.3876C80.6599 59.9595 81.5582 66.4992 83.3094 72.8336L83.1246 72.9008C83.0742 72.7874 83.0195 72.6698 82.9775 72.569C82.9397 72.2624 82.902 71.9642 82.8684 71.6996L83.0448 71.6702C83.2926 73.3838 83.4858 74.732 83.6244 75.677C83.6832 76.1222 83.7293 76.4708 83.7629 76.7312C83.7809 76.8465 83.7893 76.9631 83.7882 77.0798V77.0798Z" fill="#455A64"/>
  <path d="M77.9963 43.0808C78.0237 42.9712 78.0676 42.8664 78.1265 42.77L78.5465 41.9048C78.9203 41.1572 79.5083 40.0946 80.2769 38.8136C81.0455 37.5326 82.0283 36.0374 83.1875 34.4288C84.3467 32.8202 85.7075 31.1276 87.2405 29.4224C88.7735 27.7172 90.3275 26.1926 91.7933 24.857C93.2591 23.5214 94.6409 22.3958 95.8421 21.497C97.0433 20.5982 98.0261 19.8968 98.7317 19.4474L99.5465 18.9266C99.6377 18.8616 99.7364 18.808 99.8405 18.767C99.7645 18.8501 99.6785 18.9235 99.5843 18.9854L98.8199 19.5524C98.1395 20.0354 97.1693 20.762 95.9975 21.686C94.8257 22.61 93.4775 23.7566 92.0117 25.0838C90.5459 26.411 89.0297 27.9566 87.5051 29.645C85.9805 31.3334 84.6323 33.0344 83.4479 34.6136C82.2635 36.1928 81.2807 37.6712 80.5079 38.9354C79.7351 40.1996 79.0967 41.237 78.6893 41.9678L78.2063 42.8078C78.1476 42.9069 78.0771 42.9986 77.9963 43.0808V43.0808Z" fill="#455A64"/>
  <path d="M88.1477 74.7194L88.0721 74.6942L88.1477 74.7194Z" fill="#455A64"/>
  <path d="M143.466 167.72L132.92 135.582L132.08 105.039C131.824 99.7724 131.433 92.0696 131.433 92.0696C127.993 81.3092 117.056 72.2246 117.056 72.2246L110.849 73.1528C110.614 79.8728 100.349 85.967 92.9904 81.515C90.2646 79.5578 88.1688 74.7446 88.1688 74.7446L75.6486 80.78L84.2502 142.255C84.2502 142.255 75.7662 158.085 75.7662 167.695L143.466 167.72Z" fill="#455A64"/>
  <g opacity="0.3">
  <path opacity="0.3" d="M83.4102 134.931C84.9516 138.862 87.9798 142.323 91.9404 143.784C95.901 145.246 100.76 144.418 103.616 141.302C105.368 139.391 106.241 136.837 106.8 134.305C107.255 132.072 107.597 129.818 107.825 127.551C109.152 116.052 110.118 104.451 109.055 92.9138L107.485 79.6082L102.94 82.1702L100.84 129.555L83.4102 134.931Z" fill="black"/>
  </g>
  <path d="M111 72.8966C111 72.8966 120.127 70.6034 127.548 70.406L139.858 67.298L141.958 89.2892L130.202 96.824L111 72.8966Z" fill="#455A64"/>
  <path d="M89.2692 106.711L67.6602 117.555C67.6602 117.555 61.6752 85.484 75.5856 80.78L76.392 85.3328L89.2692 106.711Z" fill="#455A64"/>
  <path d="M130.761 79.121C130.761 79.121 130.761 79.1714 130.761 79.2638C130.761 79.3562 130.782 79.5158 130.795 79.6838C130.82 80.0744 130.858 80.6246 130.9 81.326C130.992 82.754 131.101 84.8204 131.231 87.3698C131.488 92.477 131.79 99.5498 132.071 107.324C132.353 115.098 132.58 122.179 132.722 127.287C132.785 129.832 132.84 131.907 132.874 133.339C132.874 134.04 132.899 134.599 132.903 134.985C132.903 135.162 132.903 135.304 132.903 135.405C132.91 135.453 132.91 135.501 132.903 135.548C132.897 135.501 132.897 135.453 132.903 135.405C132.903 135.296 132.895 135.156 132.878 134.985C132.878 134.595 132.836 134.044 132.806 133.339C132.752 131.898 132.676 129.836 132.584 127.291C132.399 122.171 132.164 115.111 131.87 107.332C131.576 99.554 131.29 92.498 131.093 87.3782C130.979 84.833 130.891 82.7582 130.828 81.3302C130.799 80.6288 130.778 80.0702 130.761 79.688V79.268C130.754 79.2193 130.754 79.1697 130.761 79.121V79.121Z" fill="#263238"/>
  <path d="M67.6602 117.555C67.6602 117.555 67.6854 117.534 67.7442 117.501L68.0088 117.354L69.0336 116.816L72.8136 114.88L85.3422 108.555L87.9714 107.24L87.9168 107.374C87.5461 106.279 87.1084 105.207 86.6064 104.166C86.1234 103.149 85.7664 102.141 85.3842 101.192C84.6702 99.2894 83.9268 97.6346 83.322 96.2444C82.7172 94.8542 82.2384 93.7244 81.9318 92.96C81.7806 92.5694 81.663 92.267 81.5916 92.057C81.5496 91.9549 81.5159 91.8495 81.4908 91.742C81.5449 91.839 81.5912 91.9401 81.6294 92.0444L82.0032 92.9264C82.335 93.6992 82.8432 94.808 83.4522 96.1856C84.0612 97.5632 84.834 99.2222 85.5522 101.125C85.9218 102.07 86.304 103.074 86.787 104.065C87.2924 105.111 87.7342 106.187 88.11 107.286L88.1478 107.379L88.0596 107.425L85.4346 108.744L72.8724 115.01L69.0714 116.9L68.0298 117.404L67.7568 117.526C67.7263 117.541 67.6937 117.551 67.6602 117.555V117.555Z" fill="#263238"/>
  <path d="M112.646 55.853C111.813 55.2752 110.843 54.9274 109.832 54.845C109.517 54.805 109.196 54.8381 108.896 54.9416C108.679 55.0461 108.488 55.1957 108.334 55.3805C108.181 55.5652 108.069 55.7808 108.005 56.0126C107.885 56.4772 107.831 56.9566 107.846 57.4364C107.831 57.6184 107.86 57.8013 107.93 57.9698C108.029 58.1059 108.16 58.2154 108.312 58.2886C108.464 58.3619 108.631 58.3966 108.799 58.3898C109.941 58.4842 111.087 58.2741 112.121 57.7808" fill="#FF9A6C"/>
  <path d="M70.407 116.173C74.8254 126.438 83.2212 136.858 88.3956 138.765C96.1026 141.604 102.482 140.193 105.439 130.785C108.396 121.377 106.498 79.6292 106.498 79.6292L93.6456 78.8942L91.26 114.876C91.26 114.876 89.8404 112.083 87.3414 107.677" fill="#FFBF9D"/>
  <path d="M125.486 41.1656L122.248 38.8052L121.752 34.748C121.752 34.748 115.906 34.8992 115.549 31.766C115.549 31.766 112.189 32.6606 112.34 29.3468C112.34 29.3468 110.626 28.1834 111.252 27.1124C111.878 26.0414 116.712 24.437 116.989 24.3488C117.266 24.2606 120.425 23.5886 120.425 23.5886L119.488 22.547L116.968 22.8158C116.968 22.8158 115.448 24.248 114.192 24.4244C112.936 24.6008 112.852 24.0674 112.852 24.0674C112.852 24.0674 111.42 22.547 113.297 21.0224C114.905 19.7946 116.83 19.0501 118.846 18.8762C120.106 18.788 121.786 21.203 121.786 21.203L123.146 23.618C123.146 23.618 125.834 23.261 126.729 25.298V26.7302C126.729 26.7302 128.699 26.4614 129.505 28.7924L130.043 30.8504C130.043 30.8504 132.37 33.8912 132.458 35.147" fill="#FFBF9D"/>
  <path d="M132.466 35.168C132.466 35.168 132.445 35.0546 132.391 34.8488C132.293 34.5447 132.169 34.2496 132.021 33.9668C131.432 32.8942 130.757 31.8703 130.005 30.905V30.884C129.841 30.2708 129.656 29.5736 129.459 28.826C129.282 28.2715 128.958 27.7751 128.522 27.3896C128.029 26.9778 127.395 26.7744 126.754 26.8226H126.67V26.7386C126.67 26.2976 126.67 25.8104 126.67 25.3064V25.34C126.398 24.7286 125.902 24.2446 125.284 23.9876C124.618 23.7204 123.897 23.6209 123.184 23.6978H123.125L123.096 23.6474L121.727 21.2324C121.43 20.8203 121.105 20.4301 120.752 20.0648C120.403 19.6844 119.994 19.3625 119.543 19.1114C119.319 18.9956 119.068 18.942 118.816 18.956C118.552 18.956 118.287 19.019 118.018 19.061C117.477 19.1628 116.943 19.3031 116.422 19.481C115.343 19.8262 114.334 20.3594 113.44 21.056C112.976 21.3845 112.641 21.8641 112.491 22.4126C112.447 22.6917 112.466 22.977 112.546 23.2479C112.626 23.5188 112.765 23.7686 112.953 23.9792H112.974V24.017C113.006 24.0811 113.053 24.1368 113.111 24.1798C113.168 24.2228 113.235 24.2519 113.306 24.2648C113.473 24.3093 113.646 24.3277 113.818 24.3194C114.182 24.309 114.54 24.2277 114.872 24.08C115.562 23.7551 116.2 23.3305 116.767 22.82L116.909 22.6898L116.939 22.6646H116.972L119.492 22.3958H119.547L119.585 22.4378L120.521 23.4836L120.647 23.6222L120.463 23.6642L117.208 24.3824C116.178 24.696 115.166 25.0633 114.175 25.4828C113.688 25.6844 113.213 25.9028 112.751 26.1338C112.293 26.3431 111.869 26.6191 111.491 26.9528C111.333 27.1171 111.24 27.3338 111.231 27.5618C111.234 27.7938 111.301 28.0206 111.424 28.217C111.684 28.6156 112.017 28.9607 112.407 29.2334L112.449 29.2628V29.3216C112.449 29.5274 112.449 29.7416 112.47 29.939C112.491 30.1411 112.536 30.34 112.604 30.5312C112.723 30.9063 112.974 31.2257 113.31 31.43C114 31.7736 114.793 31.8499 115.536 31.6442L115.62 31.64V31.7366C115.661 32.0706 115.771 32.3923 115.943 32.6815C116.116 32.9707 116.346 33.221 116.62 33.4166C117.138 33.7886 117.72 34.0633 118.337 34.2272C119.444 34.5311 120.587 34.6809 121.735 34.6724H121.798V34.7312C121.987 36.3398 122.147 37.6712 122.277 38.7926V38.759L124.671 40.5314L125.284 40.9934L125.486 41.1572L125.267 41.0144L124.642 40.5734L122.222 38.8346V38.8094C122.08 37.7006 121.912 36.3608 121.706 34.7564L121.777 34.8152C120.614 34.8364 119.453 34.6951 118.329 34.3952C117.692 34.2256 117.091 33.941 116.557 33.5552C116.263 33.3493 116.017 33.0846 115.831 32.778C115.646 32.4714 115.527 32.1296 115.481 31.7744L115.591 31.85C115.203 31.9434 114.804 31.9802 114.406 31.9592C113.99 31.9432 113.584 31.828 113.222 31.6232C112.848 31.3966 112.568 31.0434 112.432 30.6278C112.358 30.423 112.309 30.2101 112.285 29.9936C112.26 29.7794 112.285 29.5736 112.264 29.3426L112.306 29.4308C111.89 29.1447 111.536 28.7776 111.265 28.3514C111.121 28.1234 111.043 27.8605 111.038 27.5912C111.047 27.3109 111.161 27.0441 111.357 26.8436C111.748 26.4944 112.188 26.2043 112.663 25.9826C113.129 25.7432 113.608 25.5248 114.1 25.3232C115.095 24.9002 116.111 24.5287 117.145 24.2102L120.425 23.4836L120.366 23.6642L119.4 22.6184L119.492 22.6562L116.972 22.925L117.035 22.8956L116.884 23.03C116.301 23.5519 115.645 23.985 114.935 24.3152C114.578 24.4731 114.192 24.5587 113.801 24.5672C113.605 24.5775 113.408 24.5562 113.218 24.5042C113.107 24.4825 113.005 24.4323 112.92 24.3586C112.835 24.2849 112.771 24.1903 112.735 24.0842L112.764 24.143C112.555 23.9086 112.401 23.6304 112.314 23.3288C112.227 23.0271 112.208 22.7097 112.26 22.4C112.33 22.0967 112.462 21.8109 112.646 21.56C112.747 21.4424 112.84 21.3248 112.949 21.2156C113.058 21.1064 113.167 21.0098 113.285 20.9174C114.201 20.2076 115.234 19.6645 116.338 19.313C116.869 19.1346 117.412 18.9943 117.964 18.893C118.237 18.851 118.505 18.809 118.783 18.788C119.073 18.7709 119.363 18.8318 119.623 18.9644C120.092 19.2276 120.518 19.5635 120.883 19.9598C121.24 20.3352 121.572 20.7351 121.874 21.1568V21.1568L123.23 23.5802L123.142 23.534C123.889 23.4532 124.645 23.5615 125.339 23.849C125.997 24.123 126.523 24.6407 126.809 25.2938V25.34C126.809 25.844 126.809 26.3312 126.809 26.7722L126.725 26.6966C127.407 26.6491 128.081 26.8707 128.602 27.314C129.052 27.719 129.385 28.2366 129.568 28.8134V28.8134C129.761 29.561 129.938 30.2582 130.097 30.8714C130.844 31.8476 131.506 32.886 132.076 33.9752C132.22 34.2632 132.336 34.5641 132.424 34.874C132.446 34.9706 132.46 35.069 132.466 35.168Z" fill="#FF9A6C"/>
  <path d="M126.708 36.8144C126.683 36.8354 126.469 36.617 126.07 36.3272C125.551 35.9577 124.986 35.6583 124.39 35.4368C123.787 35.2076 123.169 35.0182 122.542 34.8698C122.059 34.7816 121.748 34.79 121.744 34.7522C122.011 34.6801 122.29 34.6686 122.563 34.7186C123.213 34.8232 123.85 34.9949 124.465 35.231C125.089 35.4556 125.67 35.7851 126.183 36.2054C126.401 36.3664 126.581 36.5745 126.708 36.8144V36.8144Z" fill="#FF9A6C"/>
  <path d="M127.657 30.9218C127.498 30.9624 127.334 30.9822 127.17 30.9806L125.843 31.0562C124.721 31.1108 123.172 31.1696 121.462 31.2242L119.047 31.2872C118.395 31.288 117.743 31.3258 117.094 31.4006C116.657 31.4475 116.224 31.5318 115.801 31.6526C115.507 31.745 115.351 31.8248 115.343 31.808C115.466 31.7027 115.609 31.6228 115.763 31.5728C116.181 31.4181 116.615 31.3083 117.056 31.2452C117.71 31.1512 118.37 31.0979 119.03 31.0856L121.445 31.0016C123.155 30.9512 124.705 30.9176 125.826 30.9008H127.153C127.321 30.8911 127.49 30.8981 127.657 30.9218V30.9218Z" fill="#FF9A6C"/>
  <path d="M124.961 27.1544C124.802 27.2084 124.637 27.2422 124.469 27.2552L123.121 27.4568C121.979 27.6248 120.408 27.8768 118.682 28.1918C116.956 28.5068 115.397 28.8428 114.272 29.0906L112.94 29.3846C112.779 29.4296 112.612 29.4577 112.445 29.4686C112.595 29.3921 112.755 29.3357 112.919 29.3006C113.226 29.2082 113.68 29.0864 114.238 28.9394C115.355 28.6538 116.909 28.2968 118.64 27.9734C120.37 27.65 121.954 27.4316 123.1 27.3056C123.671 27.2384 124.138 27.1922 124.461 27.1712C124.627 27.148 124.794 27.1424 124.961 27.1544Z" fill="#FF9A6C"/>
  <path d="M119.644 20.9762C119.698 20.9762 119.854 21.308 119.828 21.7742C119.803 22.2404 119.618 22.5764 119.564 22.5512C119.509 22.526 119.593 22.1858 119.61 21.7616C119.627 21.3374 119.581 20.993 119.644 20.9762Z" fill="#FF9A6C"/>
  <path d="M79.7142 49.3136C83.28 54.0176 92.52 67.6382 96.3 72.5102C97.0938 73.5392 99.408 73.1612 100.429 72.3548C102.856 70.448 107.107 67.13 109.643 65.3072C109.898 65.1248 110.114 64.8929 110.277 64.6252C110.44 64.3576 110.548 64.0598 110.593 63.7497C110.639 63.4395 110.621 63.1234 110.542 62.8202C110.462 62.517 110.322 62.2329 110.131 61.985L92.1 38.57C91.9027 38.3137 91.6543 38.1012 91.3706 37.9459C91.0869 37.7906 90.7741 37.696 90.4519 37.6679C90.1297 37.6399 89.8052 37.6791 89.4989 37.7831C89.1927 37.887 88.9113 38.0534 88.6728 38.2718L80.0124 46.1804C79.5818 46.572 79.3127 47.11 79.2576 47.6894C79.2025 48.2687 79.3652 48.8478 79.7142 49.3136V49.3136Z" fill="#455A64"/>
  <path d="M93.318 120.403L91.26 114.876L93.6372 78.9026C93.6372 78.9026 88.908 70.28 88.3788 68.369C87.8496 66.458 87.7194 60.977 87.7194 60.977L91.0332 64.82C91.0332 64.82 91.1256 58.2134 91.1256 56C91.1256 56 91.596 47.6966 91.6758 46.5416C91.7556 45.3866 92.9358 44.7734 93.6792 44.7734C94.4226 44.7734 95.1618 46.1426 95.1618 46.1426L96.174 59.7296C96.174 59.7296 97.854 52.5896 98.4756 51.6362C99.0972 50.6828 101.294 50.2376 102.768 50.3426H102.81C103.058 50.3774 103.289 50.4851 103.475 50.6519C103.662 50.8187 103.794 51.0371 103.856 51.2794C103.917 51.5217 103.905 51.7768 103.822 52.0124C103.738 52.2479 103.586 52.4532 103.385 52.6022L101.441 53.963L100.706 60.7796C100.706 60.7796 102.495 54.8996 103.444 54.1394C104.393 53.3792 106.078 54.1394 106.384 54.9794C106.691 55.8194 105.544 57.4994 105.544 57.4994L105.225 61.6994C105.225 61.6994 106.485 59.9102 107.111 58.961C107.737 58.0118 109.337 58.961 109.53 59.381C109.723 59.801 108.396 64.4 108.396 64.4L106.498 79.6586L107.098 101.629" fill="#FFBF9D"/>
  <path d="M107.098 101.608C107.098 101.608 107.098 101.482 107.098 101.23C107.098 100.978 107.077 100.6 107.056 100.113C107.027 99.1256 106.981 97.6724 106.922 95.7866C106.813 92.0066 106.653 86.5214 106.451 79.6418C107.006 75.131 107.64 70.0112 108.333 64.3832C108.581 63.5432 108.82 62.6696 109.043 61.7876C109.156 61.3466 109.265 60.9014 109.358 60.452C109.404 60.2252 109.446 59.9984 109.475 59.7716C109.488 59.6726 109.488 59.5724 109.475 59.4734C109.419 59.3851 109.35 59.3059 109.27 59.2382C108.92 58.9446 108.492 58.7605 108.039 58.709C107.822 58.6825 107.602 58.7363 107.422 58.8602C107.254 59.0146 107.112 59.1947 107.002 59.3936L105.322 61.8086L105.124 62.0984L105.149 61.7498C105.246 60.4436 105.355 58.9988 105.464 57.5498V57.5246V57.5036C105.759 57.0637 106.003 56.5917 106.191 56.0966C106.285 55.8553 106.334 55.5993 106.338 55.3406C106.328 55.0894 106.22 54.8523 106.036 54.6812C105.658 54.3069 105.168 54.0678 104.641 54.0008C104.385 53.948 104.119 53.9702 103.876 54.0648C103.632 54.1594 103.421 54.3224 103.268 54.5342C102.97 55.0027 102.715 55.4976 102.508 56.0126C102.293 56.5292 102.088 57.0542 101.89 57.5918C101.5 58.6586 101.138 59.7506 100.794 60.8552L100.592 60.8132C100.823 58.6712 101.075 56.3528 101.327 54.0008V53.9L101.369 53.8748L103.209 52.5854C103.362 52.497 103.493 52.3758 103.593 52.2305C103.693 52.0853 103.76 51.9196 103.789 51.7454C103.815 51.573 103.802 51.3969 103.752 51.2299C103.702 51.0629 103.615 50.909 103.499 50.7794C103.376 50.6534 103.227 50.5558 103.062 50.4934C102.897 50.4311 102.721 50.4054 102.545 50.4182C102.169 50.4077 101.793 50.4246 101.42 50.4686C100.666 50.5446 99.932 50.7551 99.2526 51.0902C98.9212 51.2492 98.6491 51.5096 98.4756 51.8336C98.3117 52.1808 98.1714 52.5386 98.0556 52.9046C97.8204 53.6396 97.6062 54.3914 97.4046 55.1474C96.9986 56.6594 96.615 58.1882 96.2538 59.7338L96.09 60.4184L96.0354 59.717C95.901 57.8858 95.754 55.937 95.6154 53.942C95.4166 51.3128 95.222 48.7088 95.0316 46.13V46.1762C94.8053 45.7408 94.4939 45.3552 94.116 45.0422C93.7464 44.7314 93.234 44.8784 92.8056 45.08C92.371 45.2802 92.0298 45.6395 91.8522 46.0838C91.7748 46.3095 91.7365 46.5467 91.7388 46.7852L91.6926 47.5328C91.5778 49.5152 91.463 51.4752 91.3482 53.4128C91.2978 54.383 91.218 55.349 91.1928 56.3066C91.1676 57.2642 91.1928 58.2218 91.1634 59.1752C91.1438 61.0736 91.1242 62.9468 91.1046 64.7948V65.072L90.924 64.862L87.6438 61.04L87.8202 60.9686C87.8706 62.6738 87.9546 64.358 88.1142 66.0086C88.175 66.823 88.3043 67.6309 88.5006 68.4236C88.7744 69.1803 89.0913 69.9207 89.4498 70.6412C90.8442 73.5224 92.31 76.2524 93.7254 78.8606V78.8858C92.5998 95.48 91.7388 108.198 91.2894 114.859C91.9656 116.711 92.4738 118.093 92.814 119.017C92.9778 119.475 93.1038 119.819 93.1878 120.05C93.2718 120.281 93.3054 120.399 93.3054 120.399L93.171 120.058L92.7804 119.029C92.4318 118.11 91.9152 116.732 91.218 114.884C91.638 108.223 92.478 95.501 93.5448 78.9068V78.953C92.1252 76.3448 90.6552 73.619 89.2524 70.7294C88.887 70.0018 88.5658 69.2529 88.2906 68.4866C88.0789 67.6843 87.9383 66.865 87.8706 66.038C87.7068 64.3832 87.6228 62.699 87.5724 60.998V60.7124L87.7614 60.9308L91.0752 64.7738L90.8904 64.841C90.91 62.9874 90.9296 61.1114 90.9492 59.213C90.9492 58.2638 90.959 57.309 90.9786 56.3486C90.9996 55.3868 91.0794 54.4208 91.1298 53.4506C91.2446 51.5074 91.3594 49.5474 91.4742 47.5706L91.5162 46.8272C91.5174 46.5673 91.5599 46.3093 91.6422 46.0628C91.8423 45.5674 92.2217 45.1655 92.7048 44.9372C92.9413 44.8201 93.1952 44.7421 93.4566 44.7062C93.5971 44.6865 93.7402 44.6965 93.8766 44.7356C94.0074 44.7775 94.1307 44.8399 94.242 44.9204C94.6466 45.2527 94.9807 45.6626 95.2248 46.1258V46.1468V46.172C95.418 48.7452 95.6126 51.3478 95.8086 53.9798C95.9556 55.958 96.1026 57.9236 96.2286 59.7548H96.0144C96.3812 58.2092 96.7662 56.6776 97.1694 55.16C97.371 54.404 97.5894 53.6522 97.8246 52.9088C97.9391 52.5314 98.0794 52.1623 98.2446 51.8042C98.4373 51.4386 98.742 51.1442 99.114 50.9642C99.8153 50.613 100.576 50.3951 101.357 50.3216C101.741 50.2739 102.129 50.2556 102.516 50.267C102.719 50.2533 102.924 50.2837 103.114 50.3562C103.305 50.4287 103.478 50.5415 103.621 50.687C103.83 50.9164 103.955 51.2104 103.975 51.5204C103.995 51.8304 103.908 52.138 103.73 52.3922C103.616 52.556 103.474 52.6983 103.31 52.8122L101.47 54.0974L101.512 54.0218C101.26 56.378 101.008 58.6964 100.773 60.8342L100.571 60.7922C100.916 59.6722 101.283 58.5816 101.672 57.5204C101.869 56.9828 102.092 56.4536 102.298 55.9328C102.511 55.4044 102.772 54.8968 103.079 54.4166C103.164 54.2937 103.265 54.1834 103.381 54.089C103.503 54.0017 103.636 53.9311 103.776 53.879C104.055 53.7893 104.351 53.7635 104.641 53.8034C105.214 53.8778 105.746 54.1374 106.157 54.5426C106.371 54.753 106.497 55.0367 106.51 55.3364C106.506 55.6236 106.452 55.9079 106.351 56.1764C106.158 56.6872 105.905 57.1735 105.599 57.6254V57.5792C105.485 59.045 105.376 60.4898 105.28 61.7792L105.107 61.7162L106.787 59.3096L106.993 59.0114C107.066 58.9015 107.157 58.8049 107.262 58.7258C107.478 58.5771 107.741 58.5115 108.001 58.541C108.494 58.5986 108.958 58.8002 109.337 59.1206C109.439 59.2017 109.524 59.3015 109.589 59.4146C109.614 59.545 109.614 59.679 109.589 59.8094C109.559 60.0446 109.517 60.2756 109.471 60.5024C109.375 60.9602 109.265 61.4054 109.152 61.8506C108.925 62.7326 108.682 63.5978 108.438 64.4462C107.732 70.0742 107.09 75.194 106.527 79.7048C106.699 86.5886 106.838 92.078 106.947 95.8538C106.989 97.7354 107.023 99.1886 107.044 100.18C107.044 100.667 107.044 101.041 107.065 101.297C107.086 101.553 107.098 101.608 107.098 101.608Z" fill="#FF9A6C"/>
  <path d="M91.26 72.5102C91.1794 72.0173 91.1387 71.5187 91.1382 71.0192C91.092 70.0952 91.0458 68.8226 91.008 67.4114C90.9702 66.0002 90.945 64.7276 90.9366 63.8036C90.913 63.305 90.9256 62.8052 90.9744 62.3084C91.049 62.802 91.0883 63.3002 91.092 63.7994C91.1382 64.7234 91.1844 65.996 91.2264 67.4072C91.2684 68.8184 91.2894 70.091 91.2936 71.015C91.317 71.5136 91.3058 72.0132 91.26 72.5102V72.5102Z" fill="#FF9A6C"/>
  <path d="M112.121 57.7682C111.994 57.8643 111.852 57.9395 111.701 57.9908C111.311 58.1636 110.903 58.2918 110.483 58.373C109.859 58.4979 109.218 58.5262 108.585 58.457C108.388 58.4327 108.199 58.3622 108.035 58.2512C107.947 58.186 107.874 58.1021 107.823 58.0054C107.771 57.9088 107.742 57.802 107.737 57.6926C107.719 57.2874 107.734 56.8815 107.783 56.4788C107.828 56.0642 107.982 55.6687 108.228 55.3322C108.346 55.1694 108.497 55.0328 108.67 54.9309C108.844 54.829 109.036 54.764 109.236 54.74C109.876 54.7063 110.517 54.7991 111.122 55.013C111.524 55.1535 111.906 55.344 112.26 55.58C112.398 55.6543 112.523 55.7508 112.63 55.8656C112.128 55.5903 111.602 55.3611 111.059 55.181C110.474 54.9988 109.86 54.9247 109.249 54.9626C109.078 54.9846 108.913 55.0414 108.765 55.1295C108.617 55.2177 108.488 55.3353 108.388 55.475C108.167 55.7846 108.031 56.1466 107.993 56.525C107.947 56.911 107.93 57.2999 107.942 57.6884C107.942 58.0496 108.274 58.2218 108.61 58.268C109.222 58.3447 109.841 58.3334 110.45 58.2344C111.017 58.1175 111.576 57.9617 112.121 57.7682V57.7682Z" fill="#263238"/>
  <path d="M160.3 66.92C159.922 66.9692 159.539 66.9692 159.161 66.92C157.325 66.7961 155.537 66.2821 153.916 65.4122C153.571 65.2503 153.251 65.0426 152.962 64.7948C153.312 64.9325 153.653 65.0924 153.983 65.2736C154.796 65.6601 155.639 65.9817 156.503 66.2354C157.372 66.4838 158.259 66.6608 159.157 66.7646C159.541 66.7939 159.922 66.8458 160.3 66.92Z" fill="#FF9A6C"/>
  </svg>
  