<svg width="44" height="30" viewBox="0 0 44 30" fill="none" xmlns="http://www.w3.org/2000/svg">
	<g clip-path="url(#clip0_43_176)">
	<path d="M0.0778809 -0.0892944H43.9185V30.0446H0.0778809V-0.0892944Z" fill="#ECEFF1"/>
	<path d="M0.079834 -0.0892944H43.9204V3.25892H0.079834V-0.0892944ZM0.079834 6.60713H43.9204V9.95535H0.079834V6.60713ZM0.079834 13.3036H43.9204V16.6518H0.079834V13.3036ZM0.079834 20H43.9204V23.3482H0.079834V20ZM0.079834 26.6964H43.9204V30.0446H0.079834V26.6964Z" fill="#F44336"/>
	<path d="M0.079834 -0.0892944H21.0037V16.6518H0.079834V-0.0892944Z" fill="#3F51B5"/>
	<path d="M2.32171 2.14285L2.78304 3.24553L3.81628 3.42187L3.069 4.28125L3.24635 5.49107L2.32171 4.91964L1.39708 5.49107L1.57443 4.28125L0.827148 3.42187L1.86039 3.24553L2.32171 2.14285ZM6.30722 2.14285L6.76854 3.24553L7.80179 3.42187L7.0545 4.28125L7.23186 5.49107L6.30722 4.91964L5.38258 5.49107L5.55994 4.28125L4.81266 3.42187L5.8459 3.24553L6.30722 2.14285ZM10.2927 2.14285L10.7541 3.24553L11.7873 3.42187L11.04 4.28125L11.2174 5.49107L10.2927 4.91964L9.36809 5.49107L9.54545 4.28125L8.79816 3.42187L9.83141 3.24553L10.2927 2.14285ZM14.2782 2.14285L14.7396 3.24553L15.7728 3.42187L15.0255 4.28125L15.2029 5.49107L14.2782 4.91964L13.3536 5.49107L13.531 4.28125L12.7837 3.42187L13.8169 3.24553L14.2782 2.14285ZM18.0146 2.14285L18.476 3.24553L19.5092 3.42187L18.7619 4.28125L18.9393 5.49107L18.0146 4.91964L17.09 5.49107L17.2674 4.28125L16.5201 3.42187L17.5533 3.24553L18.0146 2.14285ZM2.32171 11.0714L2.78304 12.1741L3.81628 12.3504L3.069 13.2098L3.24635 14.4196L2.32171 13.8482L1.39708 14.4196L1.57443 13.2098L0.827148 12.3504L1.86039 12.1741L2.32171 11.0714ZM6.30722 11.0714L6.76854 12.1741L7.80179 12.3504L7.0545 13.2098L7.23186 14.4196L6.30722 13.8482L5.38258 14.4196L5.55994 13.2098L4.81266 12.3504L5.8459 12.1741L6.30722 11.0714ZM10.2927 11.0714L10.7541 12.1741L11.7873 12.3504L11.04 13.2098L11.2174 14.4196L10.2927 13.8482L9.36809 14.4196L9.54545 13.2098L8.79816 12.3504L9.83141 12.1741L10.2927 11.0714ZM14.2782 11.0714L14.7396 12.1741L15.7728 12.3504L15.0255 13.2098L15.2029 14.4196L14.2782 13.8482L13.3536 14.4196L13.531 13.2098L12.7837 12.3504L13.8169 12.1741L14.2782 11.0714ZM18.0146 11.0714L18.476 12.1741L19.5092 12.3504L18.7619 13.2098L18.9393 14.4196L18.0146 13.8482L17.09 14.4196L17.2674 13.2098L16.5201 12.3504L17.5533 12.1741L18.0146 11.0714ZM3.31809 6.60714L3.77941 7.70982L4.81266 7.88616L4.06537 8.74553L4.24273 9.95535L3.31809 9.38392L2.39345 9.95535L2.57081 8.74553L1.82353 7.88616L2.85677 7.70982L3.31809 6.60714ZM7.3036 6.60714L7.76492 7.70982L8.79816 7.88616L8.05088 8.74553L8.22824 9.95535L7.3036 9.38392L6.37896 9.95535L6.55632 8.74553L5.80903 7.88616L6.84227 7.70982L7.3036 6.60714ZM11.2891 6.60714L11.7504 7.70982L12.7837 7.88616L12.0364 8.74553L12.2137 9.95535L11.2891 9.38392L10.3645 9.95535L10.5418 8.74553L9.79454 7.88616L10.8278 7.70982L11.2891 6.60714ZM15.2746 6.60714L15.7359 7.70982L16.7692 7.88616L16.0219 8.74553L16.1992 9.95535L15.2746 9.38392L14.35 9.95535L14.5273 8.74553L13.78 7.88616L14.8133 7.70982L15.2746 6.60714ZM19.011 6.60714L19.4723 7.70982L20.5056 7.88616L19.7583 8.74553L19.9357 9.95535L19.011 9.38392L18.0864 9.95535L18.2637 8.74553L17.5165 7.88616L18.5497 7.70982L19.011 6.60714Z" fill="white"/>
	</g>
	<defs>
	<clipPath id="clip0_43_176">
	<rect width="44" height="30" fill="white"/>
	</clipPath>
	</defs>
	</svg>
	