<svg width="261" height="274" viewBox="0 0 261 274" fill="none" xmlns="http://www.w3.org/2000/svg">
	<g clip-path="url(#clip0_2_5361)">
		<path d="M54.6943 62.5912C49.1153 62.5912 43.7648 60.3749 39.8199 56.43C35.8749 52.485 33.6587 47.1345 33.6587 41.5555C33.6587 35.9765 35.8749 30.626 39.8199 26.6811C43.7648 22.7361 49.1153 20.5199 54.6943 20.5199C60.2733 20.5199 65.6238 22.7361 69.5688 26.6811C73.5137 30.626 75.73 35.9765 75.73 41.5555C75.73 47.1345 73.5137 52.485 69.5688 56.43C65.6238 60.3749 60.2733 62.5912 54.6943 62.5912Z" fill="#EBEBEB" />
		<path d="M49.506 36.8707H45.1528V50.9375H49.506V36.8707Z" fill="white" />
		<path d="M47.3079 35.0287C47.8226 35.0336 48.3271 34.8854 48.7575 34.603C49.1878 34.3206 49.5245 33.9167 49.7249 33.4425C49.9252 32.9684 49.9802 32.4454 49.8827 31.94C49.7853 31.4346 49.5399 30.9695 49.1777 30.6038C48.8155 30.2382 48.3527 29.9884 47.8483 29.8861C47.3438 29.7839 46.8203 29.8339 46.3443 30.0297C45.8683 30.2256 45.4612 30.5584 45.1747 30.986C44.8882 31.4137 44.7353 31.9168 44.7352 32.4315C44.7336 33.1166 45.0033 33.7744 45.4855 34.2611C45.9676 34.7479 46.6228 35.0239 47.3079 35.0287Z" fill="white" />
		<path d="M56.4688 43.551C56.4688 41.574 57.3775 40.3951 59.1213 40.3951C60.7177 40.3951 61.4913 41.5248 61.4913 43.551V50.919H65.82V42.0283C65.82 38.2584 63.6895 36.4409 60.7054 36.4409C59.8591 36.43 59.0244 36.6379 58.2821 37.0446C57.5398 37.4512 56.9152 38.0428 56.4688 38.7618V36.8707H52.2875V50.9313H56.4688V43.551Z" fill="white" />
		<path d="M82.8831 -0.331543L85.7627 4.93044L91.0309 7.81624L85.7627 10.6959L82.8831 15.9579L80.0034 10.6959L74.7353 7.81624L80.0034 4.93044L82.8831 -0.331543Z" fill="#F5F5F5" />
		<path d="M203.012 142.35L205.174 146.304L209.122 148.459L205.174 150.62L203.012 154.575L200.851 150.62L196.903 148.459L200.851 146.304L203.012 142.35Z" fill="#EBEBEB" />
		<path d="M209.121 122.849L210.098 124.63L211.878 125.606L210.098 126.582L209.121 128.363L208.151 126.582L206.365 125.606L208.151 124.63L209.121 122.849Z" fill="#E0E0E0" />
		<path d="M62.308 1.64554L63.2842 3.43228L65.0648 4.4024L63.2842 5.37866L62.308 7.15926L61.3378 5.37866L59.5511 4.4024L61.3378 3.43228L62.308 1.64554Z" fill="#E0E0E0" />
		<path d="M13.4458 167.211C14.5787 166.692 15.5348 165.852 16.1961 164.796C16.8573 163.74 17.1947 162.513 17.1667 161.267C17.1667 157.749 14.4344 154.925 11.1372 154.949C7.84 154.974 5.19367 157.853 5.22437 161.372C5.21546 162.628 5.57941 163.858 6.27017 164.908C6.96093 165.957 7.94744 166.778 9.10484 167.266C-0.068314 168.77 0.472005 178.754 0.472005 178.754L22.2015 178.57C22.2015 178.57 22.576 168.469 13.4458 167.211Z" fill="#E0E0E0" />
		<path d="M221.905 233.019C221.752 232.232 221.324 231.524 220.697 231.023C220.071 230.522 219.286 230.259 218.484 230.283C217.682 230.307 216.915 230.615 216.319 231.152C215.723 231.689 215.337 232.42 215.231 233.216C215.119 232.422 214.729 231.693 214.131 231.16C213.532 230.627 212.763 230.323 211.961 230.304C211.16 230.285 210.377 230.551 209.754 231.055C209.13 231.559 208.706 232.268 208.557 233.056C208.396 234.22 208.691 235.401 209.379 236.353C210.061 237.292 210.862 238.138 211.762 238.871C212.99 239.957 214.101 240.971 215.317 242.051C216.545 240.958 217.546 239.933 218.749 238.84C219.645 238.1 220.44 237.245 221.113 236.298C221.785 235.346 222.068 234.173 221.905 233.019Z" fill="#EBEBEB" />
		<path d="M236.058 103.594L238.385 103.134L242.069 95.0411L241.148 90.3931C241.148 90.3931 244.703 89.4598 245.489 95.6305C246.275 101.801 246.422 100.162 246.422 100.162C246.422 100.162 254.066 98.676 254.834 99.2101C255.392 99.6031 257.106 107.155 258.002 111.257C258.25 112.24 258.162 113.278 257.751 114.205C257.34 115.132 256.631 115.895 255.736 116.371C255.481 116.497 255.211 116.588 254.932 116.642C253.029 117.022 242.984 117.403 242.984 117.403L238.962 118.201L236.058 103.594Z" fill="#E0E0E0" />
		<path d="M229.138 103.637L233.724 119.282L237.715 118.49L234.621 102.888L229.138 103.637Z" fill="#E0E0E0" />
		<path d="M259.869 273.163C259.869 273.255 198.978 273.322 123.886 273.322C48.7938 273.322 -12.115 273.255 -12.115 273.163C-12.115 273.07 48.7631 273.003 123.886 273.003C199.009 273.003 259.869 273.077 259.869 273.163Z" fill="#263238" />
		<path d="M212.566 97.4541C206.616 100.346 199.76 100.757 193.507 98.596C187.253 96.4348 182.114 91.8787 179.22 85.9293C176.327 79.9788 175.917 73.1232 178.078 66.87C180.239 60.6167 184.795 55.4777 190.744 52.583C193.691 51.15 196.89 50.3114 200.161 50.1151C203.431 49.9187 206.708 50.3685 209.805 51.4387C212.901 52.5089 215.757 54.1785 218.208 56.3523C220.659 58.5261 222.658 61.1614 224.091 64.1078C225.524 67.054 226.362 70.2537 226.559 73.524C226.755 76.7944 226.305 80.0714 225.235 83.1679C224.165 86.2645 222.495 89.1199 220.322 91.5711C218.148 94.0223 215.512 96.0214 212.566 97.4541Z" fill="#4152F3" />
		<path d="M195.491 80.5937C195.582 80.5915 195.672 80.569 195.754 80.5278C195.835 80.4865 195.907 80.4275 195.962 80.3551C196.018 80.2828 196.057 80.1988 196.077 80.1094C196.096 80.02 196.095 79.9274 196.074 79.8384C196.013 79.5376 195.847 78.7762 195.785 78.4631C195.699 78.0271 195.595 77.9105 195.171 77.714C194.071 77.2082 193.197 76.3139 192.715 75.2027C190.837 71.3345 192.046 66.4655 196.688 64.2121C200.796 62.2105 204.277 63.5981 205.898 66.9751C208.041 71.3898 207.9 76.0623 205.002 77.4745C204.64 77.6734 204.237 77.7847 203.825 77.7994C203.413 77.8141 203.003 77.7318 202.629 77.5592C202.254 77.3865 201.925 77.1284 201.669 76.8055C201.412 76.4826 201.235 76.1039 201.152 75.7001C200.673 73.5388 200.538 71.0153 199.862 69.6153C199.248 68.3873 198.069 67.6444 196.682 68.3198C195.042 69.118 194.551 71.4512 195.656 73.7169C196.051 74.5548 196.618 75.2997 197.32 75.9027C197.32 75.9027 199.101 83.811 199.408 85.1987C200.022 87.9555 201.999 90.7247 202.189 91.0378C202.217 91.0726 202.253 91.0989 202.295 91.1138C202.336 91.1287 202.381 91.1314 202.424 91.1218C202.467 91.1122 202.507 91.0905 202.538 91.0593C202.569 91.0281 202.591 90.9887 202.601 90.9457C202.656 90.6755 203.436 87.3231 202.926 84.5969C202.785 83.8233 201.956 79.863 201.956 79.863C202.981 80.6182 204.971 80.7594 206.623 79.9551C211.535 77.5605 212.701 71.4512 209.778 65.4463C207.574 60.9088 201.668 58.5511 195.828 61.3939C188.552 64.9305 187.423 71.924 189.535 76.2711C190.812 78.9052 192.93 80.784 195.491 80.5937Z" fill="white" />
		<path d="M237.476 167.825C235.364 167.019 233.432 165.806 231.79 164.253C230.148 162.7 228.828 160.839 227.906 158.776C226.984 156.713 226.478 154.488 226.416 152.229C226.355 149.97 226.739 147.72 227.548 145.61C228.352 143.499 229.565 141.567 231.117 139.924C232.669 138.282 234.53 136.962 236.592 136.039C238.655 135.116 240.879 134.609 243.138 134.547C245.397 134.485 247.646 134.868 249.756 135.676C251.868 136.481 253.8 137.694 255.442 139.247C257.084 140.8 258.404 142.661 259.326 144.724C260.248 146.788 260.755 149.012 260.816 151.272C260.877 153.531 260.493 155.78 259.684 157.89C258.88 160.002 257.667 161.934 256.115 163.576C254.563 165.218 252.702 166.538 250.64 167.461C248.577 168.384 246.353 168.891 244.094 168.953C241.835 169.016 239.586 168.632 237.476 167.825Z" fill="#4152F3" />
		<path fill-rule="evenodd" clip-rule="evenodd" d="M252.605 154.673C253.372 152.416 253.24 149.95 252.236 147.788C251.232 145.626 249.433 143.934 247.213 143.064C244.994 142.194 242.524 142.213 240.319 143.118C238.113 144.022 236.34 145.741 235.37 147.919C235.315 148.042 235.266 148.171 235.217 148.293C234.616 149.858 234.458 151.557 234.762 153.205L231.44 157.215L236.819 157.522C237.856 158.747 239.193 159.683 240.7 160.236C242.207 160.79 243.832 160.942 245.416 160.678C246.999 160.414 248.487 159.744 249.733 158.732C250.98 157.72 251.942 156.402 252.525 154.906C252.556 154.83 252.583 154.752 252.605 154.673ZM241.111 158.805C239.687 158.265 238.455 157.316 237.568 156.079L234.431 155.901L236.365 153.568C235.931 151.996 236.011 150.326 236.592 148.803C236.684 148.57 236.788 148.336 236.899 148.115C237.774 146.383 239.264 145.039 241.077 144.347C242.89 143.655 244.897 143.665 246.703 144.375C248.51 145.084 249.987 146.443 250.844 148.184C251.702 149.925 251.879 151.924 251.34 153.789C251.285 153.985 251.223 154.175 251.15 154.366C250.406 156.285 248.931 157.83 247.049 158.662C245.167 159.495 243.031 159.546 241.111 158.805Z" fill="white" />
		<path fill-rule="evenodd" clip-rule="evenodd" d="M247.177 154.832C246.999 154.648 246.158 153.739 245.986 153.604C245.814 153.469 245.691 153.371 245.47 153.531C245.249 153.69 244.654 154.003 244.482 154.096C244.31 154.188 244.175 154.157 244.003 153.973C243.471 153.486 243.029 152.911 242.695 152.272C242.397 151.672 242.19 151.03 242.081 150.369C242.044 150.111 242.192 150.037 242.339 149.976C242.486 149.914 242.646 149.81 242.799 149.73L242.916 149.656C242.996 149.594 243.072 149.527 243.143 149.454C243.195 149.408 243.235 149.349 243.257 149.284C243.28 149.218 243.285 149.147 243.272 149.079C243.272 148.956 243.229 147.753 243.211 147.268C243.192 146.783 242.99 146.783 242.867 146.734C242.744 146.685 242.609 146.611 242.468 146.562C242.359 146.523 242.244 146.506 242.129 146.514C242.014 146.521 241.901 146.552 241.799 146.605C241.474 146.741 241.181 146.942 240.938 147.197C240.695 147.452 240.507 147.754 240.386 148.085C240.297 148.328 240.241 148.582 240.221 148.84C240.186 149.43 240.254 150.023 240.423 150.59C240.478 150.768 241 153.482 242.83 155.152C244.66 156.822 244.776 156.539 245.182 156.65C245.503 156.713 245.835 156.704 246.153 156.626C246.471 156.547 246.768 156.401 247.024 156.195C247.285 155.936 247.462 155.605 247.533 155.244C247.466 155.127 247.349 155.017 247.177 154.832Z" fill="white" />
		<path d="M13.7528 88.2994C10.2729 88.2994 6.93546 86.917 4.47476 84.4563C2.01406 81.9956 0.631653 78.6581 0.631653 75.1782C0.631653 71.6982 2.01406 68.3608 4.47476 65.9001C6.93546 63.4394 10.2729 62.057 13.7528 62.057C15.4759 62.057 17.1822 62.3964 18.7741 63.0558C20.366 63.7152 21.8125 64.6817 23.0309 65.9001C24.2493 67.1185 25.2158 68.565 25.8752 70.1569C26.5346 71.7489 26.874 73.4551 26.874 75.1782C26.874 76.9013 26.5346 78.6075 25.8752 80.1994C25.2158 81.7914 24.2493 83.2378 23.0309 84.4563C21.8125 85.6747 20.366 86.6412 18.7741 87.3006C17.1822 87.96 15.4759 88.2994 13.7528 88.2994Z" fill="#4152F3" />
		<path d="M6.7655 79.556C8.02565 80.3599 9.48226 80.8025 10.9766 80.8356C12.471 80.8687 13.9458 80.491 15.2403 79.7437C16.5348 78.9964 17.5993 77.9081 18.3179 76.5974C19.0366 75.2868 19.3817 73.8041 19.3157 72.3108C19.8703 71.908 20.3503 71.4114 20.734 70.8433C20.2084 71.074 19.652 71.227 19.0823 71.2977C19.6828 70.9467 20.1363 70.3907 20.3595 69.732C19.7911 70.07 19.1675 70.3049 18.5175 70.4258C18.0868 69.9548 17.5117 69.6405 16.8827 69.5326C16.2537 69.4246 15.6066 69.5292 15.0436 69.8297C14.4806 70.1302 14.0336 70.6096 13.7732 71.1922C13.5128 71.7749 13.4538 72.4277 13.6055 73.0476C12.4646 72.9889 11.3488 72.6913 10.3303 72.1741C9.31176 71.6569 8.41315 70.9316 7.69264 70.0451C7.32756 70.6776 7.21642 71.4252 7.38172 72.1365C7.54701 72.8478 7.97639 73.4698 8.58294 73.8765C8.12665 73.8647 7.68001 73.7425 7.28126 73.5204C7.27365 74.189 7.49943 74.8393 7.91971 75.3593C8.33999 75.8793 8.92846 76.2365 9.58376 76.3693C9.16133 76.4844 8.71816 76.5012 8.28822 76.4184C8.47205 76.9873 8.82874 77.4847 9.30858 77.8413C9.78843 78.1979 10.3675 78.3959 10.9653 78.4078C9.76921 79.3247 8.26168 79.7369 6.7655 79.556Z" fill="white" />
		<path d="M37.312 235.273C31.4848 236.656 25.3466 235.67 20.2463 232.531C15.1459 229.391 11.5007 224.355 10.1118 218.529C9.4232 215.64 9.31063 212.645 9.78051 209.713C10.2504 206.781 11.2935 203.971 12.8503 201.442C14.407 198.914 16.4469 196.717 18.8531 194.977C21.2594 193.238 23.985 191.99 26.874 191.304C29.7606 190.616 32.7545 190.503 35.6846 190.973C38.6148 191.442 41.4238 192.483 43.9514 194.038C46.4789 195.593 48.6754 197.631 50.4154 200.034C52.1555 202.438 53.405 205.161 54.0926 208.048C54.781 210.937 54.8928 213.934 54.4217 216.867C53.9507 219.8 52.9059 222.611 51.3474 225.14C49.7888 227.668 47.7469 229.865 45.3386 231.603C42.9302 233.342 40.2027 234.589 37.312 235.273Z" fill="#455A64" />
		<path d="M29.7414 203.412C32.9588 202.645 33.3456 202.565 34.6534 202.319C35.4188 202.147 36.2079 202.108 36.9866 202.203C37.5566 202.271 38.1041 202.466 38.5892 202.774C39.0787 203.071 39.4977 203.471 39.8172 203.946C40.2517 204.599 40.5715 205.322 40.7627 206.083C41.125 207.342 41.2294 207.722 41.9907 210.94C42.7521 214.157 42.8319 214.544 43.0775 215.852C43.2526 216.617 43.2921 217.406 43.1942 218.185C43.1315 218.756 42.9359 219.305 42.6231 219.787C42.3299 220.278 41.9315 220.698 41.4565 221.015C40.8009 221.45 40.0764 221.769 39.3137 221.961C38.0857 222.323 37.6804 222.428 34.4631 223.189C31.2457 223.95 30.8589 224.036 29.5511 224.282C28.7841 224.457 27.9924 224.496 27.2117 224.399C26.6413 224.332 26.0935 224.136 25.6092 223.828C25.1245 223.521 24.7169 223.107 24.418 222.618C23.9796 221.966 23.6576 221.243 23.4663 220.481C23.1102 219.223 23.0058 218.848 22.2383 215.631C21.4708 212.413 21.391 212.027 21.1454 210.719C20.9768 209.951 20.9374 209.16 21.0288 208.379C21.1043 207.812 21.2986 207.266 21.599 206.778C21.8995 206.291 22.2993 205.872 22.7725 205.549C23.425 205.112 24.1478 204.79 24.9092 204.597C26.1372 204.241 26.5486 204.137 29.766 203.369L29.7414 203.412ZM29.2502 201.196C25.9776 201.975 25.5662 202.086 24.2952 202.454C23.3008 202.701 22.3559 203.116 21.5015 203.682C20.7767 204.183 20.164 204.83 19.7021 205.58C19.2402 206.331 18.9393 207.169 18.8184 208.042C18.6894 209.065 18.7351 210.103 18.9534 211.112C19.2052 212.407 19.285 212.825 20.0648 216.097C20.8446 219.37 20.9551 219.781 21.2928 221.046C21.5384 222.041 21.9538 222.986 22.5208 223.84C23.0204 224.592 23.6811 225.223 24.4549 225.688C25.1995 226.157 26.0379 226.456 26.9109 226.566C27.9345 226.696 28.9727 226.65 29.9809 226.431C31.2764 226.185 31.6939 226.099 34.9666 225.32C38.2392 224.54 38.6506 224.429 39.9154 224.092C40.9084 223.84 41.8526 223.425 42.7091 222.864C43.4414 222.37 44.0574 221.722 44.5143 220.966C44.9804 220.22 45.2818 219.383 45.3984 218.51C45.5255 217.486 45.4778 216.448 45.2572 215.44C45.0116 214.139 44.9256 213.727 44.1459 210.455C43.3661 207.182 43.2556 206.771 42.9179 205.5C42.6657 204.507 42.2507 203.563 41.6899 202.706C41.1957 201.976 40.5483 201.362 39.7926 200.907C39.0491 200.435 38.2104 200.133 37.3366 200.023C36.313 199.893 35.2748 199.939 34.2666 200.158C32.9649 200.41 32.5535 200.489 29.2809 201.269" fill="white" />
		<path d="M30.6194 207.102C29.3957 207.394 28.2859 208.042 27.4303 208.964C26.5748 209.886 26.0119 211.042 25.8129 212.284C25.6139 213.526 25.7876 214.799 26.3122 215.943C26.8368 217.086 27.6886 218.048 28.76 218.707C29.8314 219.367 31.0742 219.694 32.3314 219.647C33.5885 219.6 34.8035 219.181 35.8227 218.443C36.8419 217.706 37.6195 216.683 38.0573 215.504C38.4951 214.324 38.5733 213.042 38.2822 211.818C37.8901 210.177 36.863 208.759 35.4263 207.875C33.9896 206.991 32.2608 206.713 30.6194 207.102ZM33.0754 217.313C32.2804 217.501 31.4475 217.449 30.6821 217.163C29.9166 216.878 29.253 216.372 28.7749 215.709C28.2969 215.047 28.0259 214.258 27.9963 213.441C27.9666 212.625 28.1796 211.818 28.6083 211.123C29.037 210.427 29.6622 209.875 30.405 209.535C31.1477 209.194 31.9745 209.082 32.7811 209.211C33.5877 209.341 34.3378 209.707 34.9366 210.262C35.5354 210.818 35.9561 211.539 36.1454 212.333C36.2714 212.862 36.2919 213.41 36.2057 213.947C36.1195 214.483 35.9284 214.997 35.6432 215.46C35.3581 215.923 34.9845 216.324 34.5439 216.642C34.1033 216.96 33.6042 217.188 33.0754 217.313Z" fill="white" />
		<path d="M38.4418 204.984C38.5089 205.27 38.4899 205.569 38.3871 205.844C38.2842 206.119 38.1023 206.357 37.8641 206.529C37.6259 206.701 37.3422 206.798 37.0488 206.809C36.7554 206.819 36.4655 206.743 36.2156 206.589C35.9656 206.434 35.767 206.21 35.6446 205.943C35.5222 205.676 35.4817 205.379 35.528 205.089C35.5744 204.799 35.7056 204.529 35.9051 204.314C36.1046 204.099 36.3634 203.947 36.6489 203.879C36.8393 203.832 37.0369 203.824 37.2305 203.855C37.424 203.885 37.6096 203.954 37.7763 204.057C37.9431 204.159 38.0878 204.294 38.2021 204.454C38.3163 204.613 38.3978 204.793 38.4418 204.984Z" fill="white" />
		<path d="M208.501 215.385C207.117 215.386 205.746 215.114 204.467 214.585C203.188 214.056 202.026 213.28 201.047 212.301C200.068 211.323 199.291 210.161 198.762 208.882C198.232 207.604 197.959 206.233 197.959 204.849C197.959 203.465 198.232 202.094 198.762 200.815C199.291 199.537 200.068 198.375 201.047 197.396C202.026 196.418 203.188 195.642 204.467 195.113C205.746 194.584 207.117 194.312 208.501 194.313C209.887 194.31 211.259 194.581 212.539 195.109C213.819 195.638 214.983 196.413 215.963 197.392C216.944 198.371 217.722 199.533 218.252 200.813C218.783 202.092 219.056 203.464 219.056 204.849C219.056 206.234 218.783 207.606 218.252 208.885C217.722 210.165 216.944 211.327 215.963 212.306C214.983 213.284 213.819 214.06 212.539 214.588C211.259 215.117 209.887 215.388 208.501 215.385Z" fill="#455A64" />
		<path d="M206.893 211.216H209.459V204.812H211.246L211.442 202.663H209.459V201.435C209.459 200.932 209.564 200.729 210.073 200.729H211.467V198.494H209.686C207.777 198.494 206.917 199.335 206.917 200.95V202.669H205.548V204.812H206.88L206.893 211.216Z" fill="white" />
		<path d="M172.558 273.611L87.8933 273.58C83.008 273.58 78.3228 271.639 74.8684 268.185C71.414 264.73 69.4733 260.045 69.4733 255.16L69.5102 42.9125C69.5102 40.4904 69.9878 38.0921 70.9158 35.8549C71.8438 33.6177 73.2039 31.5855 74.9183 29.8745C76.6326 28.1636 78.6676 26.8075 80.9067 25.884C83.1457 24.9605 85.545 24.4876 87.967 24.4925L172.625 24.5416C177.511 24.5416 182.196 26.4823 185.65 29.9367C189.105 33.3911 191.045 38.0763 191.045 42.9616L191.009 255.16C191.013 257.584 190.538 259.985 189.612 262.226C188.686 264.466 187.328 266.502 185.613 268.216C183.899 269.93 181.864 271.289 179.623 272.214C177.383 273.14 174.982 273.615 172.558 273.611Z" fill="#263238" />
		<path d="M172.533 31.9833H156.115C155.037 32.009 154.014 32.4599 153.267 33.2374C152.521 34.015 152.112 35.0562 152.13 36.1339V39.1118C152.142 39.6469 152.049 40.1792 151.855 40.6782C151.661 41.1772 151.371 41.633 151.001 42.0197C150.631 42.4064 150.188 42.7163 149.698 42.9316C149.208 43.147 148.68 43.2636 148.145 43.2747H116.15C115.614 43.2628 115.086 43.1454 114.596 42.9294C114.106 42.7134 113.663 42.4029 113.293 42.0158C112.923 41.6286 112.633 41.1723 112.44 40.673C112.246 40.1737 112.153 39.6411 112.165 39.1057V36.1093C112.186 35.0289 111.779 33.9839 111.032 33.2027C110.286 32.4215 109.26 31.9677 108.18 31.9403H102.396H88.0346C86.3387 31.9362 84.6587 32.2668 83.0908 32.913C81.5229 33.5591 80.0979 34.5083 78.8973 35.706C77.6967 36.9037 76.7442 38.3265 76.0943 39.8929C75.4444 41.4592 75.1099 43.1384 75.1099 44.8343L75.0669 252.004C75.0669 255.424 76.4254 258.703 78.8435 261.121C81.2616 263.54 84.5412 264.898 87.9609 264.898L172.46 264.947C174.153 264.947 175.829 264.614 177.394 263.966C178.958 263.318 180.38 262.368 181.577 261.171C182.774 259.973 183.724 258.552 184.372 256.987C185.02 255.423 185.354 253.746 185.354 252.053L185.397 44.8773C185.397 41.4629 184.042 38.1879 181.631 35.7707C179.219 33.3535 175.948 31.9914 172.533 31.9833Z" fill="white" />
		<path d="M173.767 48.813C173.767 48.8683 171.631 48.9297 169.003 48.9481C166.375 48.9665 164.232 48.9481 164.232 48.8928C164.232 48.8376 166.363 48.77 168.997 48.7516C171.631 48.7332 173.767 48.7577 173.767 48.813Z" fill="#263238" />
		<path d="M173.786 51.2506C173.786 51.3059 171.655 51.3673 169.021 51.3918C166.387 51.4164 164.25 51.3918 164.25 51.3304C164.25 51.269 166.387 51.2138 169.021 51.1892C171.655 51.1646 173.786 51.1953 173.786 51.2506Z" fill="#263238" />
		<path d="M173.81 53.6882C173.81 53.7434 171.674 53.811 169.04 53.8294C166.405 53.8478 164.275 53.8294 164.269 53.768C164.263 53.7066 166.405 53.6513 169.04 53.6268C171.674 53.6022 173.81 53.6329 173.81 53.6882Z" fill="#263238" />
		<path d="M83.976 56.0705H84.2278H84.9216L87.4881 56.0091L87.4144 56.0766C87.4144 55.5117 87.4144 54.8916 87.3837 54.2346C87.3837 53.8908 87.3837 53.5654 87.3837 53.1663C87.4242 52.96 87.5293 52.772 87.6839 52.6296C87.8385 52.4871 88.0344 52.3977 88.2433 52.3742C88.6608 52.3742 89.0231 52.3742 89.4713 52.3742C89.7061 52.4121 89.9198 52.5325 90.0739 52.7136C90.228 52.8948 90.3126 53.1249 90.3125 53.3627C90.3125 54.2346 90.3125 55.1372 90.3432 56.0766L90.2265 55.96H93.4623L93.3395 56.0828C93.3395 54.7811 93.3395 53.4303 93.3027 52.0488C93.3027 51.7049 93.3027 51.3672 93.3027 51.0234C93.2887 50.8706 93.2407 50.7228 93.162 50.5911C93.0834 50.4593 92.9762 50.3469 92.8483 50.262L91.4361 48.8621L90.0669 47.5175L89.4099 46.8666C89.1827 46.6456 89.0047 46.4184 88.7407 46.3631C88.6141 46.3298 88.4817 46.3252 88.3532 46.3497C88.2247 46.3741 88.1032 46.4269 87.9977 46.5044C87.8012 46.6701 87.5925 46.9035 87.3837 47.1184L86.2171 48.2911C85.4864 49.0463 84.7251 49.7401 84.1725 50.3971C84.0084 50.7843 83.9532 51.2089 84.0128 51.6251C84.0128 52.0242 84.0128 52.4049 84.0128 52.761C84.0128 53.461 84.0128 54.075 84.0128 54.603C84.0128 55.1311 84.0128 55.4565 84.0128 55.7758C84.0217 55.9168 84.0217 56.0583 84.0128 56.1994C84.0057 56.0706 84.0057 55.9414 84.0128 55.8126C84.0128 55.4995 84.0128 55.1126 84.0128 54.6521C84.0128 54.1916 84.0129 53.504 83.9699 52.8101C83.9699 52.4417 83.9699 52.0549 83.9699 51.6435C83.9699 51.4348 83.9699 51.226 83.9699 51.0295C83.9684 50.7926 84.0298 50.5595 84.1479 50.3541C84.7619 49.6235 85.4619 48.9726 86.1987 48.1929L87.353 47.0078C87.5618 46.8052 87.7276 46.6026 87.967 46.3938C88.0991 46.2932 88.2522 46.2238 88.4149 46.1909C88.5776 46.1579 88.7456 46.1622 88.9064 46.2035C89.2121 46.3157 89.4817 46.5088 89.6862 46.7622L90.3493 47.4131L91.7186 48.7577L93.1369 50.1454C93.2698 50.2646 93.3911 50.3962 93.4992 50.5383C93.6054 50.7013 93.6649 50.8903 93.6711 51.0848C93.6711 51.4286 93.6711 51.7725 93.6711 52.1163C93.6711 53.4978 93.6711 54.8486 93.7018 56.1503V56.2731H93.579H90.3432H90.116V56.1564C90.116 55.217 90.116 54.3144 90.116 53.4426C90.1201 53.2552 90.0565 53.0727 89.937 52.9284C89.8175 52.784 89.65 52.6876 89.4652 52.6566C89.0906 52.6566 88.6486 52.6566 88.2863 52.6566C88.1208 52.6732 87.9648 52.7414 87.8402 52.8516C87.7157 52.9618 87.629 53.1084 87.5925 53.2706C87.5925 53.5961 87.5925 53.9706 87.5925 54.3022C87.5925 54.9714 87.5925 55.5977 87.5925 56.1442V56.2178H87.5188H84.9093H84.2278C84.139 56.1776 84.0546 56.1282 83.976 56.0705Z" fill="#263238" />
		<path d="M139.85 217.958C139.556 218.004 139.258 218.025 138.96 218.019L136.541 218.068C134.502 218.099 131.678 218.117 128.559 218.117C125.439 218.117 122.615 218.117 120.577 218.068L118.157 218.019C117.859 218.024 117.562 218.004 117.267 217.958C117.561 217.908 117.859 217.887 118.157 217.896L120.577 217.841C122.615 217.841 125.439 217.798 128.559 217.798C131.678 217.798 134.496 217.798 136.541 217.841L138.96 217.896C139.258 217.887 139.556 217.908 139.85 217.958Z" fill="#455A64" />
		<path d="M175.321 223.508C175.321 223.6 162.322 223.668 146.291 223.668C130.259 223.668 117.261 223.6 117.261 223.508C117.261 223.416 130.259 223.349 146.291 223.349C162.322 223.349 175.321 223.422 175.321 223.508Z" fill="#455A64" />
		<path d="M157.177 228.758C157.177 228.85 148.243 228.918 137.222 228.918C126.201 228.918 117.261 228.85 117.261 228.758C117.261 228.666 126.195 228.598 137.222 228.598C148.25 228.598 157.177 228.647 157.177 228.758Z" fill="#455A64" />
		<path d="M176.469 238.907L174.664 237.096L172.945 238.809V233.627H176.463L176.469 238.907ZM174.664 236.869L174.719 236.924L176.309 238.521V233.793H173.11V238.428L174.664 236.869Z" fill="#263238" />
		<path d="M128.436 238.232L127.822 237.95C127.455 238.122 127.037 238.152 126.65 238.032C126.263 237.913 125.934 237.654 125.728 237.305C125.522 236.956 125.454 236.543 125.536 236.146C125.618 235.749 125.846 235.398 126.174 235.16C126.502 234.922 126.907 234.815 127.31 234.86C127.712 234.905 128.084 235.099 128.351 235.403C128.619 235.707 128.763 236.101 128.756 236.506C128.749 236.911 128.591 237.299 128.313 237.593L128.436 238.232ZM126.956 234.781C126.536 234.811 126.143 234.999 125.858 235.308C125.572 235.617 125.415 236.024 125.419 236.444C125.423 236.865 125.588 237.269 125.879 237.572C126.17 237.876 126.566 238.057 126.987 238.078C127.267 238.059 127.539 237.973 127.779 237.827L128.252 238.035L128.141 237.575C128.358 237.339 128.5 237.044 128.552 236.728C128.603 236.411 128.561 236.087 128.431 235.794C128.3 235.501 128.087 235.253 127.818 235.08C127.548 234.906 127.234 234.815 126.913 234.818L126.956 234.781Z" fill="#263238" />
		<path d="M132.525 237.968L131.801 236.187L130.431 234.959H133.747L132.525 237.968ZM130.738 235.064L131.905 236.132L132.519 237.649L133.563 235.039L130.738 235.064Z" fill="#263238" />
		<path d="M133.678 234.919L131.866 236.098L131.933 236.201L133.744 235.022L133.678 234.919Z" fill="#263238" />
		<path d="M123.211 235.303C123.162 235.066 123.031 234.854 122.841 234.705C122.651 234.555 122.414 234.478 122.172 234.486C121.93 234.494 121.699 234.587 121.52 234.749C121.34 234.911 121.223 235.131 121.191 235.371C121.157 235.128 121.039 234.906 120.856 234.743C120.673 234.581 120.438 234.489 120.193 234.484C119.949 234.48 119.71 234.563 119.522 234.719C119.333 234.875 119.206 235.093 119.164 235.334C119.117 235.687 119.207 236.046 119.416 236.335C119.623 236.619 119.867 236.875 120.141 237.096C120.515 237.422 120.853 237.71 121.221 238.054C121.59 237.722 121.897 237.409 122.265 237.078C122.535 236.852 122.774 236.592 122.977 236.304C123.183 236.014 123.266 235.655 123.211 235.303Z" fill="#4152F3" />
		<path d="M180.165 243.494C180.165 243.494 180.165 243.291 180.165 242.917C180.165 242.542 180.165 241.971 180.165 241.234C180.165 239.755 180.165 237.55 180.135 234.751C180.135 229.108 180.104 220.899 180.079 210.602L180.184 210.706L81.9989 210.762L82.1585 210.602C82.1585 222.035 82.1585 233.117 82.1585 243.494L82.005 243.34L152.265 243.408L172.773 243.451H178.299H179.723H180.214H179.742H178.336H172.865L152.388 243.494L82.0235 243.568H81.8638V243.494C81.8638 233.117 81.8638 222.035 81.8638 210.602V210.442H82.0357L180.22 210.498H180.325V210.602C180.325 220.923 180.282 229.157 180.27 234.818C180.27 237.63 180.27 239.798 180.27 241.277C180.27 242.002 180.27 242.555 180.27 242.935C180.27 243.316 180.165 243.494 180.165 243.494Z" fill="#263238" />
		<path d="M86.0649 216.101L85.9396 237.849L113.139 238.006L113.265 216.258L86.0649 216.101Z" fill="#EBEBEB" />
		<path d="M113.258 216.245H112.736H111.25H105.669L86.0207 216.202L86.168 216.06C86.1373 222.538 86.1005 229.955 86.0636 237.802C86.0943 237.845 85.7628 237.501 85.904 237.643H87.7767H89.6187H93.3027L100.364 237.686L113.098 237.778L112.969 237.913C113.031 231.38 113.086 225.964 113.129 222.157C113.129 220.266 113.172 218.78 113.184 217.743C113.184 217.245 113.184 216.859 113.184 216.576C113.184 216.294 113.184 216.165 113.184 216.165C113.184 216.165 113.184 216.288 113.184 216.546C113.184 216.803 113.184 217.203 113.184 217.694C113.184 218.719 113.184 220.199 113.184 222.078C113.184 225.903 113.184 231.349 113.184 237.913V238.042H113.049L100.315 237.993L93.2536 237.956H89.5696H87.7276H85.8549L85.6891 237.79C85.7443 229.937 85.7873 222.52 85.8303 216.048V215.901H85.9777L105.687 216.079L111.213 216.153H112.668H113.037L113.258 216.245Z" fill="#263238" />
		<path d="M86.9963 217.476L86.8868 236.485L112.177 236.631L112.287 217.622L86.9963 217.476Z" fill="#E0E0E0" />
		<path d="M86.8741 236.47L95.7771 224.706L101.205 232.129L104.938 228.199L112.165 236.617L86.8741 236.47Z" fill="#F5F5F5" />
		<path d="M103.581 223.306C103.58 223.701 103.461 224.086 103.241 224.414C103.02 224.742 102.708 224.996 102.342 225.146C101.977 225.296 101.575 225.334 101.188 225.255C100.801 225.176 100.446 224.985 100.168 224.704C99.89 224.423 99.7016 224.067 99.6264 223.679C99.5513 223.291 99.593 222.89 99.7461 222.526C99.8992 222.162 100.157 221.851 100.486 221.634C100.816 221.416 101.203 221.302 101.598 221.304C101.86 221.305 102.119 221.357 102.36 221.458C102.602 221.56 102.821 221.707 103.005 221.893C103.189 222.079 103.335 222.3 103.434 222.542C103.533 222.784 103.583 223.044 103.581 223.306Z" fill="#F5F5F5" />
		<path d="M131.923 75.1782C131.826 75.1946 131.726 75.1946 131.629 75.1782L130.8 75.2089L127.73 75.2641C125.145 75.2641 121.59 75.3071 117.623 75.3071C113.657 75.3071 110.102 75.3071 107.517 75.2641L104.447 75.2089L103.612 75.1782C103.516 75.1952 103.419 75.1952 103.323 75.1782C103.417 75.1548 103.515 75.1445 103.612 75.1475H104.447L107.517 75.0983C110.102 75.0676 113.657 75.0492 117.623 75.0492C121.59 75.0492 125.145 75.0492 127.73 75.0983L130.8 75.1475H131.629C131.728 75.1449 131.827 75.1552 131.923 75.1782Z" fill="#263238" />
		<path d="M172.103 195.387L169.426 192.698L166.866 195.246V187.546H172.097L172.103 195.387ZM169.426 192.366L169.506 192.446L171.87 194.816V187.792H167.105V194.681L169.426 192.366Z" fill="#263238" />
		<path d="M104.035 194.577L102.807 194.018C102.092 194.35 101.279 194.404 100.526 194.169C99.7735 193.934 99.1355 193.426 98.7371 192.746C98.3388 192.065 98.2085 191.26 98.3719 190.489C98.5353 189.717 98.9805 189.034 99.6206 188.574C100.261 188.113 101.05 187.908 101.833 187.998C102.617 188.088 103.338 188.467 103.857 189.06C104.376 189.654 104.655 190.42 104.639 191.209C104.623 191.997 104.314 192.752 103.771 193.324L104.035 194.577ZM101.107 187.792C100.681 187.796 100.26 187.883 99.8681 188.049C99.4762 188.216 99.1208 188.457 98.8223 188.761C98.5239 189.065 98.2881 189.424 98.1285 189.819C97.969 190.213 97.8887 190.636 97.8923 191.061C97.896 191.487 97.9834 191.908 98.1497 192.3C98.316 192.692 98.5578 193.047 98.8614 193.346C99.165 193.644 99.5244 193.88 99.9191 194.04C100.314 194.199 100.736 194.279 101.162 194.276C101.714 194.242 102.25 194.074 102.721 193.785L102.777 193.754L103.698 194.165L103.489 193.256L103.532 193.214C103.958 192.748 104.239 192.168 104.34 191.545C104.441 190.922 104.358 190.282 104.1 189.706C103.842 189.13 103.421 188.642 102.89 188.301C102.358 187.961 101.738 187.784 101.107 187.792Z" fill="#263238" />
		<path d="M112.091 194.042L110.654 190.536L107.965 188.08L114.498 188.031L112.091 194.042ZM108.573 188.314L110.869 190.42L112.097 193.404L114.148 188.271L108.573 188.314Z" fill="#263238" />
		<path d="M114.368 188.021L110.807 190.338L110.937 190.539L114.499 188.221L114.368 188.021Z" fill="#263238" />
		<path d="M93.757 188.848C93.6643 188.378 93.4075 187.956 93.0325 187.658C92.6575 187.36 92.1887 187.204 91.7098 187.22C91.2309 187.235 90.7732 187.421 90.4182 187.742C90.0633 188.064 89.8343 188.502 89.7722 188.977C89.7017 188.504 89.4657 188.071 89.1061 187.756C88.7465 187.44 88.2866 187.263 87.8083 187.255C87.3301 187.246 86.8645 187.408 86.4944 187.711C86.1243 188.014 85.8737 188.439 85.7873 188.909C85.695 189.604 85.8731 190.307 86.2846 190.874C86.6966 191.434 87.1773 191.939 87.7152 192.378C88.4459 192.992 89.1152 193.606 89.8458 194.263C90.5581 193.613 91.1721 192.999 91.8905 192.342C92.4211 191.895 92.8935 191.383 93.2965 190.819C93.6961 190.245 93.8608 189.54 93.757 188.848Z" fill="#4152F3" />
		<path d="M93.1615 79.6113C95.6098 79.6113 97.5946 77.6265 97.5946 75.1782C97.5946 72.7298 95.6098 70.7451 93.1615 70.7451C90.7132 70.7451 88.7284 72.7298 88.7284 75.1782C88.7284 77.6265 90.7132 79.6113 93.1615 79.6113Z" fill="#EBEBEB" />
		<path d="M170.433 169.967C170.433 170.06 151.854 170.133 128.939 170.133C106.025 170.133 87.439 170.06 87.439 169.967C87.439 169.875 106.019 169.808 128.939 169.808C151.86 169.808 170.433 169.882 170.433 169.967Z" fill="#455A64" />
		<path d="M170.433 163.06C170.433 163.146 151.854 163.22 128.939 163.22C106.025 163.22 87.439 163.146 87.439 163.06C87.439 162.974 106.019 162.9 128.939 162.9C151.86 162.9 170.433 162.974 170.433 163.06Z" fill="#455A64" />
		<path d="M132.611 176.973C132.611 177.059 122.498 177.133 110.028 177.133C97.5577 177.133 87.439 177.059 87.439 176.973C87.439 176.887 97.5515 176.814 110.028 176.814C122.505 176.814 132.611 176.887 132.611 176.973Z" fill="#455A64" />
		<path d="M127.042 252.268C127.036 252.617 126.927 252.956 126.728 253.243C126.53 253.53 126.251 253.752 125.926 253.881C125.602 254.01 125.247 254.04 124.906 253.967C124.564 253.894 124.252 253.722 124.009 253.473C123.765 253.223 123.6 252.907 123.536 252.564C123.472 252.221 123.51 251.866 123.647 251.545C123.783 251.224 124.012 250.951 124.303 250.759C124.595 250.568 124.937 250.467 125.286 250.469C125.519 250.471 125.75 250.52 125.965 250.612C126.18 250.704 126.374 250.837 126.537 251.004C126.701 251.171 126.829 251.369 126.916 251.586C127.002 251.803 127.045 252.035 127.042 252.268Z" fill="#263238" />
		<path d="M132.482 252.293C132.475 252.64 132.365 252.977 132.167 253.262C131.969 253.547 131.691 253.767 131.368 253.895C131.045 254.022 130.691 254.052 130.352 253.979C130.012 253.906 129.702 253.735 129.459 253.487C129.217 253.238 129.053 252.924 128.989 252.582C128.924 252.241 128.962 251.889 129.097 251.569C129.233 251.249 129.459 250.976 129.749 250.785C130.039 250.594 130.379 250.492 130.726 250.494C130.96 250.495 131.191 250.543 131.406 250.635C131.621 250.726 131.816 250.859 131.979 251.027C132.143 251.194 132.271 251.392 132.357 251.609C132.444 251.827 132.486 252.059 132.482 252.293Z" fill="#263238" />
		<path d="M137.965 252.317C137.958 252.664 137.848 253.002 137.65 253.287C137.452 253.572 137.174 253.792 136.851 253.919C136.528 254.047 136.174 254.076 135.835 254.004C135.495 253.931 135.185 253.76 134.942 253.511C134.7 253.263 134.536 252.948 134.472 252.607C134.407 252.266 134.445 251.913 134.58 251.593C134.716 251.274 134.942 251.001 135.232 250.81C135.522 250.619 135.862 250.517 136.209 250.518C136.443 250.521 136.673 250.569 136.888 250.661C137.103 250.753 137.297 250.886 137.461 251.053C137.624 251.22 137.752 251.418 137.839 251.635C137.925 251.852 137.968 252.084 137.965 252.317Z" fill="#263238" />
		<path d="M180.755 83.9461H82.5577V143.995H180.755V83.9461Z" fill="#E0E0E0" />
		<path d="M91.6265 144.014L119.76 106.351L137.21 129.904L149.029 117.305L172.22 143.989L91.6265 144.014Z" fill="#F5F5F5" />
		<path d="M144.602 101.728C144.604 102.983 144.232 104.212 143.535 105.256C142.839 106.301 141.847 107.116 140.687 107.597C139.527 108.079 138.251 108.205 137.019 107.961C135.787 107.717 134.655 107.113 133.767 106.225C132.878 105.337 132.273 104.206 132.027 102.975C131.782 101.743 131.907 100.466 132.388 99.3055C132.868 98.1451 133.682 97.1532 134.726 96.4553C135.77 95.7574 136.998 95.3849 138.254 95.3849C139.936 95.3849 141.55 96.0529 142.741 97.2422C143.931 98.4315 144.601 100.045 144.602 101.728Z" fill="#F5F5F5" />
		<path d="M180.491 199.808C180.491 198.525 180.429 144.278 180.343 63.9665L180.491 64.1139H82.3059L82.4656 63.9543C82.4656 114.757 82.4656 161.771 82.4656 199.796L82.3305 199.667L180.528 199.796L82.3305 199.931H82.2015V199.796C82.2015 161.771 82.2015 114.757 82.1708 63.9543V63.7946H82.3428H180.528H180.675V63.9358C180.644 104.134 180.62 138.107 180.601 162.041C180.601 173.989 180.57 183.426 180.564 189.886C180.564 193.103 180.564 195.577 180.564 197.254C180.564 198.083 180.564 198.715 180.564 199.145C180.564 199.575 180.491 199.808 180.491 199.808Z" fill="#263238" />
		<path d="M134.324 216.662L136.498 209.362C136.878 207.778 137.382 205.911 138.057 203.78C138.671 201.865 140.231 199.851 141.655 198.402C143.872 196.148 144.928 196.136 146.414 194.939C146.549 194.853 146.702 194.724 146.831 194.656C147.112 194.503 147.359 194.294 147.556 194.042C148.839 192.655 147.605 190.5 144.995 190.708C143.037 190.862 139.832 191.421 134.625 196.793C134.557 196.879 134.49 196.947 134.428 197.026C131.696 200.582 129.13 190.438 128.663 186.662C128.572 186.077 128.351 185.52 128.016 185.031C127.681 184.543 127.24 184.137 126.727 183.842C126.213 183.547 125.64 183.371 125.049 183.328C124.459 183.285 123.866 183.375 123.315 183.592L110.63 189.523C109.42 189.172 108.13 189.215 106.946 189.646C106.058 189.958 105.318 190.589 104.871 191.417C104.424 192.244 104.301 193.209 104.527 194.122L109.678 214.636L94.5675 264.923H127.14L134.324 216.662Z" fill="#FFBE9D" />
		<path d="M159.375 170.477L149.306 190.211L144.271 188.811L118.974 209.399C117.941 210.243 116.62 210.652 115.291 210.537C113.962 210.422 112.73 209.794 111.858 208.785L102.218 197.591C102.218 197.591 121.651 189.223 125.243 182.297C128.835 175.371 124.684 173.793 124.684 173.793L133.827 163.404L159.375 170.477Z" fill="#4152F3" />
		<path d="M146.315 130.174C146.315 130.174 131.579 126.914 110.832 106.971C90.0853 87.0284 80.3472 60.522 77.836 60.6694C75.3247 60.8167 64.2113 55.653 43.1266 101.513C22.0418 147.372 30.3492 158.001 34.5306 157.939C38.7119 157.878 67.2076 149.914 85.0013 151.934C102.795 153.954 125.667 163.232 125.667 163.232L146.315 130.174Z" fill="#4152F3" />
		<path d="M177.623 155.17L172.595 164.73L170.341 169.028C168.854 171.857 166.338 174.008 163.311 175.036C160.285 176.064 156.979 175.892 154.076 174.554L122.486 163.545L140.906 121.547L172.466 138.365C175.369 139.919 177.541 142.557 178.507 145.705C179.473 148.853 179.155 152.255 177.623 155.17Z" fill="#4152F3" />
		<g opacity="0.4">
			<path opacity="0.4" d="M177.623 155.17L172.595 164.73L170.341 169.028C168.854 171.857 166.338 174.008 163.311 175.036C160.285 176.064 156.979 175.892 154.076 174.554L122.486 163.545L140.906 121.547L172.466 138.365C175.369 139.919 177.541 142.557 178.507 145.705C179.473 148.853 179.155 152.255 177.623 155.17Z" fill="black" />
		</g>
		<path d="M44.8089 102.348C33.5912 127.19 28.9186 149.331 34.3709 151.793C39.8233 154.255 53.3497 136.118 64.5675 111.269C75.7852 86.4205 80.4578 64.292 75.0055 61.8237C69.5531 59.3554 56.0267 77.5052 44.8089 102.348Z" fill="#4152F3" />
		<g opacity="0.5">
			<path opacity="0.5" d="M44.8089 102.348C33.5912 127.19 28.9186 149.331 34.3709 151.793C39.8233 154.255 53.3497 136.118 64.5675 111.269C75.7852 86.4205 80.4578 64.292 75.0055 61.8237C69.5531 59.3554 56.0267 77.5052 44.8089 102.348Z" fill="black" />
		</g>
		<path d="M180.337 168.985L171.772 166.296L177.071 156.226L183.493 160.217L180.337 168.985Z" fill="#4152F3" />
		<g opacity="0.6">
			<path opacity="0.6" d="M177.071 156.226L171.772 166.296L173.534 166.848L177.838 156.699L177.071 156.226Z" fill="black" />
		</g>
		<path d="M171.164 158.547C171.041 158.823 166.768 157.166 161.622 154.863C156.477 152.561 152.412 150.424 152.529 150.148C152.646 149.871 156.925 151.535 162.077 153.862C167.228 156.189 171.293 158.271 171.164 158.547Z" fill="#4152F3" />
		<path d="M173.804 152.548C173.669 152.818 169.801 151.191 165.165 148.907C160.53 146.623 156.882 144.554 157.017 144.278C157.153 144.001 161.015 145.635 165.65 147.919C170.286 150.203 173.939 152.272 173.804 152.548Z" fill="#4152F3" />
		<path d="M167.848 164.841C167.805 164.988 166.786 164.755 165.165 164.227C164.355 163.975 163.391 163.656 162.328 163.293C161.266 162.931 160.179 162.354 159.007 161.82C154.322 159.646 150.742 157.522 150.859 157.264C150.976 157.006 154.825 158.67 159.455 160.825C160.622 161.353 161.702 161.93 162.721 162.354C163.741 162.778 164.656 163.152 165.423 163.496C166.958 164.202 167.891 164.693 167.848 164.841Z" fill="#4152F3" />
		<path d="M67.6804 96.8278C67.6804 96.8278 54.8724 88.8827 47.8666 106.191C40.8609 123.5 54.332 126.343 54.332 126.343C60.1493 117.182 64.6432 107.246 67.6804 96.8278Z" fill="#4152F3" />
		<g opacity="0.5">
			<path opacity="0.5" d="M81.305 76.1974C81.3849 76.1974 81.2007 77.3886 80.8077 79.5069C80.4147 81.6252 79.8253 84.689 79.0025 88.459L77.2219 94.5192C76.8986 95.6039 76.565 96.7275 76.2211 97.89L75.6992 99.6522C75.5089 100.266 75.2571 100.825 75.0361 101.421L72.1442 108.887C71.8924 109.538 71.6346 110.188 71.3828 110.845C71.1311 111.502 70.7688 112.129 70.4802 112.78L68.5768 116.709L66.6673 120.633C66.3419 121.247 66.0533 121.934 65.7033 122.536C65.3533 123.138 64.9849 123.764 64.6349 124.347L60.5518 131.243C60.2203 131.783 59.9378 132.342 59.5694 132.857L58.5072 134.362L56.4687 137.235L52.7847 142.374C50.3287 145.34 48.278 147.679 46.8658 149.306C46.1721 150.187 45.4061 151.009 44.5756 151.762C45.1528 150.804 45.8101 149.896 46.5404 149.049C47.9034 147.311 49.8253 144.879 52.183 141.889L55.7135 136.713L57.6906 133.834C58.0344 133.342 58.3783 132.839 58.7283 132.329C59.0782 131.82 59.3423 131.261 59.68 130.714L63.7139 123.825L64.7639 122.02C65.1262 121.406 65.3779 120.792 65.7156 120.129L67.6067 116.23C68.2207 114.91 68.8777 113.615 69.504 112.331C69.7987 111.717 70.1548 111.066 70.4004 110.416L71.1679 108.475L74.1028 101.107C74.33 100.493 74.5879 99.9469 74.7844 99.3575C74.9808 98.7681 75.1466 98.1909 75.3247 97.6137L76.3685 94.2797L78.2535 88.2932L80.384 79.4516C80.5978 78.3426 80.9059 77.2539 81.305 76.1974Z" fill="black" />
		</g>
		<g opacity="0.4">
			<path opacity="0.4" d="M105.276 196.216C106.448 198.34 107.64 200.514 109.365 202.19C111.09 203.866 113.448 205.058 115.904 204.812C118.36 204.566 120.601 202.565 120.626 200.146C121.78 201.011 123.554 200.545 124.512 199.458C125.47 198.371 125.783 196.867 125.894 195.424C127.466 196.351 129.651 195.62 130.701 194.128C131.183 193.351 131.488 192.477 131.595 191.569C131.701 190.661 131.605 189.74 131.315 188.873C130.717 187.146 129.867 185.518 128.792 184.04C130.02 184.139 131.285 184.225 132.365 183.678C133.446 183.132 134.207 181.695 133.55 180.663C133.119 180.087 132.492 179.688 131.788 179.54C129.891 178.926 128.565 178.471 126.588 178.699C126.133 178.699 127.38 183.905 114.995 191.015C107.646 195.221 105.276 196.216 105.276 196.216Z" fill="black" />
		</g>
		<path d="M133.164 203.707C133.164 203.762 132.335 203.602 130.996 203.639C129.257 203.681 127.546 204.091 125.977 204.844C124.408 205.597 123.018 206.674 121.897 208.005C121.031 209.024 120.669 209.767 120.589 209.736C120.64 209.545 120.721 209.362 120.828 209.196C121.091 208.728 121.389 208.281 121.719 207.857C122.822 206.457 124.233 205.328 125.841 204.557C127.449 203.786 129.213 203.395 130.996 203.412C131.531 203.415 132.066 203.465 132.593 203.559C132.79 203.574 132.983 203.624 133.164 203.707Z" fill="#EB996E" />
		<path d="M106.08 192.894C108.075 194.81 109.439 196.928 111.532 198.856C112.484 199.734 113.988 201.392 115.216 201.613C116.444 201.834 117.304 201.668 117.807 200.477C118.219 199.513 117.482 198.193 116.978 197.407C115.646 195.313 114.369 193.68 113.374 192.053C112.902 191.292 113.509 191.132 113.73 191.488C114.688 192.483 116.125 193.33 116.985 194.429C118.163 195.909 118.372 197.88 121.455 197.254C121.867 197.187 122.258 197.025 122.597 196.781C123.757 195.891 123.825 194.325 123.321 193.097C122.886 192.149 122.306 191.275 121.602 190.506C122.916 191.986 124.346 193.576 126.434 193.711C127.024 193.782 127.621 193.669 128.144 193.386C128.666 193.104 129.088 192.666 129.351 192.133C129.965 190.733 129.087 189.376 128.196 188.283C126.62 186.34 124.867 184.547 122.959 182.929C122.246 182.33 121.348 181.998 120.417 181.99C119.336 181.99 117.961 182.186 117.347 183.119C116.996 183.57 116.741 184.086 116.596 184.638C116.451 185.191 116.421 185.766 116.506 186.331C116.506 186.331 113.804 184.961 111.631 186.392C110.293 187.332 109.331 188.715 108.917 190.297L106.08 192.894Z" fill="#FFBE9D" />
		<path d="M120.478 181.4C120.046 180.898 119.778 180.276 119.71 179.618C119.642 178.959 119.777 178.296 120.098 177.716C120.558 176.814 121.135 175.936 121.725 175.739C124.297 174.873 135.546 176.82 135.441 179.313C135.337 181.805 134.514 182.997 128.417 182.119C127.343 181.965 125.66 181.756 125.66 181.756L124.187 183.967L120.478 181.4Z" fill="#FFBE9D" />
		<path d="M122.492 191.85C121.016 189.416 118.863 187.464 116.297 186.232C116.716 186.3 117.119 186.441 117.488 186.65C119.336 187.543 120.888 188.95 121.958 190.702C122.206 191.049 122.387 191.438 122.492 191.85Z" fill="#EB996E" />
		<path d="M124.383 184.182C124.328 184.231 123.585 183.629 122.572 183.009C122.148 182.74 121.71 182.497 121.258 182.278C120.908 182.119 120.675 182.076 120.681 182.026C120.687 181.977 120.945 181.953 121.332 182.069C121.83 182.23 122.305 182.455 122.744 182.739C123.782 183.371 124.463 184.114 124.383 184.182Z" fill="#EB996E" />
		<path d="M126.274 181.861C125.543 181.946 124.801 181.862 124.107 181.615C123.599 181.46 123.128 181.205 122.719 180.866C122.412 180.602 122.283 180.387 122.314 180.356C122.905 180.738 123.537 181.052 124.199 181.29C124.903 181.434 125.596 181.624 126.274 181.861Z" fill="#EB996E" />
		<path d="M115.345 194.939C114.957 194.532 114.614 194.085 114.32 193.607C113.619 192.472 112.733 191.464 111.698 190.622C110.626 189.838 109.297 189.487 107.977 189.64C107.436 189.737 106.91 189.904 106.411 190.137C106.411 190.137 106.522 190.008 106.774 189.855C107.132 189.637 107.528 189.488 107.94 189.413C108.628 189.302 109.33 189.329 110.007 189.492C110.684 189.656 111.321 189.952 111.882 190.365C112.951 191.223 113.843 192.28 114.51 193.478C114.829 193.94 115.108 194.429 115.345 194.939Z" fill="#EB996E" />
		<path d="M123.947 219.806C122.433 220.128 120.899 220.348 119.355 220.463C117.819 220.685 116.27 220.8 114.719 220.807C116.235 220.485 117.772 220.265 119.318 220.15C120.851 219.931 122.398 219.816 123.947 219.806Z" fill="#EB996E" />
		<path d="M220.671 15.6017L221.365 16.8727L222.629 17.5665L221.365 18.2604L220.671 19.5252L219.977 18.2604L218.712 17.5665L219.977 16.8727L220.671 15.6017Z" fill="#4152F3" />
		<path d="M235.167 47.0201L235.861 48.2911L237.126 48.9849L235.861 49.6787L235.167 50.9436L234.474 49.6787L233.203 48.9849L234.474 48.2911L235.167 47.0201Z" fill="#4152F3" />
		<path d="M2.86662 130.843L3.56044 132.114L4.83142 132.808L3.56044 133.496L2.86662 134.767L2.1728 133.496L0.907959 132.808L2.1728 132.114L2.86662 130.843Z" fill="#4152F3" />
		<path d="M201.655 23.4118L203.258 26.3406L206.187 27.9432L203.258 29.5396L201.655 32.4683L200.059 29.5396L197.13 27.9432L200.059 26.3406L201.655 23.4118Z" fill="#4152F3" />
		<path d="M15.8589 110.931L17.4553 113.848L20.3779 115.444L17.4553 117.047L15.8589 119.963L14.2625 117.047L11.3398 115.444L14.2625 113.848L15.8589 110.931Z" fill="#4152F3" />
		<path d="M239.109 180.596L240.706 183.518L243.622 185.115L240.706 186.711L239.109 189.634L237.513 186.711L234.59 185.115L237.513 183.518L239.109 180.596Z" fill="#4152F3" />
	</g>
	<defs>
		<clipPath id="clip0_2_5361">
			<rect width="261" height="274" fill="white" />
		</clipPath>
	</defs>
</svg>
