<svg width="220" height="203" viewBox="0 0 220 203" fill="none" xmlns="http://www.w3.org/2000/svg">
	<g clip-path="url(#clip0_2_4736)">
		<path d="M44.3733 95.0363C77.624 129.321 121.32 153.12 161.824 114.706C182.704 94.917 210.297 41.4739 183.068 17.0101C145.54 -16.695 123.996 38.4521 95.9534 45.927C76.7209 51.039 60.5499 21.503 37.5289 41.2353C19.3302 56.8269 30.5482 80.7852 44.3733 95.0363Z" fill="#4152F3" />
		<path opacity="0.9" d="M44.3733 95.0363C77.624 129.321 121.32 153.12 161.824 114.706C182.704 94.917 210.297 41.4739 183.068 17.0101C145.54 -16.695 123.996 38.4521 95.9534 45.927C76.7209 51.039 60.5499 21.503 37.5289 41.2353C19.3302 56.8269 30.5482 80.7852 44.3733 95.0363Z" fill="white" />
		<path d="M110 202.854C170.823 202.854 220.13 199.975 220.13 196.424C220.13 192.873 170.823 189.995 110 189.995C49.1772 189.995 -0.129517 192.873 -0.129517 196.424C-0.129517 199.975 49.1772 202.854 110 202.854Z" fill="#F5F5F5" />
		<path d="M166.374 52.8282L160.739 50.5562C160.739 50.5562 153.304 64.1144 151.174 64.8017C148.278 65.7332 142.279 68.3233 138.724 68.7777C138.241 69.3457 137.451 71.1122 137.525 71.754C142.302 73.3501 152.799 71.2314 155.048 69.5615C160.166 65.773 166.374 52.8282 166.374 52.8282Z" fill="#E58A7B" />
		<path d="M168.106 49.744C169.157 53.6234 163.466 61.4277 163.466 61.4277L156.008 57.2473C156.008 57.2473 157.405 54.0381 159.109 50.7721C161.841 45.4953 166.908 45.3193 168.106 49.744Z" fill="#4152F3" />
		<path opacity="0.2" d="M168.106 49.744C169.157 53.6234 163.466 61.4277 163.466 61.4277L156.008 57.2473C156.008 57.2473 157.405 54.0381 159.109 50.7721C161.841 45.4953 166.908 45.3193 168.106 49.744Z" fill="black" />
		<path opacity="0.2" d="M158.967 58.9172L161.904 60.5644L162.421 51.5502C160.711 52.8623 159.507 56.8156 158.967 58.9172Z" fill="black" />
		<path d="M163.199 46.8245C163.199 46.8245 157.394 59.7408 160.779 83.7899H183.653C184.016 80.2797 182.812 63.1488 187.168 46.6087C184.659 46.1183 182.121 45.7938 179.569 45.6374C176.332 45.4498 173.087 45.4498 169.85 45.6374C167.606 45.8652 165.383 46.2621 163.199 46.8245Z" fill="#4152F3" />
		<path opacity="0.2" d="M163.199 46.8245C163.199 46.8245 157.394 59.7408 160.779 83.7899H183.653C184.016 80.2797 182.812 63.1488 187.168 46.6087C184.659 46.1183 182.121 45.7938 179.569 45.6374C176.332 45.4498 173.087 45.4498 169.85 45.6374C167.606 45.8652 165.383 46.2621 163.199 46.8245Z" fill="black" />
		<g style="mix-blend-mode:multiply">
			<path d="M157.894 196.936C157.86 197.549 166.533 198.043 177.263 198.043C187.992 198.043 196.728 197.549 196.762 196.936C196.796 196.322 188.128 195.834 177.393 195.834C166.658 195.834 157.934 196.328 157.894 196.936Z" fill="#E8ECF1" />
		</g>
		<path d="M173.162 180.817L169.105 182.388L172.6 191.415L176.656 189.845L173.162 180.817Z" fill="#E58A7B" />
		<path d="M191.252 192.568H186.975L185.408 182.667H189.685L191.252 192.568Z" fill="#E58A7B" />
		<path d="M186.68 192.073H191.485C191.569 192.074 191.649 192.104 191.713 192.158C191.776 192.212 191.818 192.287 191.832 192.369L192.451 196.169C192.464 196.264 192.456 196.361 192.429 196.453C192.401 196.545 192.353 196.63 192.29 196.703C192.226 196.775 192.148 196.832 192.06 196.872C191.972 196.911 191.877 196.931 191.781 196.93C190.105 196.901 189.298 196.799 187.186 196.799C185.885 196.799 183.21 196.936 181.403 196.936C179.597 196.936 179.478 195.163 180.222 194.999C183.562 194.277 184.857 193.295 185.97 192.34C186.166 192.168 186.419 192.073 186.68 192.073Z" fill="#263238" />
		<path d="M172.48 190.608L177.024 189.279C177.105 189.256 177.192 189.262 177.269 189.295C177.347 189.328 177.41 189.386 177.45 189.461L179.154 192.869C179.194 192.955 179.214 193.049 179.213 193.144C179.213 193.239 179.191 193.333 179.151 193.419C179.11 193.505 179.051 193.581 178.978 193.642C178.905 193.703 178.82 193.747 178.728 193.772C177.075 194.226 175.968 194.504 173.9 195.107C172.474 195.521 171.02 196.197 169.612 196.646C168.635 196.958 166.34 196.97 165.153 196.97C163.398 196.97 163.006 195.118 163.761 195.033C165.664 194.823 165.92 194.919 166.97 194.391C168.69 193.639 170.248 192.563 171.56 191.221C171.807 190.94 172.125 190.728 172.48 190.608Z" fill="#263238" />
		<path d="M139.439 68.755L134.736 66.784L132.799 71.9982C134.727 72.2919 136.688 72.2919 138.616 71.9982L139.439 68.755Z" fill="#E58A7B" />
		<path d="M131.238 66.6477L131.113 70.1125L132.8 71.9869L134.736 66.7726L131.238 66.6477Z" fill="#E58A7B" />
		<path d="M173.718 181.584L169.649 183.155L171.451 187.823L175.521 186.252L173.718 181.584Z" fill="#CF6F64" />
		<path d="M189.685 182.667H185.408L186.22 187.774H190.497L189.685 182.667Z" fill="#CF6F64" />
		<path opacity="0.2" d="M160.052 77.2863C160.137 78.3144 160.234 79.3652 160.359 80.4444L177.365 74.9234C180.021 74.1364 182.329 72.4674 183.908 70.192C183.976 68.6754 184.062 67.0794 184.192 65.4151C184.249 64.6086 184.317 63.7793 184.391 62.9386C184.465 62.098 184.567 61.1665 184.675 60.269L160.052 77.2863Z" fill="black" />
		<path d="M165.607 58.6559L165.039 58.5878C165.374 55.7478 167.493 53.5098 169.725 53.5666V54.1346C167.771 54.0949 165.908 56.1113 165.607 58.6559Z" fill="white" />
		<path d="M168.635 63.8986H168.538V63.3306C170.492 63.4044 172.327 61.3653 172.628 58.8263L173.196 58.8945C172.895 61.672 170.844 63.8986 168.635 63.8986Z" fill="white" />
		<path d="M179.251 34.692C178.45 37.8217 177.507 43.5528 179.569 45.6374C179.569 45.6374 178.126 48.8125 172.315 48.8125C167.004 48.8125 169.85 45.6374 169.85 45.6374C173.383 44.8081 173.446 42.2294 172.98 39.787L179.251 34.692Z" fill="#E58A7B" />
		<path d="M176.695 36.7709L172.986 39.787C173.101 40.3482 173.167 40.9183 173.184 41.491C174.269 42.5702 176.445 39.8381 176.666 38.4408C176.779 37.8907 176.788 37.3245 176.695 36.7709Z" fill="#CF6F64" />
		<path d="M166.607 34.6522C166.865 35.0996 167.213 35.4888 167.628 35.7957C168.043 36.1026 168.517 36.3205 169.021 36.4358C170.384 36.7368 171.066 35.4815 170.691 34.2206C170.356 33.0846 169.237 31.5566 167.851 31.8179C167.554 31.8791 167.276 32.0105 167.04 32.2011C166.805 32.3917 166.618 32.6361 166.496 32.9136C166.375 33.1912 166.321 33.4939 166.34 33.7964C166.359 34.0989 166.451 34.3923 166.607 34.6522Z" fill="#CF6F64" />
		<path d="M168.862 24.6384C166.738 25.6097 165.988 34.0502 168.657 35.2998C171.327 36.5494 172.883 22.7924 168.862 24.6384Z" fill="#263238" />
		<path d="M179.898 29.9833C179.387 34.2206 179.33 36.7141 177.058 38.8839C176.354 39.6039 175.465 40.1153 174.488 40.3618C173.512 40.6082 172.486 40.58 171.525 40.2803C170.564 39.9806 169.704 39.4211 169.04 38.6634C168.377 37.9058 167.936 36.9796 167.766 35.9871C167.078 32.1815 168.027 25.8937 172.276 24.2067C173.168 23.813 174.15 23.6652 175.119 23.7786C176.088 23.8921 177.009 24.2626 177.787 24.8519C178.564 25.4412 179.17 26.2277 179.541 27.13C179.913 28.0323 180.036 29.0174 179.898 29.9833Z" fill="#E58A7B" />
		<path d="M172.917 26.8309C176.064 26.03 178.376 25.4847 177.547 28.1032C176.45 31.6021 175.133 34.9874 176.899 35.1407C177.978 35.2373 182.749 33.2152 182.142 31.1647C181.613 29.3812 183.846 28.8927 184.243 27.9896C185.714 24.7179 181.506 25.1496 182.255 23.1616C183.005 21.1736 178.847 17.9701 176.575 19.5662C172.878 22.1449 166.533 22.1051 169.867 17.8622C172.258 14.8347 167.993 15.4538 167.993 15.4538C167.993 15.4538 170.572 16.9818 166.232 19.3446C161.643 21.8666 165.851 28.6428 172.917 26.8309Z" fill="#263238" />
		<path d="M181.568 34.6522C180.947 35.5511 180.013 36.1868 178.95 36.4358C177.547 36.7368 177.007 35.4815 177.535 34.2206C178.007 33.0846 179.302 31.5566 180.642 31.8179C181.983 32.0792 182.289 33.539 181.568 34.6522Z" fill="#E58A7B" />
		<path d="M160.779 83.7899C160.779 83.7899 156.939 118.154 156.638 131.195C156.332 144.759 169.651 187.081 169.651 187.081L176.467 184.241C176.467 184.241 168.515 145.571 169.651 132.252C170.855 117.728 175.831 83.8126 175.831 83.8126L160.779 83.7899Z" fill="#4152F3" />
		<path opacity="0.2" d="M170.322 93.2244C167.26 99.5746 169.322 112.133 170.98 119.574C171.611 114.32 172.361 108.617 173.071 103.34C173.003 95.2294 172.372 88.9644 170.322 93.2244Z" fill="black" />
		<path d="M176.166 181.991C176.2 181.991 176.973 184.161 176.973 184.161L169.112 187.467L167.874 185.161L176.166 181.991Z" fill="#4152F3" />
		<path d="M168.896 83.7899C168.896 83.7899 171.832 116.473 173.775 128.713C175.911 142.124 184.283 186.785 184.283 186.785H192.116C192.116 186.785 187.424 143.208 186.538 129.929C185.572 115.524 183.653 83.7899 183.653 83.7899H168.896Z" fill="#4152F3" />
		<path d="M192.235 184.746C192.269 184.746 192.496 186.933 192.496 186.933H183.885L183.272 184.422L192.235 184.746Z" fill="#4152F3" />
		<path opacity="0.2" d="M189.236 182.156C189.218 182.156 189.201 182.15 189.187 182.139C189.174 182.127 189.165 182.111 189.162 182.094C189.117 181.696 184.885 142.334 184.09 130.406C183.227 117.467 181.488 88.7656 181.471 88.4759C181.471 88.4665 181.472 88.457 181.475 88.4481C181.478 88.4392 181.483 88.431 181.489 88.424C181.496 88.4171 181.503 88.4115 181.512 88.4078C181.521 88.404 181.53 88.4021 181.54 88.4021C181.558 88.402 181.576 88.409 181.59 88.4217C181.604 88.4343 181.612 88.4517 181.613 88.4702C181.613 88.7599 183.369 117.438 184.232 130.4C185.027 142.328 189.259 181.662 189.298 182.088C189.3 182.097 189.3 182.107 189.297 182.116C189.295 182.125 189.291 182.134 189.285 182.142C189.279 182.149 189.272 182.155 189.263 182.16C189.255 182.164 189.245 182.167 189.236 182.168V182.156Z" fill="black" />
		<path d="M173.4 31.1647C173.4 31.5112 173.184 31.7895 172.957 31.7895C172.73 31.7895 172.565 31.5112 172.588 31.1647C172.611 30.8182 172.804 30.5399 173.031 30.5399C173.258 30.5399 173.423 30.8239 173.4 31.1647Z" fill="#263238" />
		<path d="M169.504 31.1647C169.504 31.5112 169.282 31.7895 169.061 31.7895C168.839 31.7895 168.669 31.5112 168.686 31.1647C168.703 30.8182 168.907 30.5399 169.134 30.5399C169.362 30.5399 169.526 30.8239 169.504 31.1647Z" fill="#263238" />
		<path d="M170.731 31.3408C170.256 32.3988 169.645 33.3899 168.913 34.2887C169.481 34.8567 170.543 34.5954 170.543 34.5954L170.731 31.3408Z" fill="#DF5753" />
		<path d="M170.833 36.0438C170.82 36.0438 170.807 36.0412 170.795 36.036C170.782 36.0308 170.771 36.0231 170.762 36.0136C170.753 36.004 170.746 35.9927 170.742 35.9803C170.737 35.9679 170.735 35.9547 170.736 35.9416C170.738 35.914 170.75 35.8879 170.77 35.8689C170.79 35.8499 170.817 35.8393 170.844 35.8393C171.279 35.8424 171.708 35.748 172.101 35.5632C172.495 35.3784 172.841 35.1079 173.116 34.7715C173.136 34.7543 173.161 34.7449 173.187 34.7449C173.213 34.7449 173.239 34.7543 173.258 34.7715C173.277 34.7906 173.287 34.816 173.287 34.8425C173.287 34.869 173.277 34.8945 173.258 34.9135C172.964 35.271 172.593 35.5581 172.174 35.7537C171.754 35.9493 171.296 36.0484 170.833 36.0438Z" fill="#263238" />
		<path d="M174.093 30.1196C174.066 30.1336 174.036 30.1408 174.005 30.1408C173.974 30.1408 173.944 30.1336 173.917 30.1196C173.705 29.9822 173.463 29.8968 173.211 29.8701C172.96 29.8435 172.705 29.8764 172.469 29.9662C172.446 29.9778 172.42 29.9846 172.395 29.9862C172.369 29.9879 172.343 29.9844 172.319 29.9759C172.294 29.9674 172.272 29.9542 172.253 29.9369C172.234 29.9196 172.218 29.8987 172.207 29.8754C172.186 29.8248 172.186 29.768 172.206 29.7171C172.226 29.6662 172.265 29.6251 172.315 29.6027C172.612 29.4814 172.934 29.4336 173.253 29.4633C173.573 29.4929 173.88 29.5992 174.15 29.7731C174.172 29.7879 174.19 29.8069 174.205 29.829C174.219 29.851 174.229 29.8757 174.234 29.9016C174.238 29.9275 174.238 29.9541 174.232 29.9798C174.227 30.0055 174.216 30.0299 174.201 30.0514C174.172 30.084 174.135 30.1077 174.093 30.1196Z" fill="#263238" />
		<path d="M167.998 28.9836C167.968 28.9763 167.941 28.9605 167.919 28.9382C167.9 28.9197 167.885 28.8976 167.875 28.8732C167.865 28.8488 167.859 28.8226 167.859 28.7962C167.859 28.7697 167.865 28.7435 167.875 28.7191C167.885 28.6948 167.9 28.6727 167.919 28.6542C168.137 28.41 168.408 28.2194 168.711 28.0972C169.015 27.9751 169.342 27.9246 169.668 27.9498C169.695 27.9539 169.72 27.9632 169.742 27.9773C169.764 27.9914 169.784 28.01 169.798 28.0318C169.813 28.0536 169.824 28.0783 169.829 28.1042C169.834 28.1302 169.833 28.1569 169.827 28.1827C169.815 28.2353 169.784 28.2817 169.74 28.313C169.696 28.3444 169.643 28.3587 169.589 28.3531C169.331 28.3369 169.072 28.3796 168.833 28.478C168.594 28.5764 168.381 28.7279 168.209 28.9211C168.183 28.9499 168.149 28.9709 168.112 28.9819C168.075 28.993 168.036 28.9935 167.998 28.9836Z" fill="#263238" />
		<path d="M189.367 52.1978L183.459 50.6244C183.459 50.6244 177.666 64.8869 175.615 65.8127C172.832 67.085 165.783 71.4927 162.784 73.5773C162.619 74.2873 162.75 76.1673 163.125 76.6842C168.237 75.7527 178.024 71.9869 180.068 70.0727C184.732 65.7048 189.367 52.1978 189.367 52.1978Z" fill="#E58A7B" />
		<path d="M185.243 192.823C184.955 192.846 184.668 192.768 184.431 192.602C184.358 192.536 184.303 192.452 184.272 192.358C184.241 192.264 184.235 192.164 184.255 192.068C184.258 192.007 184.278 191.949 184.312 191.899C184.346 191.849 184.393 191.809 184.448 191.784C184.925 191.54 186.26 192.386 186.413 192.482C186.43 192.493 186.443 192.508 186.45 192.527C186.457 192.545 186.458 192.566 186.453 192.585C186.448 192.604 186.438 192.623 186.424 192.638C186.41 192.653 186.393 192.664 186.373 192.67C186.003 192.761 185.624 192.812 185.243 192.823ZM184.675 191.937C184.632 191.928 184.587 191.928 184.544 191.937C184.523 191.948 184.505 191.965 184.492 191.987C184.48 192.008 184.475 192.032 184.476 192.056C184.461 192.123 184.464 192.191 184.484 192.256C184.503 192.321 184.54 192.379 184.59 192.426C184.811 192.624 185.368 192.647 186.101 192.505C185.664 192.218 185.173 192.024 184.658 191.937H184.675Z" fill="#4152F3" />
		<path d="M186.345 192.67C186.33 192.675 186.314 192.675 186.299 192.67C185.873 192.431 185.073 191.494 185.192 191.017C185.21 190.941 185.252 190.874 185.313 190.825C185.374 190.777 185.449 190.75 185.527 190.75C185.603 190.74 185.681 190.746 185.754 190.769C185.828 190.791 185.896 190.829 185.953 190.881C186.424 191.284 186.453 192.522 186.453 192.585C186.456 192.603 186.452 192.622 186.443 192.639C186.434 192.655 186.419 192.668 186.402 192.676C186.383 192.679 186.363 192.677 186.345 192.67ZM185.584 190.937H185.544C185.413 190.937 185.396 191.011 185.391 191.04C185.322 191.318 185.828 192.028 186.248 192.363C186.246 191.883 186.098 191.416 185.822 191.023C185.756 190.965 185.671 190.935 185.584 190.937Z" fill="#4152F3" />
		<path d="M170.163 192.113C169.815 192.234 169.437 192.234 169.089 192.113C169.01 192.07 168.943 192.008 168.895 191.933C168.846 191.858 168.817 191.771 168.811 191.682C168.804 191.625 168.811 191.568 168.832 191.516C168.852 191.463 168.886 191.416 168.93 191.38C169.384 190.972 171.242 191.38 171.452 191.46C171.472 191.465 171.49 191.477 171.502 191.493C171.514 191.51 171.521 191.53 171.52 191.551C171.521 191.572 171.515 191.593 171.504 191.611C171.493 191.63 171.477 191.644 171.458 191.653C171.039 191.842 170.606 191.996 170.163 192.113ZM169.237 191.437C169.172 191.45 169.111 191.48 169.061 191.522C169.043 191.536 169.029 191.554 169.021 191.576C169.013 191.597 169.011 191.62 169.015 191.642C169.019 191.701 169.037 191.759 169.069 191.81C169.101 191.86 169.145 191.902 169.197 191.931C169.498 192.09 170.197 191.966 171.1 191.585C170.491 191.432 169.862 191.382 169.237 191.437Z" fill="#4152F3" />
		<path d="M171.441 191.653H171.395C170.827 191.551 169.691 190.898 169.657 190.409C169.657 190.296 169.708 190.137 169.981 190.046C170.073 190.013 170.171 189.999 170.268 190.005C170.366 190.011 170.461 190.036 170.549 190.08C171.162 190.381 171.486 191.471 171.503 191.522C171.507 191.54 171.507 191.558 171.502 191.575C171.497 191.591 171.487 191.607 171.475 191.619C171.466 191.633 171.455 191.645 171.441 191.653ZM170.094 190.216H170.038C169.862 190.279 169.862 190.352 169.862 190.375C169.862 190.67 170.685 191.21 171.259 191.392C171.127 190.936 170.847 190.536 170.464 190.256C170.35 190.198 170.218 190.184 170.094 190.216Z" fill="#4152F3" />
		<path d="M163.267 73.2422L157.343 75.9686L156.656 77.6726L158.842 79.1437C158.842 79.1437 162.932 78.7006 164.096 76.0708L163.267 73.2422Z" fill="#E58A7B" />
		<path d="M163.517 76.7808C163.385 75.6425 163.009 74.5461 162.415 73.5659L163.352 72.8616C164.057 73.991 164.507 75.2607 164.67 76.582L163.517 76.7808Z" fill="#263238" />
		<path d="M164.528 74.0487C164.653 74.2457 164.715 74.4765 164.704 74.7097C164.694 74.9429 164.611 75.1671 164.469 75.352C164.326 75.5368 164.13 75.6733 163.907 75.7428C163.685 75.8122 163.446 75.8114 163.223 75.7403C163.001 75.6692 162.806 75.5314 162.665 75.3455C162.524 75.1597 162.443 74.9348 162.434 74.7015C162.425 74.4683 162.488 74.2379 162.615 74.0419C162.742 73.8458 162.926 73.6935 163.142 73.6057C163.385 73.482 163.667 73.4591 163.926 73.5421C164.186 73.6251 164.402 73.8071 164.528 74.0487Z" fill="#263238" />
		<path d="M153.338 78.1724L154.128 78.9676L159.444 76.6956L157.343 75.9686L153.338 78.1724Z" fill="#E58A7B" />
		<path opacity="0.2" d="M176.166 181.991C176.2 181.991 176.973 184.161 176.973 184.161L169.112 187.467L167.874 185.161L176.166 181.991Z" fill="black" />
		<path opacity="0.2" d="M192.235 184.746C192.269 184.746 192.496 186.933 192.496 186.933H183.885L183.272 184.422L192.235 184.746Z" fill="black" />
		<path d="M190.906 50.5619C192.468 55.6001 186.362 62.4899 186.362 62.4899L177.927 59.0478C178.927 56.1358 180.08 53.2786 181.381 50.4881C183.971 44.9046 189.327 45.4783 190.906 50.5619Z" fill="#4152F3" />
		<path opacity="0.2" d="M190.906 50.5619C192.468 55.6001 186.362 62.4899 186.362 62.4899L177.927 59.0478C178.927 56.1358 180.08 53.2786 181.381 50.4881C183.971 44.9046 189.327 45.4783 190.906 50.5619Z" fill="black" />
		<path d="M107.092 0.0837708H103.462V0.668812H107.092V0.0837708Z" fill="#4152F3" />
		<path d="M154.076 23.2391L153.636 32.9875L154.221 33.0138L154.66 23.2655L154.076 23.2391Z" fill="#4152F3" />
		<path d="M152.946 2.70795H85.9225L79.6859 142.277H146.71L152.946 2.70795Z" fill="#4152F3" />
		<path opacity="0.56" d="M150.947 4.62778H83.9231L77.6865 144.197H144.71L150.947 4.62778Z" fill="#FAFAFA" />
		<path opacity="0.07" d="M148.948 6.54193H81.9238L75.6815 146.111H142.705L148.948 6.54193Z" fill="#4152F3" />
		<path d="M141.32 67.4145H84.1106L83.6335 78.0929H140.842L141.32 67.4145Z" fill="white" />
		<path d="M115.572 59.6215H84.457L84.2469 64.3984H115.362L115.572 59.6215Z" fill="#4152F3" />
		<path d="M140.03 96.2348H82.8212L82.3441 106.913H139.553L140.03 96.2348Z" fill="white" />
		<path opacity="0.47" d="M129.539 121.335H91.0686L90.4949 134.132H128.966L129.539 121.335Z" fill="#4152F3" />
		<path d="M126.966 136.12H88.4955C88.4788 136.124 88.4612 136.124 88.4444 136.12C88.4388 136.103 88.4388 136.085 88.4444 136.069L89.0124 123.266C89.0124 123.257 89.0142 123.249 89.0176 123.241C89.0211 123.233 89.0262 123.225 89.0327 123.22C89.0391 123.214 89.0467 123.209 89.0549 123.206C89.0632 123.204 89.0719 123.203 89.0806 123.203H127.551C127.558 123.2 127.566 123.198 127.574 123.198C127.582 123.198 127.59 123.2 127.597 123.203C127.601 123.21 127.603 123.218 127.603 123.226C127.603 123.234 127.601 123.242 127.597 123.249L127.04 136.08C127.033 136.093 127.022 136.104 127.009 136.111C126.996 136.118 126.981 136.121 126.966 136.12ZM88.5637 135.983H126.898L127.466 123.317H89.1317L88.5637 135.983Z" fill="white" />
		<path d="M108.853 88.4419H83.1677L82.9575 93.2244H108.637L108.853 88.4419Z" fill="#4152F3" />
		<path d="M128.806 32.9199C128.66 36.0276 127.554 39.0137 125.643 41.4682C124.228 43.3223 122.406 44.8274 120.319 45.8682C118.232 46.9089 115.934 47.4575 113.601 47.472C111.716 47.4864 109.849 47.1147 108.113 46.3799C106.377 45.6451 104.81 44.5627 103.509 43.1994C102.207 41.8361 101.198 40.2207 100.545 38.4529C99.891 36.685 99.6062 34.802 99.7079 32.9199C99.9076 29.0143 101.592 25.3326 104.416 22.6276C107.24 19.9226 110.991 18.3988 114.902 18.3677C116.788 18.3501 118.658 18.7195 120.396 19.453C122.134 20.1866 123.703 21.2687 125.006 22.6325C126.309 23.9963 127.318 25.6129 127.972 27.3823C128.626 29.1517 128.91 31.0364 128.806 32.9199Z" fill="white" />
		<path d="M130.175 21.4122C130.138 22.2385 129.844 23.0327 129.335 23.6842C128.958 24.1766 128.473 24.5764 127.918 24.853C127.363 25.1296 126.751 25.2757 126.131 25.2803C125.53 25.2839 124.938 25.1404 124.405 24.8621C123.872 24.5839 123.416 24.1795 123.075 23.6842C122.625 23.0149 122.402 22.2182 122.439 21.4122C122.494 20.3752 122.943 19.3983 123.693 18.6806C124.443 17.9629 125.439 17.5584 126.478 17.5498C126.979 17.5452 127.475 17.6433 127.937 17.8379C128.398 18.0325 128.815 18.3196 129.162 18.6815C129.508 19.0433 129.777 19.4723 129.951 19.9419C130.125 20.4116 130.202 20.9119 130.175 21.4122Z" fill="#4152F3" />
		<path d="M90.2734 72.7537C90.2461 73.2114 90.0463 73.6417 89.7143 73.958C89.3822 74.2742 88.9427 74.4528 88.4842 74.4577C88.2628 74.4603 88.0432 74.4175 87.839 74.3319C87.6349 74.2464 87.4504 74.1198 87.2971 73.9601C87.1438 73.8004 87.0248 73.6109 86.9476 73.4034C86.8705 73.1959 86.8367 72.9748 86.8483 72.7537C86.8729 72.295 87.0719 71.8631 87.4045 71.5464C87.7371 71.2296 88.1782 71.0519 88.6375 71.0497C88.8587 71.0479 89.0779 71.0912 89.2817 71.1771C89.4854 71.263 89.6696 71.3896 89.8227 71.5491C89.9759 71.7087 90.0948 71.8978 90.1723 72.1049C90.2498 72.312 90.2842 72.5328 90.2734 72.7537Z" fill="#263238" />
		<path d="M97.93 72.7537C97.9041 73.2119 97.7047 73.643 97.3724 73.9595C97.0401 74.276 96.5997 74.4541 96.1408 74.4577C95.9199 74.4595 95.701 74.4162 95.4975 74.3302C95.294 74.2443 95.1102 74.1176 94.9575 73.958C94.8048 73.7984 94.6864 73.6092 94.6095 73.4021C94.5327 73.1949 94.499 72.9743 94.5107 72.7537C94.5352 72.296 94.7334 71.8649 95.0648 71.5483C95.3962 71.2317 95.8359 71.0534 96.2942 71.0497C96.5156 71.047 96.7351 71.0898 96.9393 71.1754C97.1435 71.261 97.3279 71.3876 97.4813 71.5473C97.6346 71.707 97.7535 71.8965 97.8307 72.104C97.9079 72.3115 97.9417 72.5326 97.93 72.7537Z" fill="#263238" />
		<path d="M105.592 72.7537C105.566 73.2119 105.367 73.643 105.035 73.9595C104.702 74.276 104.262 74.4541 103.803 74.4577C103.582 74.4595 103.363 74.4161 103.159 74.3303C102.955 74.2444 102.771 74.1178 102.618 73.9583C102.465 73.7987 102.346 73.6096 102.268 73.4025C102.191 73.1953 102.156 72.9746 102.167 72.7537C102.193 72.2955 102.393 71.8644 102.725 71.5479C103.057 71.2314 103.498 71.0533 103.957 71.0497C104.178 71.047 104.397 71.0898 104.602 71.1754C104.806 71.261 104.99 71.3876 105.144 71.5473C105.297 71.707 105.416 71.8965 105.493 72.104C105.57 72.3115 105.604 72.5326 105.592 72.7537Z" fill="#263238" />
		<path d="M88.984 101.574C88.9567 102.032 88.7569 102.462 88.4249 102.778C88.0929 103.094 87.6533 103.273 87.1948 103.278C86.9737 103.28 86.7545 103.236 86.5507 103.151C86.3469 103.065 86.1628 102.938 86.0096 102.779C85.8565 102.619 85.7375 102.43 85.66 102.223C85.5825 102.016 85.5481 101.795 85.559 101.574C85.5849 101.116 85.7843 100.685 86.1166 100.368C86.4489 100.052 86.8893 99.8736 87.3482 99.87C87.5693 99.8682 87.7885 99.9116 87.9923 99.9975C88.1961 100.083 88.3802 100.21 88.5333 100.369C88.6865 100.529 88.8055 100.718 88.883 100.925C88.9604 101.132 88.9948 101.353 88.984 101.574Z" fill="#263238" />
		<path d="M96.6407 101.574C96.6148 102.031 96.4162 102.462 96.0851 102.778C95.754 103.094 95.3151 103.273 94.8571 103.278C94.6358 103.281 94.4162 103.238 94.212 103.152C94.0078 103.067 93.8234 102.94 93.6701 102.78C93.5168 102.621 93.3978 102.431 93.3206 102.224C93.2434 102.016 93.2096 101.795 93.2213 101.574C93.2473 101.116 93.4467 100.685 93.779 100.368C94.1113 100.052 94.5516 99.8736 95.0105 99.87C95.2314 99.8682 95.4503 99.9116 95.6539 99.9975C95.8574 100.083 96.0411 100.21 96.1938 100.37C96.3465 100.529 96.465 100.719 96.5418 100.926C96.6187 101.133 96.6523 101.353 96.6407 101.574Z" fill="#263238" />
		<path d="M104.32 101.574C104.294 102.032 104.095 102.463 103.762 102.78C103.43 103.096 102.99 103.274 102.531 103.278C102.31 103.279 102.091 103.235 101.888 103.149C101.684 103.063 101.5 102.936 101.347 102.777C101.195 102.617 101.076 102.429 100.998 102.222C100.92 102.015 100.885 101.795 100.895 101.574C100.922 101.116 101.122 100.686 101.454 100.37C101.786 100.054 102.226 99.8749 102.684 99.87C102.906 99.8674 103.125 99.9102 103.329 99.9958C103.533 100.081 103.718 100.208 103.871 100.368C104.025 100.527 104.144 100.717 104.221 100.924C104.298 101.132 104.332 101.353 104.32 101.574Z" fill="#263238" />
		<path d="M111.965 101.574C111.938 102.032 111.738 102.462 111.406 102.778C111.074 103.094 110.635 103.273 110.176 103.278C109.955 103.279 109.736 103.235 109.533 103.149C109.33 103.063 109.146 102.936 108.993 102.777C108.84 102.617 108.721 102.429 108.643 102.222C108.565 102.015 108.53 101.795 108.54 101.574C108.568 101.116 108.767 100.686 109.099 100.37C109.431 100.054 109.871 99.875 110.329 99.87C110.551 99.8682 110.77 99.9116 110.974 99.9975C111.177 100.083 111.361 100.21 111.515 100.369C111.668 100.529 111.787 100.718 111.864 100.925C111.942 101.132 111.976 101.353 111.965 101.574Z" fill="#263238" />
		<path d="M119.656 101.574C119.629 102.032 119.429 102.462 119.097 102.778C118.765 103.094 118.325 103.273 117.867 103.278C117.645 103.281 117.426 103.238 117.222 103.152C117.018 103.067 116.833 102.94 116.68 102.78C116.526 102.621 116.407 102.431 116.33 102.224C116.253 102.016 116.219 101.795 116.231 101.574C116.257 101.116 116.456 100.685 116.789 100.368C117.121 100.052 117.561 99.8736 118.02 99.87C118.241 99.8682 118.461 99.9116 118.664 99.9975C118.868 100.083 119.052 100.21 119.205 100.369C119.359 100.529 119.477 100.718 119.555 100.925C119.632 101.132 119.667 101.353 119.656 101.574Z" fill="#263238" />
		<path d="M118.494 32.1619C120.871 29.8371 120.997 26.1106 118.775 23.8386C116.554 21.5667 112.825 21.6095 110.448 23.9344C108.07 26.2593 107.944 29.9857 110.166 32.2577C112.388 34.5297 116.116 34.4868 118.494 32.1619Z" fill="#4152F3" />
		<path d="M125.643 41.4683C124.228 43.3223 122.406 44.8274 120.319 45.8682C118.232 46.9089 115.934 47.4575 113.601 47.472C111.339 47.4912 109.108 46.9536 107.103 45.9066C105.098 44.8595 103.381 43.3353 102.105 41.4683C104.865 38.7191 109.233 36.9243 114.073 36.9243C118.912 36.9243 123.126 38.7191 125.643 41.4683Z" fill="#4152F3" />
		<path opacity="0.1" d="M118.494 32.1619C120.871 29.8371 120.997 26.1106 118.775 23.8386C116.554 21.5667 112.825 21.6095 110.448 23.9344C108.07 26.2593 107.944 29.9857 110.166 32.2577C112.388 34.5297 116.116 34.4868 118.494 32.1619Z" fill="white" />
		<path opacity="0.1" d="M125.643 41.4683C124.228 43.3223 122.406 44.8274 120.319 45.8682C118.232 46.9089 115.934 47.4575 113.601 47.472C111.339 47.4912 109.108 46.9536 107.103 45.9066C105.098 44.8595 103.381 43.3353 102.105 41.4683C104.865 38.7191 109.233 36.9243 114.073 36.9243C118.912 36.9243 123.126 38.7191 125.643 41.4683Z" fill="white" />
		<path d="M42.0729 80.6659C41.5333 81.8474 40.9653 83.1481 40.4711 84.409C39.977 85.67 39.4715 86.9707 39.0341 88.2658C38.1411 90.818 37.461 93.4397 37.0007 96.1041L36.8757 96.9391C36.8638 97.0823 36.8773 97.2266 36.9155 97.3651C37.0495 97.8359 37.2606 98.2811 37.5403 98.6829C38.2697 99.7227 39.1159 100.676 40.0622 101.523C41.0599 102.451 42.1065 103.325 43.1976 104.141C44.2881 104.982 45.4355 105.8 46.5658 106.572L45.5036 108.566C42.8046 107.39 40.2428 105.922 37.864 104.187C36.595 103.261 35.4496 102.177 34.456 100.961C33.8671 100.236 33.4078 99.4159 33.0985 98.5352C32.9187 97.985 32.8267 97.41 32.8259 96.8312C32.8259 96.6949 32.8259 96.4961 32.8259 96.3995V96.1212L32.8827 95.5532C33.2083 92.5939 33.8305 89.6749 34.74 86.8401C35.1831 85.4428 35.6545 84.0512 36.1941 82.6937C36.7337 81.3362 37.2903 80.007 37.9776 78.6268L42.0729 80.6659Z" fill="#E58A7B" />
		<path d="M45.7649 106.22L49.7807 104.187L48.7412 108.594C48.7412 108.594 45.9864 109.367 44.7084 108.026L45.7649 106.22Z" fill="#E58A7B" />
		<path d="M53.4556 104.908L52.3878 108.555L48.7412 108.594L49.7807 104.187L53.4556 104.908Z" fill="#E58A7B" />
		<path d="M59.1243 59.4C59.3391 60.1872 59.638 60.9489 60.016 61.672C59.9056 61.7972 59.7634 61.8903 59.6044 61.9413C59.4454 61.9923 59.2756 61.9993 59.1129 61.9617L59.1243 59.4Z" fill="#DF5753" />
		<path d="M59.005 59.4341C59.2403 59.4341 59.431 59.1416 59.431 58.7809C59.431 58.4201 59.2403 58.1277 59.005 58.1277C58.7697 58.1277 58.579 58.4201 58.579 58.7809C58.579 59.1416 58.7697 59.4341 59.005 59.4341Z" fill="#263238" />
		<path d="M58.88 58.1504L59.7434 57.9062C59.7434 57.9062 59.323 58.5764 58.88 58.1504Z" fill="#263238" />
		<path d="M48.0312 63.5691C48.5481 66.2103 49.065 71.0554 47.2133 72.8218C47.2133 72.8218 47.9404 75.5028 52.8536 75.5028C58.2552 75.5028 55.4323 72.8218 55.4323 72.8218C52.4844 72.1175 52.5582 69.9307 53.0751 67.8746L48.0312 63.5691Z" fill="#E58A7B" />
		<path d="M46.5942 57.5483C46.8668 61.9617 46.8895 63.8361 49.1161 66.1024C52.473 69.5104 57.8349 68.2154 58.8857 63.8304C59.8342 59.8544 59.2322 53.311 54.9097 51.5559C53.9609 51.1651 52.9281 51.0227 51.9089 51.1423C50.8897 51.2619 49.9179 51.6396 49.0854 52.2395C48.2529 52.8394 47.5872 53.6418 47.1513 54.5708C46.7153 55.4998 46.5236 56.5246 46.5942 57.5483Z" fill="#E58A7B" />
		<path d="M47.0315 52.584C44.8163 53.3906 41.8627 52.7885 43.0214 59.6215C44.2483 66.8578 42.3625 69.2378 42.3625 69.2378C42.3625 69.2378 50.7633 71.027 59.3401 69.1298C59.3401 69.1298 56.7216 64.5518 57.4543 61.1778C58.3915 56.9178 57.6531 55.3445 57.6531 55.3445C57.6531 55.3445 50.1441 51.448 47.0315 52.584Z" fill="#263238" />
		<path d="M56.4036 59.8487C56.4059 60.6879 56.6462 61.5092 57.0965 62.2173C57.6986 63.1374 58.4086 62.7853 58.5847 61.8083C58.7437 60.9506 58.6244 59.4341 57.8576 58.8434C57.0908 58.2526 56.4149 58.832 56.4036 59.8487Z" fill="#E58A7B" />
		<path d="M45.106 53.3281C44.4699 51.5389 47.503 48.7841 53.9214 49.9201C60.3398 51.0561 60.6181 56.401 60.6181 56.401L59.3231 54.856L59.3799 56.4805L52.7854 57.7471L45.106 53.3281Z" fill="#263238" />
		<path d="M45.6513 73.1229C45.6134 72.8635 45.6783 72.5996 45.8322 72.3874C45.986 72.1752 46.2166 72.0315 46.4749 71.9869C48.4743 71.6574 53.0183 70.9872 55.3016 71.3053C57.0056 71.5438 57.4487 72.5322 57.5225 73.3444C57.5341 73.4866 57.515 73.6297 57.4667 73.7639C57.4184 73.8982 57.3419 74.0206 57.2424 74.1228C57.1428 74.225 57.0225 74.3048 56.8896 74.3567C56.7567 74.4085 56.6142 74.4314 56.4717 74.4236L46.5999 73.9806C46.3671 73.9688 46.1456 73.877 45.9728 73.7207C45.7999 73.5645 45.6864 73.3533 45.6513 73.1229Z" fill="#4152F3" />
		<path opacity="0.6" d="M45.6513 73.1229C45.6134 72.8635 45.6783 72.5996 45.8322 72.3874C45.986 72.1752 46.2166 72.0315 46.4749 71.9869C48.4743 71.6574 53.0183 70.9872 55.3016 71.3053C57.0056 71.5438 57.4487 72.5322 57.5225 73.3444C57.5341 73.4866 57.515 73.6297 57.4667 73.7639C57.4184 73.8982 57.3419 74.0206 57.2424 74.1228C57.1428 74.225 57.0225 74.3048 56.8896 74.3567C56.7567 74.4085 56.6142 74.4314 56.4717 74.4236L46.5999 73.9806C46.3671 73.9688 46.1456 73.877 45.9728 73.7207C45.7999 73.5645 45.6864 73.3533 45.6513 73.1229Z" fill="black" />
		<path d="M51.3597 172.352L55.0233 174.897L61.152 166.587L57.4884 164.048L51.3597 172.352Z" fill="#E58A7B" />
		<path d="M42.817 172.188L46.685 174.392L52.1094 165.605L48.2414 163.401L42.817 172.188Z" fill="#E58A7B" />
		<path d="M61.1463 166.587L57.9882 170.87L54.3246 168.331L57.4827 164.048L61.1463 166.587Z" fill="#CF6F64" />
		<path d="M48.2357 163.401L52.1095 165.61L49.3149 170.137L45.4412 167.928L48.2357 163.401Z" fill="#CF6F64" />
		<path d="M54.4496 100.864C54.4496 100.864 68.7518 118.887 66.0652 136.125C63.9011 150.047 51.3483 168.899 51.3483 168.899L45.4468 165.968C49.6065 157.633 53.1564 149.007 56.0684 140.158C56.9664 137.411 57.2285 134.496 56.8349 131.632C56.4413 128.769 55.4023 126.032 53.7964 123.629C46.5487 113.048 34.9388 119.347 42.7488 100.864H54.4496Z" fill="#4152F3" />
		<path opacity="0.6" d="M54.4496 100.864C54.4496 100.864 68.7518 118.887 66.0652 136.125C63.9011 150.047 51.3483 168.899 51.3483 168.899L45.4468 165.968C49.6065 157.633 53.1564 149.007 56.0684 140.158C56.9664 137.411 57.2285 134.496 56.8349 131.632C56.4413 128.769 55.4023 126.032 53.7964 123.629C46.5487 113.048 34.9388 119.347 42.7488 100.864H54.4496Z" fill="black" />
		<path opacity="0.4" d="M61.4644 112.44L59.3856 110.372C59.3856 110.537 63.4127 135.398 64.543 142.385C65.21 140.344 65.7208 138.255 66.0709 136.137C67.4 127.679 64.6225 119.04 61.4644 112.44Z" fill="black" />
		<path d="M60.8339 100.864C60.8339 100.864 78.0557 123.516 78.5442 137.097C78.9474 148.457 59.8002 170.467 59.8002 170.467L54.2338 166.866C54.2338 166.866 65.4404 151.234 68.2634 138.466C67.1728 125.811 44.112 100.864 44.112 100.864H60.8339Z" fill="#4152F3" />
		<path opacity="0.6" d="M60.8339 100.864C60.8339 100.864 78.0557 123.516 78.5442 137.097C78.9474 148.457 59.8002 170.467 59.8002 170.467L54.2338 166.866C54.2338 166.866 65.4404 151.234 68.2634 138.466C67.1728 125.811 44.112 100.864 44.112 100.864H60.8339Z" fill="black" />
		<path d="M39.5282 73.8329C37.6879 74.2702 35.9214 80.9613 35.9214 80.9613L43.118 85.7666C43.118 85.7666 45.515 80.4728 44.6743 78.1554C43.8053 75.7414 41.84 73.2819 39.5282 73.8329Z" fill="#4152F3" />
		<path opacity="0.2" d="M40.9369 78.144L40.4371 83.9774L43.1124 85.7722C43.8511 84.1092 44.398 82.3675 44.7425 80.5807L40.9369 78.144Z" fill="black" />
		<path d="M62.9639 73.9635C62.9639 73.9635 65.0883 74.7076 60.8339 100.858H42.7375C43.0442 93.4743 43.0499 88.9303 39.5283 73.8329C42.0622 73.3107 44.6306 72.9728 47.2133 72.8218C49.9494 72.6256 52.6961 72.6256 55.4323 72.8218C58.9652 73.1456 62.9639 73.9635 62.9639 73.9635Z" fill="#4152F3" />
		<path d="M64.8043 78.144C65.2132 79.28 65.6449 80.5012 66.0993 81.677C66.5537 82.8527 66.9854 84.0626 67.4455 85.2554L68.8371 88.8224L69.1892 89.7142L69.371 90.1572L69.4562 90.3787C69.4562 90.4185 69.4562 90.4185 69.4562 90.4128C69.3524 90.2665 69.2164 90.146 69.0586 90.0606C68.8339 89.9284 68.5806 89.8524 68.3202 89.8391C68.1038 89.8324 67.8886 89.8731 67.6897 89.9584C67.4284 90.0777 67.4284 90.1288 67.4341 90.1231C67.4813 90.0853 67.5234 90.0413 67.5591 89.9925C67.8735 89.5797 68.1456 89.1363 68.3713 88.669C68.6383 88.1465 68.8939 87.5898 69.1495 87.0275C69.6493 85.8915 70.1094 84.7158 70.5695 83.5286C71.0296 82.3415 71.4669 81.143 71.8929 79.9332L73.188 76.3094L75.3748 76.8774C74.9431 79.4674 74.3864 81.9894 73.7162 84.5567C73.3924 85.8347 73.0119 87.1014 72.5802 88.3794C72.3644 89.0212 72.1258 89.6574 71.8532 90.3106C71.569 91.0195 71.2191 91.7003 70.808 92.344C70.657 92.5607 70.4899 92.7657 70.3082 92.9574C70.0181 93.2707 69.6661 93.5202 69.2744 93.6902C68.9269 93.8394 68.5505 93.9092 68.1725 93.8946C67.7492 93.8789 67.3367 93.7557 66.974 93.5368C66.5461 93.2698 66.191 92.901 65.9403 92.4633C65.8551 92.3156 65.7812 92.1679 65.7301 92.06L65.6222 91.8442L65.4064 91.4011L64.9747 90.5207C64.4067 89.3393 63.8387 88.1465 63.3445 86.948C62.8504 85.7495 62.3278 84.534 61.8393 83.3128C61.3508 82.0916 60.9135 80.8704 60.4988 79.5526L64.8043 78.144Z" fill="#E58A7B" />
		<path d="M62.9639 73.9635C65.1394 74.4804 67.5874 80.9102 67.5874 80.9102L61.1179 86.4141C61.1179 86.4141 56.9318 79.405 57.7781 77.0932C58.6585 74.6849 60.1239 73.2876 62.9639 73.9635Z" fill="#4152F3" />
		<path d="M74.216 74.2759L76.488 72.3788L78.0671 74.8382L76.9027 76.8887C76.9027 76.8887 75.051 78.5927 73.4152 77.7237C73.1555 77.1401 73.0933 76.4877 73.2378 75.8656C73.3823 75.2434 73.7258 74.6853 74.216 74.2759Z" fill="#E58A7B" />
		<path d="M80.589 72.3845L80.4186 73.0036L76.8231 73.6057L76.471 72.3788L80.589 72.3845Z" fill="#E58A7B" />
		<path d="M60.2432 170.756L53.7567 166.565L54.9211 164.542L62.2085 169.024L60.2432 170.756Z" fill="#4152F3" />
		<path d="M49.224 174.096C48.6549 174.027 48.108 173.833 47.6222 173.528C47.6022 173.521 47.5848 173.508 47.5725 173.491C47.5602 173.474 47.5536 173.453 47.5536 173.432C47.5536 173.41 47.5602 173.39 47.5725 173.372C47.5848 173.355 47.6022 173.342 47.6222 173.335C47.7983 173.278 49.3262 172.807 49.7693 173.17C49.8191 173.212 49.8569 173.266 49.8789 173.327C49.9008 173.388 49.9061 173.453 49.8942 173.517C49.8863 173.619 49.8524 173.718 49.7958 173.803C49.7391 173.889 49.6616 173.958 49.5705 174.005C49.4641 174.063 49.3452 174.095 49.224 174.096ZM47.946 173.471C48.656 173.835 49.224 173.966 49.4966 173.829C49.556 173.796 49.6059 173.749 49.6417 173.691C49.6775 173.634 49.698 173.568 49.7011 173.5C49.7011 173.409 49.7011 173.369 49.65 173.346C49.4114 173.153 48.5594 173.301 47.9346 173.471H47.946Z" fill="#263238" />
		<path d="M47.662 173.568C47.632 173.568 47.6034 173.555 47.5825 173.534C47.574 173.518 47.5696 173.501 47.5696 173.483C47.5696 173.465 47.574 173.447 47.5825 173.432C47.5825 173.381 47.9517 172.148 48.531 171.87C48.605 171.836 48.6854 171.818 48.7668 171.818C48.8481 171.818 48.9285 171.836 49.0025 171.87C49.0822 171.895 49.1513 171.946 49.1986 172.015C49.246 172.084 49.2689 172.167 49.2638 172.25C49.224 172.761 48.1845 173.466 47.7074 173.585L47.662 173.568ZM48.7639 172.017C48.7087 172.019 48.6544 172.033 48.6049 172.057C48.2527 172.228 47.963 172.892 47.821 173.295C48.3209 173.085 49.0082 172.529 49.0309 172.216C49.0309 172.165 49.0309 172.103 48.9002 172.046C48.8577 172.023 48.8116 172.008 48.7639 172V172.017Z" fill="#263238" />
		<path d="M57.3294 176.55C56.6875 176.55 55.7958 175.726 55.3073 175.221C55.2948 175.203 55.2881 175.183 55.2881 175.161C55.2881 175.14 55.2948 175.119 55.3073 175.102C55.3185 175.083 55.3344 175.068 55.3534 175.058C55.3724 175.048 55.3938 175.044 55.4152 175.045C55.6424 175.045 57.6134 175.34 57.8917 175.897C57.9212 175.947 57.9367 176.004 57.9367 176.062C57.9367 176.119 57.9212 176.176 57.8917 176.226C57.8499 176.313 57.7869 176.388 57.7084 176.443C57.6299 176.499 57.5386 176.534 57.443 176.544L57.3294 176.55ZM55.6822 175.3C56.3978 175.993 57.0283 176.38 57.3862 176.334C57.4488 176.326 57.5085 176.303 57.56 176.266C57.6115 176.229 57.6532 176.181 57.6815 176.124C57.6942 176.105 57.701 176.082 57.701 176.059C57.701 176.035 57.6942 176.013 57.6815 175.993C57.5338 175.687 56.483 175.425 55.6822 175.3Z" fill="#263238" />
		<path d="M55.7447 175.272C55.6172 175.276 55.4896 175.266 55.3641 175.244C55.3466 175.241 55.33 175.234 55.3161 175.223C55.3021 175.212 55.2913 175.198 55.2846 175.181C55.2761 175.164 55.2717 175.146 55.2717 175.127C55.2717 175.108 55.2761 175.09 55.2846 175.073C55.3187 175.033 56.0855 174.108 56.8125 174.045C57.0183 174.029 57.2222 174.094 57.3805 174.227C57.602 174.42 57.5907 174.59 57.5339 174.698C57.3919 175.085 56.4092 175.272 55.7447 175.272ZM55.597 175.062C56.2331 175.096 57.2499 174.886 57.3805 174.607C57.3805 174.607 57.4259 174.517 57.2782 174.392C57.2195 174.341 57.1508 174.302 57.0766 174.279C57.0023 174.255 56.924 174.247 56.8466 174.255C56.3568 174.392 55.9207 174.675 55.597 175.068V175.062Z" fill="#263238" />
		<path d="M47.8154 172.955L42.9987 171.591C42.9157 171.566 42.8263 171.573 42.7477 171.609C42.6691 171.646 42.6068 171.71 42.5727 171.79L40.9482 175.442C40.9101 175.536 40.8922 175.637 40.8957 175.737C40.8992 175.838 40.924 175.938 40.9686 176.028C41.0131 176.119 41.0763 176.199 41.1541 176.264C41.2318 176.328 41.3223 176.375 41.4197 176.402C43.1237 176.845 43.9416 176.97 46.0603 177.578C47.3667 177.942 49.2297 178.618 51.0303 179.129C52.8308 179.64 53.4329 177.885 52.7343 177.51C49.5762 175.84 49.3263 174.67 48.4629 173.42C48.3083 173.194 48.0791 173.029 47.8154 172.955Z" fill="#4152F3" />
		<path d="M55.438 174.556L51.3256 171.716C51.2559 171.666 51.17 171.642 51.0841 171.65C50.9983 171.659 50.9185 171.698 50.8599 171.762L48.1335 174.693C48.067 174.768 48.0175 174.857 47.9881 174.954C47.9587 175.05 47.9502 175.152 47.9631 175.252C47.976 175.352 48.01 175.448 48.0629 175.533C48.1158 175.619 48.1863 175.693 48.2698 175.749C49.7182 176.72 50.468 177.112 52.2799 178.368C53.4159 179.14 55.614 180.855 57.1476 181.923C58.6812 182.991 59.8229 181.526 59.2776 180.946C56.8352 178.339 56.3013 176.703 55.898 175.221C55.828 174.952 55.665 174.716 55.438 174.556Z" fill="#4152F3" />
		<path d="M52.1038 169.274L44.6914 165.588L45.4582 163.577L53.3761 167.462L52.1038 169.274Z" fill="#4152F3" />
		<path d="M42.4648 99.7962L41.84 101.432C41.7775 101.557 41.9252 101.688 42.1354 101.688H60.9248C61.0895 101.688 61.2259 101.608 61.2372 101.506L61.3963 99.8814C61.3963 99.7734 61.2656 99.6769 61.0895 99.6769H42.7602C42.705 99.6717 42.6494 99.6798 42.598 99.7006C42.5466 99.7213 42.5009 99.7541 42.4648 99.7962Z" fill="#4152F3" />
		<path opacity="0.4" d="M42.4648 99.7962L41.84 101.432C41.7775 101.557 41.9252 101.688 42.1354 101.688H60.9248C61.0895 101.688 61.2259 101.608 61.2372 101.506L61.3963 99.8814C61.3963 99.7734 61.2656 99.6769 61.0895 99.6769H42.7602C42.705 99.6717 42.6494 99.6798 42.598 99.7006C42.5466 99.7213 42.5009 99.7541 42.4648 99.7962Z" fill="white" />
		<path d="M45.4241 101.847H44.9299C44.8334 101.847 44.7595 101.796 44.7652 101.733L44.9981 99.6258C44.9981 99.569 45.089 99.5179 45.1855 99.5179H45.6797C45.7762 99.5179 45.8501 99.569 45.8444 99.6258L45.6115 101.733C45.6058 101.796 45.5206 101.847 45.4241 101.847Z" fill="#4152F3" />
		<path d="M57.0113 101.847H56.5228C56.4263 101.847 56.3524 101.796 56.3581 101.733L56.5853 99.6258C56.5853 99.569 56.6819 99.5179 56.7784 99.5179H57.2669C57.3635 99.5179 57.443 99.569 57.4316 99.6258L57.2044 101.733C57.176 101.796 57.1135 101.847 57.0113 101.847Z" fill="#4152F3" />
		<g style="mix-blend-mode:multiply">
			<path d="M44.9924 198.037C53.3964 198.037 60.2091 197.544 60.2091 196.936C60.2091 196.327 53.3964 195.834 44.9924 195.834C36.5885 195.834 29.7757 196.327 29.7757 196.936C29.7757 197.544 36.5885 198.037 44.9924 198.037Z" fill="#F5F5F5" />
		</g>
		<path d="M54.2622 195.379C51.5698 194.595 48.5822 193.59 46.7759 192.539C46.7248 192.505 46.668 192.488 46.6169 192.46V180.27H52.064C52.4775 180.246 52.866 180.064 53.1501 179.763C53.4342 179.462 53.5925 179.063 53.5925 178.649C53.5925 178.235 53.4342 177.836 53.1501 177.535C52.866 177.233 52.4775 177.052 52.064 177.027H46.6453V121.465H43.3736V177.027H37.9606C37.7395 177.014 37.5182 177.046 37.31 177.122C37.1019 177.197 36.9115 177.315 36.7503 177.467C36.5892 177.618 36.4608 177.802 36.3731 178.005C36.2853 178.208 36.2401 178.427 36.2401 178.649C36.2401 178.87 36.2853 179.089 36.3731 179.293C36.4608 179.496 36.5892 179.679 36.7503 179.831C36.9115 179.983 37.1019 180.1 37.31 180.176C37.5182 180.251 37.7395 180.283 37.9606 180.27H43.3736V192.443C43.3225 192.443 43.2714 192.488 43.2202 192.522C41.3856 193.59 38.4206 194.595 35.7283 195.362C35.5464 195.417 35.3903 195.535 35.2881 195.696C35.1859 195.856 35.1444 196.047 35.1712 196.235C35.198 196.423 35.2912 196.596 35.434 196.721C35.5769 196.846 35.7598 196.916 35.9498 196.918H54.0406C54.2222 196.906 54.394 196.832 54.5274 196.708C54.6608 196.584 54.7478 196.419 54.7737 196.238C54.7996 196.058 54.763 195.875 54.6699 195.718C54.5768 195.562 54.4329 195.442 54.2622 195.379Z" fill="#E0E0E0" />
		<path d="M55.0971 115.808H34.899C33.2741 115.808 31.9568 117.125 31.9568 118.75V124.754C31.9568 126.379 33.2741 127.696 34.899 127.696H55.0971C56.722 127.696 58.0393 126.379 58.0393 124.754V118.75C58.0393 117.125 56.722 115.808 55.0971 115.808Z" fill="#4152F3" />
		<path d="M34.7116 127.702V128.736C34.7116 129.588 35.6375 130.281 36.7735 130.281H53.2454C54.3814 130.281 55.3073 129.588 55.3073 128.736V127.702H34.7116Z" fill="#4152F3" />
		<path opacity="0.3" d="M34.7116 127.702V128.736C34.7116 129.588 35.6375 130.281 36.7735 130.281H53.2454C54.3814 130.281 55.3073 129.588 55.3073 128.736V127.702H34.7116Z" fill="white" />
	</g>
	<defs>
		<clipPath id="clip0_2_4736">
			<rect width="220" height="203" fill="white" />
		</clipPath>
	</defs>
</svg>
