<svg xmlns="http://www.w3.org/2000/svg" viewBox="0 0 500 500"><g id="freepik--background-simple--inject-2"><path d="M459.24,137.52c-2.41-18.76-7.11-36.75-17-53.14C424,53.93,391,35.53,357.63,26.2c-28-7.82-58.16-10.08-86.09-2-30.66,8.87-56.39,29.29-84,45.3a437.69,437.69,0,0,1-63.1,29.66c-17.58,6.73-39.92,10.5-54.37,23.28a144.93,144.93,0,0,0-23.35,26.65C19.74,188.4,11,238.62,15.12,285.5c2.91,32.66,11.89,65.71,32,91.58,28.27,36.31,76.8,54.2,122.59,49.69,52-5.12,101.25-36.19,152.93-28.73,25.73,3.71,50.35,16.93,76.23,14.47,25.51-2.42,47.34-20,62.73-40.45,12.34-16.43,20.55-36.3,21.31-57,.83-22.39-9.31-42.81-14.4-64.19C459.66,213.5,464.09,175.27,459.24,137.52Z" style="fill:#FF7272"></path><path d="M459.24,137.52c-2.41-18.76-7.11-36.75-17-53.14C424,53.93,391,35.53,357.63,26.2c-28-7.82-58.16-10.08-86.09-2-30.66,8.87-56.39,29.29-84,45.3a437.69,437.69,0,0,1-63.1,29.66c-17.58,6.73-39.92,10.5-54.37,23.28a144.93,144.93,0,0,0-23.35,26.65C19.74,188.4,11,238.62,15.12,285.5c2.91,32.66,11.89,65.71,32,91.58,28.27,36.31,76.8,54.2,122.59,49.69,52-5.12,101.25-36.19,152.93-28.73,25.73,3.71,50.35,16.93,76.23,14.47,25.51-2.42,47.34-20,62.73-40.45,12.34-16.43,20.55-36.3,21.31-57,.83-22.39-9.31-42.81-14.4-64.19C459.66,213.5,464.09,175.27,459.24,137.52Z" style="fill:#fff;opacity:0.7000000000000001"></path></g><g id="freepik--Device--inject-2"><rect x="193.7" y="42.5" width="201.83" height="373.89" style="fill:#fff"></rect><rect x="193.7" y="352.63" width="201.83" height="63.76" style="fill:#dedede"></rect><path d="M401.59,116.06a2.49,2.49,0,0,0,2.49-2.49V88.64a2.49,2.49,0,0,0-2.49-2.49,2.42,2.42,0,0,0-.47,0V39.56a16.07,16.07,0,0,0-16.07-16.07H207.9a16.07,16.07,0,0,0-16.08,16.07V415.85a16.08,16.08,0,0,0,16.08,16.08H385.05a16.08,16.08,0,0,0,16.07-16.08V186.93a2.42,2.42,0,0,0,.47,0,2.5,2.5,0,0,0,2.49-2.5V159.55a2.49,2.49,0,0,0-2.49-2.49,2.42,2.42,0,0,0-.47.05v-5.64a2.42,2.42,0,0,0,.47.05,2.5,2.5,0,0,0,2.49-2.49V124.09a2.5,2.5,0,0,0-2.49-2.49,2.42,2.42,0,0,0-.47.05V116A2.42,2.42,0,0,0,401.59,116.06Zm-9.78,291.63H201.13V51.22H391.81Z" style="fill:#263238"></path><rect x="369.51" y="54.92" width="15.81" height="8.67" style="fill:none;stroke:#263238;stroke-linecap:round;stroke-linejoin:round;stroke-width:0.821067px"></rect><rect x="369.51" y="54.92" width="12.33" height="8.67" style="fill:#263238;stroke:#263238;stroke-linecap:round;stroke-linejoin:round;stroke-width:0.725073px"></rect><rect x="385.29" y="57.35" width="2.23" height="3.82" style="fill:#263238;stroke:#263238;stroke-linecap:round;stroke-linejoin:round;stroke-width:0.725073px"></rect><rect x="205.42" y="57.61" width="2.9" height="4.97" style="fill:#263238;stroke:#263238;stroke-linecap:round;stroke-linejoin:round;stroke-width:0.8830859999999999px"></rect><rect x="209.98" y="55.87" width="2.9" height="6.71" style="fill:#263238;stroke:#263238;stroke-linecap:round;stroke-linejoin:round;stroke-width:0.8830859999999999px"></rect><rect x="214.53" y="53.8" width="2.9" height="8.78" style="fill:#263238;stroke:#263238;stroke-linecap:round;stroke-linejoin:round;stroke-width:0.8830859999999999px"></rect><rect x="204.2" y="68.41" width="183.11" height="48.12" style="fill:#FF7272"></rect><line x1="250.48" y1="75.34" x2="250.48" y2="110.67" style="fill:none;stroke:#fff;stroke-miterlimit:10"></line><line x1="297.14" y1="75.34" x2="297.14" y2="110.67" style="fill:none;stroke:#fff;stroke-miterlimit:10"></line><line x1="343.81" y1="75.34" x2="343.81" y2="110.67" style="fill:none;stroke:#fff;stroke-miterlimit:10"></line><path d="M399.47,186.93a2.42,2.42,0,0,0,.47,0,2.5,2.5,0,0,0,2.49-2.5v-8.93l-12.27,21.63V407.69H270.79L257,431.93H383.39a16.08,16.08,0,0,0,16.08-16.08Z" style="fill:#fff;opacity:0.15"></path></g><g id="freepik--qr-code--inject-2"><path d="M288.73,282.43V271l0,0h5.71v-5.75h-5.69c0-1.91,0-3.83,0-5.74H300.2v-5.71h5.72v5.68h5.74V248h17.2v5.71h5.69V248h-5.71v-5.76H317.37V230.86H300.16v5.72H288.75v11.47h5.68v5.72h-5.71v5.73H283v-5.74H265.81v-5.71H283V202.17h5.75v0q0,8.28,0,16.56v.62h5.73V207.92h5.71v11.45h5.76v5.71h28.66v5.72h5.74v5.77l0,0h-5.71v5.75h5.69v11.48h5.75l0,0v11.46h-5.69V276.7H346v5.73h11.45v5.72H340.33V299.6h-5.72v-5.72h-11.5l0,0v-5.73h-5.72v-5.72h11.41v-5.73H300.21v5.7H288.73Zm34.38-17.2v-5.7h-5.69v5.69h5.71v5.71h11.42v-5.7Zm-11.48,0H306v5.67h5.67Zm11.51-28.73h5.67v-5.68h-5.67Z" style="fill:#263238"></path><path d="M237.14,219.33V179.25h40.07v40.08ZM242.89,185v28.61h28.6V185Z" style="fill:#263238"></path><path d="M357.48,219.34H317.41V179.27h40.07ZM351.76,185h-28.6v28.6h28.6Z" style="fill:#263238"></path><path d="M237.15,259.51h40.08v40.08H237.15Zm34.35,5.75H242.89v28.61H271.5Z" style="fill:#263238"></path><path d="M288.72,202.17V190.7H283V179.26h28.61v11.42H306v5.74h5.67v11.44h-5.71v-5.69H300.2v-5.72h-5.72v5.7h-5.77Zm5.75-11.51h5.68V185h-5.68Z" style="fill:#263238"></path><path d="M265.78,230.82v5.73h11.45v5.72H260.06v11.46h-22.9v-11.4h5.67V248h11.5V230.82h11.46Z" style="fill:#263238"></path><path d="M288.71,282.42v5.73h5.73v5.72h5.71v5.73H283V282.43h5.69Z" style="fill:#263238"></path><path d="M254.33,230.82H242.87v5.71h-5.71v-11.4h17.15v5.7Z" style="fill:#263238"></path><path d="M357.48,242.27H351.8V230.84h-5.72v-5.72h11.4Z" style="fill:#263238"></path><path d="M265.79,230.84v-5.71h11.43v5.69H265.78Z" style="fill:#263238"></path><path d="M346.06,253.77v-5.71h5.69v5.69H346Z" style="fill:#263238"></path><path d="M351.81,259.52h5.67v5.68h-5.67Z" style="fill:#263238"></path><path d="M305.92,219.37v-5.71h5.7v5.69h-5.71Z" style="fill:#263238"></path><path d="M288.73,271H283v-5.72h5.69V271Z" style="fill:#263238"></path><path d="M346.06,276.7V271h5.69v5.69h-5.69Z" style="fill:#263238"></path><path d="M340.31,236.57H346v5.72h-5.69v-5.75Z" style="fill:#263238"></path><path d="M311.62,293.87h-5.68V288.2h5.68Z" style="fill:#263238"></path><path d="M323.11,293.88v5.71h-5.69V293.9h5.71Z" style="fill:#263238"></path><path d="M357.48,299.61h-5.67v-5.68h5.67Z" style="fill:#263238"></path><path d="M311.66,248H306v-5.69h5.7V248Z" style="fill:#263238"></path><path d="M265.75,207.87H248.61V190.73h17.14Z" style="fill:#263238"></path><path d="M328.87,207.86V190.72H346v17.14Z" style="fill:#263238"></path><path d="M248.61,288.13V271h17.14v17.14Z" style="fill:#263238"></path><polyline points="253.79 165.67 228.69 165.67 228.69 193.36" style="fill:none;stroke:#FF7272;stroke-miterlimit:10;stroke-width:2px"></polyline><polyline points="345.07 165.67 370.16 165.67 370.16 193.36" style="fill:none;stroke:#FF7272;stroke-miterlimit:10;stroke-width:2px"></polyline><polyline points="253.79 311.49 228.69 311.49 228.69 283.8" style="fill:none;stroke:#FF7272;stroke-miterlimit:10;stroke-width:2px"></polyline><polyline points="345.07 311.49 370.16 311.49 370.16 283.8" style="fill:none;stroke:#FF7272;stroke-miterlimit:10;stroke-width:2px"></polyline></g></svg>