<svg xmlns="http://www.w3.org/2000/svg" viewBox="0 0 500 500"><g id="freepik--background-simple--inject-8"><path d="M475.79,277.05c-13.49,40.89-42.56,85.72-85.35,100.31C325.8,399.42,320,452.43,202.71,452.07a236.91,236.91,0,0,1-50.94-5.47,197.3,197.3,0,0,1-24.12-7c-69.5-25.07-107.55-84.69-113-148.4-7.15-83.8,49.87-126.07,87-151s79.53-117.45,194.87-118a228.73,228.73,0,0,1,52.35,5.59c39.16,9,79.46,30.67,103.67,63.7,1.81,2.48,3.55,5,5.23,7.62C490.46,149.94,494.19,221.29,475.79,277.05Z" style="fill:#407BFF"></path><path d="M475.79,277.05c-13.49,40.89-42.56,85.72-85.35,100.31C325.8,399.42,320,452.43,202.71,452.07a236.91,236.91,0,0,1-50.94-5.47,197.3,197.3,0,0,1-24.12-7c-69.5-25.07-107.55-84.69-113-148.4-7.15-83.8,49.87-126.07,87-151s79.53-117.45,194.87-118a228.73,228.73,0,0,1,52.35,5.59c39.16,9,79.46,30.67,103.67,63.7,1.81,2.48,3.55,5,5.23,7.62C490.46,149.94,494.19,221.29,475.79,277.05Z" style="fill:#fff;opacity:0.7000000000000001"></path></g><g id="freepik--Device--inject-8"><path d="M482.51,474.07H17.83a.5.5,0,0,1-.5-.5.5.5,0,0,1,.5-.5H482.51a.5.5,0,0,1,.5.5A.5.5,0,0,1,482.51,474.07Z" style="fill:#263238"></path><path d="M304.18,58.46V402.08a17.08,17.08,0,0,1-17.08,17.08H138.62a17.08,17.08,0,0,1-17.08-17.08V58.45a17.07,17.07,0,0,1,17.07-17.07h63.73l.06.19C204,47.29,207.64,51,211.7,51H214c4.06,0,7.71-3.72,9.3-9.44l.07-.19H287.1A17.08,17.08,0,0,1,304.18,58.46Z" style="fill:#fff"></path><path d="M287.1,419.66H138.62A17.6,17.6,0,0,1,121,402.08V58.45a17.59,17.59,0,0,1,17.57-17.57h64.11l.16.56c1.53,5.51,5,9.07,8.82,9.07H214c3.83,0,7.29-3.56,8.82-9.07l.18-.56H287.1a17.6,17.6,0,0,1,17.58,17.58V402.08A17.6,17.6,0,0,1,287.1,419.66ZM138.61,41.88A16.59,16.59,0,0,0,122,58.45V402.08a16.6,16.6,0,0,0,16.58,16.58H287.1a16.6,16.6,0,0,0,16.58-16.58V58.46A16.6,16.6,0,0,0,287.1,41.88H223.76c-1.68,5.85-5.49,9.63-9.74,9.63H211.7c-4.25,0-8.06-3.78-9.74-9.63Z" style="fill:#263238"></path><rect x="183.09" y="265.85" width="62.65" height="19.52" rx="4.84" style="fill:#263238"></rect><path d="M240.89,285.87h-53a5.35,5.35,0,0,1-5.34-5.34v-9.84a5.34,5.34,0,0,1,5.34-5.34h53a5.35,5.35,0,0,1,5.35,5.34v9.84A5.35,5.35,0,0,1,240.89,285.87Zm-53-19.52a4.34,4.34,0,0,0-4.34,4.34v9.84a4.35,4.35,0,0,0,4.34,4.34h53a4.35,4.35,0,0,0,4.35-4.34v-9.84a4.34,4.34,0,0,0-4.35-4.34Z" style="fill:#263238"></path><path d="M121.54,312.26v89.82a17.08,17.08,0,0,0,17.08,17.08H287.1a17.08,17.08,0,0,0,17.08-17.08V312.26Z" style="fill:#dbdbdb"></path><path d="M287.1,419.66H138.62A17.6,17.6,0,0,1,121,402.08V312.26a.5.5,0,0,1,.5-.5H304.18a.5.5,0,0,1,.5.5v89.82A17.6,17.6,0,0,1,287.1,419.66ZM122,312.76v89.32a16.6,16.6,0,0,0,16.58,16.58H287.1a16.6,16.6,0,0,0,16.58-16.58V312.76Z" style="fill:#263238"></path><rect x="129.36" y="323.1" width="50.07" height="16.82" rx="2.27" style="fill:#fff"></rect><rect x="185.4" y="323.1" width="50.07" height="16.82" rx="2.27" style="fill:#fff"></rect><rect x="241.43" y="323.1" width="50.07" height="16.82" rx="2.27" style="fill:#fff"></rect><rect x="129.36" y="344.6" width="50.07" height="16.82" rx="2.27" style="fill:#fff"></rect><rect x="185.4" y="344.6" width="50.07" height="16.82" rx="2.27" style="fill:#fff"></rect><rect x="241.43" y="344.6" width="50.07" height="16.82" rx="2.27" style="fill:#fff"></rect><rect x="129.36" y="366.09" width="50.07" height="16.82" rx="2.27" style="fill:#fff"></rect><rect x="185.4" y="366.09" width="50.07" height="16.82" rx="2.27" style="fill:#fff"></rect><rect x="241.43" y="366.09" width="50.07" height="16.82" rx="2.27" style="fill:#fff"></rect><rect x="185.4" y="387.59" width="50.07" height="16.82" rx="2.27" style="fill:#fff"></rect><polygon points="285.46 404.41 254.22 404.41 247.48 396.58 254.22 387.59 285.46 387.59 285.46 404.41" style="fill:#fff"></polygon><path d="M214.86,119.2l-.45-.34-.45.34s-23,13.09-33.4,18.06c0,0,5,28,8.57,40.62s17.61,19.41,25.28,23.92c7.68-4.51,21.67-11.28,25.28-23.92s8.58-40.62,8.58-40.62C237.88,132.29,214.86,119.2,214.86,119.2Z" style="fill:#407BFF"></path><path d="M212.05,173.31l-15.26-13.08a3.5,3.5,0,0,1,4.55-5.32l10,8.58L228.48,144a3.5,3.5,0,0,1,5.26,4.62Z" style="fill:#fff"></path><rect x="134.06" y="217.43" width="20.76" height="20.76" style="fill:#fff"></rect><path d="M155.33,238.69H133.56V216.93h21.77Zm-20.77-1h19.77V217.93H134.56Z" style="fill:#263238"></path><rect x="162.05" y="217.43" width="20.76" height="20.76" style="fill:#fff"></rect><path d="M183.31,238.69H161.55V216.93h21.76Zm-20.76-1h19.76V217.93H162.55Z" style="fill:#263238"></path><rect x="190.04" y="217.43" width="20.76" height="20.76" style="fill:#fff"></rect><path d="M211.3,238.69H189.54V216.93H211.3Zm-20.76-1H210.3V217.93H190.54Z" style="fill:#263238"></path><rect x="218.02" y="217.43" width="20.76" height="20.76" style="fill:#fff"></rect><path d="M239.29,238.69H217.52V216.93h21.77Zm-20.77-1h19.77V217.93H218.52Z" style="fill:#263238"></path><rect x="246.01" y="217.43" width="20.76" height="20.76" style="fill:#fff"></rect><path d="M267.27,238.69H245.51V216.93h21.76Zm-20.76-1h19.76V217.93H246.51Z" style="fill:#263238"></path><rect x="274" y="217.43" width="20.76" height="20.76" style="fill:#fff"></rect><path d="M295.26,238.69H273.5V216.93h21.76Zm-20.76-1h19.76V217.93H274.5Z" style="fill:#263238"></path><path d="M304.18,74.44v-16A17.08,17.08,0,0,0,287.1,41.38H223.38l-.06.19C221.73,47.29,218.08,51,214,51H211.7c-4.06,0-7.72-3.72-9.3-9.44l-.06-.19H138.61a17.07,17.07,0,0,0-17.07,17.07v16Z" style="fill:#dbdbdb"></path><path d="M304.17,74.94H121.54a.5.5,0,0,1-.5-.5v-16a17.59,17.59,0,0,1,17.57-17.57h63.73a.49.49,0,0,1,.48.37l.06.19c1.53,5.51,5,9.07,8.82,9.07H214c3.83,0,7.29-3.56,8.82-9.07l.07-.21a.49.49,0,0,1,.47-.35H287.1a17.59,17.59,0,0,1,17.57,17.58v16A.5.5,0,0,1,304.17,74.94ZM122,73.94H303.67V58.46A16.59,16.59,0,0,0,287.1,41.88H223.76c-1.68,5.85-5.49,9.63-9.74,9.63H211.7c-4.25,0-8.06-3.78-9.74-9.63H138.61A16.59,16.59,0,0,0,122,58.45Z" style="fill:#263238"></path><path d="M315.79,140.53V106.21h-3.11V62.27A27.08,27.08,0,0,0,285.6,35.18H140.12A27.09,27.09,0,0,0,113,62.27V411.42a27.08,27.08,0,0,0,27.09,27.08H285.6a27.07,27.07,0,0,0,27.08-27.08V169.78h3.11V149.5h-3.11v-9ZM304.18,392.07a27.09,27.09,0,0,1-27.09,27.09H148.63a27.09,27.09,0,0,1-27.09-27.09V68.46a27.09,27.09,0,0,1,27.09-27.08h53.71l.06.19C204,47.29,207.64,51,211.7,51H214c4.06,0,7.71-3.72,9.3-9.44l.07-.19h53.7a27.09,27.09,0,0,1,27.09,27.08Z" style="fill:#407BFF"></path><path d="M285.6,439H140.12a27.62,27.62,0,0,1-27.59-27.58V62.27a27.63,27.63,0,0,1,27.59-27.59H285.6a27.62,27.62,0,0,1,27.58,27.59v43.44h2.61a.5.5,0,0,1,.5.5v34.32a.5.5,0,0,1-.5.5h-2.61v8h2.61a.5.5,0,0,1,.5.5v20.28a.5.5,0,0,1-.5.5h-2.61V411.42A27.61,27.61,0,0,1,285.6,439ZM140.12,35.68a26.62,26.62,0,0,0-26.59,26.59V411.42A26.61,26.61,0,0,0,140.12,438H285.6a26.61,26.61,0,0,0,26.58-26.58V169.78a.5.5,0,0,1,.5-.5h2.61V150h-2.61a.51.51,0,0,1-.5-.5v-9a.5.5,0,0,1,.5-.5h2.61V106.71h-2.61a.51.51,0,0,1-.5-.5V62.27A26.61,26.61,0,0,0,285.6,35.68Zm137,384H148.63A27.63,27.63,0,0,1,121,392.07V68.46a27.62,27.62,0,0,1,27.59-27.58h53.71a.48.48,0,0,1,.48.37l.06.19c1.53,5.51,5,9.07,8.82,9.07H214c3.83,0,7.29-3.56,8.82-9.07l.07-.21a.49.49,0,0,1,.47-.35h53.71a27.62,27.62,0,0,1,27.59,27.58V392.07A27.63,27.63,0,0,1,277.09,419.66ZM148.63,41.88A26.61,26.61,0,0,0,122,68.46V392.07a26.62,26.62,0,0,0,26.59,26.59H277.09a26.62,26.62,0,0,0,26.59-26.59V68.46a26.61,26.61,0,0,0-26.59-26.58H223.76c-1.68,5.85-5.49,9.63-9.74,9.63H211.7c-4.25,0-8.06-3.78-9.74-9.63Z" style="fill:#263238"></path><path d="M283.43,38.91H142.29A26.13,26.13,0,0,0,116.17,65V408.65a26.12,26.12,0,0,0,26.12,26.12H283.43a26.12,26.12,0,0,0,26.12-26.12V65A26.13,26.13,0,0,0,283.43,38.91ZM304.18,393a26.13,26.13,0,0,1-26.13,26.12H147.67A26.13,26.13,0,0,1,121.54,393V67.49a26.11,26.11,0,0,1,26.12-26.11h54.68l.06.19C204,47.29,207.64,51,211.7,51H214c4.06,0,7.71-3.72,9.3-9.44l.07-.19h54.66A26.12,26.12,0,0,1,304.18,67.5Z" style="fill:#263238"></path><path d="M283.43,435.27H142.29a26.65,26.65,0,0,1-26.62-26.62V65a26.65,26.65,0,0,1,26.62-26.62H283.43A26.65,26.65,0,0,1,310.05,65V408.65A26.65,26.65,0,0,1,283.43,435.27ZM142.29,39.42A25.65,25.65,0,0,0,116.67,65V408.65a25.65,25.65,0,0,0,25.62,25.62H283.43a25.65,25.65,0,0,0,25.62-25.62V65a25.65,25.65,0,0,0-25.62-25.62ZM278.05,419.66H147.67A26.66,26.66,0,0,1,121,393V67.49a26.65,26.65,0,0,1,26.62-26.61h54.68a.48.48,0,0,1,.48.37l.06.19c1.53,5.51,5,9.07,8.82,9.07H214c3.83,0,7.29-3.56,8.82-9.07l.07-.21a.49.49,0,0,1,.47-.35h54.67A26.66,26.66,0,0,1,304.68,67.5V393A26.66,26.66,0,0,1,278.05,419.66ZM147.66,41.88A25.64,25.64,0,0,0,122,67.49V393a25.66,25.66,0,0,0,25.63,25.62H278.05A25.66,25.66,0,0,0,303.68,393V67.5a25.65,25.65,0,0,0-25.63-25.62H223.76c-1.68,5.85-5.49,9.63-9.74,9.63H211.7c-4.25,0-8.06-3.78-9.74-9.63Z" style="fill:#263238"></path><path d="M214.84,42.67a2.54,2.54,0,1,0-2.54,2.55A2.54,2.54,0,0,0,214.84,42.67Z" style="fill:#fff"></path><path d="M137.78,52.42c0,2.57-2.89,3.5-2.91,5.46V58h2.81v.87h-3.74v-.73c0-2.76,2.89-3.29,2.89-5.7,0-.87-.3-1.34-1-1.34s-1,.5-1,1.26v.75h-.89v-.69c0-1.31.59-2.17,1.91-2.17S137.78,51.11,137.78,52.42Z" style="fill:#263238"></path><path d="M142.45,52.4v.22a1.71,1.71,0,0,1-1,1.76,1.7,1.7,0,0,1,1,1.77v.66c0,1.3-.61,2.15-1.93,2.15s-1.91-.85-1.91-2.15v-.59h.89v.65c0,.76.31,1.23,1,1.23s1-.45,1-1.32v-.66c0-.84-.36-1.24-1.08-1.26h-.51V54h.56a1,1,0,0,0,1-1.17v-.39c0-.88-.31-1.33-1-1.33s-1,.48-1,1.25v.43h-.89V52.4c0-1.3.61-2.14,1.91-2.14S142.45,51.1,142.45,52.4Z" style="fill:#263238"></path><path d="M144.29,53.05v1.18h-.92V53.05Zm0,4.65v1.18h-.92V57.7Z" style="fill:#263238"></path><path d="M146.22,53.82a1.36,1.36,0,0,1,1.26-.71c1.1,0,1.59.81,1.59,2v1.67c0,1.3-.62,2.15-1.93,2.15s-1.91-.85-1.91-2.15v-.58h.89v.64c0,.76.32,1.23,1,1.23s1-.47,1-1.23V55.21c0-.77-.32-1.23-1-1.23a.92.92,0,0,0-1,.91v.2h-.88l.23-4.75h3.36v.86h-2.51Z" style="fill:#263238"></path><path d="M153.81,52.39v.16h-.89v-.22c0-.77-.31-1.22-1-1.22s-1,.47-1,1.38V54.4a1.39,1.39,0,0,1,1.38-.91c1.1,0,1.59.79,1.59,2v1.3c0,1.3-.65,2.15-2,2.15s-2-.85-2-2.15V52.45c0-1.35.61-2.19,2-2.19S153.81,51.09,153.81,52.39Zm-2.94,3.2v1.28c0,.76.32,1.23,1,1.23s1-.47,1-1.23V55.59c0-.77-.33-1.23-1-1.23S150.87,54.82,150.87,55.59Z" style="fill:#263238"></path><rect x="244.57" y="52.77" width="2.41" height="6.02" style="fill:#263238"></rect><rect x="247.78" y="51.56" width="2.41" height="7.23" style="fill:#263238"></rect><rect x="250.99" y="50.7" width="2.41" height="8.09" style="fill:#263238"></rect><rect x="254.21" y="49.21" width="2.41" height="9.58" style="fill:#263238"></rect><path d="M286.43,58.63H272V49.79h14.45Zm-13.65-.81h12.85V50.59H272.78Z" style="fill:#263238"></path><rect x="273.98" y="51.47" width="7.63" height="5.48" style="fill:#263238"></rect><rect x="285.93" y="53.17" width="1.82" height="2.08" style="fill:#263238"></rect><path d="M266.68,56.7a.55.55,0,0,1-.28-.07c-2.94-1.75-4.89-.13-5-.06a.54.54,0,0,1-.76,0,.55.55,0,0,1,.05-.76c.1-.09,2.59-2.22,6.23-.06a.54.54,0,0,1,.19.74A.53.53,0,0,1,266.68,56.7Z" style="fill:#263238"></path><path d="M267.76,54.89a.45.45,0,0,1-.27-.08c-4.26-2.53-7.12-.08-7.15-.06a.54.54,0,0,1-.76,0,.56.56,0,0,1,.05-.77s3.49-3,8.41,0a.54.54,0,0,1-.28,1Z" style="fill:#263238"></path><path d="M268.75,52.79a.53.53,0,0,1-.27-.08c-5.39-3.2-9-.19-9.12-.06a.54.54,0,0,1-.77,0,.55.55,0,0,1,.05-.76c.05,0,4.3-3.68,10.39-.06a.55.55,0,0,1,.19.74A.56.56,0,0,1,268.75,52.79Z" style="fill:#263238"></path><path d="M265.05,57.61a1.36,1.36,0,1,1-1.35-1.36A1.35,1.35,0,0,1,265.05,57.61Z" style="fill:#263238"></path><path d="M271.27,396.4l4.87-4.87a1.5,1.5,0,0,0-2.12-2.12l-4.87,4.87-4.87-4.87a1.5,1.5,0,0,0-2.13,2.12L267,396.4l-4.88,4.87a1.51,1.51,0,0,0,0,2.12,1.51,1.51,0,0,0,2.13,0l4.87-4.87,4.87,4.87a1.47,1.47,0,0,0,1.06.44,1.45,1.45,0,0,0,1.06-.44,1.49,1.49,0,0,0,0-2.12Z" style="fill:#263238"></path><path d="M151.78,337.28v-9.85l-.35.14-.58.17-.58.16a2.09,2.09,0,0,0-.36.12v-1.55l.52-.21.67-.31a5.38,5.38,0,0,0,.66-.38,2.75,2.75,0,0,0,.5-.44h1.59v12.15Z" style="fill:#263238"></path><path d="M207.8,337.28v-1.46l3-4.64c.22-.34.43-.66.62-1a4.53,4.53,0,0,0,.48-1,3.08,3.08,0,0,0,.19-1.11,1.87,1.87,0,0,0-.24-1,.84.84,0,0,0-.75-.36,1,1,0,0,0-.75.27,1.43,1.43,0,0,0-.37.7,4.72,4.72,0,0,0-.1,1v.52h-2v-.54a5,5,0,0,1,.33-1.9,2.67,2.67,0,0,1,1-1.29A3.4,3.4,0,0,1,211,325a3,3,0,0,1,2.34.84,3.31,3.31,0,0,1,.78,2.34,4.17,4.17,0,0,1-.21,1.36,5.9,5.9,0,0,1-.56,1.16q-.34.56-.75,1.14l-2.49,3.78h3.69v1.66Z" style="fill:#263238"></path><path d="M266.32,337.46a3.56,3.56,0,0,1-1.84-.42,2.48,2.48,0,0,1-1-1.22,4.87,4.87,0,0,1-.31-1.83v-.42h2v.35a5.11,5.11,0,0,0,.11,1,1.16,1.16,0,0,0,.33.62,1.05,1.05,0,0,0,.69.21.94.94,0,0,0,.69-.23,1.21,1.21,0,0,0,.32-.66,6.2,6.2,0,0,0,.08-1,3.15,3.15,0,0,0-.29-1.46,1.24,1.24,0,0,0-1.13-.57h-.35V330.1H266a1.38,1.38,0,0,0,1.14-.44,2.39,2.39,0,0,0,.31-1.38,2.67,2.67,0,0,0-.23-1.2.92.92,0,0,0-.89-.43.87.87,0,0,0-.87.48,3.26,3.26,0,0,0-.23,1.24v.45h-2v-.58a3.92,3.92,0,0,1,.36-1.76,2.52,2.52,0,0,1,1.08-1.11,3.49,3.49,0,0,1,1.71-.38,3.67,3.67,0,0,1,1.74.37,2.5,2.5,0,0,1,1.07,1.09,3.8,3.8,0,0,1,.37,1.74A3.18,3.18,0,0,1,269,330a2,2,0,0,1-1.16.9,2,2,0,0,1,.84.52,2.51,2.51,0,0,1,.56,1,4.33,4.33,0,0,1,.21,1.44,5.64,5.64,0,0,1-.31,1.92,2.59,2.59,0,0,1-1,1.3A3.27,3.27,0,0,1,266.32,337.46Z" style="fill:#263238"></path><path d="M152.79,358.82v-3h-3.63v-1.77l3.16-7.4h2.42v7.52H156v1.65h-1.24v3Zm-1.89-4.63h1.89v-5.28Z" style="fill:#263238"></path><path d="M211,359a3.33,3.33,0,0,1-1.88-.45,2.26,2.26,0,0,1-.92-1.27,6.28,6.28,0,0,1-.26-1.94h2a6,6,0,0,0,.08,1.09,1.31,1.31,0,0,0,.33.73.87.87,0,0,0,.72.25.82.82,0,0,0,.75-.34,2.19,2.19,0,0,0,.27-.94c0-.41.06-.88.06-1.42a7.46,7.46,0,0,0-.08-1.23,1.66,1.66,0,0,0-.32-.82.93.93,0,0,0-.75-.29,1,1,0,0,0-.72.29,1.83,1.83,0,0,0-.42.78h-1.79l.12-6.77h5.46v1.86h-3.71l-.12,2.93a1.46,1.46,0,0,1,.65-.44,3.08,3.08,0,0,1,1-.19,2.34,2.34,0,0,1,1.56.4,2.61,2.61,0,0,1,.88,1.31,6.47,6.47,0,0,1,.29,2,10.82,10.82,0,0,1-.13,1.77,3.92,3.92,0,0,1-.47,1.4,2.39,2.39,0,0,1-1,.92A3.41,3.41,0,0,1,211,359Z" style="fill:#263238"></path><path d="M266.39,359a3,3,0,0,1-1.83-.53,3,3,0,0,1-1-1.43,6.18,6.18,0,0,1-.32-2v-4.26a7.83,7.83,0,0,1,.27-2.14,2.87,2.87,0,0,1,1-1.51,3,3,0,0,1,1.93-.55,3.69,3.69,0,0,1,1.74.35,2.18,2.18,0,0,1,1,1,3.91,3.91,0,0,1,.31,1.66s0,.06,0,.1a.34.34,0,0,1,0,.1h-2a3,3,0,0,0-.19-1.22.83.83,0,0,0-.84-.4.85.85,0,0,0-.63.24,1.49,1.49,0,0,0-.35.78,7.22,7.22,0,0,0-.12,1.47v1.45a1.52,1.52,0,0,1,.64-.55,2.83,2.83,0,0,1,2.56.24,2.49,2.49,0,0,1,.82,1.24,6.32,6.32,0,0,1,.24,1.82,7,7,0,0,1-.3,2.12,3,3,0,0,1-1,1.48A3,3,0,0,1,266.39,359Zm0-1.61a.81.81,0,0,0,.66-.27,1.62,1.62,0,0,0,.32-.75,6.12,6.12,0,0,0,.09-1.12c0-.44,0-.84-.05-1.18a1.73,1.73,0,0,0-.28-.83.88.88,0,0,0-.75-.3,1.19,1.19,0,0,0-.47.09,1.47,1.47,0,0,0-.38.25,1.66,1.66,0,0,0-.25.3v1.91a4.59,4.59,0,0,0,.1.94,1.49,1.49,0,0,0,.35.7A.87.87,0,0,0,266.4,357.38Z" style="fill:#263238"></path><path d="M150.54,380.36,153,369.8h-3.29v-1.59H155v1.27l-2.45,10.88Z" style="fill:#263238"></path><path d="M210.91,380.52a3.33,3.33,0,0,1-1.86-.46,2.52,2.52,0,0,1-1-1.3,5.67,5.67,0,0,1-.3-1.93,4.75,4.75,0,0,1,.09-1,3.23,3.23,0,0,1,.29-.81,2.43,2.43,0,0,1,.46-.63,2.28,2.28,0,0,1,.61-.46,3.06,3.06,0,0,1-.91-1,3.51,3.51,0,0,1-.38-1.66,4.24,4.24,0,0,1,.32-1.71,2.31,2.31,0,0,1,1-1.11,3.31,3.31,0,0,1,1.68-.39,3.26,3.26,0,0,1,1.68.39,2.36,2.36,0,0,1,1,1.11,3.93,3.93,0,0,1,.31,1.71,3.53,3.53,0,0,1-.37,1.67,2.86,2.86,0,0,1-.89,1,2.33,2.33,0,0,1,.62.46,2.4,2.4,0,0,1,.45.63,3.23,3.23,0,0,1,.29.81,4.72,4.72,0,0,1,.1,1,5.22,5.22,0,0,1-.3,1.93,2.57,2.57,0,0,1-1,1.3A3.34,3.34,0,0,1,210.91,380.52Zm0-1.57a.89.89,0,0,0,.74-.3,1.51,1.51,0,0,0,.33-.76,5.78,5.78,0,0,0,.07-.94,4.53,4.53,0,0,0-.07-1,1.76,1.76,0,0,0-.34-.77.9.9,0,0,0-.73-.3.86.86,0,0,0-.71.3,1.73,1.73,0,0,0-.35.76,5.21,5.21,0,0,0-.09,1,5,5,0,0,0,.08.95,1.52,1.52,0,0,0,.34.76A.93.93,0,0,0,210.91,379Zm0-5.81a.76.76,0,0,0,.59-.26,1.39,1.39,0,0,0,.31-.68,4.91,4.91,0,0,0,.09-1,2.47,2.47,0,0,0-.22-1.13.8.8,0,0,0-.77-.43.81.81,0,0,0-.77.43,2.17,2.17,0,0,0-.25,1.11,4.34,4.34,0,0,0,.1,1,1.39,1.39,0,0,0,.32.69A.8.8,0,0,0,210.91,373.14Z" style="fill:#263238"></path><path d="M210.91,401.63a3.17,3.17,0,0,1-1.76-.44,2.79,2.79,0,0,1-1.05-1.25,4.39,4.39,0,0,1-.35-1.83v-5.39a4.68,4.68,0,0,1,.34-1.86,2.6,2.6,0,0,1,1-1.25,3.79,3.79,0,0,1,3.58,0,2.67,2.67,0,0,1,1,1.25,4.86,4.86,0,0,1,.34,1.86v5.39a4.39,4.39,0,0,1-.36,1.83,2.79,2.79,0,0,1-1.05,1.25A3.17,3.17,0,0,1,210.91,401.63Zm0-1.78a.85.85,0,0,0,.69-.28,1.59,1.59,0,0,0,.3-.7,4.23,4.23,0,0,0,.08-.79v-5.33a5.93,5.93,0,0,0-.07-.83,1.58,1.58,0,0,0-.29-.7.85.85,0,0,0-.71-.28.83.83,0,0,0-.7.28,1.59,1.59,0,0,0-.3.7,5.9,5.9,0,0,0-.06.83v5.33a3.53,3.53,0,0,0,.08.79,1.6,1.6,0,0,0,.31.7A.82.82,0,0,0,210.91,399.85Z" style="fill:#263238"></path><path d="M266.18,380.52a3.67,3.67,0,0,1-1.73-.36,2.19,2.19,0,0,1-1-1.05,4,4,0,0,1-.31-1.68v-.16h2a2.88,2.88,0,0,0,.2,1.21.87.87,0,0,0,.86.41.82.82,0,0,0,.63-.24,1.62,1.62,0,0,0,.33-.8,8,8,0,0,0,.11-1.45v-1.46a1.4,1.4,0,0,1-.63.54,2.55,2.55,0,0,1-1,.21,2.35,2.35,0,0,1-1.55-.45,2.62,2.62,0,0,1-.82-1.29,6.09,6.09,0,0,1-.25-1.83,6.36,6.36,0,0,1,.31-2.1,2.9,2.9,0,0,1,1-1.43,3.09,3.09,0,0,1,1.85-.52,3,3,0,0,1,1.83.51,2.84,2.84,0,0,1,1,1.38,6,6,0,0,1,.32,2v4.3a7.57,7.57,0,0,1-.28,2.15,2.9,2.9,0,0,1-1,1.52A2.93,2.93,0,0,1,266.18,380.52Zm0-6.4a1,1,0,0,0,.67-.21,1.85,1.85,0,0,0,.4-.45v-1.89a4.58,4.58,0,0,0-.09-.95,1.48,1.48,0,0,0-.32-.69.85.85,0,0,0-.67-.27.8.8,0,0,0-.65.27,1.53,1.53,0,0,0-.33.75,6.23,6.23,0,0,0-.09,1.13,10.37,10.37,0,0,0,.06,1.17,1.6,1.6,0,0,0,.27.83A.86.86,0,0,0,266.19,374.12Z" style="fill:#263238"></path><path d="M197.21,281.44V269.29h5.1v1.56h-2.88v3.49h2.27v1.55h-2.27v4h2.91v1.53Z" style="fill:#407BFF"></path><path d="M203.63,281.44V269.29h1.55l2.95,6.93v-6.93H210v12.15h-1.47l-3-7.26v7.26Z" style="fill:#407BFF"></path><path d="M213,281.44V270.92h-1.93v-1.63h6.06v1.63h-1.91v10.52Z" style="fill:#407BFF"></path><path d="M218.26,281.44V269.29h5.1v1.56h-2.88v3.49h2.26v1.55h-2.26v4h2.91v1.53Z" style="fill:#407BFF"></path><path d="M224.68,281.44V269.29h2.91a6.33,6.33,0,0,1,2.08.29,2.4,2.4,0,0,1,1.29,1,3.64,3.64,0,0,1,.44,1.92,5.87,5.87,0,0,1-.14,1.32,2.51,2.51,0,0,1-.45,1,2.08,2.08,0,0,1-.9.64l1.7,6h-2.22l-1.47-5.57h-1v5.57Zm2.22-7h.69a2.46,2.46,0,0,0,1-.19,1.14,1.14,0,0,0,.54-.6,2.9,2.9,0,0,0,.17-1.06,2.25,2.25,0,0,0-.34-1.37,1.48,1.48,0,0,0-1.28-.46h-.81Z" style="fill:#407BFF"></path><path d="M167.24,106.28l-2.12-10.53h1.7l1.39,7.45,1.3-7.45h1.74l-2.12,10.53Z" style="fill:#263238"></path><path d="M172.33,106.28V95.75h4.42V97.1h-2.49v3h2v1.34h-2V105h2.52v1.32Z" style="fill:#263238"></path><path d="M177.89,106.28V95.75h2.53a5.52,5.52,0,0,1,1.8.26,2.07,2.07,0,0,1,1.12.86,3.16,3.16,0,0,1,.38,1.66,5,5,0,0,1-.12,1.15,2.2,2.2,0,0,1-.39.86,1.83,1.83,0,0,1-.78.56l1.47,5.18H182l-1.28-4.82h-.88v4.82Zm1.93-6h.6a2,2,0,0,0,.89-.16.93.93,0,0,0,.47-.52,2.44,2.44,0,0,0,.14-.92,2,2,0,0,0-.29-1.19,1.3,1.3,0,0,0-1.11-.39h-.7Z" style="fill:#263238"></path><path d="M185.21,106.28V95.75h1.9v10.53Z" style="fill:#263238"></path><path d="M188.74,106.28V95.75h4.33v1.33h-2.41v3.07h2v1.34h-2v4.79Z" style="fill:#263238"></path><path d="M194.12,106.28V95.75H196v10.53Z" style="fill:#263238"></path><path d="M200.48,106.43a3.18,3.18,0,0,1-1.82-.46,2.33,2.33,0,0,1-.91-1.24,5.57,5.57,0,0,1-.26-1.81V99.16a5.83,5.83,0,0,1,.26-1.87,2.18,2.18,0,0,1,.91-1.22,3.27,3.27,0,0,1,1.82-.43,3.34,3.34,0,0,1,1.71.37,2,2,0,0,1,.87,1.06,4.35,4.35,0,0,1,.26,1.59v.89h-1.84v-.91a6.64,6.64,0,0,0,0-.81,1,1,0,0,0-.25-.58.92.92,0,0,0-.69-.21,1,1,0,0,0-.72.23,1.14,1.14,0,0,0-.3.61,5.52,5.52,0,0,0-.06.86v4.58a4.1,4.1,0,0,0,.09.94,1,1,0,0,0,.33.56,1,1,0,0,0,.66.19.87.87,0,0,0,.68-.23,1,1,0,0,0,.25-.6,5.48,5.48,0,0,0,.06-.85v-1h1.84v.85a5.32,5.32,0,0,1-.24,1.66,2.23,2.23,0,0,1-.87,1.13A3.14,3.14,0,0,1,200.48,106.43Z" style="fill:#263238"></path><path d="M204.13,106.28l2.1-10.53h2.06l2.1,10.53h-1.78l-.41-2.43h-1.84l-.42,2.43Zm2.43-3.65H208l-.72-4.42Z" style="fill:#263238"></path><path d="M212,106.28V97.17h-1.68V95.75h5.25v1.42h-1.65v9.11Z" style="fill:#263238"></path><path d="M216.59,106.28V95.75h1.9v10.53Z" style="fill:#263238"></path><path d="M223,106.43a3.28,3.28,0,0,1-1.78-.42,2.33,2.33,0,0,1-.95-1.2A5.34,5.34,0,0,1,220,103V99a5.24,5.24,0,0,1,.29-1.83A2.27,2.27,0,0,1,221.2,96a3.38,3.38,0,0,1,1.78-.4,3.43,3.43,0,0,1,1.8.4,2.32,2.32,0,0,1,.95,1.16A5.24,5.24,0,0,1,226,99v4a5.32,5.32,0,0,1-.29,1.83,2.4,2.4,0,0,1-.95,1.19A3.33,3.33,0,0,1,223,106.43Zm0-1.42a1,1,0,0,0,.71-.21,1,1,0,0,0,.3-.57,3.91,3.91,0,0,0,.08-.79V98.59a3.87,3.87,0,0,0-.08-.8,1,1,0,0,0-.3-.55A1.07,1.07,0,0,0,223,97a1.05,1.05,0,0,0-.69.2,1,1,0,0,0-.31.55,3.29,3.29,0,0,0-.08.8v4.85a3.94,3.94,0,0,0,.07.79,1,1,0,0,0,.31.57A1,1,0,0,0,223,105Z" style="fill:#263238"></path><path d="M227.44,106.28V95.75h1.34l2.56,6v-6h1.58v10.53h-1.27L229.08,100v6.29Z" style="fill:#263238"></path><path d="M240.51,106.43a3.17,3.17,0,0,1-1.81-.46,2.33,2.33,0,0,1-.91-1.24,5.56,5.56,0,0,1-.27-1.81V99.16a5.81,5.81,0,0,1,.27-1.87,2.18,2.18,0,0,1,.91-1.22,3.25,3.25,0,0,1,1.81-.43,3.29,3.29,0,0,1,1.71.37,2,2,0,0,1,.88,1.06,4.35,4.35,0,0,1,.26,1.59v.89h-1.84v-.91a6.64,6.64,0,0,0-.05-.81,1,1,0,0,0-.25-.58.92.92,0,0,0-.69-.21,1,1,0,0,0-.72.23,1.07,1.07,0,0,0-.3.61,5.52,5.52,0,0,0-.06.86v4.58a4.1,4.1,0,0,0,.09.94,1,1,0,0,0,.33.56,1,1,0,0,0,.66.19.87.87,0,0,0,.68-.23,1.1,1.1,0,0,0,.25-.6,5.48,5.48,0,0,0,.06-.85v-1h1.84v.85a5,5,0,0,1-.25,1.66,2.16,2.16,0,0,1-.86,1.13A3.15,3.15,0,0,1,240.51,106.43Z" style="fill:#263238"></path><path d="M247.56,106.43a3.3,3.3,0,0,1-1.78-.42,2.33,2.33,0,0,1-.95-1.2,5.35,5.35,0,0,1-.28-1.84V99a5.26,5.26,0,0,1,.28-1.83,2.27,2.27,0,0,1,.95-1.16,4.21,4.21,0,0,1,3.58,0,2.27,2.27,0,0,1,.95,1.16A5,5,0,0,1,250.6,99v4a5.09,5.09,0,0,1-.29,1.83,2.34,2.34,0,0,1-.95,1.19A3.33,3.33,0,0,1,247.56,106.43Zm0-1.42a1,1,0,0,0,.71-.21,1.13,1.13,0,0,0,.31-.57,3.94,3.94,0,0,0,.07-.79V98.59a3.91,3.91,0,0,0-.07-.8,1.11,1.11,0,0,0-.31-.55,1.32,1.32,0,0,0-1.4,0,1,1,0,0,0-.31.55,3.87,3.87,0,0,0-.08.8v4.85a4.84,4.84,0,0,0,.07.79,1,1,0,0,0,.31.57A1,1,0,0,0,247.56,105Z" style="fill:#263238"></path><path d="M252,106.28V95.75h2.48a4.74,4.74,0,0,1,2,.35,2.12,2.12,0,0,1,1,1.08,4.9,4.9,0,0,1,.3,1.85v3.85a5.22,5.22,0,0,1-.3,1.9,2.1,2.1,0,0,1-1,1.13,4.19,4.19,0,0,1-1.94.37Zm1.92-1.34h.59a1.49,1.49,0,0,0,.95-.23,1,1,0,0,0,.35-.68,8.55,8.55,0,0,0,.06-1.1v-4a4.73,4.73,0,0,0-.09-1,.86.86,0,0,0-.37-.57,1.84,1.84,0,0,0-.93-.18h-.56Z" style="fill:#263238"></path><path d="M259.26,106.28V95.75h4.42V97.1h-2.5v3h2v1.34h-2V105h2.53v1.32Z" style="fill:#263238"></path></g></svg>