<svg width="35" height="35" viewBox="0 0 35 35" fill="none" xmlns="http://www.w3.org/2000/svg">
	<g clip-path="url(#clip0_24_177)">
		<path d="M0.675003 1.73203C0.675003 1.45169 0.786369 1.18283 0.9846 0.9846C1.18283 0.786369 1.45169 0.675003 1.73203 0.675003L8.07422 0.675003C8.35456 0.675003 8.62342 0.786369 8.82166 0.9846C9.01989 1.18283 9.13125 1.45169 9.13125 1.73203C9.13125 2.01238 9.01989 2.28124 8.82166 2.47947C8.62342 2.6777 8.35456 2.78907 8.07422 2.78907H2.78907V8.07422C2.78907 8.35456 2.6777 8.62342 2.47947 8.82166C2.28124 9.01989 2.01238 9.13125 1.73203 9.13125C1.45169 9.13125 1.18283 9.01989 0.9846 8.82166C0.786369 8.62342 0.675003 8.35456 0.675003 8.07422V1.73203ZM26.0438 1.73203C26.0438 1.45169 26.1551 1.18283 26.3534 0.9846C26.5516 0.786369 26.8204 0.675003 27.1008 0.675003L33.443 0.675003C33.7233 0.675003 33.9922 0.786369 34.1904 0.9846C34.3886 1.18283 34.5 1.45169 34.5 1.73203V8.07422C34.5 8.35456 34.3886 8.62342 34.1904 8.82166C33.9922 9.01989 33.7233 9.13125 33.443 9.13125C33.1626 9.13125 32.8938 9.01989 32.6955 8.82166C32.4973 8.62342 32.3859 8.35456 32.3859 8.07422V2.78907H27.1008C26.8204 2.78907 26.5516 2.6777 26.3534 2.47947C26.1551 2.28124 26.0438 2.01238 26.0438 1.73203V1.73203ZM1.73203 26.0438C2.01238 26.0438 2.28124 26.1551 2.47947 26.3534C2.6777 26.5516 2.78907 26.8204 2.78907 27.1008V32.3859H8.07422C8.35456 32.3859 8.62342 32.4973 8.82166 32.6955C9.01989 32.8938 9.13125 33.1626 9.13125 33.443C9.13125 33.7233 9.01989 33.9922 8.82166 34.1904C8.62342 34.3886 8.35456 34.5 8.07422 34.5H1.73203C1.45169 34.5 1.18283 34.3886 0.9846 34.1904C0.786369 33.9922 0.675003 33.7233 0.675003 33.443V27.1008C0.675003 26.8204 0.786369 26.5516 0.9846 26.3534C1.18283 26.1551 1.45169 26.0438 1.73203 26.0438V26.0438ZM33.443 26.0438C33.7233 26.0438 33.9922 26.1551 34.1904 26.3534C34.3886 26.5516 34.5 26.8204 34.5 27.1008V33.443C34.5 33.7233 34.3886 33.9922 34.1904 34.1904C33.9922 34.3886 33.7233 34.5 33.443 34.5H27.1008C26.8204 34.5 26.5516 34.3886 26.3534 34.1904C26.1551 33.9922 26.0438 33.7233 26.0438 33.443C26.0438 33.1626 26.1551 32.8938 26.3534 32.6955C26.5516 32.4973 26.8204 32.3859 27.1008 32.3859H32.3859V27.1008C32.3859 26.8204 32.4973 26.5516 32.6955 26.3534C32.8938 26.1551 33.1626 26.0438 33.443 26.0438ZM9.13125 9.13125H11.2453V11.2453H9.13125V9.13125Z" fill="#F8F8F8" />
		<path d="M15.4734 4.90313H4.90312V15.4734H15.4734V4.90313ZM7.01718 7.01719H13.3594V13.3594H7.01718V7.01719ZM11.2453 23.9297H9.13125V26.0438H11.2453V23.9297Z" fill="#F8F8F8" />
		<path d="M15.4734 19.7016H4.90312V30.2719H15.4734V19.7016ZM7.01718 21.8156H13.3594V28.1578H7.01718V21.8156ZM23.9297 9.13126H26.0437V11.2453H23.9297V9.13126Z" fill="#F8F8F8" />
		<path d="M19.7016 4.90313H30.2719V15.4734H19.7016V4.90313ZM21.8156 7.01719V13.3594H28.1578V7.01719H21.8156ZM17.5875 17.5875V21.8156H19.7016V23.9297H17.5875V26.0438H21.8156V21.8156H23.9297V26.0438H26.0438V23.9297H30.2719V21.8156H23.9297V17.5875H17.5875ZM21.8156 21.8156H19.7016V19.7016H21.8156V21.8156ZM30.2719 26.0438H28.1578V28.1578H23.9297V30.2719H30.2719V26.0438ZM21.8156 30.2719V28.1578H17.5875V30.2719H21.8156Z" fill="#F8F8F8" />
		<path d="M26.0438 19.7016H30.2719V17.5875H26.0438V19.7016Z" fill="#F8F8F8" />
	</g>
	<defs>
		<clipPath id="clip0_24_177">
			<rect width="33.825" height="33.825" fill="white" transform="translate(0.675003 0.675003)" />
		</clipPath>
	</defs>
</svg>
