<svg width="405" height="439" viewBox="0 0 405 439" fill="none" xmlns="http://www.w3.org/2000/svg">
<g clip-path="url(#clip0_101_277)">
<path d="M366.22 59.7L364.06 56.14C345.84 26.14 312.89 8.01001 278.16 10.21C273.692 10.4816 269.25 11.0799 264.87 12C233.29 18.76 205.81 42.65 194.42 73.23C187.72 91.23 185.85 111.93 173.14 126.23C156.6 144.81 128.51 145.4 103.82 144.63C79.13 143.86 51.02 144.51 34.56 163.17C24.25 174.85 21 191.47 21.8 207.11C24 248.53 52.87 285.57 89.57 304C126.27 322.43 169.5 324.06 209.67 316C265.95 304.66 319.48 273.5 351.67 225.38C383.86 177.26 392 111.64 366.22 59.7Z" fill="#F5F5F5"/>
<path d="M118.88 99.66C136.062 99.66 149.99 85.7316 149.99 68.55C149.99 51.3684 136.062 37.44 118.88 37.44C101.698 37.44 87.77 51.3684 87.77 68.55C87.77 85.7316 101.698 99.66 118.88 99.66Z" fill="#F5F5F5"/>
<path d="M22.9199 344.92H11.3099V437.09H22.9199V344.92Z" fill="#455A64"/>
<path d="M22.9299 437.08C22.9299 437.08 22.9299 436.92 22.9299 436.6V435.22C22.9299 433.99 22.9299 432.22 22.9299 429.92C22.9299 425.31 22.9299 418.65 22.8499 410.38C22.8499 393.83 22.7799 370.83 22.7399 344.92L22.9999 345.18H11.3099L11.5699 344.92C11.5099 385.29 11.4599 420.25 11.4299 437.08L11.3099 436.97L19.9199 437.03H22.1599H22.9299C22.9299 437.03 22.6899 437.03 22.1999 437.03H19.9899L11.3099 437.09H11.1999V436.97C11.1999 420.14 11.1199 385.18 11.0499 344.81L11.3099 344.55H23.1899V344.81C23.1899 370.81 23.0999 393.86 23.0799 410.46C23.0799 418.7 23.0199 425.34 22.9999 429.94C22.9999 432.2 22.9999 433.94 22.9999 435.18V436.53C22.9399 436.94 22.9299 437.08 22.9299 437.08Z" fill="#263238"/>
<g opacity="0.3">
<path opacity="0.3" d="M22.9199 347.16H11.3099V351H22.9199V347.16Z" fill="black"/>
</g>
<path d="M269.93 344.92H258.32V437.09H269.93V344.92Z" fill="#455A64"/>
<path d="M269.93 437.08C269.93 437.08 269.93 436.92 269.93 436.6V435.22C269.93 433.99 269.93 432.22 269.93 429.92C269.93 425.31 269.93 418.65 269.85 410.38C269.85 393.83 269.79 370.83 269.74 344.92L270 345.18H258.32L258.58 344.92C258.51 385.29 258.46 420.25 258.43 437.08L258.32 436.97L266.93 437.03H269.16H269.93C269.93 437.03 269.69 437.03 269.2 437.03H267L258.32 437.09H258.2V436.97C258.2 420.14 258.12 385.18 258.06 344.81L258.32 344.55H270.19V344.81C270.19 370.81 270.11 393.86 270.08 410.46C270.08 418.7 270.02 425.34 270 429.94C270 432.2 270 433.94 270 435.18V436.53C269.94 436.94 269.93 437.08 269.93 437.08Z" fill="#263238"/>
<path d="M251.73 264.18H240.12V341.01H251.73V264.18Z" fill="#455A64"/>
<path d="M251.74 341C251.725 340.864 251.725 340.726 251.74 340.59V339.44C251.74 338.44 251.74 336.93 251.74 335.04C251.74 331.19 251.69 325.66 251.66 318.77C251.66 304.99 251.59 285.83 251.55 264.17L251.81 264.43H240.13C240.64 263.91 240.27 264.3 240.38 264.19V276.38C240.38 280.38 240.38 284.27 240.38 288.07C240.38 295.67 240.38 302.85 240.38 309.46C240.33 322.66 240.3 333.57 240.28 341L240.15 340.87L248.74 340.94H250.99H251.77H251.03H248.82L240.15 341.01H240V341C240 333.57 239.95 322.66 239.91 309.46C239.91 302.85 239.91 295.67 239.91 288.07C239.91 284.27 239.91 280.373 239.91 276.38V264.2C240.03 264.08 239.65 264.44 240.18 263.92H252V264.18C252 285.91 251.92 305.18 251.89 318.97C251.89 325.83 251.83 331.34 251.82 335.17C251.82 337.04 251.82 338.5 251.82 339.52C251.82 339.99 251.82 340.37 251.82 340.64C251.82 340.91 251.74 341 251.74 341Z" fill="#263238"/>
<path d="M45.1499 264.18H33.5399V341.01H45.1499V264.18Z" fill="#455A64"/>
<path d="M45.1599 341C45.1518 340.863 45.1518 340.727 45.1599 340.59C45.1599 340.31 45.1599 339.93 45.1599 339.44C45.1599 338.44 45.1599 336.93 45.1599 335.04C45.1599 331.19 45.1599 325.66 45.0799 318.77C45.0799 304.99 45.0099 285.83 44.9699 264.17L45.2299 264.43H33.5499C34.0599 263.91 33.6899 264.3 33.7999 264.19V276.38C33.7999 280.38 33.7999 284.277 33.7999 288.07C33.7999 295.67 33.7999 302.85 33.7999 309.46C33.7999 322.66 33.7199 333.57 33.6999 341L33.5699 340.87L42.1599 340.94H44.4099H45.1899H44.4499H42.2399L33.5699 341.01H33.4499V341C33.4499 333.57 33.3899 322.66 33.3499 309.46C33.3499 302.85 33.3499 295.67 33.3499 288.07C33.3499 284.27 33.3499 280.373 33.3499 276.38V264.2C33.4699 264.08 33.0899 264.44 33.6199 263.92H45.4199V264.18C45.4199 285.91 45.3299 305.18 45.2999 318.97C45.2999 325.83 45.2999 331.34 45.2299 335.17C45.2299 337.04 45.2299 338.5 45.2299 339.52C45.2299 339.99 45.2299 340.37 45.2299 340.64C45.2299 340.91 45.1599 341 45.1599 341Z" fill="#263238"/>
<path d="M274.14 255.41H10.63V267.71H274.14V255.41Z" fill="#455A64"/>
<path d="M274.14 267.71C274.14 267.71 274.14 267.46 274.14 266.96C274.14 266.46 274.14 265.71 274.14 264.7C274.14 262.7 274.14 259.61 274.14 255.41L274.21 255.49L10.71 255.67L10.97 255.41V267.71L10.71 267.45L197.41 267.56L253.62 267.64H268.88H272.88H274.24H272.91H268.97H253.78L197.63 267.72L10.63 268H10.37V255.15H10.64L274.14 255.34H274.22V255.41C274.22 259.63 274.22 262.71 274.22 264.74C274.22 265.74 274.22 266.49 274.22 266.99C274.22 267.49 274.14 267.71 274.14 267.71Z" fill="#263238"/>
<path d="M274.82 273.86H11.3099V286.16H274.82V273.86Z" fill="#455A64"/>
<path d="M274.82 286.16C274.82 286.16 274.82 285.91 274.82 285.41C274.82 284.91 274.82 284.16 274.82 283.15C274.82 281.15 274.82 278.06 274.82 273.86L274.89 273.93L11.3999 274.12L11.6599 273.86V286.16L11.3999 285.9L198 286L254.21 286.07H269.47H273.47H274.83H273.51H269.57H254.37L198.22 286.15L11.3199 286.26H11.0599V273.6H11.3399L274.83 273.79H274.91V273.86C274.91 278.08 274.91 281.16 274.91 283.19C274.91 284.19 274.91 284.93 274.91 285.43C274.91 285.93 274.82 286.16 274.82 286.16Z" fill="#263238"/>
<path d="M274.82 292.99H11.3099V305.29H274.82V292.99Z" fill="#455A64"/>
<path d="M274.82 305.29C274.82 305.29 274.82 305.04 274.82 304.54C274.82 304.04 274.82 303.29 274.82 302.28C274.82 300.28 274.82 297.19 274.82 292.99L274.89 293.06L11.3999 293.25L11.6599 292.99V305.29L11.3999 305.03L198.11 305.14L254.32 305.22H269.58H273.58H274.94H273.62H269.68H254.48L198.33 305.3L11.4299 305.41H11.1699V292.73H11.4499L274.94 292.92H275.02V293C275.02 297.22 275.02 300.3 275.02 302.33C275.02 303.33 275.02 304.07 275.02 304.58C275.02 305.09 274.82 305.29 274.82 305.29Z" fill="#263238"/>
<path d="M274.82 312.12H11.3099V324.42H274.82V312.12Z" fill="#455A64"/>
<path d="M274.82 324.42C274.82 324.42 274.82 324.17 274.82 323.67C274.82 323.17 274.82 322.42 274.82 321.41C274.82 319.41 274.82 316.32 274.82 312.12L274.89 312.2L11.3999 312.38L11.6599 312.12V324.42L11.3999 324.16L198.11 324.27L254.32 324.35H269.58H273.58H274.94H273.62H269.68H254.48L198.33 324.43L11.4299 324.54H11.1699V311.86H11.4499L274.94 312.05H275.02V312.12C275.02 316.34 275.02 319.42 275.02 321.45C275.02 322.45 275.02 323.2 275.02 323.7C275.02 324.2 274.82 324.42 274.82 324.42Z" fill="#263238"/>
<path d="M279.62 334.86H-0.130005V347.16H279.62V334.86Z" fill="#455A64"/>
<path d="M279.62 347.16C279.62 347.16 279.62 346.91 279.62 346.41C279.62 345.91 279.62 345.16 279.62 344.15C279.62 342.15 279.62 339.06 279.62 334.86L279.7 334.93L-0.0400352 335.12L0.219967 334.86V347.16L-0.0400352 346.9L198.14 347L257.83 347.08H274.04H278.26C279.21 347.08 279.71 347.08 279.71 347.08H278.29H274H257.85L198.23 347.16L-0.150036 347.27H-0.410034V334.6H-0.140034L279.6 334.79H279.67V334.86C279.67 339.08 279.67 342.16 279.67 344.19C279.67 345.19 279.67 345.93 279.67 346.43C279.67 346.93 279.62 347.16 279.62 347.16Z" fill="#263238"/>
<g opacity="0.3">
<path opacity="0.3" d="M269.93 347.16H258.32V351H269.93V347.16Z" fill="black"/>
</g>
<path d="M128.31 193.32L125.8 209.51L119.34 224.25L109.77 218.14L106.36 209.54L103.51 202.32C103.51 202.32 93.3999 204.76 89.3699 195.32C87.4299 190.76 84.19 181.04 81.37 172.2C79.9056 167.612 80.2247 162.641 82.2636 158.277C84.3024 153.914 87.9111 150.48 92.3699 148.66L93.2799 148.28C103.41 144.79 112.03 151.44 115.23 161.65L128.37 193.34" fill="#A2675F"/>
<path d="M103.5 202.32C107.919 200.597 111.725 197.596 114.43 193.7C114.43 193.7 114.32 201.75 104.49 204.79L103.5 202.32Z" fill="#7A4A45"/>
<path d="M87.54 179.43C87.6807 179.786 87.9556 180.072 88.3053 180.227C88.655 180.383 89.0517 180.394 89.41 180.26C89.5882 180.203 89.753 180.11 89.8948 179.988C90.0365 179.865 90.1523 179.716 90.2353 179.548C90.3183 179.38 90.3668 179.197 90.3779 179.011C90.389 178.824 90.3625 178.636 90.3 178.46C90.1592 178.104 89.8844 177.818 89.5347 177.663C89.185 177.507 88.7883 177.496 88.43 177.63C88.2518 177.687 88.0869 177.78 87.9452 177.902C87.8034 178.025 87.6876 178.174 87.6046 178.342C87.5216 178.51 87.4732 178.693 87.4621 178.879C87.451 179.066 87.4775 179.254 87.54 179.43Z" fill="#263238"/>
<path d="M85 175.54C85.24 175.65 86 174.47 87.42 173.87C88.84 173.27 90.25 173.56 90.33 173.32C90.41 173.08 90.07 172.96 89.47 172.81C88.6467 172.617 87.784 172.683 87 173C86.2402 173.313 85.5994 173.859 85.17 174.56C84.87 175.11 84.85 175.5 85 175.54Z" fill="#263238"/>
<path d="M100.27 173.75C100.411 174.106 100.686 174.392 101.035 174.547C101.385 174.703 101.782 174.714 102.14 174.58C102.319 174.524 102.485 174.432 102.628 174.31C102.771 174.188 102.888 174.039 102.972 173.871C103.056 173.703 103.105 173.52 103.117 173.332C103.128 173.145 103.102 172.957 103.04 172.78C102.897 172.426 102.622 172.141 102.273 171.986C101.924 171.831 101.528 171.818 101.17 171.95C100.991 172.006 100.825 172.098 100.682 172.22C100.539 172.342 100.422 172.491 100.338 172.659C100.254 172.827 100.205 173.01 100.193 173.198C100.182 173.385 100.208 173.573 100.27 173.75V173.75Z" fill="#263238"/>
<path d="M99.3499 169.15C99.5799 169.28 100.42 168.15 101.93 167.74C103.44 167.33 104.78 167.74 104.93 167.51C105.08 167.28 104.72 167.13 104.13 166.91C103.335 166.664 102.485 166.664 101.69 166.91C100.898 167.138 100.198 167.61 99.6899 168.26C99.2999 168.71 99.2399 169.09 99.3499 169.15Z" fill="#263238"/>
<path d="M98.9299 183.36C98.0631 183.433 97.2094 183.618 96.39 183.91C96 184.02 95.62 184.09 95.45 183.91C95.2569 183.542 95.1835 183.122 95.24 182.71C95.24 181.663 95.2199 180.563 95.1799 179.41C95.0399 174.74 94.78 170.96 94.6 170.97C94.42 170.98 94.36 174.77 94.5 179.44C94.5 180.59 94.58 181.68 94.61 182.73C94.5648 183.275 94.7096 183.819 95.02 184.27C95.1272 184.382 95.2589 184.467 95.4046 184.519C95.5504 184.571 95.7063 184.588 95.86 184.57C96.0901 184.539 96.3153 184.479 96.53 184.39C97.369 184.146 98.1751 183.8 98.9299 183.36V183.36Z" fill="#263238"/>
<path d="M96.5499 162.93C96.8599 163.27 98.2399 162.48 100.04 161.93C101.84 161.38 103.42 161.33 103.5 160.93C103.5 160.72 103.13 160.44 102.42 160.29C101.481 160.125 100.516 160.176 99.5995 160.44C98.683 160.703 97.8384 161.172 97.1299 161.81C96.5999 162.32 96.4099 162.77 96.5499 162.93Z" fill="#263238"/>
<path d="M82.8799 169.8C83.2799 170.02 84.1399 169.27 85.3399 168.75C86.5399 168.23 87.6699 168.06 87.7599 167.61C87.7599 167.4 87.4999 167.14 86.9199 167.01C86.1657 166.863 85.3843 166.961 84.6899 167.29C83.982 167.593 83.3873 168.111 82.9899 168.77C82.6999 169.28 82.6999 169.68 82.8799 169.8Z" fill="#263238"/>
<path d="M117.29 169C117.43 168.87 123.03 164.39 125.49 171C127.95 177.61 120.84 178.7 120.76 178.51C120.68 178.32 117.29 169 117.29 169Z" fill="#A2675F"/>
<path d="M121.84 175.22C121.84 175.22 121.98 175.22 122.21 175.27C122.524 175.28 122.83 175.173 123.07 174.97C123.39 174.547 123.592 174.046 123.655 173.519C123.718 172.992 123.641 172.457 123.43 171.97C123.235 171.399 122.914 170.879 122.49 170.45C122.353 170.266 122.173 170.118 121.965 170.02C121.758 169.923 121.529 169.878 121.3 169.89C121.154 169.904 121.018 169.968 120.916 170.073C120.813 170.177 120.751 170.314 120.74 170.46C120.74 170.68 120.81 170.79 120.74 170.82C120.67 170.85 120.56 170.76 120.51 170.47C120.487 170.292 120.526 170.112 120.62 169.96C120.748 169.753 120.953 169.606 121.19 169.55C121.48 169.504 121.777 169.532 122.053 169.632C122.33 169.731 122.576 169.899 122.77 170.12C123.26 170.589 123.63 171.169 123.85 171.81C124.31 173.15 124.09 174.65 123.24 175.28C123.083 175.397 122.902 175.477 122.71 175.515C122.518 175.553 122.32 175.548 122.13 175.5C121.91 175.37 121.82 175.24 121.84 175.22Z" fill="#7A4A45"/>
<path d="M75.7499 161.53C75.5954 160.847 75.6459 160.133 75.8949 159.479C76.1439 158.824 76.5805 158.258 77.1499 157.85C76.6248 157.35 76.2855 156.687 76.1878 155.969C76.0901 155.251 76.2398 154.521 76.6124 153.899C76.9849 153.277 77.558 152.801 78.2374 152.549C78.9167 152.296 79.6618 152.283 80.3499 152.51C80.1705 152.02 80.1102 151.494 80.1741 150.976C80.2379 150.458 80.4241 149.963 80.7171 149.531C81.0102 149.099 81.4018 148.743 81.8596 148.493C82.3174 148.242 82.8282 148.104 83.3499 148.09C83.0777 147.525 83.0053 146.884 83.1446 146.272C83.2839 145.661 83.6267 145.115 84.1169 144.723C84.607 144.332 85.2156 144.118 85.8428 144.118C86.4701 144.117 87.079 144.329 87.5699 144.72C87.7148 144.018 88.0156 143.358 88.4501 142.788C88.8847 142.218 89.4419 141.753 90.0804 141.427C90.719 141.102 91.4226 140.924 92.1391 140.907C92.8556 140.89 93.5668 141.035 94.2199 141.33C95.3589 140.367 96.8118 139.855 98.303 139.892C99.7941 139.929 101.22 140.512 102.31 141.53C103.405 141.169 104.583 141.142 105.694 141.452C106.805 141.761 107.799 142.394 108.55 143.27C109.258 143.043 110.014 143.007 110.74 143.166C111.467 143.324 112.139 143.671 112.689 144.172C113.238 144.673 113.646 145.31 113.871 146.019C114.096 146.728 114.13 147.484 113.97 148.21C114.45 148.274 114.908 148.447 115.31 148.717C115.712 148.987 116.046 149.345 116.287 149.765C116.528 150.185 116.669 150.654 116.699 151.137C116.729 151.62 116.647 152.104 116.46 152.55C117.038 152.596 117.592 152.804 118.057 153.151C118.522 153.498 118.88 153.97 119.089 154.511C119.298 155.052 119.35 155.642 119.239 156.211C119.127 156.781 118.857 157.307 118.46 157.73C119.46 157.45 120.37 158.56 120.46 159.6C120.415 160.638 120.314 161.673 120.16 162.7C120.16 163.56 120.39 164.4 120.43 165.26C120.462 166.068 120.317 166.873 120.007 167.619C119.696 168.365 119.226 169.034 118.63 169.58L118.88 169.71C119.39 170.47 118.47 171.52 117.55 171.51C116.635 171.378 115.782 170.973 115.1 170.35C114.198 169.812 113.385 169.137 112.69 168.35C112.35 167.947 112.15 167.444 112.122 166.917C112.093 166.39 112.236 165.868 112.53 165.43C111.889 165.428 111.26 165.258 110.705 164.937C110.151 164.616 109.69 164.155 109.37 163.6C108.739 162.486 108.315 161.266 108.12 160L106.92 154.47C105.721 154.913 104.424 155.02 103.169 154.779C101.914 154.537 100.749 153.957 99.7999 153.1C99.4927 153.578 99.0871 153.986 98.6101 154.295C98.133 154.604 97.5956 154.808 97.0335 154.893C96.4714 154.979 95.8976 154.943 95.3504 154.789C94.8032 154.635 94.295 154.366 93.8599 154C93.9159 155.323 93.4667 156.619 92.6033 157.623C91.7398 158.628 90.5268 159.267 89.2099 159.41C90.0199 160.65 88.1199 162.89 86.9399 163.79C85.9694 164.351 84.8422 164.579 83.7299 164.44C83.7299 164.44 82.0099 166.72 80.5599 166.74C79.1099 166.76 76.8399 165.86 77.1199 164.25C76.4553 163.464 75.9858 162.532 75.7499 161.53V161.53Z" fill="#263238"/>
<path d="M116.8 152.39C116.784 152.778 116.681 153.157 116.5 153.5C116.393 153.674 116.246 153.82 116.073 153.928C115.899 154.035 115.703 154.101 115.5 154.12C115.251 154.149 114.999 154.111 114.77 154.009C114.541 153.907 114.344 153.745 114.2 153.54L113.96 153.18L113.77 153.57C113.604 153.869 113.363 154.119 113.069 154.295C112.776 154.47 112.442 154.565 112.1 154.57C111.714 154.552 111.343 154.418 111.035 154.184C110.728 153.949 110.5 153.627 110.38 153.26L110.27 152.86L109.98 153.15C109.806 153.321 109.6 153.456 109.373 153.547C109.146 153.638 108.904 153.683 108.66 153.68C108.266 153.678 107.884 153.548 107.57 153.31C107.03 152.9 106.91 152.47 106.85 152.49C106.79 152.51 106.85 152.99 107.38 153.49C107.724 153.815 108.169 154.012 108.64 154.05C108.945 154.071 109.252 154.029 109.541 153.927C109.829 153.826 110.095 153.667 110.32 153.46L109.91 153.35C110.032 153.807 110.292 154.215 110.655 154.519C111.017 154.822 111.464 155.007 111.935 155.047C112.406 155.088 112.878 154.982 113.287 154.745C113.696 154.507 114.022 154.149 114.22 153.72H113.79C113.989 153.992 114.26 154.204 114.573 154.331C114.885 154.458 115.227 154.496 115.56 154.44C115.813 154.393 116.052 154.288 116.259 154.134C116.465 153.979 116.633 153.78 116.75 153.55C117.13 152.86 116.83 152.35 116.8 152.39Z" fill="#455A64"/>
<path d="M120.34 158.21C120.29 158.21 120.19 158.49 119.76 158.77C119.478 158.965 119.143 159.069 118.8 159.069C118.457 159.069 118.122 158.965 117.84 158.77L117.62 158.59L117.52 158.86C117.395 159.161 117.196 159.424 116.94 159.626C116.684 159.827 116.381 159.959 116.06 160.01C115.688 160.05 115.313 159.976 114.984 159.797C114.655 159.619 114.389 159.344 114.22 159.01L114.02 158.59L113.76 158.97C113.693 159.068 113.612 159.156 113.52 159.23C113.312 159.402 113.056 159.504 112.787 159.524C112.519 159.544 112.251 159.479 112.02 159.34C111.816 159.2 111.654 159.006 111.552 158.781C111.45 158.555 111.411 158.306 111.44 158.06L111.51 157.56L111.08 157.82C110.586 158.113 109.998 158.203 109.44 158.07C108.995 157.971 108.594 157.728 108.3 157.38C108.051 157.05 107.843 156.69 107.68 156.31C107.656 156.535 107.68 156.762 107.749 156.977C107.817 157.192 107.93 157.391 108.08 157.56C108.384 157.989 108.825 158.303 109.33 158.45C109.661 158.55 110.009 158.582 110.352 158.544C110.696 158.506 111.029 158.399 111.33 158.23L111 158C110.949 158.338 110.995 158.683 111.131 158.995C111.267 159.308 111.489 159.577 111.77 159.77C112.088 159.978 112.464 160.079 112.843 160.06C113.222 160.04 113.585 159.9 113.88 159.66C114.012 159.548 114.13 159.421 114.23 159.28H113.77C113.958 159.688 114.264 160.03 114.648 160.262C115.032 160.494 115.477 160.607 115.926 160.584C116.374 160.561 116.806 160.405 117.165 160.135C117.524 159.866 117.794 159.495 117.94 159.07L117.62 159.16C117.814 159.301 118.034 159.401 118.268 159.455C118.502 159.508 118.744 159.513 118.98 159.47C119.349 159.429 119.697 159.279 119.98 159.04C120.34 158.57 120.37 158.21 120.34 158.21Z" fill="#455A64"/>
<path d="M84.15 147.55C84.2915 147.278 84.4812 147.034 84.71 146.83C84.8657 146.7 85.0466 146.604 85.2413 146.548C85.436 146.491 85.6402 146.476 85.8412 146.502C86.0421 146.528 86.2355 146.596 86.4091 146.701C86.5827 146.805 86.7328 146.945 86.85 147.11L87.09 147.44L87.15 147.03C87.2209 146.601 87.3993 146.198 87.6686 145.857C87.938 145.516 88.2894 145.248 88.69 145.08C89.1789 144.891 89.7153 144.862 90.2219 144.996C90.7286 145.131 91.1795 145.423 91.51 145.83L91.81 146.2L91.93 145.74C92.063 145.294 92.2936 144.883 92.6049 144.537C92.9162 144.192 93.3005 143.919 93.73 143.74C94.1942 143.556 94.6972 143.49 95.1931 143.55C95.689 143.609 96.1623 143.791 96.57 144.08C96.9081 144.316 97.1941 144.619 97.41 144.97L97.56 145.21L97.79 145.04C98.3367 144.65 98.9985 144.455 99.6693 144.486C100.34 144.517 100.981 144.772 101.49 145.21C101.916 145.617 102.217 146.137 102.356 146.71C102.496 147.282 102.47 147.882 102.28 148.44L102.14 148.81L102.52 148.72C103.366 148.541 104.249 148.699 104.98 149.16C105.542 149.519 105.979 150.043 106.23 150.66C106.432 151.208 106.537 151.786 106.54 152.37C106.54 152.37 106.62 152.22 106.64 151.91C106.68 151.456 106.618 150.998 106.46 150.57C106.224 149.882 105.772 149.289 105.17 148.88C104.774 148.608 104.328 148.416 103.858 148.317C103.388 148.217 102.902 148.212 102.43 148.3L102.68 148.59C102.963 147.9 103.012 147.136 102.818 146.416C102.624 145.695 102.199 145.059 101.608 144.604C101.016 144.149 100.292 143.902 99.5462 143.899C98.8003 143.896 98.0743 144.139 97.48 144.59L97.86 144.66C97.6006 144.26 97.2599 143.919 96.86 143.66C96.3811 143.319 95.8239 143.104 95.24 143.036C94.6561 142.968 94.0645 143.048 93.52 143.27C93.0195 143.482 92.5734 143.805 92.215 144.213C91.8566 144.622 91.5951 145.106 91.45 145.63L91.88 145.54C91.5262 145.1 91.0502 144.775 90.512 144.605C89.9737 144.436 89.3973 144.429 88.8552 144.586C88.3132 144.743 87.8298 145.057 87.4658 145.489C87.1019 145.92 86.8737 146.449 86.81 147.01L87.11 146.93C86.9387 146.713 86.7196 146.539 86.4698 146.421C86.2199 146.303 85.9462 146.245 85.67 146.25C85.2627 146.265 84.875 146.429 84.58 146.71C84.3991 146.878 84.2618 147.087 84.18 147.32C84.14 147.46 84.14 147.55 84.15 147.55Z" fill="#455A64"/>
<path d="M103.27 181.77C103.03 181.85 103.68 183.44 102.79 185.12C101.9 186.8 100.14 187.32 100.21 187.55C100.28 187.78 100.72 187.7 101.44 187.43C102.372 187.06 103.144 186.373 103.62 185.49C104.079 184.642 104.191 183.649 103.93 182.72C103.72 182 103.38 181.71 103.27 181.77Z" fill="#263238"/>
<path d="M93.53 210.57L85.61 232.88L87.44 257.28L92.44 299.43C92.44 299.43 111.01 293.16 111.85 293.79C112.69 294.42 103.63 251.06 103.63 251.06L110.18 215.78L109.76 205.39L93.53 210.57Z" fill="#4152F3"/>
<path d="M93.53 210.57L84.82 230.57L66.82 237.63L48 243.46L50.64 257C50.7705 257.657 51.0345 258.281 51.4157 258.832C51.7968 259.384 52.287 259.851 52.856 260.205C53.4249 260.559 54.0605 260.793 54.7234 260.892C55.3863 260.991 56.0624 260.953 56.71 260.78L72.64 256.5L87.48 255.82L95.2 237.88L93.53 210.57Z" fill="#4152F3"/>
<path d="M54.15 237.89L55.47 236.25C56.7689 236.239 58.0538 236.519 59.23 237.07C60.9536 238.487 62.2172 240.384 62.86 242.52C63.0046 244.057 63.0046 245.603 62.86 247.14L53.86 237.89" fill="#A2675F"/>
<path d="M36.6 228.17C36.6 228.44 53.6 246.45 53.6 246.45L56.8 249.61H67L47.2 227.61L38.66 226.15L36.6 228.17Z" fill="#263238"/>
<path d="M105.55 268.18C105.398 267.984 105.268 267.773 105.16 267.55L104.16 265.69C103.3 264.07 102.08 261.69 100.66 258.69C98.9709 255.223 97.4687 251.668 96.16 248.04C95.7861 246.983 95.4756 245.904 95.2299 244.81C95.1028 244.236 95.0127 243.655 94.96 243.07C94.96 242.49 94.96 241.9 94.96 241.31C94.96 238.94 94.96 236.49 95.08 233.98C95.2 230.8 95.36 227.73 95.55 224.81V224.66L95.69 224.6L100.96 222.28L101.02 222.74L97.02 222.21H96.6799L96.85 221.92C99.45 217.46 101.61 213.73 103.16 211.06L104.95 208.06L105.44 207.28C105.49 207.184 105.554 207.097 105.63 207.02C105.599 207.122 105.556 207.219 105.5 207.31L105.07 208.13L103.38 211.21L97.24 222.16L97.07 221.83L101.07 222.33L101.92 222.43L101.14 222.78L95.89 225.12L96.0399 224.9C95.8599 227.82 95.7 230.9 95.58 234.06C95.49 236.56 95.43 239 95.45 241.36C95.45 241.95 95.45 242.53 95.45 243.11C95.4933 243.669 95.5769 244.223 95.7 244.77C95.9363 245.846 96.2334 246.908 96.59 247.95C98 252.04 99.5899 255.61 100.98 258.6C102.37 261.59 103.51 263.97 104.32 265.6L105.24 267.5C105.36 267.719 105.463 267.946 105.55 268.18Z" fill="#263238"/>
<path d="M46.6299 237.89C46.6299 237.89 44.0499 239.75 44.1199 240.81C44.1206 241.277 44.2348 241.736 44.4525 242.149C44.6703 242.562 44.9851 242.916 45.3699 243.18C45.9699 243.38 47.7499 244.3 47.7499 244.3C47.7499 244.3 46.1599 245.82 46.6299 247.41C46.7167 247.835 46.8973 248.235 47.1586 248.581C47.4199 248.927 47.7551 249.21 48.1399 249.41C48.1765 250.516 48.3997 251.608 48.7999 252.64C49.4074 253.464 50.3039 254.029 51.3099 254.22C51.8709 255.359 52.5407 256.44 53.3099 257.45C54.0825 258.167 55.0433 258.649 56.0799 258.84C56.0799 258.84 58.4599 259.11 59.7099 258.25C60.5588 257.823 61.2663 257.16 61.7471 256.34C62.2278 255.52 62.4615 254.579 62.4199 253.63C62.4199 253.63 68.0999 250.79 68.1599 249.34C68.2199 247.89 67.5699 247.43 67.5699 247.43L64.7299 247.95C64.7299 247.95 64.3299 246.44 63.4799 246.3C62.6299 246.16 52.2599 248.68 52.2599 248.68C52.2599 248.68 59.3199 247.56 59.5199 246.17C59.7199 244.78 59.7799 243.6 58.7199 243.33C57.6599 243.06 50.1499 243.88 50.1499 243.88L49.7499 242.54C49.7499 242.54 51.7499 242.61 51.7499 240.83C51.7499 239.05 50.6299 238.65 50.6299 238.65L46.6299 237.89Z" fill="#A2675F"/>
<path d="M105.55 207L106.41 213.89L101.08 243.86L106.49 269.73L134.53 278.02L145.56 273.26L141.79 200.64L131.77 193.6L127.92 191.01L113.48 212.87L105.55 207Z" fill="#FAFAFA"/>
<path d="M131 193.05L138 196.17L162.82 199.51L176.21 269.93L177.89 278.02L203.56 316.43C203.838 316.847 204.028 317.317 204.117 317.81C204.206 318.303 204.192 318.81 204.077 319.298C203.962 319.786 203.747 320.245 203.446 320.646C203.146 321.047 202.766 321.382 202.33 321.63L181.33 333.63C180.55 334.03 179.65 334.128 178.801 333.907C177.953 333.686 177.216 333.16 176.73 332.43L150 292.18L136.76 275.23C136.76 275.23 128.83 251.23 127.76 241.02C126.927 232.069 126.927 223.061 127.76 214.11C128.38 208 131 193.05 131 193.05Z" fill="#4152F3"/>
<path d="M162.78 199.51C164.396 200.358 165.799 201.561 166.885 203.027C167.97 204.494 168.711 206.187 169.05 207.98C170.63 216.34 175.39 230.92 177.18 246.49C179.68 268.27 173.82 274.99 171.06 278.75C168.3 282.51 151.18 290.49 151.18 290.49L138.31 273.35L152.56 261.67L151.31 231.42C151.31 231.42 146.31 224.54 148.81 214.32C151.31 204.1 158.61 198.89 162.81 199.51H162.78Z" fill="#4152F3"/>
<g opacity="0.3">
<path opacity="0.3" d="M176.06 269.36C174.11 274.64 171.88 279.1 167.34 281.61C162.5 284.29 155.77 288.07 151.18 290.49L154.54 295.71C159.81 294.9 169.54 288.76 172.7 284.47C175.758 280.069 176.965 274.642 176.06 269.36Z" fill="black"/>
</g>
<path d="M151 233C151.043 233.147 151.073 233.298 151.09 233.45C151.15 233.78 151.22 234.22 151.32 234.78C151.5 235.99 151.77 237.71 152.11 239.92C152.79 244.42 153.76 250.92 154.95 258.92V259.02L154.87 259.09L138.48 273.53V273.22L151.36 290.35L151.04 290.28C155.32 288.12 159.75 285.78 164.13 283.19C165.38 282.44 166.61 281.69 167.8 280.88C168.982 280.119 170.09 279.248 171.11 278.28C172.846 276.126 174.221 273.705 175.18 271.11C176.946 266.153 177.764 260.909 177.59 255.65C177.47 250.88 177.013 246.125 176.22 241.42C175.53 236.99 174.73 232.89 173.94 229.16C172.37 221.69 170.85 215.7 169.79 211.57C169.25 209.57 168.79 207.93 168.54 206.82C168.4 206.29 168.29 205.88 168.22 205.58C168.17 205.441 168.136 205.297 168.12 205.15C168.12 205.15 168.18 205.29 168.27 205.56C168.36 205.83 168.48 206.27 168.64 206.79C168.96 207.86 169.42 209.46 169.99 211.52C171.11 215.64 172.68 221.62 174.3 229.08C175.12 232.81 175.94 236.92 176.65 241.36C177.463 246.08 177.934 250.852 178.06 255.64C178.253 260.965 177.439 266.278 175.66 271.3C174.677 273.954 173.269 276.429 171.49 278.63C170.448 279.633 169.309 280.531 168.09 281.31C166.89 282.12 165.65 282.88 164.4 283.63C159.99 286.24 155.57 288.58 151.27 290.73L151.08 290.83L150.95 290.66L138.1 273.5L137.97 273.32L138.13 273.18L154.58 258.8L154.52 258.97C153.39 250.97 152.52 244.49 151.85 239.97C151.55 237.76 151.31 235.97 151.15 234.82C151.08 234.25 151.02 233.82 150.98 233.48C150.977 233.32 150.983 233.159 151 233Z" fill="#263238"/>
<path d="M132.83 258.87C132.823 258.635 132.843 258.4 132.89 258.17C132.95 257.67 133.04 257.01 133.14 256.17C133.4 254.39 133.75 251.92 134.19 248.9C135.06 242.76 136.43 234.3 137.76 224.9C138.38 220.36 138.97 216.04 139.5 212.1L139.66 212.35L135.42 210.73L135 210.57L135.37 210.33L139.63 207.57L139.55 207.76C139.04 204.23 138.63 201.34 138.33 199.26C138.21 198.26 138.1 197.53 138.03 196.94C137.977 196.67 137.954 196.395 137.96 196.12C138.043 196.381 138.103 196.649 138.14 196.92C138.24 197.51 138.38 198.27 138.55 199.23C138.89 201.3 139.36 204.18 139.93 207.7V207.83L139.83 207.9L135.6 210.7L135.55 210.31L139.81 211.9L139.99 211.97V212.16C139.47 216.1 138.89 220.43 138.28 224.97C136.96 234.34 135.53 242.8 134.56 248.97C134.06 251.97 133.65 254.45 133.35 256.22L133 258.22C132.964 258.442 132.907 258.659 132.83 258.87V258.87Z" fill="#263238"/>
<path d="M159 200.46C159.06 200.54 157.79 201.46 156.08 203.19C155.087 204.232 154.184 205.356 153.38 206.55C151.39 209.479 150.028 212.789 149.38 216.27C149.119 217.686 148.978 219.121 148.96 220.56C148.96 223.03 149.23 224.56 149.13 224.56C148.995 224.22 148.908 223.864 148.87 223.5C148.785 223.087 148.724 222.67 148.69 222.25C148.628 221.689 148.594 221.125 148.59 220.56C148.552 219.093 148.656 217.627 148.9 216.18C149.222 214.412 149.718 212.681 150.38 211.01C151.077 209.352 151.938 207.767 152.95 206.28C153.788 205.075 154.739 203.954 155.79 202.93C156.187 202.536 156.605 202.162 157.04 201.81C157.358 201.531 157.692 201.271 158.04 201.03C158.333 200.799 158.656 200.607 159 200.46V200.46Z" fill="#263238"/>
<path d="M87.33 255.84C87.19 255.84 86.73 251 86.33 245C85.93 239 85.68 234.14 85.83 234.12C85.98 234.1 86.43 238.97 86.83 244.96C87.23 250.95 87.47 255.83 87.33 255.84Z" fill="#263238"/>
<path d="M171.87 299.99L175.72 307.85L193.55 296.44L187.38 289.45L171.87 299.99Z" fill="#4152F3"/>
<path d="M171.87 300C172.208 299.706 172.565 299.435 172.94 299.19L176.08 296.98L187.24 289.26L187.42 289.14L187.56 289.3L193.75 296.3L193.95 296.53L193.69 296.69L192.91 297.19L175.82 308L175.64 308.11L175.56 307.92L172.8 302.08C172.51 301.44 172.27 300.92 172.09 300.51C172.001 300.34 171.927 300.163 171.87 299.98C171.995 300.152 172.102 300.336 172.19 300.53C172.4 300.94 172.67 301.46 173.01 302.09L175.89 307.76L175.62 307.69L192.62 296.69L193.4 296.19V296.58C191.22 294.11 189.14 291.75 187.24 289.58H187.56L176.39 297.03L173.13 299.16L172.24 299.73L171.87 300Z" fill="#263238"/>
<g opacity="0.3">
<path opacity="0.3" d="M172 300.34C172.08 300.49 176 312.41 176 312.41L192.63 300.61L191.2 298L175.72 307.9L172 300.34Z" fill="black"/>
</g>
<g opacity="0.3">
<path opacity="0.3" d="M138.46 199.46L141.46 209.21L138.46 210.57L142.41 212.51C142.41 212.51 136.19 246.51 135.41 249.61C134.63 252.71 133.67 253.71 133.67 253.71L139.74 212.18L135.5 210.57L139.74 207.78L138.46 199.46Z" fill="black"/>
</g>
<path d="M72.67 252.59C72.5913 250.251 72.2115 247.932 71.54 245.69C70.7037 243.509 69.5949 241.443 68.24 239.54C68.8094 239.95 69.2977 240.462 69.68 241.05C71.7155 243.789 72.8385 247.098 72.89 250.51C72.9422 251.211 72.8677 251.916 72.67 252.59V252.59Z" fill="#263238"/>
<g opacity="0.3">
<path opacity="0.3" d="M85.68 233.16C82.68 240.56 83.79 248.67 87.26 255.84C86.72 247.59 86.4 241.16 85.68 233.16Z" fill="black"/>
</g>
<path d="M128.83 199.21C128.695 199.562 128.52 199.897 128.31 200.21L126.76 202.8C125.46 205 123.76 208.06 122.03 211.55C120.87 213.9 119.88 216.15 119.03 218.05L118.92 218.33L118.69 218.15C117.368 217.095 116.125 215.945 114.97 214.71C114.507 214.266 114.097 213.769 113.75 213.23C114.25 213.63 114.721 214.064 115.16 214.53C116.37 215.681 117.638 216.769 118.96 217.79L118.62 217.88C119.39 215.95 120.36 213.69 121.52 211.32C122.985 208.329 124.614 205.421 126.4 202.61C127.09 201.53 127.68 200.68 128.1 200.1C128.306 199.775 128.551 199.476 128.83 199.21V199.21Z" fill="#263238"/>
<path d="M112.41 213C112.017 214.746 111.457 216.45 110.74 218.09L110.61 218.44L110.33 218.2L110.2 218.08C108.745 216.923 107.495 215.53 106.5 213.96C106.61 213.86 108.26 215.7 110.5 217.69L110.63 217.8L110.22 217.91C110.791 216.207 111.525 214.563 112.41 213V213Z" fill="#263238"/>
<path d="M115.35 264.17C115.294 264.016 115.267 263.854 115.27 263.69C115.27 263.3 115.19 262.84 115.14 262.28C115.06 260.97 114.94 259.22 114.8 257.09C114.53 252.71 114.22 246.66 113.95 239.97C113.68 233.28 113.54 227.22 113.54 222.83C113.54 220.63 113.54 218.83 113.61 217.63C113.61 217.07 113.61 216.63 113.68 216.22C113.68 216.055 113.7 215.89 113.74 215.73C113.767 215.892 113.767 216.058 113.74 216.22C113.74 216.6 113.74 217.07 113.74 217.63C113.74 218.94 113.8 220.69 113.84 222.82C113.93 227.21 114.14 233.26 114.4 239.95C114.66 246.64 114.91 252.62 115.09 257.07C115.17 259.21 115.23 260.96 115.28 262.27C115.28 262.83 115.28 263.27 115.28 263.68C115.318 263.841 115.342 264.005 115.35 264.17Z" fill="#263238"/>
<path d="M56.8 399.22L59.39 423.63C59.39 423.63 35.39 434.47 35.48 439.02L83 435.71L80.53 397.49L56.8 399.22Z" fill="#4152F3"/>
<path d="M73.94 420.55C74.4014 420.667 74.806 420.945 75.0809 421.333C75.3559 421.722 75.4832 422.196 75.44 422.67C75.3497 423.14 75.0827 423.557 74.6939 423.836C74.3051 424.116 73.8242 424.235 73.35 424.17C72.8508 424.066 72.4102 423.775 72.1184 423.357C71.8265 422.938 71.7055 422.425 71.78 421.92C71.9221 421.439 72.2459 421.032 72.6826 420.786C73.1194 420.54 73.6349 420.473 74.12 420.6" fill="#E0E0E0"/>
<path d="M83.11 436.7L82.87 433L37.19 436.48C37.19 436.48 35.13 437.55 35.48 439.02L83.11 436.7Z" fill="#E0E0E0"/>
<path d="M58.5999 423.45C58.5999 423.68 59.7899 423.7 60.9899 424.37C62.1899 425.04 62.8599 425.97 63.0599 425.86C63.2599 425.75 62.8299 424.44 61.3699 423.66C59.9099 422.88 58.5399 423.24 58.5999 423.45Z" fill="#263238"/>
<path d="M53.7599 425.86C53.7599 426.08 54.7599 426.41 55.6099 427.34C56.4599 428.27 56.7699 429.28 56.9999 429.26C57.2299 429.24 57.2899 427.91 56.1999 426.78C55.1099 425.65 53.7499 425.63 53.7599 425.86Z" fill="#263238"/>
<path d="M51.35 432C51.56 432 51.8 430.85 51.12 429.62C50.44 428.39 49.31 427.96 49.23 428.16C49.15 428.36 49.86 429 50.41 430.01C50.96 431.02 51.11 432 51.35 432Z" fill="#263238"/>
<path d="M58.63 417.82C58.74 418.02 59.78 417.63 61.1 417.62C62.42 417.61 63.47 417.96 63.58 417.76C63.69 417.56 62.64 416.76 61.09 416.81C59.54 416.86 58.5 417.64 58.63 417.82Z" fill="#263238"/>
<path d="M48.34 300.69L26.34 311.57C26.34 311.57 7.88 292.85 3.62 294.47L23.18 337.9L58.18 322.35L48.34 300.69Z" fill="#4152F3"/>
<path d="M34.26 324.15C34.3227 324.625 34.2072 325.107 33.9357 325.502C33.6643 325.897 33.2562 326.178 32.79 326.29C32.3179 326.37 31.8329 326.266 31.4361 325.997C31.0394 325.729 30.7614 325.318 30.66 324.85C30.5855 324.345 30.7065 323.832 30.9984 323.413C31.2902 322.995 31.7308 322.704 32.23 322.6C32.7219 322.582 33.2022 322.752 33.5736 323.075C33.9449 323.398 34.1796 323.85 34.23 324.34" fill="#E0E0E0"/>
<path d="M22.28 338.35L25.67 336.84L6.57996 295.19C6.57996 295.19 4.86996 293.64 3.57996 294.47L22.28 338.35Z" fill="#E0E0E0"/>
<path d="M26.23 310.77C26.02 310.87 26.4 311.97 26.23 313.32C26.06 314.67 25.38 315.63 25.55 315.79C25.72 315.95 26.81 315.08 27.03 313.44C27.25 311.8 26.41 310.63 26.23 310.77Z" fill="#263238"/>
<path d="M22.2899 307.06C22.0699 307.06 22.1199 308.19 21.5499 309.31C20.9799 310.43 20.1199 311.07 20.2199 311.31C20.3199 311.55 21.5899 311.11 22.2699 309.7C22.9499 308.29 22.4999 307 22.2899 307.06Z" fill="#263238"/>
<path d="M15.68 306.93C15.68 307.14 16.91 306.93 17.83 305.93C18.75 304.93 18.76 303.66 18.54 303.65C18.32 303.64 17.98 304.54 17.21 305.4C16.44 306.26 15.6 306.71 15.68 306.93Z" fill="#263238"/>
<path d="M31.52 308.84C31.37 309.02 32.1 309.84 32.52 311.1C32.94 312.36 33.02 313.44 33.25 313.46C33.48 313.48 33.84 312.25 33.25 310.81C32.66 309.37 31.64 308.66 31.52 308.84Z" fill="#263238"/>
<path d="M59.08 314.53C56.7008 315.123 54.5423 316.388 52.8615 318.173C51.1808 319.958 50.0486 322.189 49.6 324.6C47.99 333.07 53.82 418.26 53.82 418.26L83.72 415.86L81.89 358.46L81.15 346.88L83.72 344.88L136.27 335.63L128.27 313.91L119.48 298.61L79.23 308.61L59.08 314.53Z" fill="#263238"/>
<path d="M158 300.18C158 300.18 136.26 268.75 129.9 264.18C124.66 260.41 116.78 260.42 111.9 262.61C107.02 264.8 30.9 302.56 30.9 302.56L42.07 330.56L114.53 305.45L125.33 322.45L135.39 335.77L163.63 335.99C164.96 335.99 171.03 323.99 171.03 323.99L158 300.18Z" fill="#263238"/>
<path d="M49.32 331.17C49.305 331.074 49.305 330.976 49.32 330.88C49.32 330.65 49.32 330.37 49.32 330.02C49.32 329.67 49.32 329.16 49.32 328.61C49.32 328.06 49.45 327.42 49.53 326.7C49.61 325.98 49.84 325.21 50 324.34C50.09 323.91 50.27 323.48 50.41 323.03C50.5551 322.554 50.7356 322.089 50.95 321.64C51.8757 319.472 53.3509 317.583 55.23 316.16C56.3247 315.327 57.5713 314.716 58.9 314.36L63.23 313.62L72.76 312.03L94.61 308.41L114.45 305.16H114.61L114.7 305.3C120.51 314.37 125.23 322.3 129.2 327.42C131.12 330.01 132.66 332.07 133.74 333.51C134.25 334.2 134.65 334.74 134.95 335.13L135.25 335.55L135.35 335.7C135.35 335.7 135.35 335.7 135.22 335.58L134.88 335.18L133.61 333.61C132.51 332.23 130.91 330.2 128.96 327.61C124.91 322.49 120.12 314.61 114.29 305.61L114.53 305.72L94.69 309L72.84 312.58L63.3 314.13L58.99 314.83C57.7095 315.166 56.5047 315.743 55.44 316.53C53.6009 317.908 52.1476 319.737 51.22 321.84C50.9983 322.277 50.8143 322.732 50.67 323.2C50.5027 323.622 50.3592 324.052 50.24 324.49C50.0304 325.253 49.8635 326.028 49.74 326.81L49.47 328.7C49.47 329.24 49.41 329.7 49.39 330.1C49.37 330.5 49.39 330.74 49.33 330.96C49.3321 331.03 49.3287 331.1 49.32 331.17Z" fill="#455A64"/>
<path d="M124.9 286C124.975 286.294 125.012 286.597 125.01 286.9C125.077 287.722 125.077 288.548 125.01 289.37C124.897 290.595 124.673 291.806 124.34 292.99C123.918 294.435 123.362 295.838 122.68 297.18C121.963 298.504 121.126 299.759 120.18 300.93C119.39 301.873 118.52 302.747 117.58 303.54C116.954 304.074 116.285 304.556 115.58 304.98C115.332 305.158 115.059 305.3 114.77 305.4C114.72 305.32 115.77 304.64 117.34 303.26C118.227 302.449 119.05 301.57 119.8 300.63C120.711 299.472 121.521 298.237 122.22 296.94C122.888 295.626 123.444 294.258 123.88 292.85C124.229 291.699 124.483 290.522 124.64 289.33C124.87 287.3 124.8 286 124.9 286Z" fill="#455A64"/>
<path d="M376.9 385.68L246.05 385.61C238.492 385.605 231.246 382.599 225.903 377.253C220.561 371.906 217.56 364.658 217.56 357.1L217.63 29C217.63 25.2557 218.368 21.548 219.801 18.0889C221.235 14.6298 223.336 11.4871 225.985 8.84039C228.633 6.19366 231.777 4.09478 235.237 2.6637C238.697 1.23261 242.406 0.497379 246.15 0.500007L377 0.620006C384.558 0.625308 391.804 3.63137 397.147 8.97746C402.489 14.3235 405.49 21.5721 405.49 29.13L405.43 357.19C405.427 360.934 404.687 364.641 403.252 368.099C401.817 371.557 399.715 374.698 397.065 377.344C394.416 379.989 391.272 382.087 387.812 383.517C384.352 384.948 380.644 385.683 376.9 385.68V385.68Z" fill="#263238"/>
<path d="M376.86 12.22H351.49C349.82 12.2594 348.233 12.9594 347.079 14.1667C345.924 15.3739 345.295 16.9898 345.33 18.66V23.26C345.349 24.0874 345.204 24.9104 344.904 25.6818C344.605 26.4533 344.156 27.1582 343.584 27.7563C343.012 28.3543 342.328 28.8338 341.57 29.1673C340.813 29.5008 339.997 29.6818 339.17 29.7H289.72C288.893 29.6818 288.077 29.5008 287.319 29.1673C286.562 28.8338 285.878 28.3543 285.306 27.7563C284.734 27.1582 284.285 26.4533 283.986 25.6818C283.686 24.9104 283.541 24.0874 283.56 23.26V18.6C283.595 16.9298 282.966 15.3139 281.811 14.1067C280.656 12.8994 279.07 12.1994 277.4 12.16H268.47H246.27C240.966 12.16 235.879 14.2672 232.128 18.0179C228.377 21.7686 226.27 26.8557 226.27 32.16L226.21 352.37C226.21 357.666 228.31 362.745 232.05 366.495C235.79 370.244 240.864 372.357 246.16 372.37L376.76 372.44C382.064 372.44 387.151 370.333 390.902 366.582C394.653 362.831 396.76 357.744 396.76 352.44L396.83 32.23C396.833 26.9292 394.731 21.8441 390.986 18.092C387.242 14.34 382.161 12.228 376.86 12.22V12.22Z" fill="white"/>
<path d="M396.82 32.19C396.82 26.8857 394.713 21.7986 390.962 18.0479C387.211 14.2972 382.124 12.19 376.82 12.19H351.45C349.78 12.2294 348.194 12.9294 347.039 14.1367C345.884 15.3439 345.255 16.9598 345.29 18.63V23.23C345.309 24.0574 345.164 24.8804 344.864 25.6518C344.565 26.4233 344.116 27.1282 343.544 27.7263C342.972 28.3243 342.288 28.8038 341.531 29.1373C340.773 29.4708 339.957 29.6519 339.13 29.67H289.68C288.853 29.6519 288.037 29.4708 287.28 29.1373C286.522 28.8038 285.838 28.3243 285.266 27.7263C284.694 27.1282 284.245 26.4233 283.946 25.6518C283.646 24.8804 283.501 24.0574 283.52 23.23V18.6C283.555 16.9298 282.926 15.3139 281.771 14.1067C280.617 12.8994 279.03 12.1994 277.36 12.16H268.43H246.23C240.926 12.16 235.839 14.2672 232.088 18.0179C228.337 21.7686 226.23 26.8557 226.23 32.16L226.17 62.78H396.81L396.82 32.19Z" fill="#F5F5F5"/>
<path d="M382.94 43.44C382.94 43.53 379.88 43.64 376.11 43.67C373.833 43.7483 371.553 43.7083 369.28 43.55C373.828 43.28 378.388 43.2433 382.94 43.44V43.44Z" fill="#263238"/>
<path d="M383 46.93C380.732 47.1257 378.456 47.2025 376.18 47.16C373.903 47.2383 371.623 47.1983 369.35 47.04C369.35 46.95 372.4 46.85 376.18 46.81C379.96 46.77 383 46.84 383 46.93Z" fill="#263238"/>
<path d="M383 50.43C383 50.52 379.95 50.62 376.18 50.65C373.903 50.7284 371.623 50.6917 369.35 50.54C373.895 50.27 378.451 50.2333 383 50.43V50.43Z" fill="#263238"/>
<path d="M264.11 285.24L264.8 283.79C266.015 284.775 267.536 285.306 269.1 285.29C271.34 285.29 272.31 284.42 272.31 283.29C272.31 280.12 264.43 282.12 264.43 277.29C264.43 275.29 265.99 273.57 269.43 273.57C270.907 273.542 272.359 273.945 273.61 274.73L273 276.2C271.933 275.519 270.696 275.152 269.43 275.14C267.22 275.14 266.27 276.07 266.27 277.21C266.27 280.39 274.15 278.4 274.15 283.21C274.15 285.21 272.55 286.91 269.15 286.91C267.326 286.962 265.542 286.37 264.11 285.24V285.24Z" fill="#263238"/>
<path d="M275.67 281.8C275.659 281.122 275.788 280.45 276.049 279.825C276.31 279.199 276.697 278.634 277.186 278.165C277.675 277.696 278.255 277.332 278.891 277.098C279.526 276.863 280.203 276.761 280.88 276.8C281.675 276.754 282.467 276.924 283.172 277.294C283.876 277.664 284.467 278.22 284.88 278.9L283.53 279.77C283.241 279.325 282.843 278.962 282.374 278.715C281.905 278.469 281.38 278.346 280.85 278.36C279.963 278.408 279.128 278.793 278.518 279.438C277.907 280.083 277.566 280.937 277.566 281.825C277.566 282.713 277.907 283.567 278.518 284.212C279.128 284.856 279.963 285.242 280.85 285.29C281.38 285.307 281.906 285.186 282.376 284.938C282.846 284.691 283.243 284.327 283.53 283.88L284.88 284.74C284.466 285.42 283.875 285.975 283.171 286.347C282.467 286.718 281.675 286.892 280.88 286.85C280.2 286.887 279.519 286.784 278.88 286.545C278.242 286.307 277.66 285.939 277.17 285.465C276.681 284.99 276.295 284.42 276.037 283.789C275.779 283.159 275.654 282.481 275.67 281.8Z" fill="#263238"/>
<path d="M295 280.78V286.72H293.31V285.42C292.934 285.909 292.441 286.294 291.876 286.541C291.312 286.787 290.694 286.887 290.08 286.83C287.85 286.83 286.43 285.64 286.43 283.93C286.43 282.22 287.43 281.05 290.43 281.05H293.26V280.7C293.26 279.2 292.38 278.32 290.62 278.32C289.49 278.311 288.39 278.684 287.5 279.38L286.75 278.04C287.93 277.182 289.361 276.739 290.82 276.78C293.48 276.78 295 278.08 295 280.78ZM293.22 283.71V282.34H290.47C288.7 282.34 288.2 283.02 288.2 283.86C288.2 284.7 289.02 285.46 290.37 285.46C290.969 285.504 291.566 285.359 292.077 285.045C292.589 284.731 292.989 284.264 293.22 283.71Z" fill="#263238"/>
<path d="M307.66 281.05V286.72H305.87V281.26C305.87 279.33 304.87 278.38 303.22 278.38C302.788 278.347 302.355 278.411 301.951 278.566C301.547 278.721 301.182 278.963 300.883 279.276C300.583 279.588 300.357 279.963 300.22 280.374C300.083 280.784 300.039 281.22 300.09 281.65V286.72H298.31V276.87H300V278.36C300.422 277.832 300.965 277.413 301.583 277.138C302.2 276.863 302.875 276.74 303.55 276.78C306 276.78 307.66 278.16 307.66 281.05Z" fill="#263238"/>
<path d="M320.31 281.05V286.72H318.53V281.26C318.53 279.33 317.53 278.38 315.87 278.38C315.439 278.347 315.006 278.41 314.602 278.565C314.198 278.72 313.834 278.963 313.535 279.276C313.237 279.589 313.011 279.964 312.876 280.375C312.74 280.785 312.697 281.221 312.75 281.65V286.72H311V276.87H312.71V278.36C313.131 277.831 313.674 277.411 314.292 277.136C314.91 276.861 315.585 276.739 316.26 276.78C318.62 276.78 320.31 278.16 320.31 281.05Z" fill="#263238"/>
<path d="M323.31 273.82C323.3 273.578 323.363 273.339 323.49 273.134C323.617 272.928 323.803 272.765 324.024 272.666C324.244 272.567 324.489 272.536 324.728 272.578C324.966 272.62 325.186 272.732 325.36 272.9C325.534 273.068 325.653 273.284 325.703 273.521C325.753 273.758 325.731 274.004 325.639 274.228C325.548 274.452 325.391 274.643 325.19 274.777C324.989 274.911 324.752 274.982 324.51 274.98C324.355 274.984 324.2 274.957 324.055 274.901C323.911 274.844 323.778 274.76 323.667 274.652C323.555 274.544 323.466 274.414 323.405 274.272C323.343 274.129 323.311 273.975 323.31 273.82V273.82ZM323.62 276.87H325.41V286.72H323.62V276.87Z" fill="#263238"/>
<path d="M338.16 281.05V286.72H336.37V281.26C336.37 279.33 335.37 278.38 333.71 278.38C333.279 278.347 332.846 278.41 332.442 278.565C332.038 278.72 331.674 278.963 331.375 279.276C331.077 279.589 330.851 279.964 330.716 280.375C330.58 280.785 330.537 281.221 330.59 281.65V286.72H328.81V276.87H330.52V278.36C330.942 277.832 331.485 277.413 332.103 277.138C332.721 276.863 333.395 276.74 334.07 276.78C336.46 276.78 338.16 278.16 338.16 281.05Z" fill="#263238"/>
<path d="M350.94 276.87V285.39C350.94 288.86 349.18 290.44 345.83 290.44C344.14 290.511 342.478 289.991 341.13 288.97L341.98 287.6C343.06 288.448 344.397 288.899 345.77 288.88C348.1 288.88 349.16 287.8 349.16 285.57V284.79C348.717 285.29 348.169 285.685 347.556 285.948C346.942 286.211 346.277 286.335 345.61 286.31C344.966 286.34 344.322 286.238 343.719 286.012C343.115 285.786 342.563 285.44 342.097 284.994C341.631 284.549 341.259 284.014 341.006 283.421C340.752 282.828 340.622 282.19 340.622 281.545C340.622 280.9 340.752 280.262 341.006 279.669C341.259 279.076 341.631 278.541 342.097 278.096C342.563 277.65 343.115 277.304 343.719 277.078C344.322 276.852 344.966 276.75 345.61 276.78C346.3 276.752 346.988 276.884 347.619 277.165C348.25 277.446 348.808 277.869 349.25 278.4V276.87H350.94ZM349.19 281.54C349.228 280.86 349.061 280.184 348.71 279.6C348.36 279.016 347.842 278.551 347.224 278.265C346.605 277.978 345.916 277.885 345.243 277.995C344.571 278.106 343.948 278.416 343.454 278.885C342.96 279.354 342.618 279.96 342.473 280.626C342.328 281.291 342.386 281.985 342.64 282.617C342.894 283.249 343.332 283.791 343.897 284.171C344.462 284.551 345.129 284.753 345.81 284.75C346.248 284.784 346.688 284.725 347.102 284.578C347.516 284.431 347.895 284.199 348.213 283.896C348.532 283.594 348.783 283.228 348.952 282.822C349.12 282.416 349.201 281.979 349.19 281.54V281.54Z" fill="#263238"/>
<path d="M353.5 285.55C353.497 285.383 353.528 285.217 353.591 285.062C353.654 284.907 353.748 284.767 353.867 284.649C353.985 284.532 354.126 284.439 354.282 284.377C354.437 284.316 354.603 284.286 354.77 284.29C355.107 284.29 355.43 284.424 355.668 284.662C355.906 284.9 356.04 285.223 356.04 285.56C356.04 285.897 355.906 286.22 355.668 286.458C355.43 286.696 355.107 286.83 354.77 286.83C354.602 286.831 354.435 286.799 354.28 286.735C354.125 286.671 353.984 286.577 353.865 286.457C353.747 286.338 353.654 286.196 353.591 286.041C353.528 285.885 353.497 285.718 353.5 285.55V285.55Z" fill="#263238"/>
<path d="M357.72 285.55C357.717 285.383 357.748 285.217 357.811 285.062C357.874 284.907 357.968 284.767 358.087 284.649C358.205 284.532 358.346 284.439 358.502 284.377C358.657 284.316 358.823 284.286 358.99 284.29C359.327 284.29 359.65 284.424 359.888 284.662C360.126 284.9 360.26 285.223 360.26 285.56C360.26 285.897 360.126 286.22 359.888 286.458C359.65 286.696 359.327 286.83 358.99 286.83C358.822 286.831 358.655 286.799 358.5 286.735C358.345 286.671 358.204 286.577 358.085 286.457C357.967 286.338 357.874 286.196 357.811 286.041C357.748 285.885 357.717 285.718 357.72 285.55V285.55Z" fill="#263238"/>
<path d="M361.94 285.55C361.937 285.383 361.968 285.217 362.031 285.062C362.094 284.907 362.188 284.767 362.306 284.649C362.425 284.532 362.566 284.439 362.722 284.377C362.877 284.316 363.043 284.286 363.21 284.29C363.547 284.29 363.87 284.424 364.108 284.662C364.346 284.9 364.48 285.223 364.48 285.56C364.48 285.897 364.346 286.22 364.108 286.458C363.87 286.696 363.547 286.83 363.21 286.83C363.042 286.831 362.875 286.799 362.72 286.735C362.565 286.671 362.424 286.577 362.305 286.457C362.187 286.338 362.094 286.196 362.031 286.041C361.968 285.885 361.937 285.718 361.94 285.55V285.55Z" fill="#263238"/>
<path d="M362.01 303.32H257.72C248.541 303.32 241.1 310.761 241.1 319.94V323.47C241.1 332.649 248.541 340.09 257.72 340.09H362.01C371.189 340.09 378.63 332.649 378.63 323.47V319.94C378.63 310.761 371.189 303.32 362.01 303.32Z" fill="#EBEBEB"/>
<path d="M267.65 318.38L265.34 324.56H264.27L262.48 319.87L260.68 324.56H259.6L257.31 318.38H258.37L260.16 323.3L262.03 318.38H263L264.83 323.33L266.68 318.38H267.65Z" fill="#263238"/>
<path d="M278 318.38L275.69 324.56H274.62L272.84 319.87L271.03 324.56H270L267.7 318.38H268.76L270.56 323.3L272.42 318.38H273.37L275.2 323.33L277.04 318.38H278Z" fill="#263238"/>
<path d="M288.43 318.38L286.13 324.56H285.05L283.27 319.87L281.46 324.56H280.39L278.09 318.38H279.15L280.95 323.3L282.81 318.38H283.76L285.59 323.33L287.43 318.38H288.43Z" fill="#263238"/>
<path d="M288.66 323.83C288.657 323.725 288.676 323.621 288.714 323.523C288.753 323.425 288.811 323.337 288.885 323.262C288.959 323.187 289.047 323.128 289.144 323.088C289.241 323.048 289.345 323.029 289.45 323.03C289.662 323.03 289.866 323.114 290.016 323.264C290.166 323.414 290.25 323.618 290.25 323.83C290.25 324.042 290.166 324.246 290.016 324.396C289.866 324.546 289.662 324.63 289.45 324.63C289.345 324.63 289.242 324.609 289.145 324.569C289.049 324.529 288.961 324.47 288.888 324.395C288.814 324.321 288.756 324.232 288.717 324.135C288.678 324.038 288.659 323.935 288.66 323.83V323.83Z" fill="#263238"/>
<path d="M291.05 323.91L291.52 323.02C292.167 323.438 292.92 323.66 293.69 323.66C294.69 323.66 295.15 323.35 295.15 322.82C295.15 321.44 291.25 322.64 291.25 320.18C291.25 319.07 292.25 318.32 293.83 318.32C294.616 318.308 295.391 318.501 296.08 318.88L295.6 319.77C295.067 319.437 294.448 319.267 293.82 319.28C292.82 319.28 292.36 319.64 292.36 320.13C292.36 321.59 296.27 320.4 296.27 322.8C296.27 323.92 295.27 324.63 293.61 324.63C292.703 324.655 291.811 324.404 291.05 323.91V323.91Z" fill="#263238"/>
<path d="M297.48 316.47C297.48 316.372 297.5 316.274 297.538 316.184C297.577 316.093 297.633 316.011 297.704 315.943C297.775 315.875 297.859 315.822 297.951 315.787C298.043 315.752 298.142 315.736 298.24 315.74C298.342 315.728 298.446 315.738 298.544 315.769C298.643 315.8 298.733 315.851 298.81 315.919C298.887 315.988 298.949 316.072 298.991 316.166C299.033 316.26 299.055 316.362 299.055 316.465C299.055 316.568 299.033 316.67 298.991 316.764C298.949 316.858 298.887 316.942 298.81 317.01C298.733 317.079 298.643 317.13 298.544 317.161C298.446 317.192 298.342 317.202 298.24 317.19C298.142 317.194 298.045 317.178 297.954 317.144C297.862 317.11 297.779 317.058 297.708 316.991C297.637 316.923 297.58 316.843 297.541 316.753C297.502 316.664 297.481 316.568 297.48 316.47V316.47ZM297.68 318.38H298.8V324.56H297.68V318.38Z" fill="#263238"/>
<path d="M304.4 324.2C304.013 324.495 303.536 324.647 303.05 324.63C302.785 324.666 302.515 324.642 302.261 324.558C302.007 324.475 301.775 324.336 301.582 324.15C301.39 323.964 301.242 323.737 301.15 323.486C301.057 323.235 301.023 322.966 301.05 322.7V319.3H300.05V318.38H301.05V317H302.17V318.35H304V319.27H302.23V322.62C302.218 322.754 302.235 322.89 302.281 323.017C302.327 323.144 302.4 323.259 302.496 323.354C302.591 323.45 302.706 323.523 302.833 323.569C302.96 323.615 303.096 323.632 303.23 323.62C303.549 323.622 303.859 323.516 304.11 323.32L304.4 324.2Z" fill="#263238"/>
<path d="M311.11 321.85H306.11C306.182 322.38 306.455 322.861 306.872 323.196C307.288 323.531 307.817 323.693 308.35 323.65C308.682 323.662 309.014 323.602 309.321 323.475C309.628 323.347 309.904 323.154 310.13 322.91L310.75 323.63C310.293 324.092 309.712 324.413 309.076 324.552C308.441 324.692 307.779 324.644 307.17 324.416C306.561 324.188 306.031 323.788 305.645 323.265C305.258 322.743 305.03 322.119 304.99 321.47C304.969 321.055 305.034 320.64 305.182 320.252C305.33 319.863 305.556 319.51 305.848 319.214C306.139 318.918 306.489 318.685 306.875 318.532C307.261 318.378 307.675 318.306 308.09 318.32C308.505 318.312 308.916 318.391 309.299 318.55C309.682 318.709 310.028 318.947 310.314 319.246C310.601 319.546 310.822 319.902 310.964 320.292C311.107 320.681 311.166 321.096 311.14 321.51C311.13 321.6 311.12 321.74 311.11 321.85ZM306.11 321.04H310.11C310.11 320.51 309.899 320.001 309.524 319.626C309.149 319.251 308.64 319.04 308.11 319.04C307.58 319.04 307.071 319.251 306.696 319.626C306.321 320.001 306.11 320.51 306.11 321.04Z" fill="#263238"/>
<path d="M321.92 318.38L319.61 324.56H318.54L316.76 319.87L315 324.56H313.93L311.63 318.38H312.69L314.49 323.3L316.35 318.38H317.3L319.13 323.33L320.97 318.38H321.92Z" fill="#263238"/>
<path d="M328.44 321.85H323.44C323.512 322.38 323.785 322.861 324.202 323.196C324.618 323.531 325.147 323.693 325.68 323.65C326.013 323.663 326.344 323.603 326.651 323.475C326.959 323.348 327.235 323.155 327.46 322.91L328.08 323.63C327.623 324.092 327.042 324.413 326.406 324.552C325.771 324.692 325.109 324.644 324.5 324.416C323.891 324.188 323.361 323.788 322.975 323.265C322.588 322.743 322.36 322.119 322.32 321.47C322.299 321.055 322.364 320.64 322.512 320.252C322.66 319.863 322.887 319.51 323.178 319.214C323.469 318.918 323.819 318.685 324.205 318.532C324.591 318.378 325.005 318.306 325.42 318.32C325.836 318.311 326.248 318.388 326.632 318.547C327.016 318.706 327.363 318.943 327.651 319.243C327.939 319.542 328.161 319.899 328.304 320.289C328.446 320.68 328.506 321.095 328.48 321.51C328.47 321.6 328.45 321.74 328.44 321.85ZM323.44 321.04H327.44C327.44 320.51 327.229 320.001 326.854 319.626C326.479 319.251 325.97 319.04 325.44 319.04C324.91 319.04 324.401 319.251 324.026 319.626C323.651 320.001 323.44 320.51 323.44 321.04Z" fill="#263238"/>
<path d="M336.42 321.47C336.443 321.888 336.378 322.305 336.23 322.696C336.081 323.087 335.853 323.443 335.559 323.74C335.265 324.038 334.913 324.271 334.524 324.424C334.135 324.577 333.718 324.647 333.3 324.63C332.874 324.648 332.45 324.562 332.065 324.379C331.68 324.196 331.345 323.922 331.09 323.58V324.58H330V315.93H331.12V319.33C331.377 319.006 331.706 318.746 332.081 318.573C332.456 318.399 332.867 318.316 333.28 318.33C333.698 318.31 334.115 318.378 334.505 318.528C334.895 318.679 335.249 318.91 335.545 319.205C335.84 319.501 336.071 319.855 336.222 320.245C336.372 320.635 336.44 321.052 336.42 321.47ZM335.29 321.47C335.27 321.064 335.132 320.672 334.893 320.344C334.653 320.015 334.322 319.764 333.941 319.622C333.561 319.479 333.146 319.452 332.75 319.542C332.354 319.632 331.992 319.837 331.711 320.131C331.43 320.424 331.24 320.794 331.167 321.193C331.093 321.593 331.138 322.006 331.297 322.381C331.455 322.755 331.72 323.075 332.058 323.3C332.396 323.526 332.793 323.648 333.2 323.65C333.486 323.664 333.772 323.617 334.038 323.511C334.304 323.405 334.544 323.243 334.742 323.037C334.94 322.83 335.092 322.583 335.186 322.313C335.281 322.043 335.316 321.755 335.29 321.47V321.47Z" fill="#263238"/>
<path d="M337.31 323.83C337.307 323.725 337.326 323.621 337.364 323.523C337.403 323.425 337.461 323.337 337.535 323.262C337.609 323.187 337.697 323.128 337.794 323.088C337.891 323.048 337.995 323.029 338.1 323.03C338.312 323.03 338.516 323.114 338.666 323.264C338.816 323.414 338.9 323.618 338.9 323.83C338.9 324.042 338.816 324.246 338.666 324.396C338.516 324.546 338.312 324.63 338.1 324.63C337.995 324.63 337.892 324.609 337.795 324.569C337.699 324.529 337.611 324.47 337.538 324.395C337.464 324.321 337.406 324.232 337.367 324.135C337.328 324.038 337.309 323.935 337.31 323.83V323.83Z" fill="#263238"/>
<path d="M339.77 321.47C339.761 321.044 339.84 320.62 340.003 320.226C340.166 319.831 340.408 319.475 340.716 319.179C341.023 318.883 341.388 318.654 341.788 318.506C342.188 318.359 342.614 318.295 343.04 318.32C343.539 318.292 344.035 318.401 344.477 318.633C344.92 318.865 345.29 319.213 345.55 319.64L344.7 320.19C344.522 319.908 344.273 319.677 343.979 319.521C343.684 319.365 343.353 319.289 343.02 319.3C342.469 319.337 341.952 319.583 341.575 319.987C341.197 320.39 340.988 320.922 340.988 321.475C340.988 322.028 341.197 322.56 341.575 322.963C341.952 323.367 342.469 323.613 343.02 323.65C343.352 323.661 343.682 323.586 343.976 323.432C344.271 323.278 344.52 323.05 344.7 322.77L345.55 323.3C345.291 323.728 344.92 324.077 344.478 324.311C344.037 324.545 343.539 324.656 343.04 324.63C342.614 324.654 342.187 324.589 341.787 324.44C341.387 324.291 341.022 324.061 340.715 323.764C340.408 323.467 340.166 323.11 340.003 322.716C339.84 322.321 339.761 321.897 339.77 321.47V321.47Z" fill="#263238"/>
<path d="M346.34 321.47C346.33 320.834 346.51 320.208 346.856 319.674C347.202 319.14 347.699 318.721 348.284 318.47C348.869 318.219 349.516 318.148 350.141 318.265C350.767 318.382 351.344 318.683 351.798 319.129C352.252 319.575 352.564 320.146 352.693 320.769C352.822 321.392 352.763 322.04 352.523 322.63C352.283 323.219 351.873 323.724 351.346 324.08C350.818 324.437 350.197 324.628 349.56 324.63C349.137 324.649 348.715 324.581 348.319 324.43C347.924 324.279 347.564 324.048 347.262 323.751C346.959 323.455 346.722 323.099 346.563 322.707C346.404 322.314 346.329 321.893 346.34 321.47V321.47ZM351.63 321.47C351.63 320.918 351.411 320.389 351.021 319.999C350.631 319.609 350.102 319.39 349.55 319.39C348.998 319.39 348.469 319.609 348.079 319.999C347.689 320.389 347.47 320.918 347.47 321.47C347.47 322.022 347.689 322.551 348.079 322.941C348.469 323.331 348.998 323.55 349.55 323.55C350.102 323.55 350.631 323.331 351.021 322.941C351.411 322.551 351.63 322.022 351.63 321.47V321.47Z" fill="#263238"/>
<path d="M364.57 321V324.55H363.46V321.12C363.46 319.91 362.87 319.32 361.86 319.32C361.596 319.308 361.333 319.355 361.09 319.457C360.847 319.559 360.629 319.713 360.452 319.909C360.275 320.105 360.144 320.337 360.067 320.59C359.991 320.843 359.971 321.109 360.01 321.37V324.55H358.89V321.12C358.89 319.91 358.3 319.32 357.29 319.32C357.026 319.308 356.763 319.355 356.52 319.457C356.277 319.559 356.059 319.713 355.882 319.909C355.705 320.105 355.574 320.337 355.497 320.59C355.421 320.843 355.401 321.109 355.44 321.37V324.55H354.32V318.37H355.39V319.29C355.636 318.961 355.959 318.698 356.33 318.524C356.701 318.349 357.11 318.269 357.52 318.29C357.95 318.261 358.38 318.353 358.76 318.557C359.14 318.76 359.455 319.066 359.67 319.44C359.94 319.066 360.299 318.765 360.715 318.564C361.13 318.363 361.589 318.269 362.05 318.29C362.404 318.264 362.76 318.317 363.091 318.447C363.422 318.577 363.719 318.779 363.961 319.04C364.203 319.3 364.383 319.611 364.489 319.95C364.594 320.29 364.622 320.648 364.57 321V321Z" fill="#263238"/>
<path d="M364.2 328.62C364.2 328.76 340.61 328.88 311.53 328.88C282.45 328.88 258.85 328.76 258.85 328.62C258.85 328.48 282.43 328.36 311.53 328.36C340.63 328.36 364.2 328.47 364.2 328.62Z" fill="#263238"/>
<path d="M254.14 183.88V190.07H260.33V183.88V177.68H254.14V183.88Z" fill="#263238"/>
<path d="M260.33 146.73H254.14V152.92H260.33V146.73Z" fill="#263238"/>
<path d="M298.59 214.89H292.4V221.08H298.59V214.89Z" fill="#263238"/>
<path d="M260.33 159.11V165.3H254.14V171.49H260.33V177.68H266.52H272.72V183.88H278.91V177.68H285.1V171.49V165.3H278.91V171.49H272.72H266.52V165.3V159.11V152.92H260.33V159.11Z" fill="#263238"/>
<path d="M272.72 146.73H266.52V152.92H272.72H278.91V146.73H272.72Z" fill="#263238"/>
<path d="M300.58 196.5H303.9V190.31H300.58H297.25V196.5H300.58Z" fill="#263238"/>
<path d="M285.1 152.92H278.91V159.11H285.1V152.92Z" fill="#263238"/>
<path d="M328.44 177.68H322.25V183.87H328.44V177.68Z" fill="#263238"/>
<path d="M334.63 109.58H328.44V115.77H334.63V109.58Z" fill="#263238"/>
<path d="M297.48 159.11V152.92H303.67V146.73H297.48V140.54H291.29V146.73H285.1V152.92H291.29V159.11V165.3V171.49V177.68H297.48V171.49V165.3H303.67V159.11H297.48Z" fill="#263238"/>
<path d="M328.44 221.02H334.63V214.83H328.44H322.25V221.02H328.44Z" fill="#263238"/>
<path d="M322.25 109.58H316.06V115.77H322.25V109.58Z" fill="#263238"/>
<path d="M320.7 159.11V152.92H314.51V146.73H308.32V152.92V159.11H302.13V165.3H308.32H314.51V159.11H320.7Z" fill="#263238"/>
<path d="M355.64 146.73H349.45V152.92H355.64V146.73Z" fill="#263238"/>
<path d="M291.47 177.68H285.28V183.87H291.47V177.68Z" fill="#263238"/>
<path d="M316.06 140.54V134.35H322.25V128.15H328.44H334.63V121.96H328.44V115.77H322.25V121.96H316.06V128.15H309.86V134.35H303.67V140.54H309.86H316.06Z" fill="#263238"/>
<path d="M316.06 183.88V177.68H322.25V171.49H316.06H309.86V177.68H303.67V183.88H309.86H316.06Z" fill="#263238"/>
<path d="M334.63 208.64V202.44H328.44H322.25V196.25H316.06V202.44H309.86V208.64H303.67H297.48V214.83H303.67H309.86H316.06V208.64H322.25V214.83H328.44V208.64H334.63Z" fill="#263238"/>
<path d="M309.86 115.77V109.58H303.67H297.48V115.77H291.29V121.96H297.48H303.67V115.77H309.86Z" fill="#263238"/>
<path d="M309.86 121.96H303.67V128.15H309.86V121.96Z" fill="#263238"/>
<path d="M325.34 146.73H319.15V152.92V159.11V165.3H325.34H331.53V159.11H325.34V152.92H331.53V146.73H337.72V140.54H331.53V134.35H325.34V140.54V146.73Z" fill="#263238"/>
<path d="M303.67 128.15H297.48V134.34H303.67V128.15Z" fill="#263238"/>
<path d="M322.25 190.07V196.26H328.44H334.63V190.07H340.82H347.01V183.88H340.82H334.63H328.44V190.07H322.25Z" fill="#263238"/>
<path d="M355.64 165.3H349.45V171.49H355.64V165.3Z" fill="#263238"/>
<path d="M334.63 171.49H328.44V177.68H334.63V171.49Z" fill="#263238"/>
<path d="M350.11 152.92H343.92H337.72V159.11H343.92V165.3H350.11V159.11V152.92Z" fill="#263238"/>
<path d="M347.01 171.49H340.82V177.68H347.01V171.49Z" fill="#263238"/>
<path d="M278.91 208.76H297.49V183.87H272.6V190.07H266.53V196.26H272.6V202.45H266.53V208.64H272.6V208.76H272.72V214.83H266.53V227.21H272.72V221H278.91V208.76ZM292.72 188.63V204.11H277.24V188.63H292.72Z" fill="#263238"/>
<path d="M359.39 183.88H365.58V177.68H359.39H353.2H347.01V183.88H353.2H359.39Z" fill="#263238"/>
<path d="M359.39 159.11H365.58V152.92V146.73H359.39V152.92V159.11Z" fill="#263238"/>
<path d="M310.1 190.31H303.9V196.5V202.69H310.1V196.5V190.31Z" fill="#263238"/>
<path d="M371.77 183.88H365.58V190.07H371.77V183.88Z" fill="#263238"/>
<path d="M371.78 171.49V165.3H365.58V171.49V177.68H371.78V171.49Z" fill="#263238"/>
<path d="M260.33 214.83H254.14V221.02V227.21H260.33V221.02V214.83Z" fill="#263238"/>
<path d="M371.78 140.54V109.54H340.78V140.54H371.78ZM345.46 135.89V114.22H367.13V135.89H345.46Z" fill="#263238"/>
<path d="M362.49 118.87H350.11V131.25H362.49V118.87Z" fill="#263238"/>
<path d="M371.78 196.26H340.78V227.21H371.78V196.26ZM345.46 222.57V200.9H367.13V222.57H345.46Z" fill="#263238"/>
<path d="M362.49 205.54H350.11V217.92H362.49V205.54Z" fill="#263238"/>
<path d="M254.07 109.58V140.58H285V109.58H254.07ZM280.38 114.22V135.89H258.71V114.22H280.38Z" fill="#263238"/>
<path d="M275.73 118.87H263.35V131.25H275.73V118.87Z" fill="#263238"/>
<path d="M245.24 131.16V109.16C245.099 107.141 245.72 105.143 246.98 103.56C247.734 102.727 248.663 102.071 249.7 101.639C250.738 101.207 251.857 101.009 252.98 101.06H276.1C276.283 101.06 276.458 100.987 276.588 100.858C276.717 100.729 276.79 100.553 276.79 100.37C276.79 100.187 276.717 100.011 276.588 99.8821C276.458 99.7527 276.283 99.68 276.1 99.68H253.26C251.326 99.5829 249.407 100.067 247.75 101.07C246.559 101.863 245.581 102.936 244.901 104.194C244.221 105.453 243.86 106.859 243.85 108.29C243.79 111.91 243.85 115.54 243.85 119.15V131.15C243.87 131.32 243.952 131.477 244.08 131.59C244.209 131.704 244.374 131.766 244.545 131.766C244.716 131.766 244.881 131.704 245.009 131.59C245.138 131.477 245.22 131.32 245.24 131.15V131.16Z" fill="#4152F3"/>
<path d="M274.1 237.67H252.1C250.082 237.806 248.086 237.186 246.5 235.93C245.668 235.175 245.013 234.246 244.581 233.209C244.149 232.172 243.951 231.052 244 229.93V206.78C244 206.597 243.927 206.421 243.798 206.292C243.668 206.163 243.493 206.09 243.31 206.09C243.127 206.09 242.951 206.163 242.822 206.292C242.693 206.421 242.62 206.597 242.62 206.78V229.65C242.524 231.584 243.008 233.503 244.01 235.16C244.803 236.35 245.876 237.327 247.135 238.006C248.394 238.684 249.8 239.043 251.23 239.05C254.85 239.11 258.47 239.05 262.09 239.05H274.09C274.273 239.05 274.448 238.977 274.578 238.848C274.707 238.719 274.78 238.543 274.78 238.36C274.78 238.177 274.707 238.002 274.578 237.872C274.448 237.743 274.273 237.67 274.09 237.67H274.1Z" fill="#4152F3"/>
<path d="M379.94 206.56V228.56C380.081 230.579 379.46 232.577 378.2 234.16C377.446 234.993 376.517 235.65 375.48 236.082C374.443 236.514 373.323 236.711 372.2 236.66H349.05C348.867 236.66 348.692 236.733 348.562 236.862C348.433 236.991 348.36 237.167 348.36 237.35C348.36 237.533 348.433 237.708 348.562 237.838C348.692 237.967 348.867 238.04 349.05 238.04H371.92C373.854 238.137 375.773 237.653 377.43 236.65C378.62 235.857 379.597 234.784 380.276 233.525C380.954 232.266 381.313 230.86 381.32 229.43C381.39 225.81 381.32 222.19 381.32 218.57V206.57C381.32 206.387 381.247 206.211 381.118 206.082C380.988 205.953 380.813 205.88 380.63 205.88C380.447 205.88 380.271 205.953 380.142 206.082C380.013 206.211 379.94 206.387 379.94 206.57V206.56Z" fill="#4152F3"/>
<path d="M349.45 101.07H371.45C373.47 100.932 375.468 101.556 377.05 102.82C377.886 103.572 378.543 104.501 378.976 105.538C379.408 106.576 379.604 107.697 379.55 108.82V132C379.55 132.183 379.623 132.358 379.752 132.488C379.881 132.617 380.057 132.69 380.24 132.69C380.423 132.69 380.598 132.617 380.728 132.488C380.857 132.358 380.93 132.183 380.93 132V109.1C381.027 107.163 380.543 105.24 379.54 103.58C378.747 102.39 377.674 101.413 376.415 100.734C375.156 100.056 373.75 99.6975 372.32 99.69C368.7 99.63 365.08 99.69 361.46 99.69H349.46C349.277 99.69 349.101 99.7627 348.972 99.8921C348.843 100.021 348.77 100.197 348.77 100.38C348.77 100.563 348.843 100.738 348.972 100.868C349.101 100.997 349.277 101.07 349.46 101.07H349.45Z" fill="#4152F3"/>
</g>
<defs>
<clipPath id="clip0_101_277">
<rect width="405" height="439" fill="white"/>
</clipPath>
</defs>
</svg>
