<svg xmlns="http://www.w3.org/2000/svg" viewBox="0 0 500 500"><g id="freepik--Virus--inject-28"><path d="M315,369.86c-1.8,7.67-9.08,12.88-16.87,11.05-4.67-1.09-8.51-3.76-10.36-7.7a14.29,14.29,0,0,1-.73-9.49c2.16-9.2,10.15-13.1,17.77-11.31a13.11,13.11,0,0,1,7.73,5A15.48,15.48,0,0,1,315,369.86Z" style="fill:#FFC727;opacity:0.30000000000000004"></path><path d="M308.84,368.43a7.91,7.91,0,0,1-9.41,6.17,8.25,8.25,0,0,1-5.78-4.3,7.94,7.94,0,0,1-.4-5.29,8,8,0,0,1,9.91-6.31,7.32,7.32,0,0,1,4.31,2.77A8.68,8.68,0,0,1,308.84,368.43Z" style="fill:#FFC727;opacity:0.30000000000000004"></path><path d="M237.16,88.73c-2.59,11-13.06,18.51-24.25,15.88-6.73-1.57-12.24-5.4-14.91-11.07a20.55,20.55,0,0,1-1-13.65c3.09-13.23,14.59-18.83,25.55-16.26a18.79,18.79,0,0,1,11.12,7.15A22.27,22.27,0,0,1,237.16,88.73Z" style="fill:#FFC727;opacity:0.30000000000000004"></path><path d="M228.24,86.67C226.8,92.82,221,97,214.72,95.53a11.84,11.84,0,0,1-8.32-6.17,11.47,11.47,0,0,1-.58-7.62c1.73-7.38,8.14-10.5,14.25-9.07a10.52,10.52,0,0,1,6.21,4A12.4,12.4,0,0,1,228.24,86.67Z" style="fill:#FFC727;opacity:0.30000000000000004"></path><path d="M81.57,313.64A8.16,8.16,0,0,1,71.88,320a8.49,8.49,0,0,1-5.95-4.42,8.76,8.76,0,0,1,9.79-11.95,7.56,7.56,0,0,1,4.44,2.86A8.87,8.87,0,0,1,81.57,313.64Z" style="fill:#FFC727;opacity:0.30000000000000004"></path><path d="M78,312.82a4.54,4.54,0,0,1-5.4,3.54,4.71,4.71,0,0,1-3.32-2.46,4.52,4.52,0,0,1-.23-3,4.59,4.59,0,0,1,5.69-3.62,4.13,4.13,0,0,1,2.47,1.59A4.93,4.93,0,0,1,78,312.82Z" style="fill:#FFC727;opacity:0.30000000000000004"></path><path d="M444.27,258.68a8.14,8.14,0,0,1-9.68,6.35,8.47,8.47,0,0,1-5.95-4.42,8.75,8.75,0,0,1,9.78-12,7.52,7.52,0,0,1,4.44,2.86A8.87,8.87,0,0,1,444.27,258.68Z" style="fill:#FFC727;opacity:0.30000000000000004"></path><path d="M440.71,257.86a4.53,4.53,0,0,1-5.4,3.54,4.75,4.75,0,0,1-3.32-2.46,4.89,4.89,0,0,1,5.46-6.67,4.21,4.21,0,0,1,2.48,1.6A5,5,0,0,1,440.71,257.86Z" style="fill:#FFC727;opacity:0.30000000000000004"></path><path d="M401.68,376.66A8.15,8.15,0,0,1,392,383a8.49,8.49,0,0,1-5.95-4.42,8.76,8.76,0,0,1,9.79-11.94,7.47,7.47,0,0,1,4.44,2.85A8.89,8.89,0,0,1,401.68,376.66Z" style="fill:#FFC727;opacity:0.30000000000000004"></path><path d="M398.12,375.84a4.54,4.54,0,0,1-5.4,3.53,4.71,4.71,0,0,1-3.32-2.46,4.52,4.52,0,0,1-.23-3,4.6,4.6,0,0,1,5.69-3.62,4.18,4.18,0,0,1,2.47,1.59A4.94,4.94,0,0,1,398.12,375.84Z" style="fill:#FFC727;opacity:0.30000000000000004"></path><path d="M406.28,280.36s2.92-4,3.05-4.2-.54-1.36-.32-1.62,3,.89,2.73,1.45c-.18.33-1.14.42-1.24.57s-2.1,4.93-2.1,4.93Z" style="fill:#FFC727"></path><path d="M409.28,274.63a6,6,0,0,0,2.3,1.13"></path><path d="M406.28,280.36s2.92-4,3.05-4.2-.54-1.36-.32-1.62,3,.89,2.73,1.45c-.18.33-1.14.42-1.24.57s-2.1,4.93-2.1,4.93Z" style="opacity:0.1"></path><path d="M399.17,280.53s-.78-4.9-.81-5.13-1.35-.58-1.39-.92,2.78-1.5,3-.9c.11.36-.51,1.1-.47,1.28s2,5,2,5Z" style="fill:#FFC727"></path><path d="M397.23,274.36a6,6,0,0,0,2.43-.83"></path><path d="M399.17,280.53s-.78-4.9-.81-5.13-1.35-.58-1.39-.92,2.78-1.5,3-.9c.11.36-.51,1.1-.47,1.28s2,5,2,5Z" style="opacity:0.1"></path><path d="M394.26,285.68l-4.2-3.05c-.19-.14-1.37.54-1.63.33s.89-3,1.45-2.74c.33.18.42,1.14.57,1.24s4.93,2.1,4.93,2.1Z" style="fill:#FFC727"></path><path d="M388.52,282.69a6,6,0,0,0,1.13-2.31"></path><path d="M394.26,285.68l-4.2-3.05c-.19-.14-1.37.54-1.63.33s.89-3,1.45-2.74c.33.18.42,1.14.57,1.24s4.93,2.1,4.93,2.1Z" style="opacity:0.1"></path><path d="M394.42,292.8l-5.12.81c-.23,0-.59,1.35-.92,1.38s-1.51-2.77-.91-3c.36-.11,1.1.51,1.28.47s5-2,5-2Z" style="fill:#FFC727"></path><path d="M388.25,294.73a6,6,0,0,0-.83-2.43"></path><path d="M394.42,292.8l-5.12.81c-.23,0-.59,1.35-.92,1.38s-1.51-2.77-.91-3c.36-.11,1.1.51,1.28.47s5-2,5-2Z" style="opacity:0.1"></path><path d="M399.57,297.71l-3.05,4.2c-.14.19.54,1.37.33,1.63s-3-.9-2.73-1.46c.17-.33,1.13-.42,1.23-.57s2.1-4.93,2.1-4.93Z" style="fill:#FFC727"></path><path d="M396.58,303.44a6,6,0,0,0-2.3-1.13"></path><path d="M399.57,297.71l-3.05,4.2c-.14.19.54,1.37.33,1.63s-3-.9-2.73-1.46c.17-.33,1.13-.42,1.23-.57s2.1-4.93,2.1-4.93Z" style="opacity:0.1"></path><path d="M406.69,297.54s.77,4.9.81,5.13,1.35.58,1.38.92-2.77,1.5-3,.9c-.11-.36.51-1.1.47-1.28s-2-5-2-5Z" style="fill:#FFC727"></path><path d="M408.62,303.71a5.88,5.88,0,0,0-2.42.83"></path><path d="M406.69,297.54s.77,4.9.81,5.13,1.35.58,1.38.92-2.77,1.5-3,.9c-.11-.36.51-1.1.47-1.28s-2-5-2-5Z" style="opacity:0.1"></path><path d="M411.6,292.39l4.2,3.05c.19.14,1.37-.54,1.63-.33s-.9,3-1.45,2.74c-.34-.18-.43-1.14-.58-1.24s-4.93-2.1-4.93-2.1Z" style="fill:#FFC727"></path><path d="M417.33,295.39a6,6,0,0,0-1.13,2.3"></path><path d="M411.6,292.39l4.2,3.05c.19.14,1.37-.54,1.63-.33s-.9,3-1.45,2.74c-.34-.18-.43-1.14-.58-1.24s-4.93-2.1-4.93-2.1Z" style="opacity:0.1"></path><path d="M411.43,285.28l5.13-.82c.23,0,.58-1.35.92-1.38s1.51,2.77.9,3c-.36.11-1.1-.51-1.28-.47s-5,2-5,2Z" style="fill:#FFC727"></path><path d="M417.6,283.34a6.12,6.12,0,0,0,.83,2.43"></path><path d="M411.43,285.28l5.13-.82c.23,0,.58-1.35.92-1.38s1.51,2.77.9,3c-.36.11-1.1-.51-1.28-.47s-5,2-5,2Z" style="opacity:0.1"></path><path d="M405.21,279.6s3.11-6.17,3.22-6.37-.7-1.3-.52-1.58,3.13.53,2.9,1.12c-.13.35-1.08.55-1.16.72s-2.19,7-2.19,7Z" style="fill:#FFC727"></path><path d="M408.19,271.71a6.12,6.12,0,0,0,2.43.85"></path><path d="M398,280.87s-2.16-6.56-2.22-6.78-1.42-.43-1.49-.75,2.58-1.84,2.84-1.26c.16.34-.37,1.16-.31,1.33s3.39,6.48,3.39,6.48Z" style="fill:#FFC727"></path><path d="M394.53,273.18a6,6,0,0,0,2.32-1.12"></path><path d="M393.8,286.86l-6.37-3.22c-.2-.11-1.3.7-1.58.52s.53-3.12,1.12-2.9c.35.14.55,1.09.72,1.17s7,2.18,7,2.18Z" style="fill:#FFC727"></path><path d="M385.91,283.88a6,6,0,0,0,.85-2.43"></path><path d="M395.07,294.07l-6.78,2.23c-.23.06-.42,1.41-.75,1.49s-1.84-2.59-1.26-2.85c.35-.15,1.16.38,1.33.32s6.48-3.4,6.48-3.4Z" style="fill:#FFC727"></path><path d="M387.38,297.54a6.14,6.14,0,0,0-1.11-2.32"></path><path d="M401.07,298.27s-3.11,6.17-3.23,6.37.71,1.3.53,1.59-3.13-.53-2.91-1.12c.14-.36,1.09-.56,1.17-.72s2.18-7,2.18-7Z" style="fill:#FFC727"></path><path d="M398.08,306.17a6,6,0,0,0-2.43-.86"></path><path d="M408.27,297s2.17,6.56,2.23,6.78,1.42.43,1.49.76-2.59,1.83-2.84,1.26c-.16-.35.37-1.16.31-1.34s-3.39-6.48-3.39-6.48Z" style="fill:#FFC727"></path><path d="M411.75,304.69a6.07,6.07,0,0,0-2.33,1.12"></path><path d="M412.47,291l6.37,3.22c.21.11,1.3-.7,1.59-.52s-.53,3.12-1.12,2.9c-.36-.14-.56-1.08-.72-1.17s-7-2.18-7-2.18Z" style="fill:#FFC727"></path><path d="M420.37,294a6,6,0,0,0-.86,2.43"></path><path d="M411.21,283.8l6.78-2.23c.22-.06.42-1.41.75-1.49s1.84,2.59,1.26,2.85c-.35.15-1.16-.38-1.34-.32s-6.48,3.4-6.48,3.4Z" style="fill:#FFC727"></path><path d="M418.9,280.33a6,6,0,0,0,1.11,2.32"></path><path d="M414.58,291.57c-1.47,6.31-7.47,10.59-13.88,9.09-4.06-1-7.35-3.33-8.77-6.88a12,12,0,0,1-.36-7.27c1.77-7.58,8.35-10.78,14.63-9.31a11,11,0,0,1,4.07,1.83C414.35,282,415.57,287.32,414.58,291.57Z" style="fill:#FFC727"></path><path d="M414.58,291.57c-1.47,6.31-7.47,10.59-13.88,9.09-4.06-1-7.35-3.33-8.77-6.88,2.8,2.22,8.59,5.77,14.39,3,8-3.81,7.48-13,3.95-17.77C414.35,282,415.57,287.32,414.58,291.57Z" style="opacity:0.1"></path><path d="M404,280.25h-2.74a2.9,2.9,0,0,1,0-.3c.16-1.11.74-4.87.77-5.09s-1.27-1.09-1.19-1.47c0-.17.76-.33,1.54-.39.94-.08,2,0,2,.39s-.92,1-.94,1.24S404,280.25,404,280.25Z" style="fill:#FFC727"></path><path d="M401.24,273.34a6.86,6.86,0,0,0,2.92-.09Z"></path><path d="M401.34,280c.16-1.11.74-4.87.77-5.09s-1.27-1.09-1.19-1.47c0-.17.76-.33,1.54-.39a2.23,2.23,0,0,0-.73.32l-.06.08c-.06.1,0,.2.07.3.25.29.85.63.87.93S401.38,279.8,401.34,280Z" style="opacity:0.1"></path><path d="M397.48,281.74l-1.94,1.93-.07-.1v0c-.51-.68-3-4.09-3.15-4.28s-1.67.13-1.88-.19.84-1.55,1.64-2.2c.37-.29.69-.45.85-.29.3.31.08,1.38.21,1.54S397.48,281.74,397.48,281.74Z" style="fill:#FFC727"></path><path d="M390.62,278.82a6.8,6.8,0,0,0,2-2.13Z"></path><path d="M395.46,283.55c-.51-.68-3-4.09-3.15-4.28s-1.67.13-1.88-.19.84-1.55,1.64-2.2a4.94,4.94,0,0,0-.73,1.17,1.14,1.14,0,0,0-.08.27c0,.12,0,.21.07.23.31.1,1-.14,1.29.05S395.28,283.22,395.46,283.55Z" style="opacity:0.1"></path><path d="M393.9,287.42v2.74h0l-5.39-.82c-.26,0-1.08,1.27-1.46,1.2s-.66-3-.14-3.47A.2.2,0,0,1,387,287c.43,0,1,.92,1.24.94C388.63,288,393.9,287.42,393.9,287.42Z" style="fill:#FFC727"></path><path d="M387,290.21a6.87,6.87,0,0,0-.09-2.92Z"></path><path d="M393.88,290.15l-5.39-.82c-.26,0-1.08,1.27-1.46,1.2s-.66-3-.14-3.47a2.64,2.64,0,0,0,.06,2.14,1,1,0,0,0,.13.23c.08.11.16.17.22.16.31-.07.78-.71,1.22-.68S393.59,290.08,393.88,290.15Z" style="opacity:0.1"></path><path d="M392.91,299.14c-.16.11,0,.94-.05,1.47a.57.57,0,0,1-.13.41c-.32.21-3-2-2.5-2.49.31-.31,1.38-.08,1.54-.21s1.53-1.8,2.53-3h0l1.07-1.31,1.93,1.93Z" style="fill:#FFC727"></path><path d="M392.46,300.83a6.8,6.8,0,0,0-2.13-2Z"></path><path d="M392.86,300.61a.57.57,0,0,1-.13.41c-.32.21-3-2-2.5-2.49.31-.31,1.38-.08,1.54-.21s1.53-1.8,2.53-3a24.69,24.69,0,0,1-2.21,3.41c-.25.12-.93.12-1,.45a.36.36,0,0,0,.06.22,3.45,3.45,0,0,0,.5.7,4.17,4.17,0,0,0,.66.62l.1.06c.13.08.23.12.3.08A.43.43,0,0,0,392.86,300.61Z" style="opacity:0.1"></path><path d="M404.17,304.41c0,.09-.24.18-.55.25-1,.23-3,.3-3-.25s.92-1,.94-1.24-.24-2.87-.4-4.44h0l-.12-1.17h2.73L403,303C402.93,303.21,404.25,304,404.17,304.41Z" style="fill:#FFC727"></path><path d="M403.85,304.46a6.87,6.87,0,0,0-2.92.09Z"></path><path d="M403.62,304.66c-1,.23-3,.3-3-.25s.92-1,.94-1.24-.24-2.87-.4-4.44c.29,1.47.86,4.33.83,4.45s-.75.91-.55,1.16a.22.22,0,0,0,.07.06,1.37,1.37,0,0,0,.4.12A9.31,9.31,0,0,0,403.62,304.66Z" style="opacity:0.1"></path><path d="M413.77,300.18c-.61.69-1.34,1.29-1.6,1s-.08-1.38-.22-1.54-3.22-2.69-4.1-3.41h0l-.24-.19,1.93-1.94,3.24,4.4c.16.22,1.67-.13,1.88.19C414.76,298.87,414.32,299.56,413.77,300.18Z" style="fill:#FFC727"></path><path d="M414.47,299a6.8,6.8,0,0,0-2,2.13Z"></path><path d="M413.77,300.18c-.61.69-1.34,1.29-1.6,1s-.08-1.38-.22-1.54-3.22-2.69-4.1-3.41h0s4.58,2.91,4.61,3.15-.06,1.23.25,1.27a.54.54,0,0,0,.2,0A4.79,4.79,0,0,0,413.77,300.18Z" style="opacity:0.1"></path><path d="M418.05,290.8c-.23,0-.5-.26-.74-.5s-.4-.43-.5-.44c-.35,0-5.62.53-5.62.53v-2.74l1.11.17h0l4.27.66c.26,0,1.09-1.28,1.46-1.21S418.77,290.8,418.05,290.8Z" style="fill:#FFC727"></path><path d="M418.1,287.6a6.86,6.86,0,0,0,.09,2.92Z"></path><path d="M418.05,290.8c-.23,0-.5-.26-.74-.5a4.8,4.8,0,0,0,.67,0,.14.14,0,0,0,.12-.08.38.38,0,0,0,.08-.17,3,3,0,0,0,0-1.3,2,2,0,0,0-.13-.39h0c-.05-.09-.1-.14-.16-.14-.35,0-1,.74-1.47.67s-2.74-.72-4.06-1.09l4.27.66c.26,0,1.09-1.28,1.46-1.21S418.77,290.8,418.05,290.8Z" style="opacity:0.1"></path><path d="M414.85,279.28c-.3.31-1.38.08-1.54.21s-3.6,4.35-3.6,4.35l-1.94-1.94.42-.31h0l4-2.92c.21-.16-.13-1.67.19-1.89.16-.1.95.42,1.6,1h0C414.59,278.38,415.1,279,414.85,279.28Z" style="fill:#FFC727"></path><path d="M412.62,277a6.8,6.8,0,0,0,2.13,2Z"></path><path d="M414,277.81a2.75,2.75,0,0,0-.78-.31.35.35,0,0,0-.17,0c-.16,0-.27.06-.29.21-.07.4.18,1.13,0,1.37s-4.35,2.44-4.52,2.53l4-2.92c.21-.16-.13-1.67.19-1.89C412.52,276.68,413.31,277.2,414,277.81Z" style="opacity:0.1"></path><g style="opacity:0.1"><path d="M399.23,296.23c-.11.26-.55.31-1,.11s-.67-.56-.55-.81.55-.31,1-.11S399.35,296,399.23,296.23Z"></path><path d="M399,297.14a2.87,2.87,0,0,1-1.68-.79.91.91,0,0,1-.27-1c.18-.45.61-.44,1-.48a0,0,0,0,0,0,0c-.71-.08-1.56.22-1.43,1.08.15,1,1.44,1.46,2.33,1.39C399,297.3,399.05,297.16,399,297.14Z"></path><path d="M400.84,281.68c0,.28-.44.57-1.06.65s-1.15-.07-1.19-.35.44-.57,1.06-.65S400.8,281.4,400.84,281.68Z"></path><path d="M399.23,282.92a2.32,2.32,0,0,1-.92-.3.68.68,0,0,1-.19-1,2.1,2.1,0,0,1,1.52-.83s0-.06,0-.05c-.71,0-1.76.38-2,1.14-.3,1,.9,1.17,1.59,1.16A.06.06,0,0,0,399.23,282.92Z"></path><path d="M409.57,285.21c0,.28-.39.5-.86.48s-.84-.24-.83-.53.39-.49.86-.48S409.58,284.93,409.57,285.21Z"></path><path d="M408.64,286.33a3.5,3.5,0,0,1-1.31-.65c-.66-.71.36-1.14.92-1.31,0,0,0-.05,0-.05-.61.06-1.54.43-1.41,1.19s1.15,1.07,1.79,1A.08.08,0,0,0,408.64,286.33Z"></path><path d="M396.06,293.09c0,.22-.32.38-.68.36s-.64-.21-.63-.43.31-.38.67-.36S396.07,292.87,396.06,293.09Z"></path><path d="M395.31,293.94a2.76,2.76,0,0,1-1-.53c-.5-.56.31-.88.74-1,0,0,0,0,0,0-.47,0-1.2.3-1.11.89s.87.86,1.36.78C395.36,294.05,395.36,294,395.31,293.94Z"></path><path d="M411.73,293.37c.06.34-.36.7-.93.8s-1.08-.1-1.14-.44.35-.71.93-.81S411.67,293,411.73,293.37Z"></path><path d="M409.68,292.79s0,0,0,0c-.54.41-1.3,1.07-.76,1.8a1.65,1.65,0,0,0,2.05.33.06.06,0,0,0,0-.11,2.76,2.76,0,0,1-1.48-.19C408.55,294.15,409.16,293.25,409.68,292.79Z"></path></g><path d="M111.64,258.5l3.06-4.2c.13-.19-.54-1.37-.33-1.63s3,.9,2.73,1.45c-.18.34-1.14.42-1.24.58s-2.09,4.93-2.09,4.93Z" style="fill:#FFC727"></path><path d="M114.64,252.76a5.93,5.93,0,0,0,2.3,1.14" style="fill:#263238"></path><path d="M111.64,258.5l3.06-4.2c.13-.19-.54-1.37-.33-1.63s3,.9,2.73,1.45c-.18.34-1.14.42-1.24.58s-2.09,4.93-2.09,4.93Z" style="opacity:0.1"></path><path d="M104.53,258.67s-.78-4.9-.81-5.13-1.35-.59-1.39-.92,2.78-1.51,3-.91c.12.37-.5,1.11-.47,1.28s2,5,2,5Z" style="fill:#FFC727"></path><path d="M102.59,252.49a6,6,0,0,0,2.43-.82" style="fill:#263238"></path><path d="M104.53,258.67s-.78-4.9-.81-5.13-1.35-.59-1.39-.92,2.78-1.51,3-.91c.12.37-.5,1.11-.47,1.28s2,5,2,5Z" style="opacity:0.1"></path><path d="M99.62,263.82l-4.2-3.05c-.19-.14-1.37.54-1.63.32s.89-3,1.45-2.73c.34.18.42,1.14.57,1.24s4.94,2.09,4.94,2.09Z" style="fill:#FFC727"></path><path d="M93.88,260.82a5.93,5.93,0,0,0,1.14-2.3" style="fill:#263238"></path><path d="M99.62,263.82l-4.2-3.05c-.19-.14-1.37.54-1.63.32s.89-3,1.45-2.73c.34.18.42,1.14.57,1.24s4.94,2.09,4.94,2.09Z" style="opacity:0.1"></path><path d="M99.79,270.93l-5.13.81c-.23,0-.59,1.35-.92,1.39s-1.51-2.78-.91-3c.36-.11,1.1.5,1.28.47s5-2,5-2Z" style="fill:#FFC727"></path><path d="M93.61,272.87a6,6,0,0,0-.82-2.43" style="fill:#263238"></path><path d="M99.79,270.93l-5.13.81c-.23,0-.59,1.35-.92,1.39s-1.51-2.78-.91-3c.36-.11,1.1.5,1.28.47s5-2,5-2Z" style="opacity:0.1"></path><path d="M104.93,275.84s-2.91,4-3.05,4.2.54,1.37.33,1.63-3-.89-2.73-1.45c.17-.33,1.14-.42,1.23-.57s2.1-4.93,2.1-4.93Z" style="fill:#FFC727"></path><path d="M101.94,281.58a6,6,0,0,0-2.3-1.13" style="fill:#263238"></path><path d="M104.93,275.84s-2.91,4-3.05,4.2.54,1.37.33,1.63-3-.89-2.73-1.45c.17-.33,1.14-.42,1.23-.57s2.1-4.93,2.1-4.93Z" style="opacity:0.1"></path><path d="M112.05,275.68s.78,4.89.81,5.12,1.35.59,1.38.92-2.77,1.51-2.95.91c-.12-.36.5-1.1.46-1.28s-2-5-2-5Z" style="fill:#FFC727"></path><path d="M114,281.85a6,6,0,0,0-2.43.82" style="fill:#263238"></path><path d="M112.05,275.68s.78,4.89.81,5.12,1.35.59,1.38.92-2.77,1.51-2.95.91c-.12-.36.5-1.1.46-1.28s-2-5-2-5Z" style="opacity:0.1"></path><path d="M117,270.53l4.2,3.05c.19.14,1.37-.54,1.63-.33s-.9,3-1.45,2.73c-.34-.17-.42-1.13-.58-1.23s-4.93-2.1-4.93-2.1Z" style="fill:#FFC727"></path><path d="M122.7,273.52a6,6,0,0,0-1.14,2.3" style="fill:#263238"></path><path d="M117,270.53l4.2,3.05c.19.14,1.37-.54,1.63-.33s-.9,3-1.45,2.73c-.34-.17-.42-1.13-.58-1.23s-4.93-2.1-4.93-2.1Z" style="opacity:0.1"></path><path d="M116.79,263.41l5.13-.81c.23,0,.59-1.35.92-1.38s1.51,2.77.91,3c-.36.11-1.11-.51-1.28-.47s-5,2-5,2Z" style="fill:#FFC727"></path><path d="M123,261.48a6,6,0,0,0,.82,2.42" style="fill:#263238"></path><path d="M116.79,263.41l5.13-.81c.23,0,.59-1.35.92-1.38s1.51,2.77.91,3c-.36.11-1.11-.51-1.28-.47s-5,2-5,2Z" style="opacity:0.1"></path><path d="M110.57,257.74s3.11-6.17,3.23-6.37-.71-1.3-.53-1.59,3.13.53,2.9,1.12c-.13.36-1.08.56-1.16.72s-2.18,7-2.18,7Z" style="fill:#FFC727"></path><path d="M113.56,249.84a6,6,0,0,0,2.43.86" style="fill:#263238"></path><path d="M103.36,259s-2.16-6.56-2.22-6.79-1.42-.42-1.49-.75,2.58-1.83,2.84-1.26c.16.35-.37,1.16-.31,1.34s3.39,6.48,3.39,6.48Z" style="fill:#FFC727"></path><path d="M99.89,251.31a6,6,0,0,0,2.33-1.11" style="fill:#263238"></path><path d="M99.16,265l-6.36-3.22c-.21-.12-1.3.7-1.59.52s.53-3.13,1.12-2.9c.36.13.56,1.08.72,1.16s7,2.19,7,2.19Z" style="fill:#FFC727"></path><path d="M91.27,262a6.07,6.07,0,0,0,.86-2.43" style="fill:#263238"></path><path d="M100.43,272.21s-6.55,2.16-6.78,2.22-.42,1.42-.75,1.49-1.84-2.58-1.26-2.84c.35-.15,1.16.37,1.33.31S99.46,270,99.46,270Z" style="fill:#FFC727"></path><path d="M92.74,275.68a5.91,5.91,0,0,0-1.11-2.32" style="fill:#263238"></path><path d="M106.43,276.41l-3.22,6.37c-.12.2.7,1.3.52,1.58s-3.13-.53-2.9-1.12c.13-.35,1.08-.55,1.16-.72s2.19-7,2.19-7Z" style="fill:#FFC727"></path><path d="M103.45,284.3a6.12,6.12,0,0,0-2.44-.85" style="fill:#263238"></path><path d="M113.64,275.14s2.16,6.56,2.22,6.78,1.42.42,1.49.75-2.58,1.84-2.84,1.26c-.16-.35.37-1.16.31-1.33s-3.39-6.48-3.39-6.48Z" style="fill:#FFC727"></path><path d="M117.11,282.83a6.07,6.07,0,0,0-2.32,1.11" style="fill:#263238"></path><path d="M117.84,269.14s6.16,3.11,6.37,3.23,1.3-.71,1.58-.53-.53,3.13-1.12,2.91c-.35-.14-.56-1.09-.72-1.17s-7-2.18-7-2.18Z" style="fill:#FFC727"></path><path d="M125.73,272.13a5.89,5.89,0,0,0-.85,2.43" style="fill:#263238"></path><path d="M116.57,261.94s6.55-2.17,6.78-2.23.42-1.42.75-1.49,1.84,2.59,1.26,2.84c-.35.16-1.16-.37-1.33-.31s-6.48,3.39-6.48,3.39Z" style="fill:#FFC727"></path><path d="M124.26,258.46a6,6,0,0,0,1.11,2.33" style="fill:#263238"></path><path d="M119.94,269.71c-1.47,6.31-7.47,10.59-13.88,9.09-4.06-.95-7.35-3.33-8.77-6.88a12,12,0,0,1-.36-7.27c1.77-7.58,8.35-10.78,14.63-9.31a11,11,0,0,1,4.07,1.83C119.71,260.11,120.93,265.46,119.94,269.71Z" style="fill:#FFC727"></path><path d="M119.94,269.71c-1.47,6.31-7.47,10.59-13.88,9.09-4.06-.95-7.35-3.33-8.77-6.88,2.8,2.22,8.59,5.77,14.39,3,8-3.81,7.48-13,3.95-17.77C119.71,260.11,120.93,265.46,119.94,269.71Z" style="opacity:0.1"></path><path d="M109.39,258.39h-2.74l0-.3c.17-1.11.74-4.87.78-5.1s-1.28-1.08-1.2-1.46c0-.17.76-.33,1.54-.39,1-.08,2,0,2,.39s-.92,1-.93,1.24S109.39,258.39,109.39,258.39Z" style="fill:#FFC727"></path><path d="M106.6,251.48a6.86,6.86,0,0,0,2.92-.09Z" style="fill:#263238"></path><path d="M106.7,258.09c.17-1.11.74-4.87.78-5.1s-1.28-1.08-1.2-1.46c0-.17.76-.33,1.54-.39a2,2,0,0,0-.73.32.21.21,0,0,0-.06.08.24.24,0,0,0,.07.3c.25.29.85.63.87.92S106.75,257.93,106.7,258.09Z" style="opacity:0.1"></path><path d="M102.84,259.87l-1.93,1.94-.08-.1v0l-3.15-4.28c-.16-.21-1.67.13-1.88-.19s.84-1.55,1.65-2.2c.36-.3.68-.45.84-.29.31.3.08,1.38.21,1.54S102.84,259.87,102.84,259.87Z" style="fill:#FFC727"></path><path d="M96,257a6.8,6.8,0,0,0,2-2.13Z" style="fill:#263238"></path><path d="M100.82,261.69l-3.15-4.28c-.16-.21-1.67.13-1.88-.19s.84-1.55,1.65-2.2a4.63,4.63,0,0,0-.74,1.17.78.78,0,0,0-.07.26q0,.19.06.24c.31.1,1-.14,1.29,0S100.64,261.36,100.82,261.69Z" style="opacity:0.1"></path><path d="M99.26,265.55v2.74h0l-5.38-.82c-.26,0-1.09,1.27-1.46,1.19s-.67-3-.15-3.46a.2.2,0,0,1,.15-.06c.43,0,1,.92,1.23.94C94,266.11,99.26,265.55,99.26,265.55Z" style="fill:#FFC727"></path><path d="M92.34,268.34a6.69,6.69,0,0,0-.09-2.92Z" style="fill:#263238"></path><path d="M99.24,268.29l-5.38-.82c-.26,0-1.09,1.27-1.46,1.19s-.67-3-.15-3.46a2.68,2.68,0,0,0,.06,2.14,1.42,1.42,0,0,0,.13.22c.08.11.16.17.23.16.3-.07.77-.7,1.21-.67S99,268.22,99.24,268.29Z" style="opacity:0.1"></path><path d="M98.27,277.27c-.15.12,0,1,0,1.48a.57.57,0,0,1-.13.41c-.32.21-3-2-2.49-2.49.3-.31,1.37-.09,1.53-.22s1.53-1.79,2.53-3h0l1.07-1.32,1.93,1.94Z" style="fill:#FFC727"></path><path d="M97.82,279a6.8,6.8,0,0,0-2.13-2Z" style="fill:#263238"></path><path d="M98.22,278.75a.57.57,0,0,1-.13.41c-.32.21-3-2-2.49-2.49.3-.31,1.37-.09,1.53-.22s1.53-1.79,2.53-3a26.71,26.71,0,0,1-2.2,3.41c-.26.11-.94.11-1,.45a.73.73,0,0,0,.06.22,3.55,3.55,0,0,0,.5.69,4.61,4.61,0,0,0,.66.62l.1.07c.13.08.23.11.3.08A.47.47,0,0,0,98.22,278.75Z" style="opacity:0.1"></path><path d="M109.53,282.55c0,.09-.23.18-.55.25-1,.23-3,.29-3-.25s.92-1,.93-1.24-.24-2.87-.4-4.45h0l-.12-1.17h2.74l-.83,5.4C108.29,281.35,109.61,282.17,109.53,282.55Z" style="fill:#FFC727"></path><path d="M109.21,282.6a6.86,6.86,0,0,0-2.92.09Z" style="fill:#263238"></path><path d="M109,282.8c-1,.23-3,.29-3-.25s.92-1,.93-1.24-.24-2.87-.4-4.45c.3,1.47.86,4.33.83,4.46s-.74.9-.55,1.16a.16.16,0,0,0,.08,0,1,1,0,0,0,.39.13A9.31,9.31,0,0,0,109,282.8Z" style="opacity:0.1"></path><path d="M119.13,278.32c-.61.69-1.34,1.29-1.6,1s-.08-1.38-.21-1.54-3.23-2.7-4.11-3.41h0l-.24-.2,1.93-1.93,3.24,4.4c.16.21,1.67-.13,1.88.18C120.12,277,119.68,277.7,119.13,278.32Z" style="fill:#FFC727"></path><path d="M119.83,277.12a6.8,6.8,0,0,0-2,2.13Z" style="fill:#263238"></path><path d="M119.13,278.32c-.61.69-1.34,1.29-1.6,1s-.08-1.38-.21-1.54-3.23-2.7-4.11-3.41h0s4.58,2.9,4.62,3.15-.06,1.23.24,1.26a.38.38,0,0,0,.2,0A4.19,4.19,0,0,0,119.13,278.32Z" style="opacity:0.1"></path><path d="M123.41,268.94c-.22,0-.5-.26-.74-.51s-.4-.42-.5-.43c-.35,0-5.62.52-5.62.52v-2.73l1.11.16h0l4.27.65c.27,0,1.09-1.27,1.46-1.2S124.13,268.94,123.41,268.94Z" style="fill:#FFC727"></path><path d="M123.47,265.73a6.74,6.74,0,0,0,.09,2.93Z" style="fill:#263238"></path><path d="M123.41,268.94c-.22,0-.5-.26-.74-.51.19,0,.45,0,.67,0a.26.26,0,0,0,.13-.08.54.54,0,0,0,.07-.17,3.09,3.09,0,0,0,0-1.31,1.53,1.53,0,0,0-.13-.38h0c-.05-.09-.1-.14-.16-.14-.35,0-1,.74-1.46.67s-2.75-.72-4.07-1.09l4.27.65c.27,0,1.09-1.27,1.46-1.2S124.13,268.94,123.41,268.94Z" style="opacity:0.1"></path><path d="M120.21,257.41c-.3.31-1.37.08-1.53.22s-3.61,4.34-3.61,4.34L113.13,260l.43-.31h0l4-2.93c.21-.16-.14-1.67.18-1.88.16-.11,1,.42,1.6,1h0C120,256.52,120.46,257.17,120.21,257.41Z" style="fill:#FFC727"></path><path d="M118,255.11a6.84,6.84,0,0,0,2.12,2Z" style="fill:#263238"></path><path d="M119.32,255.94a2.64,2.64,0,0,0-.78-.31l-.17,0c-.16,0-.26.07-.29.22-.07.4.18,1.13,0,1.36s-4.35,2.45-4.52,2.54l4-2.93c.21-.16-.14-1.67.18-1.88C117.88,254.81,118.67,255.34,119.32,255.94Z" style="opacity:0.1"></path><g style="opacity:0.1"><path d="M104.6,274.37c-.12.25-.56.3-1,.11s-.68-.56-.56-.82.56-.3,1-.11S104.71,274.11,104.6,274.37Z"></path><path d="M104.31,275.28a2.88,2.88,0,0,1-1.67-.8.87.87,0,0,1-.27-1c.17-.45.6-.44,1-.48,0,0,0,0,0,0-.71-.08-1.56.21-1.43,1.08s1.45,1.45,2.34,1.38C104.39,275.44,104.41,275.29,104.31,275.28Z"></path><path d="M106.2,259.82c0,.27-.43.57-1,.65s-1.16-.07-1.2-.35.44-.57,1.06-.66S106.17,259.54,106.2,259.82Z"></path><path d="M104.6,261.06a2.48,2.48,0,0,1-.93-.3.7.7,0,0,1-.19-1,2.13,2.13,0,0,1,1.52-.82s0-.06,0-.06c-.7,0-1.76.39-2,1.15-.29,1,.91,1.16,1.6,1.15C104.66,261.17,104.66,261.07,104.6,261.06Z"></path><path d="M114.93,263.34c0,.29-.39.5-.86.49s-.84-.25-.83-.53.39-.5.86-.49S114.94,263.06,114.93,263.34Z"></path><path d="M114,264.47a3.58,3.58,0,0,1-1.31-.65c-.66-.71.36-1.15.93-1.31a0,0,0,0,0,0-.05c-.61.05-1.54.43-1.41,1.19s1.15,1.07,1.79,1A.07.07,0,0,0,114,264.47Z"></path><path d="M101.42,271.23c0,.21-.31.37-.68.36s-.64-.21-.63-.43.31-.38.67-.36S101.43,271,101.42,271.23Z"></path><path d="M100.68,272.08a2.61,2.61,0,0,1-1-.53c-.51-.56.3-.88.74-1,0,0,0,0,0,0-.47,0-1.2.31-1.11.9s.87.85,1.36.78A.06.06,0,0,0,100.68,272.08Z"></path><path d="M117.09,271.5c.06.35-.35.71-.93.81s-1.08-.1-1.14-.45.36-.7.93-.8S117,271.16,117.09,271.5Z"></path><path d="M115,270.93s0,0,0,0c-.54.41-1.3,1.08-.75,1.81a1.62,1.62,0,0,0,2,.32s0-.11,0-.11a2.78,2.78,0,0,1-1.48-.18C113.91,272.29,114.53,271.39,115,270.93Z"></path></g><path d="M325.08,182.7l8.84,6.42c.4.29,2.88-1.14,3.43-.69s-1.88,6.37-3.06,5.75c-.7-.37-.88-2.39-1.2-2.6-.55-.36-10.38-4.42-10.38-4.42Z" style="fill:#FFC727"></path><path d="M337.15,189s-2.13,2.7-2.38,4.84" style="fill:#263238"></path><path d="M325.08,182.7l8.84,6.42c.4.29,2.88-1.14,3.43-.69s-1.88,6.37-3.06,5.75c-.7-.37-.88-2.39-1.2-2.6-.55-.36-10.38-4.42-10.38-4.42Z" style="opacity:0.1"></path><path d="M324.73,167.72,335.52,166c.49-.07,1.23-2.84,1.94-2.91s3.17,5.84,1.9,6.23c-.76.24-2.32-1.06-2.69-1-.64.14-10.46,4.22-10.46,4.22Z" style="fill:#FFC727"></path><path d="M337.72,163.65s.41,3.41,1.74,5.11" style="fill:#263238"></path><path d="M324.73,167.72,335.52,166c.49-.07,1.23-2.84,1.94-2.91s3.17,5.84,1.9,6.23c-.76.24-2.32-1.06-2.69-1-.64.14-10.46,4.22-10.46,4.22Z" style="opacity:0.1"></path><path d="M313.89,157.39l6.43-8.84c.28-.4-1.14-2.88-.7-3.43s6.38,1.88,5.76,3c-.37.71-2.4.89-2.61,1.21-.36.55-4.41,10.38-4.41,10.38Z" style="fill:#FFC727"></path><path d="M320.2,145.31s2.7,2.14,4.84,2.39" style="fill:#263238"></path><path d="M313.89,157.39l6.43-8.84c.28-.4-1.14-2.88-.7-3.43s6.38,1.88,5.76,3c-.37.71-2.4.89-2.61,1.21-.36.55-4.41,10.38-4.41,10.38Z" style="opacity:0.1"></path><path d="M298.92,157.74s-1.63-10.31-1.71-10.79-2.84-1.24-2.91-1.94,5.84-3.17,6.23-1.91c.23.77-1.07,2.32-1,2.7.14.64,4.22,10.46,4.22,10.46Z" style="fill:#FFC727"></path><path d="M294.84,144.75s3.42-.41,5.11-1.74" style="fill:#263238"></path><path d="M298.92,157.74s-1.63-10.31-1.71-10.79-2.84-1.24-2.91-1.94,5.84-3.17,6.23-1.91c.23.77-1.07,2.32-1,2.7.14.64,4.22,10.46,4.22,10.46Z" style="opacity:0.1"></path><path d="M288.58,168.58l-8.84-6.43c-.39-.29-2.88,1.14-3.42.69s1.88-6.37,3.05-5.75c.71.37.89,2.39,1.21,2.6.55.36,10.38,4.42,10.38,4.42Z" style="fill:#FFC727"></path><path d="M276.51,162.27s2.13-2.7,2.39-4.84" style="fill:#263238"></path><path d="M288.58,168.58l-8.84-6.43c-.39-.29-2.88,1.14-3.42.69s1.88-6.37,3.05-5.75c.71.37.89,2.39,1.21,2.6.55.36,10.38,4.42,10.38,4.42Z" style="opacity:0.1"></path><path d="M288.94,183.55l-10.8,1.71c-.48.07-1.23,2.84-1.93,2.91s-3.17-5.84-1.91-6.23c.76-.23,2.32,1.07,2.7,1,.64-.14,10.45-4.22,10.45-4.22Z" style="fill:#FFC727"></path><path d="M275.94,187.63s-.4-3.42-1.73-5.12" style="fill:#263238"></path><path d="M288.94,183.55l-10.8,1.71c-.48.07-1.23,2.84-1.93,2.91s-3.17-5.84-1.91-6.23c.76-.23,2.32,1.07,2.7,1,.64-.14,10.45-4.22,10.45-4.22Z" style="opacity:0.1"></path><path d="M299.77,193.89l-6.42,8.84c-.29.39,1.14,2.88.69,3.42s-6.37-1.88-5.75-3.05c.37-.71,2.39-.89,2.6-1.21.36-.55,4.41-10.38,4.41-10.38Z" style="fill:#FFC727"></path><path d="M293.47,206s-2.7-2.14-4.84-2.39" style="fill:#263238"></path><path d="M299.77,193.89l-6.42,8.84c-.29.39,1.14,2.88.69,3.42s-6.37-1.88-5.75-3.05c.37-.71,2.39-.89,2.6-1.21.36-.55,4.41-10.38,4.41-10.38Z" style="opacity:0.1"></path><path d="M314.74,193.53s1.64,10.31,1.71,10.8,2.85,1.23,2.92,1.93-5.84,3.17-6.23,1.91c-.24-.76,1.06-2.32,1-2.7-.13-.64-4.21-10.46-4.21-10.46Z" style="fill:#FFC727"></path><path d="M318.82,206.53s-3.42.4-5.11,1.73" style="fill:#263238"></path><path d="M314.74,193.53s1.64,10.31,1.71,10.8,2.85,1.23,2.92,1.93-5.84,3.17-6.23,1.91c-.24-.76,1.06-2.32,1-2.7-.13-.64-4.21-10.46-4.21-10.46Z" style="opacity:0.1"></path><path d="M326.69,180.44s13,6.54,13.41,6.78,2.73-1.48,3.33-1.1-1.11,6.58-2.36,6.11c-.74-.29-1.17-2.28-1.51-2.45-.59-.3-14.7-4.6-14.7-4.6Z" style="fill:#FFC727"></path><path d="M343.3,186.72s-1.8,2.95-1.79,5.12" style="fill:#263238"></path><path d="M324,165.27s13.8-4.55,14.27-4.68.89-3,1.59-3.14,3.86,5.44,2.65,6c-.74.32-2.45-.79-2.81-.67-.63.22-13.64,7.15-13.64,7.15Z" style="fill:#FFC727"></path><path d="M340.21,158s.81,3.36,2.34,4.89" style="fill:#263238"></path><path d="M311.4,156.43s6.55-13,6.79-13.4-1.48-2.74-1.1-3.34,6.58,1.12,6.1,2.36c-.28.75-2.28,1.17-2.45,1.52-.29.59-4.59,14.69-4.59,14.69Z" style="fill:#FFC727"></path><path d="M317.68,139.82s2.95,1.8,5.12,1.8" style="fill:#263238"></path><path d="M296.23,159.1s-4.55-13.8-4.68-14.27-3-.89-3.14-1.58,5.45-3.87,6-2.65c.32.73-.79,2.44-.66,2.8.21.63,7.14,13.64,7.14,13.64Z" style="fill:#FFC727"></path><path d="M288.92,142.92s3.37-.82,4.9-2.35" style="fill:#263238"></path><path d="M287.39,171.72s-13-6.54-13.4-6.78-2.74,1.48-3.34,1.1,1.12-6.58,2.36-6.11c.75.29,1.17,2.28,1.52,2.45.59.3,14.69,4.6,14.69,4.6Z" style="fill:#FFC727"></path><path d="M270.78,165.44s1.8-2.95,1.8-5.12" style="fill:#263238"></path><path d="M290.07,186.89s-13.8,4.55-14.28,4.68-.89,3-1.58,3.14-3.86-5.44-2.65-6c.73-.32,2.44.79,2.81.67.62-.22,13.64-7.15,13.64-7.15Z" style="fill:#FFC727"></path><path d="M273.88,194.2s-.81-3.36-2.35-4.89" style="fill:#263238"></path><path d="M302.68,195.73s-6.54,13-6.78,13.4,1.48,2.74,1.1,3.34-6.58-1.12-6.11-2.36c.29-.75,2.29-1.17,2.46-1.52.29-.59,4.59-14.69,4.59-14.69Z" style="fill:#FFC727"></path><path d="M296.41,212.34s-3-1.8-5.12-1.8" style="fill:#263238"></path><path d="M317.85,193.06s4.55,13.8,4.68,14.27,3,.89,3.14,1.58-5.44,3.87-6,2.65c-.33-.73.78-2.44.66-2.8-.21-.63-7.14-13.64-7.14-13.64Z" style="fill:#FFC727"></path><path d="M325.16,209.24s-3.36.82-4.89,2.35" style="fill:#263238"></path><path d="M331.74,182.53c-3.6,15.36-18.82,20.32-30.24,17.64A25.88,25.88,0,0,1,284.33,187a23.23,23.23,0,0,1-2-16.07c3.17-13.49,13.86-22.95,29.8-19.21A28.11,28.11,0,0,1,323.33,157C331.09,163.15,334,173,331.74,182.53Z" style="fill:#FFC727"></path><path d="M331.74,182.53c-3.6,15.36-18.82,20.32-30.24,17.64A25.88,25.88,0,0,1,284.33,187c6.25,4.68,17.77,11,29.31,5.53,15.91-7.54,15.89-25.07,9.69-35.56C331.09,163.15,334,173,331.74,182.53Z" style="opacity:0.1"></path><path d="M325.31,178v-5.77l.64.1c2.33.35,10.25,1.57,10.73,1.63s2.28-2.68,3.08-2.52c.35.08.69,1.6.82,3.25.16,2,0,4.17-.82,4.17s-2.17-1.93-2.61-2C336.41,176.78,325.31,178,325.31,178Z" style="fill:#FFC727"></path><path d="M339.86,172.08s-.7,3.86.19,6.15Z" style="fill:#263238"></path><path d="M326,172.29c2.33.35,10.25,1.57,10.73,1.63s2.28-2.68,3.08-2.52c.35.08.69,1.6.82,3.25a4.25,4.25,0,0,0-.68-1.54.59.59,0,0,0-.17-.12c-.2-.12-.4-.06-.63.14-.6.53-1.33,1.79-1.94,1.83S326.27,172.39,326,172.29Z" style="opacity:0.1"></path><path d="M322.19,164.17l-4.07-4.07.21-.16,0,0,9-6.62c.45-.34-.28-3.52.4-4,.45-.31,3.27,1.78,4.63,3.46.62.77.94,1.44.61,1.78-.64.64-2.91.17-3.24.45C329.21,155.49,322.19,164.17,322.19,164.17Z" style="fill:#FFC727"></path><path d="M328.33,149.73s2.23,3.22,4.48,4.21Z" style="fill:#263238"></path><path d="M318.37,159.91l9-6.62c.45-.34-.28-3.52.4-4,.45-.31,3.27,1.78,4.63,3.46a9.91,9.91,0,0,0-2.46-1.54,2.21,2.21,0,0,0-.56-.16c-.26-.05-.44,0-.49.14-.21.65.29,2.06-.09,2.71S319.07,159.54,318.37,159.91Z" style="opacity:0.1"></path><path d="M310.24,156.63h-5.76v0c.1-.64,1.66-10.8,1.73-11.34s-2.68-2.29-2.52-3.07,6.33-1.4,7.29-.31a.46.46,0,0,1,.13.31c0,.9-1.93,2.17-2,2.6C309.07,145.54,310.24,156.63,310.24,156.63Z" style="fill:#FFC727"></path><path d="M304.37,142.08s3.86.7,6.15-.19Z" style="fill:#263238"></path><path d="M304.48,156.6c.1-.64,1.66-10.8,1.73-11.34s-2.68-2.29-2.52-3.07,6.33-1.4,7.29-.31a5.55,5.55,0,0,0-4.5.13,3.92,3.92,0,0,0-.47.27c-.23.17-.36.34-.34.47.15.64,1.49,1.64,1.43,2.57S304.64,156,304.48,156.6Z" style="opacity:0.1"></path><path d="M285.57,154.56c-.23-.33-2,0-3.1-.11a1.16,1.16,0,0,1-.86-.28c-.44-.67,4.18-6.31,5.24-5.25.65.64.17,2.9.45,3.24s3.78,3.21,6.36,5.31l0,0c1.54,1.27,2.76,2.25,2.76,2.25l-4.07,4.08S285.91,155,285.57,154.56Z" style="fill:#FFC727"></path><path d="M282,153.61s3.22-2.23,4.21-4.48Z" style="fill:#263238"></path><path d="M282.47,154.45a1.16,1.16,0,0,1-.86-.28c-.44-.67,4.18-6.31,5.24-5.25.65.64.17,2.9.45,3.24s3.78,3.21,6.36,5.31c-2.66-1.49-7-4.25-7.17-4.64s-.24-2-.94-2.1a.84.84,0,0,0-.47.12,7.91,7.91,0,0,0-1.47,1.06,8.54,8.54,0,0,0-1.29,1.38,2.12,2.12,0,0,0-.15.21c-.17.27-.23.49-.16.63A.94.94,0,0,0,282.47,154.45Z" style="opacity:0.1"></path><path d="M274.47,178.25c-.19,0-.37-.5-.52-1.16-.48-2.09-.63-6.25.52-6.26.91,0,2.18,1.94,2.61,2s6.05-.5,9.36-.85h0l2.46-.25v5.76l-11.36-1.74C277,175.65,275.26,178.41,274.47,178.25Z" style="fill:#FFC727"></path><path d="M274.36,177.57s.7-3.86-.18-6.15Z" style="fill:#263238"></path><path d="M274,177.09c-.48-2.09-.63-6.25.52-6.26.91,0,2.18,1.94,2.61,2s6.05-.5,9.36-.85c-3.1.62-9.12,1.82-9.38,1.75s-1.91-1.56-2.44-1.16a.55.55,0,0,0-.12.16,2.88,2.88,0,0,0-.26.84A18.8,18.8,0,0,0,274,177.09Z" style="opacity:0.1"></path><path d="M283.37,198.45c-1.44-1.28-2.72-2.81-2.16-3.37s2.9-.17,3.23-.45c.5-.41,5.68-6.78,7.18-8.64h0l.4-.51,4.08,4.08-9.26,6.8c-.45.34.27,3.52-.39,4C286.14,200.54,284.69,199.6,283.37,198.45Z" style="fill:#FFC727"></path><path d="M285.9,199.92s-2.24-3.22-4.48-4.21Z" style="fill:#263238"></path><path d="M283.37,198.45c-1.44-1.28-2.72-2.81-2.16-3.37s2.9-.17,3.23-.45c.5-.41,5.68-6.78,7.18-8.64h0s-6.12,9.64-6.64,9.72-2.58-.13-2.66.52a1,1,0,0,0,.07.41A9.25,9.25,0,0,0,283.37,198.45Z" style="opacity:0.1"></path><path d="M303.12,207.47c0-.49.55-1.07,1.06-1.57s.9-.84.91-1c.07-.74-1.1-11.84-1.1-11.84h5.76l-.36,2.34v0c-.5,3.22-1.33,8.62-1.38,9-.07.55,2.68,2.29,2.53,3.08S303.12,209,303.12,207.47Z" style="fill:#FFC727"></path><path d="M309.86,207.58s-3.86-.7-6.15.18Z" style="fill:#263238"></path><path d="M303.12,207.47c0-.49.55-1.07,1.06-1.57a12.64,12.64,0,0,0-.05,1.41.43.43,0,0,0,.16.27,1.54,1.54,0,0,0,.36.16,6.47,6.47,0,0,0,2.75-.09,3.31,3.31,0,0,0,.81-.28h0c.19-.1.3-.21.3-.33,0-.73-1.57-2-1.41-3.08.12-.75,1.51-5.77,2.29-8.57-.5,3.22-1.33,8.62-1.38,9-.07.55,2.68,2.29,2.53,3.08S303.12,209,303.12,207.47Z" style="opacity:0.1"></path><path d="M327.37,200.73c-.65-.64-.17-2.9-.45-3.24-.48-.57-9.15-7.59-9.15-7.59l4.08-4.07s.25.33.65.89h0l6.15,8.37c.34.44,3.52-.29,4,.39.23.33-.88,2-2.15,3.37h0C329.25,200.18,327.89,201.25,327.37,200.73Z" style="fill:#FFC727"></path><path d="M332.21,196s-3.22,2.24-4.21,4.48Z" style="fill:#263238"></path><path d="M330.47,198.86a6.13,6.13,0,0,0,.65-1.65,1.17,1.17,0,0,0,0-.36c0-.33-.14-.55-.45-.6-.84-.15-2.39.38-2.87,0s-5.15-9.17-5.34-9.52l6.15,8.37c.34.44,3.52-.29,4,.39C332.85,195.82,331.74,197.48,330.47,198.86Z" style="opacity:0.1"></path><g style="opacity:0.1"><path d="M301.78,190.58c-.25.53-1.17.63-2.06.22s-1.42-1.18-1.17-1.71,1.17-.64,2.06-.23S302,190,301.78,190.58Z"></path><path d="M301.19,192.49a6,6,0,0,1-3.53-1.68,1.85,1.85,0,0,1-.57-2.07c.37-1,1.27-.92,2.14-1,0,0,.06-.08,0-.09-1.49-.17-3.27.45-3,2.28.32,2.15,3,3,4.91,2.91C301.34,192.83,301.39,192.52,301.19,192.49Z"></path><path d="M310.9,160.9c-.06.59-1.18.95-2.49.81s-2.32-.73-2.26-1.32,1.18-.95,2.49-.81S311,160.32,310.9,160.9Z"></path><path d="M307,162.64a5.3,5.3,0,0,1-1.74-1.08,1.45,1.45,0,0,1,.13-2.15,4.41,4.41,0,0,1,3.51-.92.06.06,0,0,0,0-.12c-1.46-.27-3.78-.1-4.64,1.33-1.1,1.85,1.26,2.84,2.68,3.17C307.07,162.9,307.11,162.69,307,162.64Z"></path><path d="M322.25,174.73c0,.59-.82,1.05-1.8,1s-1.77-.53-1.76-1.12.83-1,1.81-1S322.27,174.14,322.25,174.73Z"></path><path d="M320.29,177.1a7.41,7.41,0,0,1-2.75-1.37c-1.4-1.49.76-2.41,1.94-2.76a.05.05,0,1,0,0-.1c-1.27.11-3.23.9-2.95,2.5s2.42,2.26,3.76,2A.16.16,0,0,0,320.29,177.1Z"></path><path d="M293.53,176.27c.09.45-.44.93-1.18,1.09s-1.43-.09-1.52-.54.44-.93,1.18-1.09S293.44,175.82,293.53,176.27Z"></path><path d="M292.47,178.4a5.73,5.73,0,0,1-2.32-.55c-1.32-.88.15-2,1-2.43,0,0,0-.09,0-.07-1,.31-2.29,1.25-1.79,2.41s2.22,1.28,3.19.87A.12.12,0,0,0,292.47,178.4Z"></path><path d="M329.12,179.23c.12.72-.75,1.48-1.95,1.69s-2.29-.21-2.41-.93.75-1.48,1.95-1.69S329,178.51,329.12,179.23Z"></path><path d="M324.8,178s0-.07,0-.05c-1.14.86-2.73,2.26-1.59,3.8a3.43,3.43,0,0,0,4.3.68.13.13,0,0,0-.08-.23,5.88,5.88,0,0,1-3.11-.39C322.42,180.88,323.72,179,324.8,178Z"></path></g></g></svg>